<?xml version="1.0" encoding="iso-8859-1"?>
<!-- Generator: Adobe Illustrator 19.0.0, SVG Export Plug-In . SVG Version: 6.00 Build 0)  -->
<svg xmlns="http://www.w3.org/2000/svg" xmlns:xlink="http://www.w3.org/1999/xlink" version="1.1" id="Capa_1" x="0px" y="0px" viewBox="0 0 511.998 511.998" style="enable-background:new 0 0 511.998 511.998;" xml:space="preserve">
<path style="fill:#F4BA64;" d="M251.482,29.797c-10.502-12.581-25.924-19.795-42.312-19.795s-31.81,7.215-42.312,19.795  c-10.502,12.581-14.846,29.043-11.919,45.167l20.902,115.144c8.684-8.24,20.413-13.289,33.329-13.289s24.639,5.043,33.323,13.283  l20.908-115.138C266.329,58.84,261.984,42.377,251.482,29.797z"/>
<g>
	<path style="fill:#54E3EA;" d="M157.269,87.79H53.535c-12.445,0-22.534,10.089-22.534,22.534l0,0   c0,12.445,10.089,22.534,22.534,22.534h56.466v22.534c0,12.445,10.089,22.534,22.534,22.534h41.096L157.269,87.79z"/>
	<path style="fill:#54E3EA;" d="M479.466,42.723H259.542c4.456,10.003,5.864,21.2,3.86,32.24l-18.691,102.963h67.116   c12.445,0,22.534-10.089,22.534-22.534v-22.534h45.106c12.445,0,22.534-10.089,22.534-22.534V87.79h77.466   C491.911,87.79,502,77.701,502,65.256S491.911,42.723,479.466,42.723z"/>
</g>
<path d="M209.17,58.221c-0.65,0-1.31-0.07-1.95-0.2c-0.64-0.13-1.27-0.319-1.87-0.569c-0.61-0.25-1.19-0.561-1.73-0.921  c-0.55-0.359-1.06-0.779-1.52-1.239c-0.46-0.471-0.88-0.98-1.24-1.521c-0.36-0.55-0.67-1.13-0.92-1.729  c-0.25-0.6-0.45-1.23-0.57-1.87c-0.13-0.641-0.2-1.3-0.2-1.95s0.07-1.309,0.2-1.96c0.12-0.63,0.32-1.26,0.57-1.87  c0.25-0.6,0.56-1.18,0.92-1.72c0.36-0.55,0.78-1.061,1.24-1.521c0.46-0.46,0.97-0.88,1.52-1.25c0.54-0.359,1.12-0.67,1.73-0.92  c0.6-0.25,1.23-0.439,1.87-0.569c1.29-0.261,2.61-0.261,3.9,0c0.64,0.13,1.27,0.319,1.88,0.569c0.6,0.25,1.18,0.561,1.72,0.92  c0.55,0.37,1.06,0.79,1.52,1.25c0.46,0.46,0.88,0.971,1.24,1.521c0.36,0.54,0.67,1.12,0.92,1.72c0.25,0.61,0.45,1.24,0.57,1.87  c0.13,0.65,0.2,1.31,0.2,1.96c0,0.65-0.07,1.31-0.2,1.95c-0.12,0.64-0.32,1.27-0.57,1.87c-0.25,0.6-0.56,1.18-0.92,1.729  c-0.36,0.54-0.78,1.05-1.24,1.521C214.38,57.151,211.8,58.221,209.17,58.221z"/>
<path style="fill:#FF8C5A;" d="M257.609,225.257c-0.005,26.738-21.694,48.448-48.439,48.439  c-26.73-0.009-48.426-21.706-48.439-48.439c-0.013-26.752,21.687-48.439,48.439-48.439S257.614,198.505,257.609,225.257z"/>
<path style="fill:#007177;" d="M209.171,273.694c-9.763,0-18.844-2.898-26.45-7.867v184.171h52.899V265.827  C228.014,270.796,218.933,273.694,209.171,273.694z"/>
<g>
	<path style="fill:#F4BA64;" d="M401.23,247.15c-8.043-14.278-21.898-24.174-38.013-27.15L249.933,199.08   c4.862,7.551,7.675,16.529,7.675,26.177c0,17.543-9.334,32.895-23.298,41.395c0.441-0.268,0.878-0.541,1.309-0.823v1.934   l89.167,53.665c8.598,5.174,18.404,7.909,28.357,7.909c22.798,0,43.536-14.308,51.606-35.605   C410.556,278.406,409.274,261.428,401.23,247.15z"/>
	<path style="fill:#F4BA64;" d="M182.722,265.827c0.43,0.281,0.867,0.554,1.306,0.821c-13.963-8.5-23.296-23.851-23.296-41.393   c0-9.648,2.816-18.629,7.677-26.18L55.123,220.001c-16.115,2.976-29.97,12.872-38.013,27.15s-9.326,31.256-3.519,46.581   c8.069,21.297,28.808,35.605,51.605,35.605c0.001,0,0.001,0,0.001,0c9.952,0,19.758-2.735,28.356-7.909l89.166-53.665v-1.935   H182.722z"/>
</g>
<path style="fill:#FF8C5A;" d="M302.56,501.998H115.782v-26.785c0-13.926,11.289-25.215,25.215-25.215h136.348  c13.926,0,25.215,11.289,25.215,25.215L302.56,501.998L302.56,501.998z"/>
<path d="M365.461,96.65c-0.66,0-1.31-0.069-1.96-0.199c-0.64-0.12-1.27-0.311-1.87-0.561c-0.6-0.25-1.18-0.56-1.73-0.92  c-0.54-0.37-1.06-0.79-1.52-1.25c-0.46-0.46-0.87-0.97-1.24-1.52c-0.36-0.54-0.67-1.12-0.92-1.721c-0.25-0.609-0.44-1.239-0.57-1.87  c-0.13-0.649-0.19-1.31-0.19-1.96c0-0.649,0.06-1.31,0.19-1.949c0.13-0.641,0.32-1.271,0.57-1.87c0.25-0.61,0.56-1.19,0.92-1.73  c0.36-0.55,0.78-1.06,1.24-1.52c0.46-0.46,0.98-0.88,1.52-1.24c0.55-0.36,1.13-0.67,1.73-0.92c0.6-0.25,1.23-0.44,1.87-0.57  c1.29-0.26,2.62-0.26,3.91,0c0.64,0.13,1.27,0.32,1.87,0.57s1.18,0.56,1.73,0.92c0.54,0.36,1.06,0.78,1.52,1.24  c0.46,0.46,0.88,0.97,1.24,1.52c0.36,0.54,0.67,1.12,0.92,1.73c0.25,0.6,0.44,1.229,0.57,1.87c0.13,0.64,0.19,1.3,0.19,1.949  c0,0.65-0.06,1.311-0.19,1.96c-0.13,0.631-0.32,1.261-0.57,1.87c-0.25,0.601-0.56,1.181-0.92,1.721c-0.36,0.55-0.78,1.06-1.24,1.52  c-0.46,0.46-0.98,0.88-1.52,1.25c-0.54,0.36-1.13,0.67-1.73,0.92s-1.23,0.44-1.87,0.561C366.771,96.58,366.11,96.65,365.461,96.65z"/>
<path d="M479.466,32.724H265.651c-1.876-3.264-4.035-6.393-6.492-9.336C246.752,8.526,228.532,0.001,209.17,0.001  c-19.361,0-37.581,8.524-49.988,23.387c-12.408,14.863-17.54,34.313-14.082,53.361l0.189,1.042H53.535  c-17.939,0-32.534,14.595-32.534,32.534c0,17.938,14.595,32.533,32.534,32.533h46.466v12.534c0,17.939,14.595,32.534,32.534,32.534  h31.674c-0.563,0.675-1.105,1.363-1.635,2.059L53.307,210.167C34.269,213.683,17.9,225.374,8.4,242.241  c-9.503,16.868-11.019,36.927-4.158,55.032c9.532,25.158,34.029,42.061,60.958,42.061c11.768,0,23.356-3.229,33.513-9.341  l74.011-44.543v154.547h-31.726c-19.418,0-35.215,15.797-35.215,35.215v26.785c0,5.523,4.477,10,10,10H302.56  c5.523,0,10-4.477,10-10v-26.785c0-19.418-15.797-35.215-35.215-35.215H245.62V285.451l74.012,44.543  c10.155,6.11,21.744,9.341,33.513,9.341c26.927,0,51.424-16.903,60.957-42.061c6.86-18.105,5.345-38.164-4.158-55.032l0,0  c-9.502-16.868-25.871-28.56-44.91-32.075l-109.268-20.179c-0.53-0.697-1.073-1.386-1.637-2.062h57.697  c17.939,0,32.534-14.595,32.534-32.534v-12.534h35.106c17.939,0,32.534-14.595,32.534-32.533V97.79h67.466  c17.939,0,32.534-14.595,32.534-32.534C512,47.319,497.405,32.724,479.466,32.724z M206.699,263.605  c-0.243-0.016-0.486-0.036-0.728-0.056c-0.645-0.053-1.288-0.124-1.928-0.21c-0.192-0.026-0.385-0.045-0.576-0.073  c-0.771-0.116-1.537-0.258-2.298-0.419c-0.264-0.056-0.524-0.12-0.786-0.182c-0.538-0.126-1.072-0.265-1.603-0.414  c-0.283-0.08-0.567-0.155-0.847-0.241c-0.688-0.211-1.37-0.44-2.046-0.69c-0.323-0.119-0.64-0.251-0.959-0.379  c-0.408-0.163-0.814-0.333-1.217-0.511c-0.354-0.156-0.708-0.312-1.057-0.479c-0.497-0.237-0.986-0.49-1.473-0.749  c-0.473-0.252-0.939-0.516-1.4-0.787c-0.294-0.172-0.587-0.348-0.877-0.529c-0.294-0.183-0.586-0.37-0.875-0.561  c-0.136-0.09-0.274-0.177-0.409-0.268c-0.471-0.32-0.935-0.649-1.39-0.99c-0.025-0.019-0.05-0.038-0.075-0.056  c-7.756-5.821-13.243-14.504-14.896-24.463c-0.038-0.234-0.079-0.467-0.113-0.702c-0.059-0.404-0.109-0.81-0.156-1.218  c-0.045-0.399-0.083-0.799-0.115-1.2c-0.026-0.313-0.054-0.626-0.072-0.941c-0.042-0.733-0.07-1.469-0.07-2.21  c0-0.008-0.001-0.015-0.001-0.023c0-0.844,0.035-1.685,0.09-2.522c0.011-0.168,0.024-0.335,0.037-0.502  c0.136-1.736,0.38-3.455,0.745-5.143c0.004-0.019,0.009-0.038,0.013-0.057c0.968-4.442,2.719-8.685,5.201-12.539  c0.004-0.007,0.007-0.014,0.011-0.021c1.473-2.281,3.19-4.427,5.157-6.392c0.326-0.326,0.663-0.638,0.998-0.951  c0.276-0.257,0.556-0.51,0.839-0.759c0.181-0.159,0.363-0.316,0.546-0.472c0.298-0.252,0.599-0.501,0.904-0.743  c0.17-0.135,0.341-0.269,0.513-0.401c0.328-0.252,0.659-0.5,0.995-0.741c0.151-0.109,0.303-0.215,0.455-0.321  c0.363-0.253,0.729-0.501,1.099-0.741c0.127-0.082,0.256-0.163,0.384-0.244c0.399-0.252,0.802-0.498,1.21-0.734  c0.102-0.059,0.206-0.117,0.309-0.175c0.435-0.247,0.874-0.487,1.317-0.717c0.079-0.041,0.16-0.08,0.239-0.12  c0.467-0.237,0.938-0.467,1.415-0.685c0.061-0.028,0.123-0.054,0.185-0.082c0.494-0.222,0.993-0.437,1.496-0.638  c0.048-0.019,0.097-0.037,0.145-0.056c0.515-0.204,1.035-0.398,1.559-0.579c0.044-0.015,0.089-0.029,0.133-0.044  c0.527-0.18,1.058-0.35,1.593-0.507c0.051-0.015,0.103-0.028,0.154-0.043c0.528-0.152,1.058-0.295,1.593-0.425  c0.074-0.018,0.15-0.033,0.224-0.05c0.513-0.121,1.028-0.235,1.547-0.335c0.115-0.022,0.23-0.039,0.345-0.06  c0.481-0.088,0.963-0.172,1.448-0.242c0.183-0.026,0.368-0.044,0.552-0.068c0.422-0.055,0.843-0.11,1.268-0.151  c0.297-0.028,0.596-0.044,0.894-0.066c0.318-0.023,0.634-0.052,0.953-0.068c0.623-0.03,1.248-0.046,1.875-0.046  c0.628,0,1.253,0.016,1.875,0.046c0.317,0.015,0.632,0.045,0.948,0.067c0.3,0.022,0.6,0.037,0.899,0.066  c0.418,0.04,0.834,0.095,1.249,0.149c0.19,0.024,0.382,0.043,0.572,0.07c0.47,0.068,0.936,0.15,1.402,0.235  c0.132,0.024,0.264,0.043,0.396,0.068c0.5,0.096,0.997,0.207,1.492,0.323c0.093,0.022,0.187,0.04,0.28,0.063  c0.512,0.124,1.02,0.262,1.526,0.407c0.075,0.021,0.151,0.04,0.226,0.062c0.51,0.15,1.016,0.313,1.519,0.483  c0.07,0.024,0.141,0.046,0.211,0.07c0.496,0.172,0.988,0.356,1.476,0.548c0.077,0.031,0.156,0.059,0.233,0.09  c0.473,0.19,0.942,0.392,1.408,0.6c0.092,0.041,0.185,0.081,0.277,0.123c0.444,0.203,0.883,0.418,1.319,0.638  c0.114,0.058,0.229,0.114,0.342,0.172c0.409,0.212,0.813,0.434,1.215,0.66c0.139,0.079,0.279,0.156,0.417,0.237  c0.371,0.215,0.737,0.44,1.102,0.668c0.166,0.105,0.333,0.208,0.498,0.315c0.333,0.216,0.662,0.44,0.989,0.667  c0.19,0.132,0.38,0.265,0.568,0.401c0.298,0.215,0.592,0.436,0.885,0.659c0.21,0.161,0.419,0.324,0.627,0.49  c0.267,0.213,0.531,0.431,0.793,0.652c0.222,0.188,0.443,0.378,0.661,0.571c0.245,0.216,0.488,0.436,0.729,0.659  c0.354,0.329,0.708,0.658,1.051,1.001c1.987,1.987,3.72,4.158,5.203,6.467c2.447,3.813,4.178,8.004,5.146,12.393  c0.016,0.072,0.033,0.143,0.048,0.215c0.184,0.86,0.342,1.726,0.467,2.599c0.002,0.012,0.003,0.024,0.004,0.036  c0.114,0.797,0.194,1.602,0.258,2.408c0.015,0.188,0.029,0.377,0.041,0.565c0.053,0.829,0.089,1.66,0.089,2.496v0.007  c0,0.752-0.029,1.5-0.071,2.244c-0.014,0.248-0.036,0.494-0.054,0.742c-0.039,0.505-0.087,1.007-0.145,1.507  c-0.032,0.277-0.064,0.555-0.102,0.831c-0.069,0.504-0.153,1.004-0.242,1.502c-0.043,0.24-0.077,0.481-0.125,0.719  c-0.13,0.656-0.28,1.305-0.443,1.95c-0.094,0.37-0.2,0.735-0.304,1.101c-0.087,0.306-0.176,0.612-0.27,0.915  c-0.129,0.412-0.263,0.823-0.406,1.231c-0.075,0.213-0.155,0.423-0.233,0.635c-1.673,4.511-4.194,8.694-7.492,12.346  c-0.032,0.036-0.065,0.072-0.097,0.108c-0.38,0.418-0.771,0.827-1.172,1.23c-0.148,0.148-0.299,0.293-0.45,0.439  c-0.325,0.317-0.65,0.633-0.984,0.937c-0.544,0.492-1.099,0.974-1.674,1.438c-0.007,0.006-0.014,0.011-0.021,0.016  c-1.144,0.92-2.358,1.774-3.621,2.573c-5.286,3.352-11.264,5.348-17.481,5.84c-0.167,0.013-0.335,0.026-0.503,0.037  c-0.846,0.056-1.694,0.092-2.547,0.092c-0.003,0-0.007,0-0.01,0C208.338,263.693,207.517,263.657,206.699,263.605z M174.537,36.204  c8.596-10.297,21.22-16.203,34.635-16.203c13.415,0,26.039,5.906,34.635,16.203c3.169,3.796,5.646,8.025,7.4,12.511  c0.072,0.185,0.141,0.37,0.211,0.556c0.219,0.583,0.428,1.17,0.622,1.761c0.034,0.102,0.07,0.204,0.103,0.306  c0.231,0.719,0.443,1.443,0.637,2.172c0.023,0.087,0.044,0.174,0.067,0.262c0.182,0.701,0.349,1.406,0.497,2.116  c0.01,0.048,0.021,0.097,0.031,0.145c0.318,1.551,0.554,3.12,0.707,4.701c0.005,0.052,0.011,0.104,0.016,0.155  c0.145,1.547,0.206,3.105,0.189,4.669c-0.001,0.113-0.002,0.227-0.004,0.34c-0.014,0.771-0.044,1.544-0.098,2.317  c-0.001,0.008-0.002,0.017-0.002,0.026c-0.051,0.725-0.126,1.45-0.212,2.175c-0.022,0.183-0.044,0.366-0.068,0.549  c-0.095,0.725-0.202,1.45-0.333,2.174c-0.002,0.013-0.004,0.025-0.006,0.037l-0.865,4.767l-17.267,95.084  c-0.067-0.034-0.137-0.062-0.205-0.096c-0.887-0.443-1.783-0.862-2.691-1.258c-0.086-0.038-0.172-0.077-0.258-0.114  c-3.035-1.306-6.178-2.353-9.406-3.125c-0.152-0.036-0.305-0.067-0.458-0.103c-0.873-0.201-1.752-0.384-2.637-0.545  c-0.202-0.037-0.403-0.076-0.606-0.111v-84.43c0-5.522-4.477-10-10-10c-5.523,0-10,4.478-10,10v84.43  c-0.2,0.034-0.398,0.072-0.598,0.109c-0.898,0.164-1.79,0.349-2.677,0.554c-0.138,0.032-0.278,0.06-0.416,0.093  c-3.246,0.776-6.407,1.83-9.457,3.145c-0.051,0.022-0.101,0.045-0.152,0.067c-0.951,0.413-1.89,0.854-2.818,1.318  c-0.049,0.024-0.099,0.045-0.148,0.069l-15.166-83.551l-2.959-16.303C162.383,59.979,165.94,46.503,174.537,36.204z   M120.002,155.392v-22.534c0-5.522-4.477-10-10-10H53.535c-6.911,0-12.534-5.622-12.534-12.533c0-6.911,5.623-12.534,12.534-12.534  h95.385l12.732,70.136h-29.117C125.624,167.926,120.002,162.303,120.002,155.392z M88.399,312.858  c-7.043,4.237-15.066,6.478-23.202,6.478c-18.667,0-35.648-11.714-42.254-29.147c-4.753-12.545-3.704-26.442,2.881-38.131  c6.583-11.688,17.924-19.787,31.116-22.223l95.25-17.594c-0.005,0.021-0.008,0.044-0.013,0.065c-0.217,0.963-0.409,1.933-0.577,2.91  c-0.024,0.136-0.048,0.273-0.071,0.409c-0.145,0.88-0.269,1.765-0.374,2.655c-0.024,0.199-0.051,0.396-0.073,0.595  c-0.092,0.852-0.161,1.709-0.216,2.569c-0.014,0.213-0.035,0.425-0.046,0.639c-0.055,1.043-0.088,2.09-0.088,3.143  c0,0.01-0.001,0.019-0.001,0.029v0.002v0.002c0,0.02,0.001,0.039,0.001,0.058c0.001,0.98,0.027,1.955,0.076,2.926  c0.003,0.061,0.01,0.121,0.013,0.182c0.748,14.143,6.48,27.222,16.06,37.197L88.399,312.858z M292.56,475.213v16.785H125.782  v-16.785c0-8.39,6.825-15.215,15.215-15.215h41.726h52.899h41.725C285.735,459.998,292.56,466.823,292.56,475.213z M192.722,439.998  V281.337c1.434,0.421,2.889,0.78,4.357,1.087c0.336,0.071,0.675,0.134,1.014,0.199c0.431,0.082,0.863,0.16,1.297,0.232  c0.483,0.082,0.966,0.162,1.453,0.232c0.012,0.002,0.024,0.003,0.036,0.005c2.709,0.388,5.474,0.6,8.289,0.601  c0.008,0,0.015,0,0.022,0c5.643,0,11.16-0.807,16.431-2.345v158.65H192.722z M266.152,212.244l95.25,17.591  c13.191,2.436,24.532,10.535,31.116,22.224c0,0,0,0,0.001,0c6.583,11.687,7.633,25.585,2.88,38.129  c-6.606,17.435-23.587,29.148-42.255,29.148c-8.136,0-16.159-2.24-23.2-6.478l-78.485-47.235  c8.953-9.322,14.545-21.356,15.85-34.434c0.005-0.046,0.012-0.091,0.017-0.137c0.083-0.857,0.143-1.72,0.19-2.585  c0.006-0.102,0.017-0.204,0.022-0.306c0.046-0.94,0.068-1.885,0.07-2.834c0-0.023,0.002-0.046,0.002-0.069v-0.001v-0.001  c0-0.004,0-0.009,0-0.013c0-1.051-0.033-2.097-0.088-3.139c-0.014-0.253-0.039-0.504-0.055-0.757  c-0.053-0.811-0.118-1.62-0.204-2.424c-0.027-0.25-0.061-0.499-0.092-0.749c-0.099-0.826-0.213-1.648-0.347-2.465  c-0.033-0.2-0.068-0.399-0.103-0.598c-0.156-0.898-0.333-1.79-0.53-2.676C266.176,212.372,266.166,212.308,266.152,212.244z   M479.466,77.79H402c-5.523,0-10,4.478-10,10v22.534c0,6.911-5.623,12.533-12.534,12.533h-45.106c-5.523,0-10,4.478-10,10v22.534  c0,6.911-5.623,12.534-12.534,12.534h-55.138l12.938-71.274h60.8c5.523,0,10-4.477,10-10c0-5.522-4.477-10-10-10h-57.172  c0.001-0.003,0.001-0.006,0.001-0.01c0.193-1.075,0.355-2.151,0.495-3.228c0.043-0.336,0.074-0.672,0.112-1.008  c0.09-0.792,0.171-1.585,0.232-2.377c0.028-0.365,0.048-0.729,0.07-1.094c0.047-0.784,0.081-1.567,0.099-2.35  c0.008-0.34,0.015-0.68,0.018-1.02c0.007-0.85-0.005-1.698-0.032-2.545c-0.008-0.264-0.011-0.528-0.023-0.792  c-0.047-1.077-0.117-2.151-0.217-3.223c-0.003-0.032-0.004-0.064-0.007-0.096c-0.11-1.157-0.251-2.31-0.423-3.459  c-0.013-0.089-0.032-0.177-0.045-0.267c-0.127-0.823-0.26-1.644-0.419-2.462h206.349c6.911,0,12.534,5.622,12.534,12.533  C492,72.167,486.377,77.79,479.466,77.79z"/>
<g>
</g>
<g>
</g>
<g>
</g>
<g>
</g>
<g>
</g>
<g>
</g>
<g>
</g>
<g>
</g>
<g>
</g>
<g>
</g>
<g>
</g>
<g>
</g>
<g>
</g>
<g>
</g>
<g>
</g>
</svg>
