<?xml version="1.0" encoding="iso-8859-1"?>
<!-- Generator: Adobe Illustrator 19.0.0, SVG Export Plug-In . SVG Version: 6.00 Build 0)  -->
<svg xmlns="http://www.w3.org/2000/svg" xmlns:xlink="http://www.w3.org/1999/xlink" version="1.1" id="Capa_1" x="0px" y="0px" viewBox="0 0 512 512" style="enable-background:new 0 0 512 512;" xml:space="preserve">
<path d="M438.66,408.52c-0.65,0-1.311-0.06-1.95-0.19c-0.641-0.13-1.271-0.32-1.87-0.57c-0.61-0.25-1.19-0.56-1.73-0.92  c-0.55-0.37-1.06-0.78-1.52-1.25c-0.46-0.46-0.88-0.97-1.24-1.52c-0.359-0.54-0.67-1.12-0.92-1.72c-0.25-0.61-0.44-1.24-0.57-1.87  c-0.13-0.65-0.199-1.3-0.199-1.96c0-0.65,0.069-1.31,0.199-1.95c0.131-0.64,0.32-1.27,0.57-1.87s0.56-1.19,0.92-1.73  c0.36-0.55,0.78-1.06,1.24-1.52s0.97-0.88,1.52-1.24c0.54-0.36,1.12-0.67,1.73-0.92c0.6-0.25,1.229-0.44,1.87-0.57  c1.29-0.26,2.62-0.26,3.91,0c0.63,0.13,1.26,0.32,1.87,0.57c0.6,0.25,1.18,0.56,1.72,0.92c0.55,0.36,1.059,0.78,1.52,1.24  c0.46,0.46,0.88,0.97,1.25,1.52c0.36,0.54,0.67,1.13,0.92,1.73s0.44,1.23,0.57,1.87c0.13,0.64,0.191,1.3,0.191,1.95  c0,0.66-0.061,1.31-0.191,1.96c-0.13,0.63-0.32,1.26-0.57,1.87c-0.25,0.6-0.56,1.18-0.92,1.72c-0.37,0.55-0.79,1.06-1.25,1.52  c-0.46,0.47-0.97,0.88-1.52,1.25c-0.54,0.36-1.12,0.67-1.72,0.92c-0.61,0.25-1.24,0.44-1.87,0.57  C439.97,408.46,439.31,408.52,438.66,408.52z"/>
<path d="M395.609,408.523H73.338c-5.522,0-10-4.477-10-10s4.478-10,10-10h322.271c5.522,0,10,4.477,10,10  C405.609,404.046,401.132,408.523,395.609,408.523z"/>
<path d="M99.89,368.24c-0.649,0-1.31-0.07-1.95-0.2c-0.64-0.12-1.27-0.32-1.88-0.57c-0.6-0.24-1.18-0.55-1.72-0.91  c-0.55-0.37-1.06-0.79-1.521-1.25c-0.46-0.46-0.88-0.97-1.239-1.52c-0.36-0.54-0.67-1.12-0.92-1.72c-0.25-0.61-0.45-1.24-0.57-1.88  c-0.13-0.64-0.2-1.3-0.2-1.95c0-0.65,0.07-1.31,0.2-1.95c0.12-0.64,0.32-1.27,0.57-1.87c0.25-0.61,0.56-1.19,0.92-1.73  c0.359-0.55,0.779-1.06,1.239-1.52c0.461-0.46,0.971-0.88,1.521-1.24c0.54-0.36,1.12-0.67,1.72-0.92c0.61-0.25,1.24-0.45,1.88-0.57  c1.29-0.26,2.62-0.26,3.91,0c0.63,0.12,1.26,0.32,1.87,0.57c0.6,0.25,1.18,0.56,1.72,0.92c0.551,0.36,1.06,0.78,1.521,1.24  c0.46,0.46,0.88,0.97,1.24,1.52c0.359,0.54,0.67,1.12,0.92,1.73c0.25,0.6,0.449,1.23,0.569,1.87c0.13,0.64,0.2,1.3,0.2,1.95  c0,0.65-0.07,1.31-0.2,1.95c-0.12,0.64-0.319,1.27-0.569,1.88c-0.25,0.6-0.561,1.18-0.92,1.72c-0.36,0.55-0.78,1.06-1.24,1.52  s-0.97,0.88-1.521,1.25c-0.54,0.36-1.12,0.67-1.72,0.91c-0.61,0.25-1.24,0.45-1.87,0.57C101.2,368.17,100.54,368.24,99.89,368.24z"/>
<path d="M370.361,368.241H133.354c-5.522,0-10-4.477-10-10s4.478-10,10-10h237.007c5.523,0,10,4.477,10,10  C380.361,363.764,375.884,368.241,370.361,368.241z"/>
<path d="M234.474,448.806H99.891c-5.522,0-10-4.477-10-10s4.478-10,10-10h134.583c5.522,0,10,4.477,10,10  S239.996,448.806,234.474,448.806z"/>
<path d="M388.858,512c-5.522,0-10-4.477-10-10s4.478-10,10-10c11.908,0,21.597-9.689,21.597-21.597s-9.689-21.597-21.597-21.597  h-120.92c-5.522,0-10-4.477-10-10s4.478-10,10-10h120.92c22.937,0,41.597,18.66,41.597,41.597S411.795,512,388.858,512z"/>
<polygon style="fill:#F9D973;" points="339.174,203.504 285.081,203.504 284.735,78.137 172.826,203.504 235.716,203.507   235.999,325.159 "/>
<path style="fill:#54E3EA;" d="M399.355,120.618c-10.651,0-20.81,2.087-30.115,5.842c0.029-1.047,0.079-2.088,0.079-3.142  C369.318,60.735,318.584,10,256,10S142.682,60.735,142.682,123.319c0,1.054,0.051,2.095,0.079,3.142  c-9.306-3.755-19.464-5.842-30.116-5.842c-44.487,0-80.552,36.064-80.552,80.552c0,44.487,36.064,80.552,80.552,80.552h123.253  l-0.182-78.215l-62.89-0.002l111.91-125.367l0.345,125.367h54.094l-66.336,78.218h126.517c44.487,0,80.552-36.064,80.552-80.552  C479.907,156.682,443.842,120.618,399.355,120.618z"/>
<path d="M399.354,110.618c-6.941,0-13.786,0.783-20.468,2.335C373.605,49.787,320.508,0,256,0S138.394,49.787,133.113,112.953  c-6.682-1.552-13.526-2.335-20.469-2.335c-49.93,0-90.551,40.621-90.551,90.552s40.621,90.552,90.551,90.552h113.277l0.078,33.46  c0.01,4.19,2.631,7.93,6.566,9.369c1.121,0.41,2.282,0.608,3.432,0.608c2.882,0,5.691-1.248,7.629-3.532l33.844-39.905h121.885  c49.931,0,90.552-40.622,90.552-90.552S449.285,110.618,399.354,110.618z M245.716,203.483c-0.012-5.169-3.944-9.415-8.979-9.925  c-0.336-0.034-0.676-0.051-1.021-0.051l-40.559-0.001l79.651-89.229l0.273,99.256c0.011,3.789,2.128,7.082,5.241,8.769  c0.283,0.153,0.574,0.294,0.873,0.42c0.597,0.252,1.224,0.448,1.874,0.581s1.323,0.202,2.012,0.202h32.5l-52.37,61.749  c-0.001,0.001-0.001,0.002-0.002,0.003l-19.273,22.725L245.716,203.483z M399.354,271.722H294.431l52.369-61.749  c2.52-2.971,3.084-7.135,1.447-10.671c-1.638-3.535-5.179-5.798-9.074-5.798h-44.12l-0.318-115.395  c-0.007-2.33-0.821-4.523-2.221-6.257c-1.089-1.349-2.533-2.42-4.228-3.064c-3.871-1.472-8.253-0.403-11.011,2.689L165.366,196.845  c-2.625,2.94-3.277,7.148-1.667,10.746c1.611,3.598,5.185,5.913,9.127,5.913l52.913,0.002l0.135,58.216h-113.23  c-38.902,0-70.551-31.649-70.551-70.552c0-38.902,31.648-70.552,70.551-70.552c9.089,0,17.962,1.721,26.374,5.115  c3.128,1.263,6.679,0.863,9.447-1.061c2.77-1.924,4.383-5.113,4.291-8.483l-0.032-1.028c-0.02-0.613-0.043-1.225-0.043-1.843  C152.682,66.349,199.03,20,256,20s103.318,46.349,103.318,103.318c0,0.618-0.023,1.23-0.043,1.843l-0.032,1.028  c-0.092,3.371,1.521,6.559,4.291,8.483c2.768,1.923,6.318,2.321,9.447,1.061c8.412-3.394,17.285-5.115,26.373-5.115  c38.902,0,70.552,31.649,70.552,70.552C469.906,240.072,438.257,271.722,399.354,271.722z"/>
<g>
</g>
<g>
</g>
<g>
</g>
<g>
</g>
<g>
</g>
<g>
</g>
<g>
</g>
<g>
</g>
<g>
</g>
<g>
</g>
<g>
</g>
<g>
</g>
<g>
</g>
<g>
</g>
<g>
</g>
</svg>
