<?xml version="1.0" encoding="iso-8859-1"?>
<!-- Generator: Adobe Illustrator 19.0.0, SVG Export Plug-In . SVG Version: 6.00 Build 0)  -->
<svg xmlns="http://www.w3.org/2000/svg" xmlns:xlink="http://www.w3.org/1999/xlink" version="1.1" id="Capa_1" x="0px" y="0px" viewBox="0 0 512 512" style="enable-background:new 0 0 512 512;" xml:space="preserve">
<path style="fill:#007177;" d="M443.032,314.968C443.032,418.263,359.295,502,256,502S68.968,418.263,68.968,314.968  C68.968,158.001,256,10,256,10S443.032,158.001,443.032,314.968z"/>
<path d="M256,512c-108.644,0-197.032-88.389-197.032-197.032c0-37.336,10.173-77.122,30.236-118.256  c15.858-32.513,37.919-65.976,65.569-99.458c46.894-56.785,93.078-93.558,95.021-95.096c3.637-2.877,8.774-2.877,12.41,0  c1.943,1.538,48.128,38.311,95.022,95.096c27.65,33.482,49.711,66.945,65.569,99.458c20.064,41.134,30.236,80.92,30.236,118.256  C453.032,423.612,364.643,512,256,512z M256.002,22.973c-14.142,11.957-50.312,43.979-86.058,87.319  c-41.503,50.321-90.976,126.678-90.976,204.676C78.968,412.584,158.384,492,256,492s177.032-79.416,177.032-177.032  c0-78.112-49.609-154.583-91.227-204.979C306.089,66.74,270.102,34.89,256.002,22.973z"/>
<g>
	<path style="fill:#54E3EA;" d="M256,462c-81.074,0-147.032-65.959-147.032-147.032c0-69.068,45.778-138.222,84.181-184.073   C216.26,103.302,239.35,78.063,255.981,63c16.932,15.34,40.532,41.079,63.859,69.078c37.952,45.554,83.192,114.261,83.192,182.889   C403.032,396.042,337.074,462,256,462z"/>
</g>
<path d="M149.04,328.84c-0.66,0-1.311-0.07-1.96-0.2c-0.641-0.13-1.27-0.32-1.87-0.57c-0.601-0.25-1.18-0.56-1.72-0.92  c-0.551-0.359-1.061-0.779-1.521-1.239c-1.87-1.86-2.93-4.44-2.93-7.07c0-0.65,0.06-1.309,0.189-1.96c0.13-0.63,0.32-1.26,0.57-1.87  c0.25-0.6,0.56-1.18,0.92-1.72c0.37-0.55,0.78-1.061,1.25-1.521c0.46-0.46,0.97-0.88,1.521-1.25c0.54-0.359,1.119-0.67,1.72-0.92  c0.6-0.25,1.23-0.439,1.87-0.569c1.29-0.261,2.62-0.261,3.91,0c0.64,0.13,1.27,0.319,1.869,0.569c0.601,0.25,1.181,0.561,1.73,0.92  c0.54,0.37,1.06,0.79,1.52,1.25s0.881,0.971,1.24,1.521c0.36,0.54,0.67,1.12,0.92,1.72c0.25,0.61,0.44,1.24,0.57,1.87  c0.13,0.65,0.2,1.31,0.2,1.96s-0.07,1.31-0.2,1.95c-0.13,0.64-0.32,1.27-0.57,1.87c-0.25,0.609-0.56,1.189-0.92,1.729  c-0.359,0.55-0.78,1.061-1.24,1.521s-0.979,0.88-1.52,1.239c-0.55,0.36-1.13,0.67-1.73,0.92c-0.6,0.25-1.229,0.44-1.869,0.57  C150.349,328.77,149.689,328.84,149.04,328.84z"/>
<path style="fill:#54E3EA;" d="M290.176,158.943c46.67,56.552,72.856,112.309,72.856,156.026  c0,59.018-48.015,107.032-107.032,107.032c-45.266,0-84.059-28.246-99.68-68.037"/>
<polygon style="fill:#F9D973;" points="354.585,268.867 290.469,268.867 290.06,115.126 157.414,268.867 231.957,268.869   232.293,419.238 "/>
<path d="M327.522,125.677c-24.52-29.431-48.148-54.977-64.828-70.088c-3.81-3.451-9.616-3.452-13.427-0.001  c-16.263,14.729-38.915,39.193-63.785,68.886c-39.468,47.122-86.515,118.423-86.515,190.494C98.967,401.556,169.411,472,255.999,472  s157.032-70.444,157.032-157.032C413.032,243.348,366.532,172.499,327.522,125.677z M353.032,314.968  C353.032,368.472,309.504,412,256,412c-1.613,0-3.219-0.056-4.82-0.138l99.122-121.88  C352.106,298.696,353.032,307.05,353.032,314.968z M280.469,268.893c0.015,5.513,4.487,9.974,10,9.974h43.095L242.23,391.169  l-0.273-122.322c-0.013-5.514-4.485-9.978-10-9.978l-52.708-0.002l100.882-116.926L280.469,268.893z M300.442,258.867l-0.188-70.672  c17.92,24.54,31.558,48.397,40.471,70.672H300.442z M256,452c-75.56,0-137.032-61.473-137.032-137.032  c0-66.064,44.509-133.072,81.847-177.652c20.668-24.675,40.296-46.216,55.17-60.607c8.396,8.105,18.169,18.337,28.685,30.001  c-0.8,0.512-1.538,1.14-2.181,1.885l-132.645,153.74c-2.555,2.961-3.149,7.14-1.521,10.696s5.181,5.836,9.092,5.836l64.565,0.003  l0.283,126.95c-25.381-9.542-46.429-29.513-56.634-55.51c-2.018-5.141-7.818-7.673-12.963-5.654  c-5.141,2.019-7.672,7.822-5.654,12.963c8.502,21.657,23.138,40.156,42.323,53.496c19.651,13.664,42.703,20.887,66.665,20.887  c64.532,0,117.032-52.5,117.032-117.032c0-45.271-25.861-101.845-72.866-159.594l-0.083-31.154c3.976,4.62,8.009,9.38,12.073,14.259  c36.895,44.284,80.875,110.852,80.875,176.488C393.032,390.528,331.559,452,256,452z"/>
<g>
</g>
<g>
</g>
<g>
</g>
<g>
</g>
<g>
</g>
<g>
</g>
<g>
</g>
<g>
</g>
<g>
</g>
<g>
</g>
<g>
</g>
<g>
</g>
<g>
</g>
<g>
</g>
<g>
</g>
</svg>
