<?xml version="1.0" encoding="iso-8859-1"?>
<!-- Generator: Adobe Illustrator 19.0.0, SVG Export Plug-In . SVG Version: 6.00 Build 0)  -->
<svg xmlns="http://www.w3.org/2000/svg" xmlns:xlink="http://www.w3.org/1999/xlink" version="1.1" id="Capa_1" x="0px" y="0px" viewBox="0 0 512 512" style="enable-background:new 0 0 512 512;" xml:space="preserve">
<path style="fill:#007177;" d="M402.613,359.122l-60.415-0.002l28.319-32.928c-0.776,0.025-1.546,0.055-2.356,0.055  c-38.118,0-38.118-28.51-76.237-28.51c-38.117,0-38.117,28.51-76.235,28.51c-38.119,0-38.119-28.51-76.238-28.51  c-38.12,0-38.12,28.51-76.241,28.51c-28.374,0-35.637-15.788-53.211-23.865v84.014c17.574,8.077,24.837,23.865,53.211,23.865  c38.12,0,38.12-28.51,76.241-28.51c38.119,0,38.119,28.51,76.238,28.51c38.117,0,38.117-28.51,76.235-28.51  c38.118,0,38.118,28.51,76.237,28.51c16.686,0,26.068-5.463,34.541-11.607L402.613,359.122z"/>
<path style="fill:#FF8C5A;" d="M107.11,243.327c7.933-5.48,17.081-10.052,32.341-10.052c38.119,0,38.119,28.51,76.238,28.51  c38.117,0,38.117-28.51,76.235-28.51c38.118,0,38.118,28.51,76.237,28.51c15.49,0,24.685-4.708,32.702-10.297l-0.222-3.111  l26.625-31.646c7.467-8.875,7.467-21.834,0-30.708l-26.625-31.646l2.942-41.244c0.826-11.575-6.8-22.065-18.066-24.85l-40.156-9.927  l-21.816-35.106c-6.133-9.869-18.486-13.882-29.249-9.501l-38.295,15.589l-38.296-15.589c-10.762-4.381-23.115-0.368-29.249,9.501  l-21.816,35.105l-40.156,9.927c-11.265,2.785-18.891,13.274-18.066,24.85l2.942,41.245l-26.625,31.645  c-7.466,8.875-7.466,21.834,0,30.708L107.11,243.327z"/>
<path style="fill:#F9D973;" d="M215.69,261.785c38.117,0,38.117-28.51,76.235-28.51c33.662,0,37.614,22.221,64.326,27.419  c10.303-17.375,16.225-37.653,16.225-59.318c0-64.327-52.147-116.475-116.475-116.475s-116.475,52.147-116.475,116.475  c0,11.119,1.56,21.874,4.47,32.059C177.614,235.615,179.156,261.785,215.69,261.785z"/>
<path d="M67.912,379.966c-5.523,0-10-4.478-10-10v-0.148c0-5.522,4.477-10,10-10c5.523,0,10,4.478,10,10v0.148  C77.912,375.488,73.435,379.966,67.912,379.966z"/>
<polygon style="fill:#F9D973;" points="502,359.12 449.36,359.12 449.36,234.518 342.198,359.12 402.613,359.122 402.885,480.033   "/>
<g>
	<path style="fill:#54E3EA;" d="M370.517,326.192l78.843-91.675v-1.057c-1.586-0.113-3.224-0.186-4.96-0.186   c-38.119,0-38.119,28.51-76.239,28.51c-38.118,0-38.118-28.51-76.237-28.51c-38.117,0-38.117,28.51-76.235,28.51   c-38.119,0-38.119-28.516-76.238-28.51c-38.116,0.006-38.117,28.514-76.241,28.51C34.837,261.782,27.574,245.996,10,237.92v64.463   c17.574,8.077,24.837,23.865,53.211,23.865c38.12,0,38.12-28.51,76.241-28.51c38.119,0,38.119,28.51,76.238,28.51   c38.117,0,38.117-28.51,76.235-28.51c38.118,0,38.118,28.51,76.237,28.51C368.971,326.248,369.741,326.218,370.517,326.192z"/>
	<path style="fill:#54E3EA;" d="M402.702,398.655c-8.473,6.143-17.854,11.607-34.541,11.607c-38.118,0-38.118-28.51-76.237-28.51   c-38.117,0-38.117,28.51-76.235,28.51c-38.119,0-38.119-28.51-76.238-28.51c-38.12,0-38.12,28.51-76.241,28.51   c-28.374,0-35.637-15.788-53.211-23.865v64.463c17.574,8.077,24.837,23.865,53.211,23.865c38.12,0,38.12-28.51,76.241-28.51   c38.119,0,38.119,28.51,76.238,28.51c38.117,0,38.117-28.51,76.235-28.51c38.118,0,38.118,28.51,76.237,28.51   c16.782,0,26.175-5.527,34.686-11.713L402.702,398.655z"/>
</g>
<path d="M511.039,354.841c-1.654-3.494-5.173-5.722-9.039-5.722h-42.64V234.518v-1.057c0-5.246-4.055-9.601-9.288-9.975  c-1.997-0.143-3.852-0.212-5.673-0.212c-3.648,0-7.003,0.233-10.116,0.649l0.636-0.756c10.623-12.628,10.623-30.957-0.001-43.583  l-24.014-28.543l2.653-37.198c1.176-16.473-9.608-31.306-25.64-35.27l-36.209-8.951l-19.67-31.651  c-8.731-14.051-26.189-19.725-41.513-13.485l-34.525,14.054l-34.526-14.054c-15.322-6.24-32.78-0.565-41.513,13.485l-19.667,31.653  l-36.208,8.951c-16.032,3.964-26.815,18.797-25.64,35.27l2.653,37.199l-24.014,28.541c-10.623,12.627-10.623,30.956,0,43.584  l15.492,18.414c-7.962,5.843-15.239,10.203-29.354,10.203c-0.002,0-0.005,0-0.007,0c-15.74-0.002-22.979-5.413-32.146-12.264  c-4.996-3.734-10.161-7.595-16.89-10.688c-3.095-1.422-6.704-1.173-9.572,0.667C1.735,231.34,0,234.512,0,237.92v64.463v84.015  v64.463c0,3.906,2.274,7.455,5.823,9.086c4.804,2.208,8.915,5.281,13.268,8.535c10.186,7.615,21.731,16.245,44.12,16.245  c22.386,0,33.926-8.632,44.109-16.247c9.161-6.851,16.396-12.263,32.131-12.263c15.733,0,22.968,5.411,32.129,12.263  c10.182,7.615,21.723,16.247,44.108,16.247c22.384,0,33.924-8.632,44.106-16.247c9.16-6.852,16.396-12.263,32.128-12.263  c15.733,0,22.968,5.411,32.129,12.263c10.182,7.615,21.722,16.247,44.107,16.247c10.226,0,18.183-1.818,24.732-4.467  c0.093,4.138,2.724,7.802,6.636,9.195c1.098,0.392,2.232,0.581,3.354,0.581c2.939,0,5.799-1.299,7.736-3.661l99.115-120.913  C512.185,362.469,512.692,358.336,511.039,354.841z M391.134,394.365c-0.343,0.203-0.689,0.403-1.04,0.6  c-0.149,0.083-0.3,0.165-0.45,0.247c-0.319,0.174-0.643,0.344-0.97,0.512c-0.156,0.08-0.311,0.16-0.469,0.238  c-0.37,0.184-0.746,0.362-1.127,0.537c-0.114,0.052-0.226,0.107-0.341,0.159c-0.499,0.223-1.008,0.439-1.529,0.646  c-0.105,0.042-0.214,0.08-0.319,0.121c-0.418,0.161-0.842,0.318-1.275,0.469c-0.179,0.062-0.361,0.121-0.543,0.181  c-0.379,0.125-0.764,0.246-1.156,0.362c-0.196,0.058-0.393,0.116-0.592,0.172c-0.42,0.117-0.85,0.227-1.286,0.334  c-0.171,0.042-0.339,0.086-0.513,0.127c-0.611,0.141-1.234,0.272-1.877,0.389c-0.089,0.016-0.184,0.029-0.273,0.045  c-0.556,0.098-1.124,0.188-1.705,0.268c-0.221,0.03-0.448,0.056-0.673,0.084c-0.471,0.058-0.95,0.111-1.439,0.157  c-0.253,0.024-0.508,0.046-0.766,0.067c-0.506,0.04-1.025,0.072-1.551,0.099c-0.237,0.012-0.47,0.027-0.712,0.036  c-0.769,0.03-1.552,0.049-2.364,0.049c-15.733,0-22.968-5.411-32.129-12.263c-10.182-7.615-21.722-16.247-44.108-16.247  c-22.385,0-33.925,8.632-44.107,16.247c-9.16,6.852-16.395,12.263-32.127,12.263c-15.734,0-22.969-5.412-32.13-12.263  c-10.182-7.615-21.723-16.247-44.107-16.247c-0.699,0-1.389,0.008-2.067,0.025c-19.003,0.464-29.929,7.306-39.135,14.061  c-0.986,0.724-1.953,1.447-2.907,2.161c-9.161,6.852-16.396,12.263-32.13,12.263c-6.886,0-12.145-1.036-16.65-2.775  c-5.792-2.236-10.339-5.634-15.494-9.488c-0.066-0.049-0.133-0.098-0.198-0.148c-0.66-0.494-1.326-0.989-1.996-1.484  c-0.252-0.186-0.506-0.371-0.759-0.557c-0.605-0.444-1.219-0.885-1.838-1.326c-0.226-0.161-0.45-0.322-0.678-0.482  c-0.812-0.569-1.639-1.134-2.487-1.691c-0.176-0.116-0.359-0.228-0.537-0.343c-0.689-0.445-1.393-0.883-2.113-1.315  c-0.156-0.094-0.301-0.193-0.459-0.286v-59.684c0.972,0.725,1.959,1.456,2.968,2.186c0.052,0.037,0.104,0.074,0.156,0.112  c0.274,0.198,0.55,0.396,0.828,0.593c0.088,0.062,0.177,0.124,0.265,0.187c0.244,0.172,0.488,0.344,0.735,0.516  c0.114,0.079,0.229,0.158,0.344,0.237c0.224,0.155,0.449,0.309,0.676,0.463c0.133,0.09,0.267,0.179,0.401,0.269  c0.211,0.142,0.423,0.283,0.637,0.424c0.147,0.097,0.297,0.193,0.445,0.29c0.206,0.134,0.413,0.268,0.622,0.401  c0.153,0.098,0.309,0.195,0.463,0.292c0.207,0.13,0.415,0.26,0.625,0.389c0.162,0.099,0.325,0.198,0.489,0.296  c0.206,0.125,0.413,0.249,0.623,0.373c0.169,0.1,0.339,0.198,0.51,0.297c0.209,0.121,0.418,0.241,0.63,0.361  c0.176,0.099,0.353,0.197,0.531,0.296c0.209,0.116,0.42,0.231,0.632,0.345c0.184,0.099,0.37,0.198,0.557,0.296  c0.212,0.111,0.426,0.223,0.641,0.333c0.189,0.097,0.38,0.192,0.572,0.288c0.217,0.108,0.435,0.215,0.654,0.321  c0.196,0.095,0.394,0.188,0.592,0.282c0.221,0.104,0.444,0.206,0.668,0.308c0.203,0.092,0.407,0.183,0.612,0.273  c0.226,0.099,0.453,0.198,0.682,0.295c0.209,0.089,0.419,0.177,0.631,0.264c0.231,0.095,0.464,0.189,0.699,0.281  c0.217,0.086,0.434,0.171,0.653,0.255c0.236,0.09,0.475,0.179,0.715,0.267c0.222,0.081,0.445,0.163,0.671,0.242  c0.245,0.086,0.492,0.17,0.741,0.254c0.228,0.077,0.456,0.154,0.688,0.228c0.251,0.081,0.506,0.16,0.761,0.239  c0.235,0.072,0.471,0.145,0.709,0.215c0.259,0.076,0.521,0.149,0.784,0.223c0.242,0.067,0.483,0.135,0.728,0.2  c0.267,0.071,0.539,0.139,0.81,0.207c0.248,0.062,0.495,0.124,0.746,0.184c0.278,0.066,0.562,0.128,0.845,0.191  c0.252,0.056,0.503,0.112,0.758,0.165c0.288,0.06,0.581,0.116,0.874,0.172c0.26,0.05,0.518,0.102,0.781,0.149  c0.299,0.054,0.605,0.103,0.909,0.154c0.263,0.043,0.524,0.089,0.791,0.129c0.315,0.048,0.636,0.091,0.956,0.135  c0.266,0.037,0.529,0.075,0.799,0.109c0.33,0.042,0.667,0.077,1.002,0.115c0.268,0.03,0.533,0.062,0.806,0.089  c0.349,0.035,0.706,0.063,1.061,0.093c0.267,0.023,0.531,0.048,0.802,0.068c0.374,0.028,0.758,0.048,1.139,0.071  c0.261,0.015,0.517,0.034,0.781,0.047c0.421,0.021,0.852,0.033,1.281,0.047c0.233,0.008,0.462,0.019,0.698,0.025  c0.669,0.016,1.347,0.025,2.036,0.025c1.399,0,2.756-0.034,4.073-0.099c19.092-0.944,29.765-8.481,39.077-15.432  c0.321-0.24,0.641-0.479,0.959-0.717c9.161-6.851,16.396-12.263,32.131-12.263c15.733,0,22.968,5.411,32.129,12.263  c10.182,7.615,21.723,16.247,44.108,16.247c22.384,0,33.924-8.632,44.106-16.247c9.16-6.852,16.396-12.263,32.128-12.263  c15.733,0,22.968,5.411,32.129,12.263c0.376,0.281,0.754,0.564,1.134,0.847c0.121,0.09,0.242,0.18,0.363,0.27  c0.312,0.232,0.626,0.465,0.941,0.698c0.113,0.083,0.225,0.166,0.338,0.249c0.402,0.296,0.807,0.591,1.216,0.887  c0.093,0.067,0.187,0.134,0.28,0.201c0.331,0.238,0.664,0.475,1,0.712c0.124,0.088,0.248,0.175,0.373,0.262  c0.393,0.275,0.788,0.548,1.189,0.82c0.04,0.027,0.08,0.055,0.12,0.083c0.432,0.293,0.871,0.583,1.315,0.872  c0.122,0.079,0.244,0.158,0.367,0.237c0.355,0.229,0.715,0.457,1.078,0.682c0.115,0.071,0.228,0.143,0.343,0.214  c0.462,0.284,0.93,0.566,1.406,0.844c0.086,0.05,0.173,0.099,0.259,0.149c0.4,0.231,0.805,0.46,1.215,0.686  c0.137,0.076,0.275,0.151,0.414,0.226c0.445,0.241,0.896,0.479,1.354,0.712c0.059,0.03,0.115,0.061,0.174,0.09  c0.513,0.259,1.035,0.513,1.565,0.762c0.135,0.063,0.272,0.125,0.407,0.188c0.425,0.196,0.855,0.388,1.292,0.577  c0.138,0.06,0.274,0.12,0.413,0.178c0.554,0.234,1.117,0.464,1.691,0.686c0.084,0.032,0.172,0.063,0.256,0.095  c0.496,0.189,1,0.372,1.511,0.55c0.169,0.059,0.339,0.117,0.509,0.175c0.511,0.173,1.03,0.341,1.558,0.502  c0.1,0.031,0.198,0.063,0.299,0.094c0.619,0.186,1.251,0.363,1.893,0.533c0.059,0.016,0.114,0.033,0.174,0.049l-12.741,14.815  c-0.549-0.408-1.103-0.822-1.664-1.242c-10.183-7.615-21.724-16.247-44.111-16.247c-22.381,0-33.92,8.631-44.101,16.246  c-9.161,6.852-16.397,12.264-32.133,12.264s-22.972-5.412-32.133-12.264c-10.181-7.615-21.72-16.246-44.1-16.246  c-13.332,0-23.992,2.942-34.565,9.539c-2.756,1.72-5.237,3.51-7.301,5.035c-4.441,3.282-5.381,9.544-2.098,13.985  c3.284,4.443,9.543,5.381,13.986,2.099c1.75-1.294,3.832-2.798,6-4.15c5.157-3.218,12.039-6.508,23.979-6.508  c15.729,0,22.962,5.411,32.121,12.262c10.183,7.616,21.724,16.248,44.112,16.248s33.929-8.632,44.112-16.248  c9.159-6.851,16.393-12.262,32.122-12.262c15.735,0,22.971,5.412,32.132,12.263c10.183,7.615,21.724,16.247,44.111,16.247  c10.052,0,17.938-1.792,24.422-4.371l0.04,17.813c-0.414,0.265-0.832,0.525-1.257,0.781  C391.334,394.248,391.233,394.306,391.134,394.365z M92.386,192.461l26.625-31.646c1.675-1.991,2.508-4.556,2.323-7.15  l-2.942-41.245c-0.48-6.739,3.931-12.809,10.491-14.43l40.156-9.927c2.531-0.626,4.718-2.216,6.094-4.43l21.815-35.105  c3.572-5.75,10.714-8.071,16.985-5.519l38.296,15.589c2.417,0.984,5.122,0.984,7.54,0l38.295-15.589  c6.27-2.551,13.413-0.231,16.985,5.519l21.816,35.105c1.376,2.215,3.563,3.804,6.094,4.43l40.156,9.927  c6.56,1.621,10.972,7.69,10.491,14.43l-2.942,41.244c-0.185,2.595,0.648,5.159,2.323,7.149l26.625,31.647  c4.346,5.165,4.346,12.665,0,17.831l-26.625,31.646c-1.002,1.19-1.702,2.586-2.064,4.072c-0.008,0.005-0.016,0.01-0.024,0.014  c-1.046,0.615-2.107,1.184-3.193,1.71c-0.163,0.079-0.326,0.158-0.49,0.235c-0.298,0.139-0.597,0.276-0.899,0.408  c-0.412,0.18-0.827,0.355-1.251,0.522c-0.211,0.084-0.427,0.163-0.641,0.244c-0.433,0.162-0.872,0.319-1.32,0.468  c-0.151,0.051-0.302,0.102-0.455,0.15c-0.61,0.194-1.231,0.378-1.872,0.547c-0.042,0.011-0.084,0.021-0.126,0.031  c-0.665,0.172-1.347,0.331-2.05,0.475c-0.037,0.008-0.073,0.016-0.11,0.023c-0.731,0.148-1.484,0.279-2.26,0.393  c-0.045,0.007-0.091,0.012-0.136,0.019c-0.768,0.111-1.558,0.206-2.374,0.284c-0.018,0.002-0.036,0.004-0.054,0.006  c-0.52,0.049-1.071,0.076-1.612,0.111c6.839-15.792,10.419-32.906,10.419-50.274c0-69.739-56.736-126.475-126.475-126.475  s-126.475,56.735-126.475,126.475c0,7.503,0.663,14.96,1.968,22.292c-9.184,0.938-16.291,3.472-22.27,6.637l-16.836-20.012  C88.04,205.127,88.04,197.627,92.386,192.461z M247.817,239.522c-9.16,6.852-16.395,12.263-32.127,12.263  s-22.968-5.412-32.128-12.264c-8.082-6.045-17.025-12.726-31.562-15.226c-1.643-7.494-2.473-15.177-2.473-22.919  c0-58.71,47.764-106.475,106.475-106.475s106.475,47.764,106.475,106.475c0,16.551-3.844,32.827-11.173,47.515  c-5.726-2.253-10.243-5.628-15.261-9.378c-0.673-0.503-1.351-1.009-2.038-1.518c5.359-11.412,8.175-23.93,8.175-36.618  c0-47.583-38.711-86.296-86.295-86.296c-30.165,0-58.557,16.13-74.098,42.096c-2.836,4.739-1.294,10.88,3.445,13.717  c4.738,2.834,10.88,1.293,13.716-3.445c11.949-19.965,33.765-32.367,56.936-32.367c36.554,0,66.295,29.74,66.295,66.296  c0,9.104-1.887,18.089-5.487,26.372c-6.601-2.676-14.552-4.475-24.765-4.475C269.539,223.275,257.999,231.907,247.817,239.522z   M20,256.218c9.971,7.438,21.484,15.564,43.21,15.566c0.004,0,0.005,0,0.009,0c22.382-0.001,33.925-8.631,44.107-16.246  c1.951-1.459,3.816-2.847,5.693-4.137c5.61-3.847,11.317-6.67,19.374-7.696c0.344-0.043,0.686-0.087,1.039-0.124  c0.354-0.037,0.716-0.069,1.08-0.1c0.49-0.041,0.99-0.075,1.499-0.103c0.29-0.016,0.578-0.035,0.874-0.047  c0.833-0.033,1.682-0.056,2.566-0.057c1.301,0,2.525,0.05,3.716,0.122c0.061,0.005,0.12,0.015,0.18,0.019  c13.118,0.85,19.784,5.829,28.224,12.134c10.188,7.61,21.733,16.235,44.116,16.235c5.596,0,10.514-0.54,14.903-1.468  c13.166-2.785,21.567-9.068,29.203-14.779c6.297-4.711,11.685-8.74,19.55-10.799c3.575-0.936,7.661-1.464,12.578-1.464  c15.733,0,22.968,5.411,32.129,12.263c10.182,7.615,21.722,16.247,44.107,16.247c1.081,0,2.128-0.026,3.159-0.065  c0.128-0.005,0.257-0.009,0.384-0.014c20.084-0.859,30.935-8.966,40.564-16.168c4.429-3.313,8.408-6.288,13.115-8.479l-7.259,8.441  l-52.202,60.697c-0.106-0.004-0.22-0.003-0.325-0.007c-0.395-0.016-0.773-0.043-1.157-0.066c-0.496-0.03-0.993-0.059-1.471-0.101  c-0.375-0.033-0.737-0.075-1.102-0.115c-0.461-0.051-0.92-0.102-1.365-0.163c-0.356-0.049-0.701-0.106-1.047-0.162  c-0.429-0.07-0.856-0.141-1.271-0.221c-0.337-0.065-0.666-0.136-0.994-0.207c-0.402-0.088-0.801-0.178-1.19-0.276  c-0.319-0.08-0.632-0.164-0.943-0.25c-0.379-0.105-0.755-0.214-1.123-0.328c-0.301-0.094-0.599-0.19-0.893-0.289  c-0.361-0.122-0.717-0.248-1.068-0.379c-0.286-0.106-0.569-0.214-0.849-0.326c-0.345-0.138-0.685-0.281-1.022-0.427  c-0.271-0.118-0.542-0.236-0.808-0.358c-0.333-0.153-0.661-0.312-0.987-0.473c-0.259-0.128-0.518-0.255-0.772-0.388  c-0.325-0.169-0.646-0.344-0.965-0.52c-0.246-0.136-0.492-0.27-0.735-0.41c-0.321-0.185-0.639-0.376-0.956-0.568  c-0.235-0.142-0.471-0.282-0.704-0.428c-0.322-0.202-0.642-0.41-0.962-0.618c-0.223-0.145-0.446-0.288-0.668-0.436  c-0.332-0.222-0.663-0.451-0.994-0.679c-0.207-0.143-0.414-0.283-0.621-0.428c-0.354-0.249-0.709-0.505-1.063-0.76  c-0.185-0.133-0.369-0.263-0.554-0.397c-0.401-0.292-0.804-0.59-1.208-0.889c-0.142-0.105-0.281-0.206-0.423-0.312  c-0.544-0.404-1.092-0.814-1.648-1.23c-9.227-6.901-19.57-14.638-38.09-16.027c-1.916-0.144-3.919-0.22-6.018-0.22  c-22.385,0-33.925,8.632-44.107,16.247c-9.16,6.852-16.395,12.263-32.127,12.263c-15.734,0-22.969-5.411-32.13-12.263  c-10.182-7.615-21.723-16.247-44.107-16.247c-0.699,0-1.389,0.009-2.067,0.025c-19.003,0.464-29.929,7.306-39.135,14.061  c-0.986,0.724-1.953,1.447-2.907,2.161c-9.161,6.852-16.396,12.263-32.13,12.263c-15.739,0-22.979-5.411-32.144-12.263  c-0.733-0.548-1.472-1.098-2.216-1.648c-0.239-0.177-0.48-0.353-0.722-0.53c-0.615-0.45-1.237-0.899-1.867-1.347  c-0.221-0.157-0.439-0.315-0.663-0.471c-0.813-0.57-1.642-1.136-2.492-1.694c-0.175-0.115-0.357-0.226-0.534-0.34  c-0.69-0.446-1.395-0.885-2.116-1.318c-0.156-0.094-0.301-0.192-0.458-0.285L20,256.218L20,256.218z M336.032,452.463  c-10.182-7.615-21.722-16.247-44.108-16.247c-22.385,0-33.925,8.632-44.107,16.247c-9.16,6.852-16.395,12.263-32.127,12.263  c-15.734,0-22.969-5.412-32.13-12.263c-10.182-7.615-21.723-16.247-44.107-16.247c-22.386,0-33.927,8.632-44.109,16.247  c-9.161,6.852-16.396,12.263-32.13,12.263c-15.739,0-22.979-5.412-32.145-12.264c-3.454-2.582-6.989-5.225-11.066-7.632v-40.133  c0.972,0.725,1.959,1.456,2.968,2.186c0.052,0.037,0.104,0.074,0.156,0.112c0.274,0.198,0.55,0.396,0.828,0.593  c0.088,0.062,0.177,0.124,0.265,0.187c0.244,0.172,0.488,0.344,0.735,0.516c0.114,0.079,0.229,0.158,0.344,0.237  c0.224,0.155,0.449,0.309,0.676,0.463c0.133,0.09,0.267,0.179,0.401,0.269c0.211,0.142,0.423,0.283,0.637,0.424  c0.147,0.097,0.297,0.193,0.445,0.29c0.206,0.134,0.413,0.268,0.622,0.401c0.153,0.098,0.309,0.195,0.463,0.292  c0.207,0.13,0.415,0.26,0.625,0.389c0.162,0.099,0.325,0.198,0.489,0.296c0.206,0.125,0.413,0.249,0.623,0.373  c0.169,0.1,0.339,0.198,0.51,0.297c0.209,0.121,0.418,0.241,0.63,0.361c0.176,0.099,0.353,0.197,0.531,0.296  c0.209,0.116,0.42,0.231,0.632,0.345c0.184,0.099,0.37,0.197,0.557,0.295c0.212,0.112,0.426,0.223,0.641,0.333  c0.189,0.097,0.38,0.192,0.572,0.288c0.217,0.108,0.435,0.215,0.654,0.321c0.196,0.095,0.394,0.189,0.592,0.282  c0.221,0.104,0.444,0.206,0.668,0.308c0.203,0.092,0.407,0.183,0.612,0.273c0.226,0.099,0.453,0.197,0.682,0.295  c0.209,0.089,0.419,0.177,0.631,0.264c0.231,0.095,0.464,0.189,0.699,0.281c0.217,0.086,0.434,0.171,0.653,0.255  c0.236,0.09,0.475,0.179,0.715,0.267c0.222,0.081,0.445,0.163,0.671,0.242c0.245,0.086,0.492,0.17,0.741,0.254  c0.228,0.077,0.456,0.154,0.688,0.228c0.251,0.081,0.506,0.16,0.761,0.238c0.235,0.073,0.471,0.145,0.709,0.215  c0.259,0.076,0.521,0.149,0.784,0.222c0.242,0.067,0.483,0.135,0.728,0.2c0.267,0.071,0.539,0.139,0.81,0.206  c0.248,0.062,0.495,0.124,0.746,0.184c0.278,0.066,0.562,0.128,0.845,0.191c0.252,0.056,0.503,0.112,0.758,0.166  c0.288,0.06,0.581,0.116,0.874,0.172c0.26,0.05,0.518,0.102,0.781,0.149c0.299,0.054,0.605,0.103,0.909,0.154  c0.263,0.043,0.524,0.089,0.791,0.13c0.315,0.048,0.636,0.091,0.956,0.135c0.266,0.037,0.529,0.076,0.799,0.109  c0.33,0.042,0.667,0.078,1.002,0.115c0.268,0.03,0.533,0.062,0.806,0.089c0.349,0.035,0.706,0.063,1.061,0.094  c0.267,0.023,0.531,0.048,0.802,0.068c0.374,0.028,0.758,0.048,1.139,0.071c0.261,0.015,0.517,0.034,0.781,0.047  c0.421,0.021,0.852,0.033,1.281,0.047c0.233,0.008,0.462,0.019,0.698,0.025c0.669,0.016,1.347,0.025,2.036,0.025  c1.399,0,2.756-0.034,4.073-0.099c19.092-0.944,29.765-8.481,39.077-15.432c0.321-0.24,0.641-0.478,0.959-0.716  c8.015-5.994,14.557-10.887,26.608-12.017c1.722-0.161,3.556-0.246,5.522-0.246c15.733,0,22.968,5.411,32.129,12.263  c10.182,7.615,21.723,16.247,44.108,16.247c22.384,0,33.924-8.632,44.106-16.247c9.16-6.852,16.396-12.263,32.128-12.263  c15.733,0,22.968,5.411,32.129,12.263c10.182,7.615,21.722,16.247,44.107,16.247c1.264,0,2.492-0.028,3.688-0.081  c0.38-0.017,0.736-0.052,1.11-0.074c0.801-0.047,1.607-0.091,2.379-0.161c0.438-0.04,0.851-0.099,1.28-0.146  c0.678-0.074,1.365-0.142,2.02-0.233c0.446-0.062,0.867-0.142,1.303-0.212c0.609-0.097,1.227-0.188,1.817-0.299  c0.44-0.083,0.856-0.183,1.285-0.273c0.558-0.118,1.125-0.229,1.665-0.359c0.429-0.103,0.836-0.221,1.255-0.331  c0.514-0.135,1.036-0.265,1.535-0.41c0.421-0.123,0.82-0.26,1.23-0.39c0.471-0.149,0.95-0.293,1.407-0.451  c0.414-0.143,0.808-0.298,1.211-0.447c0.43-0.16,0.867-0.314,1.285-0.48c0.036-0.014,0.075-0.027,0.111-0.041l0.035,15.495  l0.059,26.419c-6.173,3.992-13.131,6.939-24.674,6.939C352.428,464.725,345.193,459.314,336.032,452.463z M412.822,452.135  l-0.21-93.036c-0.012-5.514-4.486-9.978-9.999-9.978l-38.626-0.002l75.373-87.639v97.638c0,5.522,4.477,10,10,10h31.513  L412.822,452.135z"/>
<path d="M179.819,205.339c-0.65,0-1.31-0.061-1.95-0.191c-0.64-0.13-1.27-0.33-1.87-0.58c-0.6-0.25-1.18-0.55-1.73-0.91  c-0.54-0.369-1.06-0.79-1.52-1.25c-1.86-1.859-2.93-4.439-2.93-7.069c0-0.65,0.07-1.311,0.2-1.95c0.13-0.64,0.32-1.271,0.57-1.87  c0.25-0.61,0.56-1.191,0.92-1.73c0.36-0.551,0.78-1.061,1.24-1.52c0.46-0.46,0.98-0.88,1.52-1.24c0.55-0.359,1.13-0.67,1.73-0.92  c0.6-0.25,1.23-0.45,1.87-0.569c1.29-0.261,2.62-0.261,3.91,0c0.64,0.119,1.27,0.319,1.87,0.569c0.6,0.25,1.18,0.561,1.73,0.92  c0.54,0.36,1.05,0.78,1.52,1.24c0.46,0.46,0.87,0.97,1.24,1.52c0.36,0.539,0.671,1.119,0.921,1.73c0.25,0.6,0.44,1.23,0.57,1.87  c0.13,0.64,0.19,1.3,0.19,1.95c0,2.63-1.06,5.21-2.92,7.069c-0.47,0.46-0.98,0.881-1.52,1.25c-0.55,0.36-1.13,0.66-1.73,0.91  c-0.6,0.25-1.23,0.45-1.87,0.58C181.129,205.278,180.479,205.339,179.819,205.339z"/>
<g>
</g>
<g>
</g>
<g>
</g>
<g>
</g>
<g>
</g>
<g>
</g>
<g>
</g>
<g>
</g>
<g>
</g>
<g>
</g>
<g>
</g>
<g>
</g>
<g>
</g>
<g>
</g>
<g>
</g>
</svg>
