<?xml version="1.0" encoding="iso-8859-1"?>
<!-- Generator: Adobe Illustrator 19.0.0, SVG Export Plug-In . SVG Version: 6.00 Build 0)  -->
<svg xmlns="http://www.w3.org/2000/svg" xmlns:xlink="http://www.w3.org/1999/xlink" version="1.1" id="Capa_1" x="0px" y="0px" viewBox="0 0 511.999 511.999" style="enable-background:new 0 0 511.999 511.999;" xml:space="preserve">
<path style="fill:#FF8C5A;" d="M476.282,125.602l-19.979-23.747l2.208-30.949c0.62-8.686-5.103-16.558-13.557-18.646l-30.132-7.449  l-16.371-26.343c-4.603-7.406-13.872-10.417-21.948-7.13l-28.736,11.698L319.03,11.337c-8.076-3.287-17.345-0.276-21.947,7.13  l-16.371,26.342l-24.76,6.121c41.738,39.633,105.793,109.977,133.382,190.198c2.121,6.168,4.034,12.395,5.698,18.668  c1.307-1.143,2.464-2.48,3.42-4.019l16.371-26.342l30.132-7.449c8.454-2.09,14.176-9.961,13.557-18.646l-2.208-30.949l19.978-23.746  C481.885,141.985,481.885,132.262,476.282,125.602z"/>
<path style="fill:#54E3EA;" d="M140.685,274.889c40.499,0,40.499-33.999,80.997-33.999s40.498,33.999,80.996,33.999  c40.499,0,40.499-33.999,80.998-33.999c1.981,0,3.862,0.084,5.658,0.24C346.726,117.237,217.117,16.872,217.117,16.872  S86.315,118.167,44.322,242.849c4.431-1.234,9.468-1.959,15.368-1.959C100.187,240.89,100.187,274.889,140.685,274.889z"/>
<path style="fill:#F9D973;" d="M347.768,49.723c-25.578,0-48.588,10.989-64.571,28.501c33.996,35.946,73.22,85.032,97.195,140.002  c32.109-12.929,54.776-44.366,54.776-81.103C435.168,88.854,396.038,49.723,347.768,49.723z"/>
<path style="fill:#007177;" d="M398.061,272.585c-2.211-10.622-5.167-21.12-8.727-31.456c-1.796-0.156-3.677-0.24-5.658-0.24  c-40.499,0-40.499,33.999-80.998,33.999c-40.498,0-40.498-33.999-80.996-33.999c-40.499,0-40.499,33.999-80.997,33.999  s-40.498-33.999-80.996-33.999c-5.901,0-10.937,0.725-15.368,1.959c-3.702,10.993-6.726,22.163-8.897,33.466  c-2.537,13.209-3.928,26.592-3.928,40.066c0,102.515,83.105,185.62,185.62,185.62s185.62-83.105,185.62-185.62  C402.736,301.637,401.062,287.004,398.061,272.585z"/>
<path d="M351.828,95.942c-0.66,0-1.31-0.06-1.96-0.189c-0.64-0.131-1.27-0.32-1.87-0.57s-1.18-0.56-1.73-0.92  c-0.54-0.37-1.06-0.79-1.52-1.25c-0.46-0.46-0.87-0.97-1.24-1.521c-0.36-0.54-0.67-1.12-0.92-1.72c-0.25-0.61-0.44-1.24-0.57-1.87  c-0.13-0.649-0.19-1.31-0.19-1.96c0-0.649,0.06-1.31,0.19-1.95c0.13-0.64,0.32-1.27,0.57-1.87c0.25-0.609,0.56-1.19,0.92-1.729  c0.37-0.55,0.78-1.061,1.24-1.521c0.46-0.46,0.98-0.88,1.52-1.239c0.55-0.36,1.13-0.67,1.73-0.92s1.23-0.44,1.87-0.57  c1.29-0.26,2.62-0.26,3.91,0c0.64,0.13,1.27,0.32,1.87,0.57c0.6,0.25,1.18,0.56,1.73,0.92c0.54,0.359,1.06,0.779,1.52,1.239  c0.46,0.46,0.88,0.971,1.24,1.521c0.36,0.54,0.67,1.12,0.92,1.729c0.25,0.601,0.44,1.23,0.57,1.87c0.13,0.641,0.19,1.301,0.19,1.95  c0,0.65-0.06,1.311-0.19,1.96c-0.13,0.63-0.32,1.26-0.57,1.87c-0.25,0.6-0.56,1.18-0.92,1.72c-0.36,0.551-0.78,1.061-1.24,1.521  c-0.46,0.46-0.98,0.88-1.52,1.25c-0.55,0.359-1.13,0.67-1.73,0.92c-0.6,0.25-1.23,0.44-1.87,0.57  C353.128,95.883,352.478,95.942,351.828,95.942z"/>
<path d="M350.738,311.355c-2.63,0-5.21-1.069-7.07-2.93c-0.46-0.47-0.88-0.98-1.24-1.521c-0.36-0.55-0.67-1.13-0.92-1.729  c-0.25-0.601-0.44-1.23-0.57-1.87c-0.13-0.65-0.2-1.3-0.2-1.96c0-0.65,0.07-1.309,0.2-1.95c0.13-0.64,0.32-1.27,0.57-1.87  c0.25-0.6,0.56-1.18,0.92-1.729c0.36-0.54,0.78-1.061,1.24-1.521c0.46-0.46,0.97-0.88,1.52-1.239c0.54-0.36,1.13-0.671,1.73-0.921  c0.6-0.25,1.23-0.44,1.87-0.569c3.25-0.66,6.7,0.41,9.02,2.729c0.47,0.46,0.88,0.98,1.25,1.521c0.36,0.55,0.67,1.13,0.92,1.729  c0.25,0.601,0.44,1.23,0.57,1.87c0.13,0.641,0.19,1.3,0.19,1.95c0,0.66-0.06,1.31-0.19,1.96c-0.13,0.64-0.32,1.27-0.57,1.87  c-0.25,0.6-0.56,1.18-0.92,1.729c-0.37,0.54-0.78,1.051-1.25,1.521C355.948,310.286,353.378,311.355,350.738,311.355z"/>
<path d="M483.934,119.164L483.934,119.164l-17.367-20.643l1.919-26.903c0.969-13.576-7.918-25.799-21.13-29.065l-26.185-6.474  l-14.225-22.889c-7.197-11.58-21.584-16.257-34.212-11.113l-24.966,10.163L322.802,2.076c-12.628-5.141-27.016-0.467-34.212,11.113  l-14.224,22.889l-15.506,3.833C238.399,20.763,224.13,9.654,223.24,8.966c-3.605-2.793-8.641-2.791-12.245,0  c-1.362,1.055-33.788,26.298-71.859,67.338c-35.291,38.043-82.033,97.265-104.291,163.353c-3.956,11.745-7.064,23.443-9.24,34.77  c-2.726,14.189-4.107,28.304-4.107,41.953c0,107.865,87.754,195.619,195.619,195.619s195.619-87.753,195.619-195.618  c0-14.833-1.644-30.253-4.886-45.833c-0.559-2.686-1.171-5.392-1.833-8.114c0.32-0.452,0.636-0.906,0.928-1.377l14.225-22.888  l26.185-6.474c13.212-3.267,22.099-15.491,21.13-29.066l-1.919-26.903l17.368-20.642C492.69,144.676,492.689,129.57,483.934,119.164  z M378.074,190.28c18.887-10.747,30.952-30.917,30.952-53.235c0-16.188-6.276-31.463-17.672-43.012  c-3.879-3.931-10.211-3.973-14.142-0.093c-3.931,3.879-3.973,10.21-0.093,14.142c7.679,7.781,11.908,18.066,11.908,28.963  c0,14.962-8.051,28.494-20.675,35.76c-20.802-35.39-46.374-67.397-71.145-94.275c13.977-12.042,31.952-18.805,50.561-18.805  c42.679,0,77.401,34.722,77.401,77.4c0,28.54-15.368,54.193-39.859,67.716C383.002,199.936,380.591,195.08,378.074,190.28z   M153.548,90.176c27.491-29.667,52.439-51.224,63.569-60.439c7.325,6.065,20.635,17.476,36.713,33.021  c0.713,0.69,1.425,1.379,2.155,2.092c0.233,0.228,0.47,0.46,0.704,0.689c28.994,28.4,70.638,74.191,100.141,127.649  c0.067,0.122,0.135,0.243,0.202,0.365c2.423,4.402,4.758,8.858,7.002,13.358c0.242,0.485,0.482,0.971,0.722,1.457  c0.944,1.915,1.871,3.838,2.779,5.769c0.142,0.303,0.289,0.604,0.431,0.908c1.015,2.176,2.002,4.363,2.967,6.557  c0.232,0.527,0.456,1.057,0.685,1.585c0.747,1.723,1.477,3.453,2.192,5.187c0.25,0.606,0.501,1.212,0.747,1.82  c0.159,0.393,0.307,0.79,0.464,1.184c-0.058,0.007-0.111,0.017-0.169,0.024c-0.999,0.119-1.974,0.258-2.928,0.416  c-0.112,0.018-0.227,0.035-0.338,0.053c-0.956,0.163-1.884,0.348-2.796,0.547c-0.171,0.037-0.342,0.074-0.511,0.113  c-0.887,0.202-1.754,0.419-2.602,0.653c-0.154,0.042-0.305,0.087-0.457,0.13c-0.864,0.246-1.714,0.504-2.539,0.781  c-0.065,0.022-0.128,0.046-0.194,0.068c-0.804,0.273-1.589,0.561-2.358,0.861c-0.104,0.041-0.211,0.08-0.315,0.121  c-0.769,0.305-1.518,0.625-2.254,0.955c-0.143,0.064-0.285,0.127-0.426,0.192c-0.72,0.329-1.425,0.669-2.115,1.019  c-0.125,0.063-0.247,0.128-0.371,0.192c-0.708,0.366-1.405,0.739-2.085,1.123c-0.041,0.023-0.081,0.048-0.122,0.071  c-0.668,0.38-1.32,0.77-1.962,1.166c-0.091,0.056-0.184,0.112-0.275,0.169c-0.636,0.397-1.258,0.801-1.871,1.211  c-0.117,0.078-0.234,0.156-0.35,0.235c-0.603,0.408-1.196,0.82-1.779,1.238c-0.099,0.071-0.196,0.142-0.295,0.213  c-0.603,0.436-1.199,0.876-1.784,1.319c-0.013,0.01-0.025,0.02-0.038,0.029c-0.59,0.449-1.169,0.9-1.742,1.354  c-0.078,0.061-0.156,0.122-0.233,0.184c-0.555,0.441-1.102,0.883-1.644,1.326c-0.097,0.08-0.194,0.159-0.292,0.239  c-0.536,0.44-1.068,0.88-1.594,1.318c-0.086,0.072-0.171,0.143-0.257,0.215c-0.53,0.443-1.057,0.884-1.579,1.323  c-9.756,8.19-17.46,14.659-34.07,14.659c-16.608,0-24.313-6.469-34.068-14.659c-10.798-9.066-23.037-19.34-46.928-19.34  s-36.129,10.275-46.928,19.34c-9.755,8.19-17.46,14.659-34.069,14.659c-1.038,0-2.041-0.025-3.012-0.075  c-14.568-0.741-21.91-6.906-31.056-14.584c-10.799-9.066-23.037-19.34-46.928-19.34c-0.098,0-0.197,0-0.295,0.001  C82.099,174.337,122.435,123.75,153.548,90.176z M217.117,492.001c-96.837,0-175.62-78.783-175.62-175.62  c0-4.118,0.153-8.29,0.43-12.496c5.267-2.319,10.997-3.43,17.766-3.43c16.602,0,24.305,6.468,34.058,14.657  c10.798,9.066,23.037,19.342,46.93,19.342c23.89,0,36.13-10.275,46.929-19.34c9.756-8.19,17.46-14.659,34.069-14.659  s24.314,6.469,34.069,14.659c10.799,9.065,23.038,19.34,46.929,19.34c6.715,0,12.772-0.802,18.515-2.451  c5.309-1.523,8.376-7.063,6.852-12.371c-1.524-5.309-7.064-8.377-12.372-6.852c-3.923,1.126-8.174,1.674-12.996,1.674  c-16.609,0-24.313-6.469-34.069-14.659c-10.799-9.065-23.038-19.34-46.929-19.34s-36.13,10.275-46.929,19.34  c-9.756,8.19-17.46,14.659-34.069,14.659c-16.61,0-24.314-6.47-34.069-14.66c-10.797-9.065-23.034-19.339-46.918-19.339  c-5.354,0-10.382,0.537-15.146,1.61c0.223-1.287,0.45-2.575,0.697-3.865c1.674-8.715,3.955-17.693,6.796-26.756  c0.245-0.036,0.482-0.085,0.73-0.118c0.169-0.022,0.339-0.044,0.51-0.065c0.921-0.111,1.861-0.198,2.825-0.258  c0.155-0.01,0.313-0.016,0.469-0.024c1.015-0.054,2.047-0.089,3.115-0.089c16.608,0,24.313,6.469,34.068,14.659  c10.799,9.065,23.037,19.34,46.928,19.34s36.129-10.275,46.928-19.34c9.146-7.678,16.49-13.844,31.056-14.584  c0.971-0.049,1.975-0.075,3.013-0.075c16.608,0,24.313,6.469,34.068,14.659c0.337,0.283,0.676,0.568,1.017,0.853  c9.877,8.274,21.198,17.246,41.565,18.369c1.405,0.078,2.852,0.118,4.345,0.118c0.747,0,1.482-0.01,2.206-0.03  c21.724-0.592,33.489-9.899,43.706-18.457c0.341-0.285,0.679-0.57,1.017-0.853c0.598-0.502,1.188-0.997,1.773-1.485  c0.142-0.119,0.282-0.233,0.424-0.351c0.443-0.368,0.886-0.736,1.325-1.095c0.193-0.158,0.385-0.309,0.578-0.465  c0.385-0.312,0.771-0.624,1.155-0.927c0.219-0.173,0.438-0.338,0.657-0.507c0.358-0.277,0.715-0.556,1.074-0.825  c0.235-0.176,0.473-0.345,0.709-0.517c0.345-0.253,0.69-0.506,1.038-0.75c0.248-0.174,0.5-0.339,0.749-0.509  c0.341-0.231,0.681-0.463,1.027-0.686c0.26-0.168,0.525-0.327,0.788-0.489c0.343-0.212,0.685-0.424,1.034-0.628  c0.272-0.158,0.551-0.308,0.827-0.461c0.349-0.193,0.698-0.386,1.055-0.57c0.287-0.148,0.58-0.287,0.872-0.428  c0.359-0.174,0.719-0.347,1.086-0.511c0.302-0.135,0.613-0.261,0.922-0.389c0.372-0.154,0.746-0.307,1.128-0.451  c0.32-0.12,0.648-0.233,0.976-0.346c0.388-0.134,0.779-0.266,1.179-0.389c0.341-0.105,0.69-0.202,1.039-0.299  c0.407-0.113,0.818-0.222,1.238-0.324c0.363-0.088,0.733-0.168,1.106-0.247c0.43-0.091,0.865-0.178,1.309-0.257  c0.387-0.069,0.782-0.132,1.181-0.192c0.455-0.068,0.916-0.131,1.386-0.187c0.413-0.049,0.834-0.093,1.26-0.132  c0.483-0.045,0.976-0.083,1.476-0.115c0.442-0.028,0.89-0.052,1.345-0.07c0.231-0.009,0.471-0.011,0.705-0.017  c0.102,0.323,0.204,0.645,0.305,0.968c0.424,1.362,0.836,2.721,1.235,4.078c0.127,0.432,0.259,0.866,0.383,1.296  c1.687,5.857,3.135,11.66,4.32,17.35c2.964,14.243,4.467,28.292,4.467,41.759C392.738,413.217,313.954,492.001,217.117,492.001z   M468.631,142.208l-19.979,23.746c-1.675,1.99-2.508,4.555-2.323,7.148l2.208,30.95c0.274,3.843-2.241,7.303-5.982,8.228  l-30.132,7.449c-2.531,0.626-4.717,2.215-6.094,4.43l-7.892,12.699c-0.26-0.746-0.54-1.486-0.805-2.23  c-0.427-1.195-0.851-2.39-1.293-3.579c-0.481-1.297-0.98-2.588-1.478-3.88c-0.266-0.687-0.527-1.376-0.798-2.062  c-0.247-0.627-0.483-1.258-0.734-1.884c31.789-16.759,51.837-49.543,51.837-86.099c0-53.706-43.694-97.399-97.4-97.399  c-23.733,0-46.647,8.747-64.332,24.284c-1.858-1.906-3.703-3.775-5.537-5.616c-0.38-0.382-0.758-0.762-1.136-1.141  c-0.309-0.309-0.622-0.627-0.931-0.935l7.281-1.8c2.531-0.626,4.717-2.216,6.093-4.43l16.371-26.342  c2.037-3.279,6.111-4.599,9.685-3.146l28.736,11.698c2.418,0.984,5.123,0.984,7.541,0L380.275,20.6  c3.575-1.456,7.647-0.132,9.684,3.146l16.371,26.342c1.376,2.214,3.563,3.804,6.093,4.43l30.132,7.45  c3.74,0.925,6.256,4.385,5.982,8.227l-2.208,30.949c-0.185,2.595,0.648,5.159,2.323,7.149l19.979,23.747v0.001  C471.109,134.985,471.108,139.262,468.631,142.208z"/>
<circle style="fill:#54E3EA;" cx="221.693" cy="366.45" r="31.249"/>
<path d="M221.689,407.697c-22.746,0-41.251-18.505-41.251-41.251s18.504-41.251,41.251-41.251c22.745,0,41.25,18.505,41.25,41.251  C262.94,389.191,244.435,407.697,221.689,407.697z M221.689,345.194c-11.718,0-21.251,9.533-21.251,21.251  c0,11.719,9.534,21.251,21.251,21.251c11.718,0,21.25-9.533,21.25-21.251C242.94,354.727,233.407,345.194,221.689,345.194z"/>
<circle style="fill:#54E3EA;" cx="300.87" cy="414.048" r="27.598"/>
<path d="M300.869,451.64c-20.731,0-37.598-16.866-37.598-37.598c0-20.731,16.867-37.598,37.598-37.598s37.598,16.866,37.598,37.598  C338.466,434.775,321.6,451.64,300.869,451.64z M300.869,396.445c-9.704,0-17.598,7.895-17.598,17.598s7.895,17.598,17.598,17.598  c9.704,0,17.598-7.895,17.598-17.598C318.467,404.34,310.573,396.445,300.869,396.445z"/>
<g>
</g>
<g>
</g>
<g>
</g>
<g>
</g>
<g>
</g>
<g>
</g>
<g>
</g>
<g>
</g>
<g>
</g>
<g>
</g>
<g>
</g>
<g>
</g>
<g>
</g>
<g>
</g>
<g>
</g>
</svg>
