<?xml version="1.0" encoding="iso-8859-1"?>
<!-- Generator: Adobe Illustrator 19.0.0, SVG Export Plug-In . SVG Version: 6.00 Build 0)  -->
<svg xmlns="http://www.w3.org/2000/svg" xmlns:xlink="http://www.w3.org/1999/xlink" version="1.1" id="Capa_1" x="0px" y="0px" viewBox="0 0 512 512" style="enable-background:new 0 0 512 512;" xml:space="preserve">
<path style="fill:#007177;" d="M265.851,419.052c-7.705-13.06-13.17-27.475-12.265-46.419c1.607-33.535,26.152-61.23,56.212-61.23  c30.905,0,52.785,24.613,52.785,24.613s22.677-24.049,51.767-24.604C411.579,155.767,227.35,10,227.35,10  S40.318,158.001,40.318,314.968C40.318,418.263,124.055,502,227.35,502c36.578,0,70.696-10.51,99.519-28.661  C302.937,456.005,274.342,433.446,265.851,419.052z"/>
<g>
	<path style="fill:#54E3EA;" d="M265.851,419.052c-7.705-13.06-13.17-27.475-12.265-46.419c1.607-33.535,26.152-61.23,56.212-61.23   c30.905,0,52.785,24.613,52.785,24.613s4.228-4.475,11.357-9.607c0.292-3.776,0.442-7.591,0.442-11.441   c0-68.628-45.24-137.335-83.192-182.889c-23.327-28-46.928-53.739-63.859-69.079c-16.631,15.063-39.721,40.302-62.832,67.895   c-38.402,45.851-84.181,115.004-84.181,184.073C80.318,396.042,146.276,462,227.35,462c23.387,0,45.512-5.498,65.163-15.255   C280.448,436.551,270.339,426.66,265.851,419.052z"/>
</g>
<path d="M120.387,328.84c-2.63,0-5.21-1.07-7.07-2.93c-0.46-0.46-0.88-0.97-1.25-1.52c-0.35-0.54-0.659-1.12-0.909-1.73  c-0.25-0.6-0.45-1.23-0.57-1.87c-0.13-0.64-0.2-1.3-0.2-1.95c0-0.65,0.07-1.31,0.2-1.96c0.12-0.63,0.32-1.26,0.57-1.87  c0.25-0.6,0.56-1.18,0.909-1.72c0.37-0.55,0.79-1.06,1.25-1.52c2.32-2.33,5.771-3.39,9.021-2.74c0.64,0.13,1.27,0.32,1.87,0.57  c0.609,0.25,1.189,0.56,1.729,0.92c0.551,0.37,1.06,0.79,1.521,1.25c0.46,0.46,0.88,0.97,1.24,1.52c0.359,0.54,0.67,1.12,0.92,1.72  c0.25,0.61,0.439,1.24,0.569,1.87c0.13,0.65,0.2,1.31,0.2,1.96s-0.07,1.31-0.2,1.95c-0.13,0.64-0.319,1.27-0.569,1.87  c-0.25,0.61-0.561,1.19-0.92,1.73c-0.36,0.55-0.78,1.06-1.24,1.52s-0.97,0.88-1.521,1.24c-0.54,0.36-1.12,0.67-1.729,0.92  c-0.601,0.25-1.231,0.44-1.87,0.57C121.697,328.77,121.037,328.84,120.387,328.84z"/>
<path style="fill:#FF8C5A;" d="M415.366,311.402c-29.578,0-52.783,24.613-52.783,24.613s-21.879-24.613-52.785-24.613  c-30.06,0-54.605,27.695-56.212,61.23c-0.906,18.944,4.56,33.359,12.265,46.419c15.389,26.089,96.831,79.008,96.831,79.008  s81.141-52.693,96.631-79.008c7.722-13.118,13.171-27.475,12.265-46.419C469.971,339.097,445.427,311.402,415.366,311.402"/>
<path d="M481.565,372.154c-0.893-18.646-8.003-36.202-20.021-49.435c-10.389-11.44-23.494-18.584-37.568-20.665  c-2.1-34.305-12.524-70.536-31.059-107.849c-15.969-32.147-37.977-65.204-65.413-98.253c-46.535-56.058-92.034-92.28-93.948-93.794  c-3.637-2.877-8.773-2.877-12.41,0c-1.943,1.538-48.128,38.311-95.021,95.095c-27.65,33.482-49.711,66.945-65.569,99.458  c-20.063,41.133-30.236,80.92-30.236,118.256C30.318,423.612,118.707,512,227.351,512c34.925,0,69.002-9.196,98.993-26.653  c15.229,10.854,27.705,19.029,30.889,21.098c1.656,1.077,3.552,1.615,5.448,1.615s3.79-0.538,5.446-1.613  c8.508-5.525,83.585-54.771,99.802-82.322C478.243,406.607,482.448,390.579,481.565,372.154z M227.351,492  c-97.616,0-177.032-79.416-177.032-177.032c0-77.998,49.474-154.355,90.977-204.676c35.746-43.341,71.916-75.362,86.059-87.319  c13.963,11.798,49.392,43.146,84.764,85.754c39.684,47.803,86.954,119.425,91.849,193.686c-0.098,0.017-0.191,0.04-0.289,0.058  c-1.029,0.185-2.05,0.387-3.057,0.614c-0.01,0.002-0.02,0.005-0.029,0.007c-1.023,0.231-2.031,0.487-3.03,0.758  c-0.115,0.031-0.23,0.061-0.345,0.092c-0.979,0.27-1.945,0.559-2.9,0.864c-0.123,0.039-0.245,0.079-0.367,0.119  c-1.971,0.64-3.888,1.346-5.746,2.106c-0.072,0.029-0.144,0.058-0.215,0.087c-0.923,0.38-1.83,0.773-2.722,1.177  c-0.075,0.034-0.149,0.068-0.224,0.102c-0.26,0.118-0.521,0.235-0.778,0.355c-2.57-69.485-47.509-137.606-85.39-183.073  c-24.519-29.431-48.147-54.977-64.828-70.088c-3.811-3.452-9.616-3.452-13.427-0.001c-16.262,14.728-38.914,39.192-63.785,68.886  c-39.468,47.122-86.515,118.422-86.515,190.494C70.318,401.556,140.763,472,227.351,472c22.193,0,43.565-4.549,63.634-13.501  c5.694,4.679,11.651,9.334,17.569,13.806C283.556,485.227,255.767,492,227.351,492z M220.208,128.212  c11.65,11.846,22.607,23.915,32.567,35.871c41.823,50.2,66.626,98.889,70.932,138.735c-0.977-0.198-1.961-0.383-2.961-0.543  c-0.014-0.002-0.027-0.005-0.041-0.007c-2.541-0.403-5.159-0.669-7.841-0.789c-1.013-0.045-2.033-0.077-3.065-0.077  c-7.567,0-14.962,1.449-21.933,4.23c-8.962,3.576-17.223,9.354-24.245,17.086c-12.019,13.233-19.129,30.789-20.022,49.436  c-0.63,13.163,1.331,25.091,6.247,37.193c-7.333,1.748-14.86,2.652-22.494,2.652c-39.568,0-75.886-24.792-90.371-61.691  c-2.018-5.14-7.818-7.673-12.963-5.654c-5.141,2.019-7.672,7.822-5.654,12.963c8.502,21.658,23.138,40.156,42.323,53.497  C180.337,424.778,203.389,432,227.351,432c10.93,0,21.684-1.528,32.082-4.498c3.353,4.746,8.22,10.137,14.705,16.276  C259.209,449.24,243.53,452,227.351,452c-75.56,0-137.032-61.472-137.032-137.032c0-66.064,44.509-133.072,81.847-177.652  c20.668-24.676,40.297-46.217,55.17-60.608c15.395,14.861,35.398,36.835,56.173,61.772c36.895,44.285,80.875,110.852,80.875,176.488  c0,2.064-0.047,4.146-0.141,6.226c-0.526,0.415-1.038,0.824-1.522,1.219c-0.001-0.001-0.002-0.001-0.003-0.002  c-0.612-0.517-1.26-1.05-1.942-1.597c-0.299-0.239-0.607-0.482-0.918-0.726c-0.046-0.036-0.089-0.07-0.134-0.106  c-4.095-3.192-9.308-6.738-15.444-9.872c-1.797-45.697-28.667-101.851-76.138-158.829c-10.31-12.376-21.641-24.856-33.674-37.093  c-3.87-3.936-10.203-3.992-14.142-0.118C216.389,117.943,216.336,124.274,220.208,128.212z M450.694,413.979  c-10.855,18.442-62.898,55.396-88.012,72.11c-7.95-5.291-18.592-12.602-29.774-20.706c-0.06-0.045-0.112-0.098-0.172-0.142  c-14.418-10.443-25.344-19.009-33.637-26.009c-0.046-0.04-0.085-0.087-0.132-0.126c-8.876-7.499-14.724-13.187-18.577-17.454  c-0.056-0.063-0.115-0.127-0.171-0.189c-0.167-0.185-0.328-0.368-0.488-0.548c-0.146-0.165-0.288-0.328-0.427-0.489  c-0.146-0.168-0.288-0.333-0.427-0.496c-0.181-0.212-0.357-0.42-0.527-0.623c-0.073-0.088-0.146-0.176-0.218-0.262  c-0.223-0.27-0.44-0.536-0.644-0.791c-0.003-0.003-0.005-0.006-0.007-0.009c-0.214-0.268-0.415-0.525-0.608-0.777  c-0.033-0.043-0.066-0.085-0.098-0.127c-0.388-0.508-0.736-0.983-1.048-1.426c-0.022-0.031-0.044-0.063-0.065-0.093  c-0.152-0.219-0.298-0.432-0.433-0.635c-0.003-0.004-0.006-0.009-0.009-0.013c-0.118-0.177-0.225-0.345-0.33-0.51  c-0.147-0.233-0.293-0.466-0.427-0.694c-2.082-3.529-3.847-6.939-5.312-10.297c-2.565-5.876-4.212-11.59-5.036-17.493  c-0.589-4.217-0.758-8.531-0.541-13.069c0.463-9.667,3.158-18.719,7.452-26.467c8.37-15.104,22.829-25.241,38.772-25.241  c22.63,0,40.218,16.131,44.375,20.29c0.594,0.594,0.914,0.944,0.935,0.968c0.162,0.182,0.337,0.349,0.511,0.517  c1.823,1.773,4.255,2.801,6.816,2.838c0.339,0.003,0.675-0.012,1.008-0.042c0.006,0,0.011,0,0.017-0.001  c0.153-0.014,0.302-0.042,0.453-0.063c0.545-0.072,1.083-0.178,1.604-0.338c0.059-0.018,0.114-0.043,0.172-0.062  c0.261-0.086,0.522-0.174,0.775-0.281c0.003-0.001,0.006-0.002,0.009-0.004c1.157-0.487,2.212-1.201,3.123-2.1  c0.078-0.076,0.161-0.145,0.237-0.224c0.004-0.004,0.058-0.06,0.142-0.145c0.025-0.025,0.052-0.053,0.085-0.085  c0.025-0.025,0.055-0.055,0.084-0.084c0.075-0.075,0.159-0.158,0.262-0.259c0.001-0.001,0.002-0.002,0.003-0.003  c3.081-3.014,18.296-17.052,37.307-20.265c0.045-0.007,0.089-0.016,0.133-0.023c0.586-0.097,1.177-0.178,1.769-0.254  c0.204-0.026,0.408-0.054,0.613-0.078c0.469-0.054,0.941-0.095,1.414-0.135c0.318-0.026,0.636-0.054,0.956-0.074  c0.397-0.025,0.796-0.039,1.195-0.054c0.521-0.018,1.041-0.041,1.567-0.041c24.122,0,44.857,23.196,46.224,51.709  C462.283,387.607,459.024,399.828,450.694,413.979z"/>
<g>
</g>
<g>
</g>
<g>
</g>
<g>
</g>
<g>
</g>
<g>
</g>
<g>
</g>
<g>
</g>
<g>
</g>
<g>
</g>
<g>
</g>
<g>
</g>
<g>
</g>
<g>
</g>
<g>
</g>
</svg>
