<?xml version="1.0" encoding="iso-8859-1"?>
<!-- Generator: Adobe Illustrator 19.0.0, SVG Export Plug-In . SVG Version: 6.00 Build 0)  -->
<svg xmlns="http://www.w3.org/2000/svg" xmlns:xlink="http://www.w3.org/1999/xlink" version="1.1" id="Capa_1" x="0px" y="0px" viewBox="0 0 511.999 511.999" style="enable-background:new 0 0 511.999 511.999;" xml:space="preserve">
<g>
	<path style="fill:#54E3EA;" d="M194.502,164.145c0,38.435-31.158,69.592-69.592,69.592s-69.592-31.157-69.592-69.592   c0-58.405,69.592-112.291,69.592-112.291S194.502,105.739,194.502,164.145z"/>
	<path style="fill:#54E3EA;" d="M359.71,283.552V63c0-29.653-24.038-53-53.691-53l0,0c-29.653,0-53.691,23.347-53.691,53v220.552   c-36.926,19.357-62.122,58.049-62.123,102.632c-0.001,63.741,51.051,115.26,114.79,115.811   c64.432,0.557,116.838-51.506,116.838-115.81C421.833,341.602,396.636,302.91,359.71,283.552z"/>
</g>
<path style="fill:#D3E567;" d="M342.996,315.437l-19.286-10.11v-97.812h-35.382v97.812l-19.286,10.11  c-26.422,13.852-42.836,40.961-42.837,70.749c0,21.274,8.19,41.254,23.061,56.26c14.871,15.003,34.777,23.368,56.057,23.552  l0.705,0.003c21.317,0,41.356-8.301,56.428-23.374c15.075-15.074,23.376-35.118,23.376-56.44  C385.833,356.398,369.419,329.288,342.996,315.437z"/>
<path d="M456.681,126.09c-0.649,0-1.31-0.07-1.95-0.2s-1.27-0.32-1.87-0.57c-0.609-0.25-1.189-0.56-1.729-0.92  c-0.55-0.36-1.061-0.78-1.521-1.24c-0.46-0.46-0.88-0.97-1.239-1.52c-0.36-0.54-0.67-1.12-0.92-1.73c-0.25-0.6-0.44-1.23-0.57-1.87  s-0.2-1.3-0.2-1.95c0-0.65,0.07-1.31,0.2-1.96c0.13-0.63,0.32-1.26,0.57-1.87c0.25-0.6,0.56-1.18,0.92-1.72  c0.359-0.55,0.779-1.06,1.239-1.52c0.46-0.46,0.971-0.88,1.521-1.25c0.54-0.36,1.12-0.67,1.729-0.92c0.601-0.25,1.23-0.44,1.87-0.57  c1.29-0.26,2.62-0.26,3.91,0c0.641,0.13,1.26,0.32,1.87,0.57c0.6,0.25,1.18,0.56,1.72,0.92c0.551,0.37,1.06,0.79,1.52,1.25  c0.47,0.46,0.88,0.97,1.25,1.52c0.359,0.54,0.67,1.12,0.92,1.72c0.25,0.61,0.439,1.24,0.57,1.87c0.13,0.65,0.19,1.31,0.19,1.96  s-0.06,1.31-0.19,1.95c-0.131,0.64-0.32,1.27-0.57,1.87c-0.25,0.61-0.561,1.19-0.92,1.73c-0.37,0.55-0.78,1.06-1.25,1.52  C461.891,125.02,459.321,126.09,456.681,126.09z"/>
<path d="M456.681,171.39c-0.649,0-1.31-0.07-1.95-0.2c-0.64-0.13-1.27-0.32-1.87-0.57c-0.609-0.25-1.189-0.56-1.729-0.92  c-0.55-0.36-1.061-0.78-1.521-1.24c-1.859-1.86-2.93-4.44-2.93-7.07c0-0.65,0.07-1.309,0.2-1.96c0.13-0.64,0.32-1.26,0.57-1.87  c0.25-0.6,0.56-1.18,0.92-1.72c0.359-0.55,0.779-1.06,1.239-1.53c0.46-0.46,0.971-0.87,1.521-1.24c0.54-0.36,1.12-0.67,1.729-0.92  c0.601-0.25,1.23-0.44,1.87-0.57c3.25-0.65,6.7,0.41,9.02,2.73c0.47,0.47,0.88,0.98,1.25,1.53c0.359,0.54,0.67,1.12,0.92,1.72  c0.25,0.61,0.439,1.23,0.57,1.87c0.13,0.65,0.19,1.31,0.19,1.96c0,2.63-1.06,5.21-2.93,7.07  C461.891,170.32,459.321,171.39,456.681,171.39z"/>
<path d="M456.681,216.69c-0.649,0-1.31-0.07-1.95-0.2c-0.64-0.13-1.27-0.32-1.87-0.57c-0.609-0.25-1.189-0.56-1.729-0.92  c-0.55-0.36-1.061-0.78-1.521-1.24c-1.859-1.86-2.93-4.44-2.93-7.07c0-0.65,0.07-1.31,0.2-1.96c0.13-0.64,0.32-1.26,0.57-1.87  c0.25-0.6,0.56-1.18,0.92-1.72c0.359-0.55,0.779-1.059,1.239-1.53c0.46-0.46,0.971-0.87,1.521-1.24c0.54-0.36,1.12-0.67,1.729-0.92  c0.601-0.25,1.23-0.44,1.87-0.57c3.25-0.65,6.7,0.41,9.02,2.73c0.47,0.47,0.88,0.98,1.25,1.53c0.359,0.54,0.67,1.12,0.92,1.72  c0.25,0.61,0.439,1.23,0.57,1.87c0.13,0.65,0.19,1.31,0.19,1.96c0,2.63-1.06,5.21-2.93,7.07  C461.891,215.62,459.321,216.69,456.681,216.69z"/>
<path d="M306.021,341.2c-0.649,0-1.309-0.07-1.96-0.2c-0.63-0.13-1.26-0.32-1.87-0.57c-0.6-0.25-1.18-0.56-1.72-0.92  c-0.55-0.36-1.06-0.78-1.52-1.24c-0.46-0.46-0.881-0.97-1.25-1.52c-0.36-0.54-0.67-1.12-0.92-1.73c-0.25-0.6-0.44-1.23-0.57-1.87  c-0.13-0.64-0.191-1.3-0.191-1.95s0.061-1.31,0.191-1.96c0.13-0.63,0.32-1.26,0.57-1.87c0.25-0.6,0.56-1.18,0.92-1.72  c0.369-0.55,0.79-1.06,1.25-1.52c0.46-0.46,0.97-0.88,1.52-1.25c0.54-0.36,1.12-0.67,1.72-0.92c0.61-0.25,1.24-0.44,1.87-0.57  c1.29-0.26,2.62-0.26,3.91,0c0.64,0.13,1.27,0.32,1.87,0.57c0.61,0.25,1.19,0.56,1.729,0.92c0.551,0.37,1.061,0.79,1.521,1.25  c0.46,0.46,0.88,0.97,1.24,1.52c0.359,0.54,0.67,1.12,0.92,1.72c0.25,0.61,0.44,1.24,0.569,1.87c0.131,0.65,0.2,1.31,0.2,1.96  s-0.069,1.31-0.2,1.95c-0.13,0.64-0.319,1.27-0.569,1.87c-0.25,0.61-0.56,1.19-0.92,1.73c-0.36,0.55-0.78,1.06-1.24,1.52  C311.231,340.13,308.651,341.2,306.021,341.2z"/>
<path d="M369.71,277.669v-60.983h51.946c5.522,0,10-4.477,10-10s-4.478-10-10-10H369.71v-25.3h51.946c5.522,0,10-4.477,10-10  s-4.478-10-10-10H369.71v-25.3h51.946c5.522,0,10-4.477,10-10s-4.478-10-10-10H369.71V63c0-17.004-6.647-32.898-18.719-44.754  C339.013,6.48,323.041,0,306.019,0c-17.022,0-32.993,6.48-44.973,18.246c-12.07,11.856-18.718,27.75-18.718,44.754v214.669  c-38.472,22.581-62.122,63.614-62.123,108.515c-0.001,33.484,12.923,64.964,36.39,88.641c23.469,23.68,54.833,36.88,88.313,37.169  c0.376,0.003,0.746,0.005,1.121,0.005c33.405-0.001,64.822-12.925,88.565-36.464c24.014-23.807,37.238-55.538,37.238-89.35  C431.833,341.285,408.183,300.251,369.71,277.669z M380.515,461.333C360.544,481.131,334.124,492,306.025,492  c-0.313,0-0.629-0.001-0.942-0.004c-57.831-0.5-104.878-47.966-104.877-105.811c0.001-39.488,21.752-75.421,56.766-93.775  c3.294-1.727,5.357-5.138,5.357-8.857V63c0-24.112,19.191-43,43.691-43s43.691,18.888,43.691,43v220.552  c0,3.719,2.064,7.13,5.357,8.857c35.015,18.355,56.766,54.289,56.766,93.777C411.833,414.623,400.711,441.31,380.515,461.333z"/>
<path d="M347.639,306.58l-13.929-7.301v-91.763c0-5.523-4.478-10-10-10h-35.382c-5.522,0-10,4.477-10,10v91.763l-13.929,7.301  c-29.727,15.584-48.194,46.087-48.194,79.606c0,23.929,9.219,46.409,25.959,63.299c16.738,16.889,39.138,26.305,63.117,26.513  l0.737,0.003c0,0,0,0,0.001,0h0.001h0.009c23.988,0,46.539-9.341,63.498-26.302c16.964-16.962,26.307-39.517,26.307-63.511  C395.833,352.667,377.366,322.164,347.639,306.58z M355.385,435.556c-10.803,10.804-24.526,17.622-39.366,19.734v-89.063  c0-5.523-4.478-10-10-10c-5.522,0-10,4.477-10,10v89.056c-15.033-2.123-28.863-8.994-39.649-19.878  c-13.003-13.12-20.164-30.6-20.164-49.22c0.001-26.057,14.362-49.773,37.48-61.892l19.286-10.109  c3.294-1.727,5.357-5.138,5.357-8.857v-87.812h15.382v87.812c0,3.719,2.064,7.13,5.357,8.857l19.286,10.109  c23.118,12.119,37.479,35.835,37.479,61.893C375.833,404.838,368.572,422.371,355.385,435.556z"/>
<path style="fill:#007177;" d="M178.297,195.511c0.061,17.155-13.766,31.042-30.952,30.952  c-17.094-0.089-30.953-13.858-30.953-30.952s13.858-30.952,30.953-30.952S178.236,178.417,178.297,195.511z"/>
<path d="M204.502,164.145c0-62.59-70.47-117.875-73.47-120.198c-3.604-2.791-8.641-2.791-12.244,0  c-3,2.323-73.47,57.608-73.47,120.198c0,43.887,35.705,79.592,79.592,79.592c16.467,0,31.781-5.027,44.49-13.626  c1.461-0.932,2.87-1.958,4.215-3.083C192.387,212.455,204.502,189.695,204.502,164.145z M160.552,211.875  c-0.009,0.007-0.019,0.014-0.028,0.021c-0.606,0.453-1.228,0.887-1.852,1.318c-3.338,2.124-7.224,3.263-11.274,3.25  c-11.582-0.061-21.005-9.46-21.005-20.953c0-11.553,9.399-20.953,20.953-20.953c11.512,0,20.911,9.415,20.952,20.988  c0.02,5.633-2.148,10.912-6.106,14.863c-0.479,0.478-0.979,0.927-1.496,1.352C160.646,211.799,160.6,211.838,160.552,211.875z   M65.317,164.145c0-43.022,43.274-84.962,59.592-99.245c16.323,14.288,59.592,56.227,59.592,99.245  c0,4.065-0.412,8.035-1.191,11.874c-6.959-12.77-20.485-21.46-35.966-21.46c-22.582,0-40.953,18.371-40.953,40.953  c0,10.673,4.148,20.417,10.915,27.724C88.027,219.488,65.317,194.427,65.317,164.145z"/>
<g>
</g>
<g>
</g>
<g>
</g>
<g>
</g>
<g>
</g>
<g>
</g>
<g>
</g>
<g>
</g>
<g>
</g>
<g>
</g>
<g>
</g>
<g>
</g>
<g>
</g>
<g>
</g>
<g>
</g>
</svg>
