<?xml version="1.0" encoding="iso-8859-1"?>
<!-- Generator: Adobe Illustrator 19.0.0, SVG Export Plug-In . SVG Version: 6.00 Build 0)  -->
<svg xmlns="http://www.w3.org/2000/svg" xmlns:xlink="http://www.w3.org/1999/xlink" version="1.1" id="Capa_1" x="0px" y="0px" viewBox="0 0 512 512" style="enable-background:new 0 0 512 512;" xml:space="preserve">
<path style="fill:#F4BA64;" d="M117.167,255.999c0,49.706,26.129,93.311,65.39,117.833c21.308,13.307,46.475,20.999,73.442,20.999  c76.672,0,138.832-62.16,138.832-138.832s-62.16-138.832-138.832-138.832c-26.966,0-52.133,7.691-73.442,20.999  C143.296,162.689,117.167,206.293,117.167,255.999z"/>
<path style="fill:#FF8C5A;" d="M412.023,294.842l89.976-38.203l-90.193-39.042l44.844-46.636l-59.112-0.299l35.879-85.16  l-91.86,34.787l-0.306-64.909l-46.409,44.595L256.638,9.999l-39.041,90.193l-46.636-44.843l-0.299,59.112l-85.161-35.88  l34.787,91.86l-64.909,0.306l44.595,46.409L9.999,255.36l90.193,39.042l-44.843,46.636l59.112,0.298l-35.879,85.16l91.86-34.787  l0.307,64.909l46.409-44.595l38.204,89.976l39.041-90.193l46.636,44.843l0.298-59.112l85.161,35.879l-34.787-91.86l64.909-0.306  L412.023,294.842z M255.999,394.831c-26.966,0-52.133-7.691-73.442-20.999c-39.261-24.522-65.39-68.127-65.39-117.833  s26.129-93.311,65.39-117.833c21.309-13.307,46.475-20.999,73.442-20.999c76.672,0,138.832,62.16,138.832,138.832  C394.831,332.672,332.671,394.831,255.999,394.831z"/>
<path d="M184.819,190.329c-0.65,0-1.31-0.06-1.96-0.191c-0.63-0.13-1.26-0.329-1.87-0.579c-0.6-0.25-1.18-0.55-1.72-0.91  c-0.55-0.37-1.06-0.79-1.52-1.25c-1.87-1.86-2.93-4.44-2.93-7.07c0-0.65,0.06-1.31,0.19-1.95s0.32-1.27,0.57-1.87  c0.25-0.61,0.56-1.19,0.92-1.73c0.37-0.55,0.78-1.06,1.25-1.52c0.46-0.46,0.97-0.88,1.52-1.24c0.54-0.36,1.12-0.67,1.72-0.92  c0.61-0.25,1.24-0.44,1.87-0.57c1.29-0.26,2.62-0.26,3.91,0c0.64,0.13,1.27,0.32,1.87,0.57c0.61,0.25,1.19,0.56,1.73,0.92  c0.55,0.36,1.06,0.78,1.52,1.24s0.88,0.97,1.24,1.52c0.36,0.54,0.67,1.12,0.92,1.73c0.25,0.6,0.44,1.23,0.57,1.87s0.2,1.3,0.2,1.95  c0,2.64-1.07,5.21-2.93,7.07c-0.46,0.46-0.97,0.88-1.52,1.25c-0.54,0.36-1.12,0.66-1.73,0.91c-0.6,0.25-1.23,0.45-1.87,0.579  C186.129,190.269,185.469,190.329,184.819,190.329z"/>
<polygon style="fill:#F9D973;" points="346.629,257.939 287.687,257.939 288.374,121.874 165.369,257.939 233.897,257.941   234.125,357.542 234.205,392.687 "/>
<path d="M255.999,107.167c-27.924,0-55.151,7.786-78.739,22.518c-43.89,27.414-70.093,74.634-70.093,126.314  S133.37,354.9,177.26,382.314c23.587,14.731,50.815,22.517,78.739,22.517c82.066,0,148.832-66.766,148.832-148.832  S338.065,107.167,255.999,107.167z M243.897,257.918c-0.013-5.514-4.486-9.977-10-9.977l-46.008-0.001l90.353-99.946l-0.555,109.894  c-0.013,2.661,1.034,5.218,2.911,7.104c1.877,1.886,4.428,2.947,7.089,2.947h37.576l-81.12,97.228L243.897,257.918z   M224.094,344.292c-6.179-2.229-12.105-5.103-17.711-8.604c-24.377-15.227-40.104-40.124-43.53-68.09  c0.812,0.211,1.652,0.341,2.515,0.341l58.551,0.002L224.094,344.292z M127.167,255.999c0-44.737,22.687-85.616,60.688-109.351  c20.406-12.745,43.97-19.481,68.144-19.481c4.55,0,9.044,0.241,13.474,0.703L162.739,245.936c1.301-11.2,4.747-22.603,10.308-34.024  c2.418-4.965,0.353-10.951-4.613-13.369c-4.965-2.417-10.95-0.352-13.369,4.613c-8.576,17.612-12.924,35.391-12.924,52.843  c0,39.538,20.055,75.669,53.647,96.652c8.853,5.529,18.368,9.754,28.354,12.655l0.036,15.543  c-12.785-3.25-25.038-8.45-36.323-15.498C149.854,341.616,127.167,300.736,127.167,255.999z M255.999,384.831  c-0.729,0-1.456-0.026-2.185-0.038l100.493-120.448c2.486-2.98,3.023-7.13,1.378-10.645c-1.645-3.516-5.176-5.761-9.057-5.761  h-48.892l0.574-113.626c50.316,17.546,86.52,65.464,86.52,121.686C384.831,327.037,327.037,384.831,255.999,384.831z"/>
<path d="M505.972,247.461L429,214.143l34.857-36.251c2.772-2.883,3.56-7.141,2.003-10.825c-1.558-3.684-5.161-6.085-9.161-6.106  l-44.13-0.223l30.062-71.354c1.553-3.686,0.76-7.942-2.016-10.822c-2.775-2.88-7.001-3.83-10.741-2.412l-78.386,29.685  l-0.238-50.502c-0.019-4-2.419-7.604-6.103-9.162c-3.685-1.559-7.942-0.773-10.826,1.999l-35.946,34.542l-32.533-76.62  c-1.563-3.682-5.17-6.078-9.169-6.092c-0.012,0-0.023,0-0.036,0c-3.985,0-7.592,2.368-9.177,6.027l-33.318,76.971l-36.251-34.857  c-2.883-2.772-7.141-3.559-10.825-2.003c-3.684,1.558-6.085,5.161-6.106,9.161l-0.223,44.13L89.384,69.366  c-3.686-1.555-7.943-0.76-10.822,2.016c-2.88,2.776-3.829,7-2.412,10.741l29.685,78.387l-50.502,0.238  c-4,0.019-7.604,2.419-9.162,6.103s-0.772,7.942,1.999,10.826l34.542,35.946l-76.62,32.533c-3.682,1.563-6.078,5.17-6.092,9.17  c-0.014,4,2.357,7.624,6.027,9.212l76.971,33.318l-34.857,36.251c-2.772,2.883-3.56,7.141-2.003,10.825  c1.558,3.684,5.161,6.085,9.161,6.106l44.13,0.223l-30.062,71.354c-1.553,3.686-0.76,7.942,2.016,10.822  c2.775,2.879,6.999,3.828,10.741,2.412l78.386-29.685l0.238,50.502c0.019,4,2.419,7.603,6.103,9.162  c3.683,1.557,7.941,0.772,10.826-1.999l35.946-34.541l32.533,76.62c1.563,3.682,5.17,6.078,9.169,6.092c0.012,0,0.023,0,0.036,0  c3.985,0,7.592-2.368,9.177-6.027l33.318-76.971l36.251,34.857c2.883,2.773,7.141,3.559,10.825,2.003  c3.684-1.558,6.085-5.161,6.106-9.161l0.223-44.13l71.354,30.062c3.685,1.554,7.942,0.76,10.822-2.016s3.829-7.001,2.412-10.741  l-29.685-78.387l50.502-0.238c3.999-0.019,7.603-2.419,9.162-6.103s0.773-7.942-1.999-10.826l-34.542-35.946l76.621-32.533  c3.682-1.563,6.078-5.17,6.092-9.169C512.013,252.674,509.643,249.05,505.972,247.461z M408.115,285.638  c-3.027,1.285-5.229,3.977-5.889,7.199c-0.66,3.222,0.308,6.563,2.586,8.934l28.434,29.59l-41.584,0.196  c-3.277,0.016-6.338,1.636-8.194,4.337c-1.856,2.701-2.271,6.14-1.11,9.205l26.527,70.047l-63.666-26.823  c-3.078-1.298-6.602-0.972-9.392,0.87c-2.788,1.841-4.473,4.953-4.49,8.295l-0.181,35.787l-29.823-28.676  c-2.362-2.271-5.688-3.242-8.9-2.596c-3.213,0.646-5.906,2.824-7.208,5.832l-29.776,68.788l-29.088-68.506  c-1.286-3.027-3.977-5.229-7.199-5.889c-0.667-0.137-1.338-0.203-2.005-0.203c-2.557,0-5.048,0.982-6.929,2.79l-29.59,28.434  l-0.196-41.584c-0.016-3.277-1.636-6.338-4.337-8.194c-2.7-1.855-6.138-2.27-9.205-1.11l-70.047,26.527l26.823-63.666  c1.297-3.079,0.971-6.603-0.87-9.392s-4.953-4.473-8.295-4.49l-35.787-0.181l28.676-29.823c2.271-2.362,3.242-5.688,2.596-8.9  c-0.646-3.213-2.824-5.906-5.832-7.208l-68.787-29.779l68.506-29.088c3.027-1.285,5.229-3.977,5.889-7.199s-0.308-6.563-2.586-8.934  l-28.434-29.59l41.584-0.196c3.277-0.016,6.338-1.636,8.194-4.337c1.856-2.701,2.271-6.14,1.11-9.205l-26.527-70.047l63.666,26.823  c3.079,1.298,6.603,0.972,9.392-0.87c2.788-1.841,4.473-4.953,4.49-8.295l0.181-35.787l29.823,28.676  c2.362,2.271,5.685,3.239,8.9,2.596c3.213-0.645,5.906-2.824,7.208-5.832l29.776-68.788l29.088,68.506  c1.286,3.027,3.977,5.229,7.199,5.889c3.223,0.66,6.563-0.307,8.934-2.586l29.59-28.434l0.196,41.584  c0.016,3.277,1.636,6.338,4.337,8.194c2.701,1.856,6.139,2.271,9.205,1.11l70.047-26.527l-26.823,63.666  c-1.297,3.079-0.971,6.603,0.87,9.392c1.841,2.788,4.953,4.473,8.295,4.49l35.787,0.181l-28.676,29.823  c-2.271,2.362-3.242,5.688-2.596,8.9c0.646,3.213,2.824,5.906,5.832,7.208l68.788,29.776L408.115,285.638z"/>
<g>
</g>
<g>
</g>
<g>
</g>
<g>
</g>
<g>
</g>
<g>
</g>
<g>
</g>
<g>
</g>
<g>
</g>
<g>
</g>
<g>
</g>
<g>
</g>
<g>
</g>
<g>
</g>
<g>
</g>
</svg>
