<?xml version="1.0" encoding="iso-8859-1"?>
<!-- Generator: Adobe Illustrator 19.0.0, SVG Export Plug-In . SVG Version: 6.00 Build 0)  -->
<svg xmlns="http://www.w3.org/2000/svg" xmlns:xlink="http://www.w3.org/1999/xlink" version="1.1" id="Capa_1" x="0px" y="0px" viewBox="0 0 512.001 512.001" style="enable-background:new 0 0 512.001 512.001;" xml:space="preserve">
<path style="fill:#54E3EA;" d="M303.934,441.667v-59.712c0-22.602,18.322-40.924,40.924-40.924h74.599v141.56h-74.599  C322.257,482.591,303.934,464.269,303.934,441.667z"/>
<rect x="419.463" y="321.619" style="fill:#007177;" width="39.762" height="180.373"/>
<path d="M377.804,456.881c-0.65,0-1.31-0.07-1.95-0.2s-1.27-0.32-1.87-0.57c-0.609-0.25-1.189-0.56-1.729-0.92  c-0.55-0.36-1.06-0.78-1.521-1.24c-0.46-0.47-0.88-0.98-1.239-1.52c-0.36-0.55-0.671-1.13-0.921-1.73  c-0.25-0.6-0.449-1.23-0.569-1.87c-0.13-0.65-0.2-1.3-0.2-1.95c0-0.66,0.07-1.31,0.2-1.96c0.12-0.64,0.319-1.27,0.569-1.87  c0.25-0.6,0.561-1.18,0.921-1.73c0.359-0.54,0.779-1.05,1.239-1.51c0.46-0.47,0.971-0.88,1.521-1.25  c0.54-0.36,1.12-0.671,1.729-0.921c0.601-0.25,1.23-0.44,1.87-0.57c1.29-0.26,2.62-0.26,3.91,0c0.63,0.13,1.26,0.32,1.87,0.57  c0.6,0.25,1.18,0.56,1.72,0.921c0.55,0.37,1.061,0.78,1.52,1.25c0.46,0.46,0.88,0.97,1.239,1.51c0.37,0.55,0.671,1.13,0.921,1.73  c0.25,0.6,0.449,1.23,0.569,1.87c0.13,0.65,0.2,1.3,0.2,1.96c0,0.65-0.07,1.31-0.2,1.95c-0.12,0.64-0.319,1.27-0.569,1.87  c-0.25,0.6-0.551,1.18-0.921,1.73c-0.359,0.54-0.779,1.05-1.239,1.52c-0.46,0.46-0.971,0.88-1.52,1.24  c-0.54,0.36-1.12,0.67-1.72,0.92c-0.61,0.25-1.24,0.44-1.87,0.57C379.113,456.811,378.454,456.881,377.804,456.881z"/>
<path style="fill:#FF8C5A;" d="M357.386,194.361l-26.566,31.577l2.936,41.154c0.824,11.55-6.785,22.016-18.026,24.795l-40.068,9.906  l-21.768,35.029c-6.12,9.848-18.446,13.852-29.185,9.481l-38.213-15.554l-38.212,15.554c-10.739,4.372-23.065,0.367-29.185-9.481  L97.33,301.793l-40.067-9.906c-11.241-2.779-18.85-13.245-18.026-24.795l2.936-41.153l-26.567-31.577  c-7.45-8.856-7.45-21.786,0-30.642l26.566-31.577l-2.934-41.155c-0.824-11.55,6.785-22.016,18.026-24.795l40.068-9.906  l21.768-35.029c6.12-9.848,18.446-13.851,29.185-9.481l38.213,15.554l38.212-15.554c10.739-4.372,23.065-0.368,29.185,9.481  l21.769,35.029l40.068,9.906c11.241,2.779,18.85,13.245,18.026,24.795l-2.936,41.153l26.567,31.577  C364.837,172.575,364.837,185.505,357.386,194.361z"/>
<circle style="fill:#F9D973;" cx="186.492" cy="179.034" r="116.215"/>
<path d="M186.496,305.258c-69.597,0-126.219-56.622-126.219-126.219S116.9,52.821,186.496,52.821s126.219,56.622,126.219,126.219  S256.093,305.258,186.496,305.258z M186.496,72.82c-58.57,0-106.22,47.65-106.22,106.22s47.649,106.22,106.22,106.22  c58.57,0,106.22-47.65,106.22-106.22S245.067,72.82,186.496,72.82z"/>
<path d="M186.615,265.167c-47.49,0-86.127-38.637-86.127-86.128s38.636-86.127,86.127-86.127c5.523,0,10,4.477,10,10  c0,5.523-4.477,10-10,10c-36.463,0-66.127,29.665-66.127,66.127c0,36.464,29.665,66.128,66.127,66.128  c23.112,0,44.874-12.372,56.792-32.286c2.837-4.738,8.975-6.283,13.716-3.445c4.738,2.836,6.281,8.977,3.445,13.715  C245.058,249.068,216.721,265.167,186.615,265.167z"/>
<path d="M262.509,195.062c-0.65,0-1.31-0.06-1.96-0.19c-0.641-0.13-1.271-0.32-1.87-0.57c-0.601-0.25-1.18-0.56-1.72-0.92  c-0.551-0.37-1.061-0.79-1.52-1.25c-0.47-0.46-0.88-0.97-1.25-1.52c-0.36-0.54-0.67-1.12-0.92-1.72c-0.25-0.61-0.44-1.24-0.57-1.87  c-0.13-0.65-0.189-1.31-0.189-1.96c0-0.65,0.06-1.31,0.189-1.95c0.13-0.64,0.32-1.27,0.57-1.87c0.25-0.61,0.56-1.19,0.92-1.73  c0.37-0.55,0.78-1.06,1.25-1.52c0.46-0.46,0.97-0.88,1.52-1.24c0.54-0.36,1.119-0.67,1.72-0.92c0.6-0.25,1.23-0.44,1.87-0.57  c1.29-0.26,2.62-0.26,3.91,0c0.64,0.13,1.27,0.32,1.869,0.57c0.61,0.25,1.19,0.56,1.73,0.92c0.55,0.36,1.06,0.78,1.52,1.24  c0.461,0.46,0.881,0.97,1.24,1.52c0.36,0.54,0.67,1.12,0.92,1.73c0.25,0.6,0.44,1.23,0.57,1.87c0.13,0.64,0.2,1.3,0.2,1.95  c0,0.65-0.07,1.31-0.2,1.96c-0.13,0.63-0.32,1.26-0.57,1.87c-0.25,0.6-0.56,1.18-0.92,1.72c-0.359,0.55-0.779,1.06-1.24,1.52  c-0.46,0.46-0.97,0.88-1.52,1.25c-0.54,0.36-1.12,0.67-1.73,0.92c-0.6,0.25-1.229,0.44-1.869,0.57  C263.819,195.002,263.158,195.062,262.509,195.062z"/>
<path d="M502,448.064h-32.78V375.56H502c5.522,0,10-4.477,10-10s-4.477-10-10-10h-32.78v-33.938c0-5.523-4.478-10-10-10h-39.762  c-5.523,0-10,4.477-10,10v9.409h-64.599c-28.08,0-50.925,22.844-50.925,50.924v19.894h-70.758c-14.711,0-26.681-11.969-26.681-26.68  v-29.557l24.442,9.95c15.297,6.226,32.73,0.566,41.448-13.463l19.622-31.576l36.12-8.93c16.007-3.957,26.773-18.766,25.602-35.215  l-2.647-37.109l23.955-28.473c10.607-12.608,10.607-30.909,0-43.516l-23.956-28.474l2.647-37.108  c1.174-16.447-9.593-31.257-25.601-35.215l-36.12-8.929l-19.621-31.576c-8.718-14.029-26.151-19.69-41.448-13.463l-34.441,14.02  L152.054,2.516c-15.296-6.227-32.729-0.565-41.447,13.464L90.985,47.555l-36.122,8.93c-16.007,3.958-26.773,18.767-25.6,35.214  l2.646,37.109L7.955,157.281c-10.607,12.607-10.607,30.909,0,43.516L31.91,229.27l-2.646,37.108  c-1.174,16.448,9.594,31.258,25.601,35.215l36.121,8.93l19.623,31.576c6.339,10.201,17.283,15.977,28.666,15.977  c4.272,0,8.607-0.814,12.781-2.513l24.441-9.95v29.557c0,25.739,20.94,46.679,46.68,46.679h70.758v19.817  c0,28.08,22.845,50.924,50.925,50.924h64.599v9.409c0,5.523,4.477,10,10,10h39.762c5.522,0,10-4.477,10-10v-33.936h32.78  c5.522,0,10-4.477,10-10C511.999,452.541,507.522,448.064,502,448.064z M144.515,337.039c-6.243,2.544-13.361,0.231-16.921-5.497  l-21.769-35.029c-1.376-2.214-3.563-3.804-6.094-4.43l-40.067-9.906c-6.535-1.615-10.932-7.662-10.452-14.376l2.936-41.153  c0.186-2.594-0.648-5.159-2.322-7.149l-26.567-31.577c-4.331-5.147-4.331-12.619,0-17.766l26.566-31.577  c1.674-1.99,2.508-4.555,2.322-7.149L49.21,90.276c-0.479-6.715,3.917-12.761,10.451-14.376l40.068-9.906  c2.531-0.625,4.718-2.215,6.094-4.429l21.768-35.029c2.589-4.165,7.057-6.523,11.704-6.523c1.744,0,3.514,0.332,5.218,1.026  l38.213,15.554c2.418,0.983,5.123,0.983,7.541,0l38.212-15.554c6.246-2.544,13.362-0.232,16.922,5.497l21.769,35.03  c1.376,2.214,3.563,3.804,6.094,4.43l40.066,9.905c6.535,1.616,10.932,7.662,10.452,14.376l-2.936,41.154  c-0.186,2.595,0.648,5.159,2.322,7.149l26.567,31.577c4.331,5.148,4.331,12.618,0,17.766L323.168,219.5  c-1.674,1.99-2.508,4.555-2.322,7.149l2.936,41.153c0.479,6.715-3.917,12.762-10.453,14.377l-40.066,9.905  c-2.531,0.626-4.718,2.215-6.094,4.43l-21.768,35.029c-3.561,5.728-10.679,8.039-16.922,5.497l-38.071-15.496  c-0.019-0.008-0.039-0.016-0.058-0.024l-0.085-0.034c-0.077-0.031-0.156-0.053-0.233-0.082c-0.216-0.082-0.431-0.162-0.653-0.229  c-0.098-0.029-0.197-0.05-0.295-0.076c-0.214-0.057-0.427-0.116-0.646-0.159c-0.135-0.027-0.272-0.041-0.408-0.062  c-0.184-0.028-0.366-0.062-0.553-0.08c-0.294-0.029-0.589-0.042-0.883-0.045c-0.033,0-0.065-0.005-0.099-0.005  c-0.033,0-0.066,0.005-0.099,0.005c-0.295,0.003-0.59,0.016-0.883,0.045c-0.187,0.018-0.369,0.052-0.553,0.08  c-0.136,0.021-0.273,0.035-0.408,0.062c-0.219,0.043-0.433,0.101-0.646,0.159c-0.098,0.026-0.198,0.046-0.295,0.076  c-0.222,0.067-0.438,0.148-0.653,0.229c-0.077,0.029-0.156,0.051-0.233,0.082l-0.085,0.034c-0.019,0.008-0.039,0.015-0.058,0.024  L144.515,337.039z M344.86,472.592c-17.052,0-30.926-13.873-30.926-30.925v-59.711c0-17.052,13.873-30.925,30.926-30.925h22.946  v60.82c0,5.523,4.477,10,10,10c5.522,0,10-4.477,10-10v-60.82h21.653v121.561H344.86V472.592z M449.221,492h-19.763v-9.409v-141.56  v-9.409h19.763V492z"/>
<g>
</g>
<g>
</g>
<g>
</g>
<g>
</g>
<g>
</g>
<g>
</g>
<g>
</g>
<g>
</g>
<g>
</g>
<g>
</g>
<g>
</g>
<g>
</g>
<g>
</g>
<g>
</g>
<g>
</g>
</svg>
