<?xml version="1.0" encoding="iso-8859-1"?>
<!-- Generator: Adobe Illustrator 19.0.0, SVG Export Plug-In . SVG Version: 6.00 Build 0)  -->
<svg xmlns="http://www.w3.org/2000/svg" xmlns:xlink="http://www.w3.org/1999/xlink" version="1.1" id="Capa_1" x="0px" y="0px" viewBox="0 0 512 512" style="enable-background:new 0 0 512 512;" xml:space="preserve">
<path style="fill:#FF8C5A;" d="M337.295,265.328l-15.322,18.212l1.693,23.736c0.475,6.661-3.913,12.698-10.396,14.301l-23.109,5.713  l-12.555,20.203c-3.53,5.68-10.639,7.989-16.832,5.468l-22.039-8.971l-22.038,8.971c-6.193,2.521-13.303,0.212-16.832-5.468  l-12.555-20.203l-23.109-5.713c-6.483-1.603-10.872-7.639-10.396-14.301l1.693-23.735l-15.322-18.212  c-4.297-5.107-4.297-12.565,0-17.672l15.322-18.212l-1.693-23.736c-0.475-6.661,3.913-12.698,10.396-14.301l23.109-5.713  l12.555-20.203c3.53-5.68,10.639-7.989,16.832-5.468l22.039,8.971l22.038-8.971c6.193-2.521,13.303-0.212,16.832,5.468  l12.555,20.203l23.109,5.713c6.483,1.603,10.872,7.639,10.396,14.301l-1.693,23.735l15.322,18.212  C341.592,252.763,341.592,260.22,337.295,265.328z"/>
<path d="M211.493,363.986c-7.991,0-15.673-4.055-20.123-11.216l-10.409-16.749l-19.162-4.737  c-11.237-2.777-18.795-13.173-17.971-24.719l1.405-19.69l-12.711-15.108c-7.446-8.85-7.446-21.698,0-30.548l12.711-15.108  l-1.405-19.69c-0.823-11.545,6.734-21.941,17.971-24.72l19.162-4.737l10.408-16.749c6.12-9.849,18.356-13.823,29.096-9.452  l18.269,7.436l18.268-7.436c10.741-4.371,22.976-0.396,29.096,9.452l10.409,16.749l19.162,4.736  c11.237,2.778,18.794,13.175,17.971,24.72l-1.405,19.69l12.711,15.108c7.447,8.85,7.447,21.698,0,30.548h0.001l-12.711,15.108  l1.404,19.69c0.824,11.546-6.735,21.942-17.972,24.72l-19.161,4.737L286.1,352.77c-6.12,9.848-18.358,13.822-29.096,9.452  l-18.268-7.436l-18.268,7.436C217.535,363.415,214.492,363.986,211.493,363.986z M211.517,169.008c-1.255,0-2.461,0.637-3.16,1.761  l-12.555,20.203c-1.376,2.214-3.563,3.804-6.094,4.43l-23.109,5.712c-1.764,0.436-2.951,2.069-2.822,3.882l1.693,23.735  c0.185,2.594-0.648,5.159-2.323,7.149l-15.322,18.212c-1.169,1.39-1.169,3.406,0,4.796l15.322,18.212  c1.675,1.991,2.508,4.555,2.323,7.149l-1.693,23.735c-0.129,1.813,1.058,3.445,2.822,3.881l23.109,5.713  c2.531,0.625,4.717,2.215,6.094,4.429l12.555,20.203c0.961,1.547,2.883,2.17,4.568,1.484l22.038-8.971  c2.418-0.983,5.123-0.983,7.54,0l22.039,8.971c1.686,0.687,3.607,0.062,4.568-1.484l12.555-20.203  c1.376-2.214,3.563-3.804,6.094-4.429l23.109-5.713c1.765-0.437,2.951-2.068,2.822-3.881l-1.693-23.735  c-0.185-2.594,0.648-5.159,2.322-7.149l15.322-18.212l0,0c1.169-1.39,1.169-3.406,0-4.796l-15.322-18.212  c-1.675-1.991-2.508-4.555-2.323-7.149l1.693-23.735c0.129-1.813-1.058-3.445-2.822-3.882l-23.108-5.712  c-2.531-0.626-4.717-2.215-6.094-4.43l-12.555-20.203c-0.961-1.547-2.883-2.17-4.568-1.484l-22.038,8.971  c-2.418,0.983-5.124,0.983-7.541,0l-22.039-8.971C212.465,169.098,211.987,169.008,211.517,169.008z"/>
<circle style="fill:#F9D973;" cx="238.732" cy="256.492" r="55.788"/>
<path d="M238.734,322.28c-36.275,0-65.789-29.512-65.789-65.789s29.512-65.789,65.789-65.789c36.275,0,65.788,29.512,65.788,65.789  S275.01,322.28,238.734,322.28z M238.734,210.704c-25.248,0-45.788,20.54-45.788,45.788c0,25.247,20.54,45.788,45.788,45.788  c25.247,0,45.787-20.54,45.787-45.788C284.523,231.244,263.982,210.704,238.734,210.704z"/>
<path d="M368.428,236.829c-0.65,0-1.31-0.07-1.95-0.2c-0.64-0.12-1.27-0.32-1.87-0.57c-0.61-0.25-1.19-0.56-1.73-0.921  c-0.55-0.36-1.06-0.78-1.52-1.24c-1.86-1.86-2.93-4.44-2.93-7.07c0-0.65,0.07-1.31,0.2-1.95c0.13-0.64,0.32-1.27,0.57-1.87  c0.25-0.61,0.56-1.19,0.92-1.73c0.36-0.55,0.78-1.06,1.24-1.52s0.97-0.88,1.52-1.24c0.54-0.36,1.12-0.67,1.73-0.92  c0.6-0.25,1.23-0.44,1.87-0.57c1.29-0.26,2.61-0.26,3.9,0c0.64,0.13,1.27,0.32,1.88,0.57c0.6,0.25,1.18,0.56,1.72,0.92  c0.55,0.36,1.06,0.78,1.52,1.24s0.88,0.97,1.25,1.52c0.36,0.54,0.66,1.12,0.91,1.73c0.25,0.6,0.45,1.23,0.57,1.87  c0.13,0.64,0.2,1.3,0.2,1.95c0,2.63-1.07,5.21-2.93,7.07c-0.46,0.46-0.97,0.88-1.52,1.24c-0.54,0.36-1.12,0.671-1.72,0.921  c-0.61,0.25-1.24,0.45-1.88,0.57C369.738,236.759,369.078,236.829,368.428,236.829z"/>
<path d="M216.25,399.141c-0.536,0-1.077-0.043-1.623-0.132c-33.531-5.473-64.245-22.762-86.482-48.684  c-22.482-26.209-34.864-59.685-34.864-94.26c0-79.867,64.976-144.842,144.841-144.842c52.62,0,101.182,28.61,126.734,74.667  c2.68,4.83,0.936,10.917-3.893,13.596c-4.829,2.681-10.915,0.938-13.596-3.893c-22.029-39.704-63.89-64.37-109.246-64.37  c-68.838,0-124.841,56.005-124.841,124.842c0,61.502,43.977,113.316,104.568,123.205c5.451,0.89,9.148,6.03,8.259,11.48  C225.307,395.655,221.063,399.141,216.25,399.141z"/>
<path style="fill:#59C671;" d="M365.261,259.447l68.37,92.141L502,259.447h-40.879l-0.005-4.082  c-0.082-60.104-23.391-116.595-65.632-159.069c-42.229-42.46-98.349-65.844-158.024-65.844c-59.702,0-115.883,23.437-158.247,66.048  C34.975,139.74,10.397,196.18,10,255.481l0.001,1.291c0.372,60.026,23.781,116.458,65.916,158.903  c42.168,42.477,98.111,65.872,157.523,65.872c55.963,0,109.134-20.75,150.34-58.551l-37.258-35.937  c-30.637,27.14-71.541,42.735-113.046,42.942l-0.797,0.002c-46.046,0-89.171-18.282-121.427-51.478  c-31.86-32.788-49.407-76.105-49.407-121.945c-0.218-46.328,19.308-90.612,54.983-124.704  c31.403-31.55,75.349-49.771,120.597-49.995l0.79-0.001c94.202,0,170.841,77.704,170.841,173.214v4.356h-43.793V259.447z"/>
<path d="M233.44,491.547c-62.097,0-120.559-24.442-164.62-68.826C24.83,378.408,0.39,319.494,0.001,256.834L0,255.489  c0.414-62.023,26.042-120.976,72.17-166.088c44.229-44.462,102.928-68.949,165.29-68.949c62.355,0,120.994,24.431,165.114,68.793  c42.727,42.962,66.907,99.656,68.462,160.202h30.964c3.778,0,7.234,2.13,8.933,5.505c1.699,3.375,1.35,7.42-0.902,10.454  l-68.37,92.142c-1.886,2.542-4.865,4.041-8.031,4.041c-3.166,0-6.145-1.499-8.031-4.041l-68.37-92.142  c-2.252-3.035-2.601-7.079-0.902-10.454c1.698-3.375,5.154-5.505,8.933-5.505h33.699c-2.942-87.393-73.92-157.569-160.746-157.569  l-0.771,0.001c-42.586,0.212-83.978,17.36-113.529,47.05c-0.059,0.059-0.118,0.117-0.179,0.175  c-33.667,32.173-52.096,73.877-51.892,117.428c0,43.279,16.542,84.112,46.579,115.023c30.357,31.241,70.934,48.446,114.255,48.446  l0.778-0.001c38.844-0.194,77.65-14.929,106.434-40.428c3.906-3.46,9.816-3.335,13.573,0.288l37.258,35.937  c1.985,1.915,3.091,4.565,3.057,7.323s-1.207,5.379-3.239,7.244C347.53,469.818,291.738,491.547,233.44,491.547z M237.459,40.453  c-57.021,0-110.702,22.409-151.154,63.099c-0.034,0.034-0.068,0.067-0.102,0.101C43.889,145.011,20.378,198.955,20,255.548  l0.001,1.216c0.355,57.338,22.734,111.291,63.013,151.865c40.277,40.572,93.7,62.916,150.426,62.916  c49.721,0,97.454-17.298,135.556-48.916l-22.944-22.13c-31.491,24.998-71.984,39.3-112.526,39.502l-0.828,0.001  c-48.79,0-94.462-19.358-128.618-54.51c-33.685-34.665-52.236-80.448-52.236-128.914c-0.23-49.015,20.362-95.853,57.985-131.849  c33.245-33.351,79.728-52.614,127.546-52.852l0.821-0.001c99.734,0,180.859,82.189,180.859,183.214v4.355c0,5.523-4.477,10-10,10  h-23.921l48.497,65.36l48.497-65.36h-21.007c-5.518,0-9.993-4.469-10-9.987l-0.005-4.082  c-0.079-57.447-22.354-111.439-62.723-152.029C348.054,62.789,294.452,40.453,237.459,40.453z"/>
<g>
</g>
<g>
</g>
<g>
</g>
<g>
</g>
<g>
</g>
<g>
</g>
<g>
</g>
<g>
</g>
<g>
</g>
<g>
</g>
<g>
</g>
<g>
</g>
<g>
</g>
<g>
</g>
<g>
</g>
</svg>
