<?xml version="1.0" encoding="iso-8859-1"?>
<!-- Generator: Adobe Illustrator 19.0.0, SVG Export Plug-In . SVG Version: 6.00 Build 0)  -->
<svg xmlns="http://www.w3.org/2000/svg" xmlns:xlink="http://www.w3.org/1999/xlink" version="1.1" id="Capa_1" x="0px" y="0px" viewBox="0 0 512 512" style="enable-background:new 0 0 512 512;" xml:space="preserve">
<path style="fill:#F4BA64;" d="M394.831,256.001c0,49.706-26.129,93.311-65.39,117.833c-21.308,13.307-46.475,20.999-73.442,20.999  c-76.672,0-138.832-62.16-138.832-138.832s62.16-138.832,138.832-138.832c26.966,0,52.133,7.691,73.442,20.999  C368.702,162.69,394.831,206.295,394.831,256.001z"/>
<path style="fill:#FF8C5A;" d="M412.023,294.844l89.976-38.204l-90.193-39.042l44.844-46.636l-59.112-0.298l35.879-85.16  l-91.86,34.787l-0.306-64.908l-46.409,44.595l-38.203-89.977l-39.041,90.193L170.961,55.35l-0.298,59.112L85.502,78.583  l34.787,91.86L55.38,170.75l44.595,46.409L9.999,255.362l90.193,39.042L55.349,341.04l59.112,0.298l-35.879,85.16l91.86-34.787  l0.307,64.909l46.409-44.595l38.204,89.976l39.041-90.193l46.636,44.844l0.298-59.112l85.161,35.879l-34.787-91.86l64.909-0.306  L412.023,294.844z M329.441,373.834c-21.309,13.307-46.475,20.999-73.442,20.999c-76.672,0-138.832-62.16-138.832-138.832  s62.16-138.832,138.832-138.832c26.966,0,52.133,7.691,73.442,20.999c39.261,24.522,65.39,68.127,65.39,117.833  S368.702,349.312,329.441,373.834z"/>
<path style="fill:#F9D973;" d="M394.831,256.001c0,49.706-26.129,93.311-65.39,117.833c-39.269-24.522-65.399-68.127-65.399-117.833  s26.129-93.311,65.399-117.833C368.702,162.69,394.831,206.295,394.831,256.001z"/>
<path d="M505.972,247.463l-76.971-33.318l34.857-36.251c2.772-2.883,3.56-7.141,2.003-10.825c-1.558-3.684-5.161-6.085-9.161-6.106  l-44.13-0.223l30.062-71.354c1.553-3.686,0.76-7.942-2.016-10.822c-2.775-2.88-7-3.829-10.741-2.412l-78.386,29.685l-0.238-50.502  c-0.019-3.999-2.419-7.603-6.103-9.162c-3.684-1.559-7.942-0.773-10.826,1.999l-35.946,34.542l-32.533-76.62  c-1.563-3.682-5.17-6.078-9.169-6.092c-4.018-0.059-7.624,2.356-9.212,6.027L214.143,83l-36.251-34.857  c-2.883-2.772-7.141-3.559-10.825-2.003c-3.684,1.558-6.085,5.161-6.106,9.161l-0.223,44.13L89.384,69.368  c-3.686-1.555-7.943-0.76-10.822,2.016c-2.88,2.776-3.829,7-2.412,10.741l29.685,78.387l-50.502,0.238  c-4,0.019-7.604,2.419-9.162,6.103c-1.559,3.684-0.772,7.942,1.999,10.826l34.542,35.946l-76.62,32.533  c-3.682,1.563-6.078,5.17-6.092,9.169c-0.014,4,2.357,7.624,6.027,9.212l76.971,33.318l-34.857,36.251  c-2.772,2.883-3.56,7.141-2.003,10.825c1.558,3.684,5.161,6.085,9.161,6.106l44.13,0.223l-30.062,71.354  c-1.553,3.686-0.76,7.942,2.016,10.822c2.775,2.879,6.999,3.829,10.741,2.412l78.386-29.685l0.238,50.502  c0.019,4,2.419,7.604,6.103,9.162c3.683,1.557,7.941,0.772,10.826-1.999l35.946-34.542l32.533,76.62  c1.563,3.682,5.17,6.078,9.169,6.092c0.012,0,0.023,0,0.036,0c3.985,0,7.592-2.368,9.177-6.027l33.318-76.971l36.251,34.857  c2.883,2.772,7.141,3.559,10.825,2.003c3.684-1.558,6.085-5.161,6.106-9.161l0.223-44.13l71.354,30.062  c3.685,1.554,7.942,0.76,10.822-2.016s3.829-7,2.412-10.741l-29.685-78.387l50.502-0.238c4-0.019,7.603-2.419,9.162-6.103  s0.772-7.942-1.999-10.826l-34.541-35.946l76.62-32.533c3.682-1.563,6.078-5.17,6.092-9.169  C512.013,252.675,509.643,249.052,505.972,247.463z M408.115,285.639c-3.027,1.285-5.229,3.977-5.889,7.199  c-0.66,3.222,0.308,6.563,2.586,8.934l28.434,29.59l-41.584,0.196c-3.277,0.016-6.338,1.636-8.194,4.337  c-1.856,2.701-2.271,6.14-1.11,9.205l26.527,70.047l-63.666-26.823c-3.078-1.297-6.602-0.972-9.392,0.87  c-2.789,1.841-4.473,4.953-4.49,8.295l-0.181,35.787L301.333,404.6c-2.362-2.271-5.688-3.243-8.9-2.596  c-3.213,0.646-5.906,2.824-7.208,5.832l-29.776,68.788l-29.088-68.506c-1.286-3.027-3.977-5.229-7.199-5.889  c-0.667-0.137-1.338-0.203-2.005-0.203c-2.557,0-5.048,0.982-6.929,2.79l-29.59,28.434l-0.196-41.584  c-0.016-3.277-1.636-6.338-4.337-8.194c-2.7-1.855-6.138-2.27-9.205-1.11l-70.047,26.527l26.823-63.666  c1.297-3.079,0.971-6.603-0.87-9.392s-4.953-4.473-8.295-4.49l-35.787-0.181l28.676-29.823c2.271-2.362,3.242-5.688,2.596-8.9  c-0.646-3.213-2.824-5.906-5.832-7.208l-68.788-29.775l68.506-29.088c3.027-1.285,5.229-3.977,5.889-7.199s-0.308-6.563-2.586-8.934  l-28.434-29.59l41.584-0.196c3.277-0.016,6.338-1.636,8.194-4.337c1.856-2.701,2.271-6.14,1.11-9.205l-26.527-70.047l63.666,26.823  c3.079,1.299,6.602,0.972,9.392-0.87c2.788-1.841,4.473-4.953,4.49-8.295l0.181-35.787l29.823,28.676  c2.362,2.271,5.685,3.241,8.9,2.596c3.213-0.646,5.906-2.824,7.208-5.832l29.776-68.788l29.088,68.506  c1.286,3.027,3.977,5.229,7.199,5.889c3.223,0.66,6.563-0.307,8.934-2.586l29.59-28.434l0.196,41.584  c0.016,3.277,1.636,6.338,4.337,8.194c2.701,1.855,6.139,2.271,9.205,1.11l70.047-26.527l-26.823,63.666  c-1.297,3.079-0.971,6.603,0.87,9.392c1.841,2.788,4.953,4.473,8.295,4.49l35.787,0.181l-28.674,29.822  c-2.271,2.362-3.242,5.688-2.596,8.9c0.646,3.213,2.824,5.906,5.832,7.208l68.788,29.775L408.115,285.639z"/>
<path d="M334.738,129.686c-23.587-14.731-50.815-22.517-78.739-22.517c-82.066,0-148.832,66.766-148.832,148.832  s66.766,148.832,148.832,148.832c27.924,0,55.151-7.786,78.739-22.517l0,0c32.774-20.471,55.679-51.988,65.182-88.157  c0.042-0.159,0.09-0.315,0.131-0.473c0.474-1.829,0.902-3.674,1.307-5.526c2.28-10.422,3.473-21.188,3.473-32.159  c0-10.703-1.141-21.209-3.313-31.394C393.203,185.617,369.539,151.423,334.738,129.686z M384.767,260.087  c-0.014,0.453-0.043,0.903-0.061,1.355c-0.037,0.904-0.073,1.808-0.129,2.708c-0.033,0.538-0.082,1.072-0.122,1.608  c-0.06,0.81-0.118,1.622-0.193,2.429c-0.053,0.571-0.121,1.138-0.181,1.707c-0.082,0.769-0.161,1.538-0.257,2.303  c-0.073,0.584-0.158,1.164-0.239,1.746c-0.103,0.746-0.205,1.492-0.321,2.235c-0.092,0.59-0.196,1.177-0.296,1.765  c-0.124,0.728-0.248,1.456-0.384,2.181c-0.112,0.593-0.233,1.184-0.353,1.775c-0.145,0.713-0.29,1.427-0.447,2.137  c-0.131,0.593-0.27,1.183-0.409,1.773c-0.165,0.703-0.333,1.405-0.51,2.104c-0.149,0.588-0.305,1.174-0.462,1.759  c-0.186,0.694-0.376,1.387-0.574,2.077c-0.167,0.584-0.34,1.166-0.515,1.746c-0.207,0.685-0.419,1.369-0.637,2.05  c-0.185,0.577-0.373,1.152-0.566,1.725c-0.228,0.678-0.462,1.355-0.701,2.029c-0.202,0.569-0.406,1.136-0.616,1.702  c-0.249,0.672-0.505,1.34-0.766,2.007c-0.218,0.56-0.438,1.118-0.663,1.674c-0.271,0.667-0.551,1.33-0.833,1.991  c-0.233,0.547-0.466,1.094-0.707,1.637c-0.294,0.663-0.597,1.321-0.901,1.978c-0.248,0.535-0.494,1.07-0.749,1.601  c-0.317,0.66-0.645,1.314-0.974,1.969c-0.26,0.518-0.517,1.038-0.784,1.553c-0.344,0.662-0.7,1.317-1.055,1.973  c-0.27,0.498-0.535,0.998-0.811,1.492c-0.374,0.67-0.762,1.332-1.148,1.994c-0.274,0.471-0.543,0.944-0.823,1.411  c-0.415,0.691-0.845,1.373-1.272,2.057c-0.269,0.429-0.53,0.862-0.804,1.288c-0.481,0.749-0.979,1.487-1.476,2.226  c-0.236,0.351-0.464,0.707-0.704,1.056c-0.723,1.053-1.463,2.095-2.219,3.126c-0.021,0.029-0.041,0.059-0.062,0.088  c-0.78,1.064-1.578,2.115-2.392,3.155c-0.243,0.31-0.497,0.613-0.743,0.922c-0.575,0.721-1.15,1.443-1.742,2.152  c-0.324,0.388-0.659,0.768-0.988,1.153c-0.528,0.619-1.055,1.239-1.595,1.849c-0.366,0.413-0.744,0.817-1.116,1.226  c-0.518,0.569-1.035,1.14-1.564,1.7c-0.398,0.421-0.805,0.834-1.209,1.25c-0.519,0.536-1.038,1.072-1.567,1.599  c-0.422,0.421-0.854,0.834-1.283,1.249c-0.526,0.51-1.053,1.02-1.589,1.522c-0.444,0.415-0.895,0.823-1.345,1.233  c-0.537,0.488-1.075,0.976-1.621,1.457c-0.463,0.407-0.933,0.808-1.403,1.21c-0.548,0.468-1.098,0.936-1.655,1.396  c-0.48,0.397-0.966,0.788-1.453,1.179c-0.563,0.451-1.128,0.9-1.698,1.343c-0.496,0.385-0.997,0.765-1.5,1.143  c-0.576,0.434-1.156,0.864-1.74,1.289c-0.512,0.372-1.027,0.74-1.545,1.106c-0.287,0.203-0.579,0.401-0.868,0.602  c-34.799-24.129-55.384-63.24-55.384-105.854s20.585-81.725,55.384-105.854c0.292,0.202,0.586,0.402,0.876,0.607  c0.513,0.362,1.022,0.726,1.528,1.094c0.59,0.429,1.176,0.863,1.758,1.301c0.497,0.374,0.993,0.751,1.484,1.132  c0.576,0.447,1.147,0.9,1.714,1.355c0.482,0.387,0.963,0.774,1.438,1.167c0.563,0.465,1.118,0.937,1.672,1.41  c0.464,0.396,0.928,0.792,1.385,1.195c0.553,0.486,1.098,0.981,1.641,1.475c0.443,0.403,0.888,0.805,1.324,1.214  c0.544,0.509,1.077,1.026,1.611,1.543c0.422,0.409,0.846,0.815,1.262,1.229c0.537,0.534,1.062,1.078,1.588,1.621  c0.397,0.409,0.798,0.815,1.189,1.23c0.537,0.569,1.062,1.148,1.588,1.726c0.364,0.4,0.734,0.796,1.093,1.2  c0.552,0.622,1.089,1.255,1.628,1.887c0.318,0.372,0.642,0.739,0.955,1.115c0.609,0.731,1.203,1.474,1.795,2.218  c0.228,0.287,0.465,0.568,0.69,0.857c0.816,1.042,1.616,2.096,2.397,3.161c0.003,0.005,0.007,0.01,0.01,0.014  c0.775,1.056,1.531,2.124,2.272,3.202c0.227,0.33,0.442,0.666,0.666,0.998c0.51,0.758,1.021,1.515,1.514,2.283  c0.268,0.417,0.524,0.841,0.787,1.261c0.433,0.692,0.869,1.383,1.288,2.083c0.277,0.462,0.543,0.931,0.814,1.397  c0.389,0.668,0.78,1.334,1.157,2.009c0.274,0.49,0.537,0.986,0.804,1.48c0.357,0.66,0.716,1.32,1.062,1.986  c0.265,0.511,0.52,1.027,0.778,1.541c0.33,0.658,0.661,1.317,0.98,1.981c0.254,0.528,0.498,1.06,0.744,1.591  c0.306,0.66,0.611,1.321,0.905,1.986c0.24,0.542,0.472,1.087,0.705,1.633c0.283,0.663,0.563,1.327,0.834,1.995  c0.225,0.555,0.444,1.113,0.662,1.671c0.26,0.667,0.517,1.337,0.766,2.009c0.209,0.565,0.414,1.133,0.616,1.701  c0.239,0.674,0.473,1.349,0.701,2.027c0.193,0.574,0.382,1.149,0.566,1.726c0.218,0.682,0.43,1.366,0.638,2.053  c0.175,0.579,0.347,1.159,0.514,1.741c0.198,0.691,0.388,1.385,0.574,2.08c0.157,0.585,0.313,1.171,0.462,1.759  c0.177,0.699,0.345,1.401,0.51,2.103c0.139,0.59,0.278,1.18,0.409,1.773c0.156,0.71,0.302,1.423,0.447,2.137  c0.12,0.591,0.241,1.182,0.353,1.775c0.136,0.725,0.26,1.452,0.384,2.181c0.1,0.588,0.204,1.175,0.296,1.765  c0.116,0.743,0.218,1.489,0.321,2.235c0.081,0.582,0.166,1.162,0.239,1.745c0.095,0.765,0.175,1.535,0.257,2.303  c0.061,0.569,0.128,1.136,0.181,1.707c0.075,0.807,0.133,1.618,0.193,2.429c0.04,0.536,0.088,1.07,0.122,1.608  c0.056,0.9,0.091,1.804,0.129,2.708c0.019,0.452,0.047,0.902,0.061,1.355c0.042,1.358,0.065,2.72,0.065,4.086  C384.829,257.369,384.809,258.729,384.767,260.087z M127.168,256.001c0-71.038,57.794-128.832,128.832-128.832  c18.967,0,37.552,4.165,54.538,12.107c-35.641,28.108-56.495,70.635-56.495,116.725s20.854,88.616,56.495,116.725  c-16.986,7.943-35.57,12.107-54.538,12.107C184.961,384.833,127.168,327.039,127.168,256.001z"/>
<path d="M251,167.261c-0.66,0-1.31-0.06-1.96-0.19c-0.64-0.13-1.27-0.32-1.87-0.57s-1.18-0.56-1.72-0.92  c-0.55-0.37-1.06-0.78-1.52-1.24c-0.47-0.47-0.88-0.98-1.25-1.53c-0.36-0.54-0.67-1.12-0.92-1.72c-0.25-0.61-0.44-1.24-0.57-1.87  c-0.13-0.65-0.19-1.31-0.19-1.96c0-0.65,0.06-1.31,0.19-1.95s0.32-1.27,0.57-1.87s0.56-1.19,0.92-1.73  c0.37-0.55,0.78-1.06,1.25-1.52c0.46-0.46,0.97-0.88,1.52-1.24c0.54-0.36,1.12-0.67,1.72-0.92s1.23-0.44,1.87-0.57  c1.29-0.26,2.62-0.26,3.91,0c0.64,0.13,1.27,0.32,1.87,0.57c0.6,0.25,1.18,0.56,1.73,0.92c0.54,0.36,1.06,0.78,1.52,1.24  s0.88,0.97,1.24,1.52c0.36,0.54,0.67,1.13,0.92,1.73s0.44,1.23,0.57,1.87s0.2,1.3,0.2,1.95s-0.07,1.31-0.2,1.96  c-0.13,0.63-0.32,1.26-0.57,1.87c-0.25,0.6-0.56,1.18-0.92,1.72c-0.36,0.55-0.78,1.059-1.24,1.53c-0.46,0.46-0.98,0.87-1.52,1.24  c-0.55,0.36-1.13,0.67-1.73,0.92c-0.6,0.25-1.23,0.44-1.87,0.57S251.649,167.261,251,167.261z"/>
<path d="M253.72,364.836c-0.077,0-0.154-0.001-0.232-0.002c-28.51-0.648-55.237-12.269-75.256-32.719  c-20.051-20.483-31.094-47.515-31.094-76.113c0-42.6,25.117-81.531,63.989-99.181c5.031-2.282,10.957-0.057,13.24,4.971  c2.283,5.029,0.058,10.957-4.971,13.24c-31.745,14.413-52.257,46.196-52.257,80.97c0,47.897,38.94,87.749,86.805,88.837  c5.521,0.125,9.895,4.704,9.77,10.225C263.589,360.507,259.137,364.836,253.72,364.836z"/>
<g>
</g>
<g>
</g>
<g>
</g>
<g>
</g>
<g>
</g>
<g>
</g>
<g>
</g>
<g>
</g>
<g>
</g>
<g>
</g>
<g>
</g>
<g>
</g>
<g>
</g>
<g>
</g>
<g>
</g>
</svg>
