<?xml version="1.0" encoding="iso-8859-1"?>
<!-- Generator: Adobe Illustrator 19.0.0, SVG Export Plug-In . SVG Version: 6.00 Build 0)  -->
<svg xmlns="http://www.w3.org/2000/svg" xmlns:xlink="http://www.w3.org/1999/xlink" version="1.1" id="Capa_1" x="0px" y="0px" viewBox="0 0 512 512" style="enable-background:new 0 0 512 512;" xml:space="preserve">
<path style="fill:#59C671;" d="M255.999,502c-65.709,0-127.485-25.589-173.948-72.052S10,321.708,10,256  c0-65.709,25.589-127.485,72.051-173.948C128.514,35.589,190.29,10,255.999,10s127.485,25.589,173.948,72.052S502,190.291,502,256  c0,65.708-25.589,127.485-72.051,173.948C383.484,476.411,321.709,502,255.999,502z M255.999,68.32  C152.514,68.32,68.32,152.513,68.32,256s84.193,187.68,187.679,187.68S443.678,359.487,443.678,256S359.486,68.32,255.999,68.32z"/>
<path d="M255.999,512c-68.379,0-132.667-26.629-181.019-74.98C26.628,388.668,0.001,324.38,0.001,256S26.628,123.332,74.98,74.98  C123.333,26.629,187.62,0,255.999,0s132.667,26.629,181.019,74.98C485.371,123.332,512,187.62,512,256s-26.628,132.668-74.98,181.02  C388.667,485.371,324.379,512,255.999,512z M255.999,20c-63.038,0-122.302,24.548-166.877,69.123C44.549,133.697,20,192.962,20,256  s24.548,122.303,69.122,166.877C133.697,467.451,192.962,492,255.999,492s122.302-24.549,166.877-69.123  C467.451,378.303,492,319.038,492,256s-24.548-122.303-69.122-166.877C378.302,44.548,319.038,20,255.999,20z M255.999,453.68  C146.998,453.68,58.32,365.001,58.32,256S146.998,58.32,255.999,58.32S453.678,146.999,453.678,256S365,453.68,255.999,453.68z   M255.999,78.32C158.027,78.32,78.32,158.027,78.32,256s79.706,177.68,177.679,177.68S433.678,353.973,433.678,256  S353.973,78.32,255.999,78.32z"/>
<rect x="231.679" y="139.44" style="fill:#54E3EA;" width="48.639" height="85.06"/>
<path style="fill:#007177;" d="M280.32,162.934v61.563h-48.64v-61.563c-41.455,10.778-72.061,48.455-72.061,93.283  c0,53.229,43.151,96.38,96.38,96.38s96.38-43.151,96.38-96.38C352.38,211.389,321.775,173.711,280.32,162.934z"/>
<path d="M290.32,155.515v-16.076c0-5.523-4.477-10-10-10h-48.64c-5.523,0-10,4.477-10,10v16.076  c-42.794,14.544-72.061,54.883-72.061,100.702c0,58.658,47.722,106.381,106.38,106.381s106.38-47.723,106.38-106.381  C362.38,210.398,333.114,170.059,290.32,155.515z M241.679,149.439h28.64v13.495v51.564h-28.64v-51.564L241.679,149.439  L241.679,149.439z M255.999,342.598c-47.63,0-86.38-38.75-86.38-86.381c0-34.862,20.854-65.829,52.061-79.306v47.586  c0,5.522,4.477,10,10,10h48.64c5.523,0,10-4.478,10-10v-47.586c31.207,13.477,52.061,44.443,52.061,79.306  C342.38,303.848,303.63,342.598,255.999,342.598z"/>
<path d="M314.22,131.31c-0.65,0-1.31-0.069-1.96-0.2c-0.63-0.13-1.26-0.319-1.87-0.569c-0.6-0.25-1.18-0.56-1.72-0.92  c-0.55-0.36-1.06-0.78-1.52-1.24c-0.46-0.46-0.88-0.97-1.25-1.521c-0.36-0.54-0.67-1.13-0.92-1.729s-0.44-1.23-0.57-1.87  c-0.13-0.65-0.19-1.3-0.19-1.95c0-0.66,0.06-1.31,0.19-1.96c0.13-0.63,0.32-1.26,0.57-1.87c0.25-0.6,0.56-1.18,0.92-1.72  c0.37-0.55,0.79-1.06,1.25-1.52c0.46-0.471,0.97-0.881,1.52-1.25c0.54-0.36,1.12-0.671,1.72-0.921c0.61-0.25,1.24-0.439,1.87-0.569  c1.29-0.26,2.62-0.26,3.91,0c0.64,0.13,1.27,0.319,1.87,0.569c0.61,0.25,1.19,0.561,1.73,0.921c0.55,0.369,1.06,0.779,1.52,1.25  c0.46,0.46,0.88,0.97,1.24,1.52c0.36,0.54,0.67,1.12,0.92,1.72c0.25,0.61,0.44,1.24,0.57,1.87c0.13,0.65,0.2,1.3,0.2,1.96  c0,0.65-0.07,1.3-0.2,1.95c-0.13,0.64-0.32,1.27-0.57,1.87s-0.56,1.189-0.92,1.729c-0.36,0.551-0.78,1.061-1.24,1.521  s-0.97,0.88-1.52,1.24c-0.54,0.359-1.13,0.67-1.73,0.92s-1.23,0.44-1.87,0.569C315.53,131.24,314.87,131.31,314.22,131.31z"/>
<path d="M255.999,412.751c-86.433,0-156.75-70.318-156.75-156.751c0-62.477,37.114-118.947,94.553-143.867  c5.066-2.196,10.956,0.128,13.154,5.193c2.198,5.067-0.127,10.956-5.194,13.154c-50.125,21.747-82.513,71.016-82.513,125.52  c0,75.404,61.346,136.751,136.75,136.751S392.75,331.404,392.75,256c0-43.314-19.936-83.158-54.696-109.315  c-4.413-3.32-5.298-9.59-1.978-14.003c3.32-4.413,9.59-5.298,14.003-1.977c19.021,14.313,34.785,33.047,45.587,54.178  c11.336,22.173,17.083,46.1,17.083,71.118C412.75,342.433,342.433,412.751,255.999,412.751z"/>
<g>
</g>
<g>
</g>
<g>
</g>
<g>
</g>
<g>
</g>
<g>
</g>
<g>
</g>
<g>
</g>
<g>
</g>
<g>
</g>
<g>
</g>
<g>
</g>
<g>
</g>
<g>
</g>
<g>
</g>
</svg>
