<?xml version="1.0" encoding="iso-8859-1"?>
<!-- Generator: Adobe Illustrator 19.0.0, SVG Export Plug-In . SVG Version: 6.00 Build 0)  -->
<svg xmlns="http://www.w3.org/2000/svg" xmlns:xlink="http://www.w3.org/1999/xlink" version="1.1" id="Capa_1" x="0px" y="0px" viewBox="0 0 512.001 512.001" style="enable-background:new 0 0 512.001 512.001;" xml:space="preserve">
<polygon style="fill:#54E3EA;" points="368.874,501.999 253.654,501.999 280.871,448.293 341.657,448.293 "/>
<rect x="120.526" y="172.774" style="fill:#007177;" width="381.478" height="275.521"/>
<path style="fill:#FF8C5A;" d="M120.528,172.771h130.767l-0.027-0.381l19.978-23.746c5.603-6.66,5.603-16.383,0-23.043  l-19.979-23.747l2.208-30.949c0.62-8.686-5.103-16.557-13.557-18.646l-30.132-7.449l-16.37-26.343  c-4.603-7.406-13.872-10.417-21.948-7.13l-28.736,11.698l-28.737-11.698c-8.076-3.288-17.345-0.276-21.947,7.13L75.677,44.81  l-30.132,7.449c-8.454,2.09-14.176,9.961-13.557,18.646l2.208,30.949L14.218,125.6c-5.603,6.659-5.603,16.383,0,23.043  l19.979,23.747L31.99,203.34c-0.62,8.686,5.103,16.556,13.556,18.646l30.132,7.449l16.37,26.343  c4.602,7.406,13.872,10.417,21.947,7.13l6.532-2.659L120.528,172.771L120.528,172.771z"/>
<path style="fill:#F9D973;" d="M120.528,172.771h102.024c4.87-10.887,7.581-22.951,7.581-35.649c0-48.269-39.131-87.4-87.4-87.4  s-87.4,39.131-87.4,87.4c0,40.597,27.68,74.725,65.196,84.55L120.528,172.771L120.528,172.771z"/>
<g>
	<rect x="366.608" y="209.063" style="fill:#54E3EA;" width="99.107" height="64.658"/>
	<rect x="156.815" y="209.063" style="fill:#54E3EA;" width="99.107" height="64.658"/>
	<rect x="255.922" y="209.063" style="fill:#54E3EA;" width="110.687" height="64.658"/>
</g>
<rect x="255.922" y="273.721" style="fill:#F9D973;" width="110.687" height="73.628"/>
<g>
	<rect x="156.815" y="347.348" style="fill:#54E3EA;" width="99.107" height="64.658"/>
	<rect x="366.608" y="273.721" style="fill:#54E3EA;" width="99.107" height="73.628"/>
	<rect x="156.815" y="273.721" style="fill:#54E3EA;" width="99.107" height="73.628"/>
	<rect x="366.608" y="347.348" style="fill:#54E3EA;" width="99.107" height="64.658"/>
	<rect x="255.922" y="347.348" style="fill:#54E3EA;" width="110.687" height="64.658"/>
</g>
<path d="M502,162.771H272.429l6.47-7.689c8.754-10.407,8.754-25.512,0-35.92L261.53,98.52l1.92-26.902  c0.968-13.577-7.919-25.801-21.131-29.067l-26.185-6.473l-14.225-22.89c-7.198-11.581-21.586-16.253-34.211-11.112l-24.966,10.163  L117.766,2.076c-12.627-5.141-27.015-0.468-34.212,11.113L69.33,36.077l-26.185,6.474c-13.212,3.267-22.099,15.491-21.13,29.067  l1.919,26.903L6.566,119.164c-8.755,10.406-8.756,25.512,0,35.919l17.367,20.643l-1.919,26.903  c-0.969,13.577,7.919,25.801,21.129,29.065l26.185,6.474l14.225,22.89c5.232,8.42,14.267,13.188,23.662,13.188  c1.101,0,2.206-0.073,3.311-0.206v174.255c0,5.522,4.477,10,10,10h144.066l-17.082,33.707h-41.941c-5.523,0-10,4.478-10,10  c0,5.523,4.477,10,10,10h48.083h115.221h48.083c5.522,0,10-4.477,10-10c0-5.522-4.478-10-10-10h-41.94l-17.082-33.707h144.066  c5.522,0,10-4.478,10-10V172.773C512,167.249,507.523,162.771,502,162.771z M110.226,253.646c-3.575,1.455-7.648,0.132-9.685-3.146  l-16.37-26.343c-1.376-2.214-3.563-3.804-6.094-4.43l-30.133-7.45c-3.739-0.924-6.254-4.384-5.98-8.227l2.208-30.949  c0.185-2.595-0.648-5.159-2.323-7.149l-19.978-23.746c-2.478-2.946-2.479-7.223,0-10.169l19.978-23.746  c1.675-1.99,2.508-4.555,2.323-7.149l-2.208-30.949c-0.274-3.844,2.241-7.304,5.981-8.228l30.132-7.449  c2.531-0.626,4.717-2.215,6.094-4.43l16.37-26.342c1.481-2.384,4.038-3.733,6.698-3.733c0.998,0,2.011,0.191,2.986,0.587  l28.737,11.698c2.418,0.984,5.123,0.984,7.541,0l28.736-11.699c3.576-1.456,7.648-0.132,9.684,3.146l16.37,26.343  c1.377,2.214,3.563,3.804,6.094,4.43l30.132,7.449c3.74,0.925,6.256,4.385,5.982,8.228l-2.208,30.948  c-0.185,2.595,0.648,5.159,2.323,7.15l19.979,23.745c2.478,2.946,2.478,7.224,0.001,10.169l-17.303,20.564h-9.574  c2.266-8.303,3.413-16.883,3.413-25.648c0-53.706-43.694-97.399-97.4-97.399s-97.4,43.694-97.4,97.4  c0,41.648,26.445,78.398,65.195,91.938v24.463L110.226,253.646z M142.653,75.864c-16.189,0-31.464,6.276-43.012,17.673  c-3.931,3.88-3.973,10.211-0.093,14.142c3.879,3.931,10.211,3.972,14.142,0.093c7.781-7.679,18.066-11.908,28.963-11.908  c22.75,0,41.259,18.509,41.259,41.26c0,9.371-3.076,18.208-8.896,25.558c-0.023,0.029-0.042,0.061-0.065,0.091h-54.424  c-5.523,0-10,4.478-10,10v34.766c-27.152-12.401-45.196-39.737-45.196-70.414c0-42.679,34.722-77.4,77.401-77.4  s77.401,34.722,77.401,77.4c0,8.842-1.46,17.442-4.349,25.648h-17.537c3.692-8.004,5.665-16.773,5.665-25.648  C203.911,103.344,176.431,75.864,142.653,75.864z M352.597,491.999h-82.665l17.082-33.707h48.5L352.597,491.999z M492,438.293  H341.657h-60.785H130.528V260.25v-38.576v-38.903h92.024h28.743H492V438.293z"/>
<path d="M146.818,209.061v64.658v73.627v64.658c0,5.522,4.477,10,10,10h99.104h110.685h99.104c5.522,0,10-4.478,10-10v-64.658  v-73.627v-64.658c0-5.522-4.478-10-10-10h-99.104H255.923h-99.104C151.295,199.061,146.818,203.539,146.818,209.061z   M455.71,337.346h-79.105v-53.627h79.105V337.346z M356.607,337.346h-90.685v-53.627h90.685L356.607,337.346L356.607,337.346z   M245.923,337.346h-79.105v-53.627h79.105V337.346z M166.817,357.345h79.105v44.659h-79.105V357.345z M265.922,357.345h90.685  v44.659h-90.685L265.922,357.345L265.922,357.345z M455.71,402.004h-79.105v-44.659h79.105V402.004z M455.71,263.719h-79.105V219.06  h79.105V263.719z M356.607,263.719h-90.685V219.06h90.685L356.607,263.719L356.607,263.719z M166.817,219.06h79.105v44.659h-79.105  V219.06z"/>
<path d="M91.553,143.06c-0.65,0-1.31-0.06-1.95-0.19c-0.64-0.13-1.27-0.319-1.88-0.569c-0.6-0.25-1.18-0.561-1.72-0.92  c-0.55-0.36-1.06-0.78-1.52-1.24s-0.88-0.98-1.25-1.521c-0.36-0.55-0.66-1.13-0.91-1.729s-0.45-1.23-0.57-1.87  c-0.13-0.64-0.2-1.3-0.2-1.95c0-0.66,0.07-1.31,0.2-1.96c0.12-0.64,0.32-1.27,0.57-1.87c0.25-0.6,0.55-1.18,0.91-1.729  c0.37-0.54,0.79-1.05,1.25-1.51c0.46-0.471,0.97-0.881,1.52-1.25c0.54-0.36,1.12-0.671,1.72-0.921c0.61-0.25,1.24-0.439,1.88-0.569  c1.29-0.26,2.61-0.26,3.9,0c0.64,0.13,1.27,0.319,1.87,0.569c0.61,0.25,1.19,0.561,1.73,0.921c0.55,0.369,1.06,0.779,1.52,1.25  c0.46,0.46,0.88,0.97,1.24,1.51c0.36,0.55,0.67,1.13,0.92,1.729c0.25,0.601,0.45,1.23,0.57,1.87c0.13,0.65,0.2,1.3,0.2,1.96  c0,0.65-0.07,1.311-0.2,1.95c-0.12,0.64-0.32,1.271-0.57,1.87s-0.56,1.18-0.92,1.729c-0.36,0.54-0.78,1.061-1.24,1.521  c-0.46,0.46-0.97,0.88-1.52,1.24c-0.54,0.359-1.12,0.67-1.73,0.92c-0.6,0.25-1.23,0.439-1.87,0.569  C92.863,143.001,92.203,143.06,91.553,143.06z"/>
<g>
</g>
<g>
</g>
<g>
</g>
<g>
</g>
<g>
</g>
<g>
</g>
<g>
</g>
<g>
</g>
<g>
</g>
<g>
</g>
<g>
</g>
<g>
</g>
<g>
</g>
<g>
</g>
<g>
</g>
</svg>
