<?xml version="1.0" encoding="iso-8859-1"?>
<!-- Generator: Adobe Illustrator 19.0.0, SVG Export Plug-In . SVG Version: 6.00 Build 0)  -->
<svg xmlns="http://www.w3.org/2000/svg" xmlns:xlink="http://www.w3.org/1999/xlink" version="1.1" id="Capa_1" x="0px" y="0px" viewBox="0 0 512 512" style="enable-background:new 0 0 512 512;" xml:space="preserve">
<path style="fill:#FF8C5A;" d="M497.515,132.901l-21.24-25.246l2.347-32.903c0.659-9.234-5.425-17.602-14.413-19.824l-32.035-7.92  L414.77,19.002c-4.893-7.874-14.747-11.075-23.334-7.58l-30.548,12.437l-30.551-12.436c-8.586-3.495-18.44-0.294-23.333,7.58  L289.6,47.009l-32.035,7.92c-8.988,2.222-15.07,10.59-14.413,19.824l2.347,32.903l-21.24,25.246c-5.957,7.08-5.957,17.418,0,24.497  l14.163,16.833h82.769c14.613,0,27.697,9.258,32.56,23.036l13.684,48.648h57.66l-2.722,13.148l9.803-15.773l32.035-7.92  c8.988-2.222,15.071-10.59,14.413-19.823l-2.347-32.904l21.24-25.246C503.472,150.318,503.472,139.981,497.515,132.901z"/>
<path style="fill:#F9D973;" d="M360.888,52.232c-51.317,0-92.918,41.601-92.918,92.918c0,10.158,1.636,19.932,4.649,29.082h48.573  c14.613,0,27.697,9.258,32.56,23.036l11.447,40.697c49.315-2.253,88.607-42.944,88.607-92.815  C453.806,93.832,412.205,52.232,360.888,52.232z"/>
<circle style="fill:#F4BA64;" cx="351.138" cy="398.057" r="31.408"/>
<path style="fill:#007177;" d="M408.932,328.419l-22.351-31.291l-9.72-17.697l-23.11-82.163  c-4.863-13.779-17.947-23.036-32.56-23.036H113.904c-14.613,0-27.697,9.258-32.561,23.037l-23.11,82.163l-9.72,17.696l-22.35,31.289  c-4.184,5.857-6.433,12.875-6.433,20.071v66.764h33.296c-3.238-4.94-5.128-10.844-5.128-17.191  c0-17.346,14.063-31.408,31.408-31.408c17.346,0,31.408,14.063,31.408,31.408c0,6.348-1.889,12.252-5.128,17.191h40.609v-11.804  h141.833v11.804h36.827c-3.238-4.94-5.128-10.844-5.128-17.191c0-17.346,14.063-31.408,31.408-31.408  c17.346,0,31.408,14.063,31.408,31.408c0,6.348-1.89,12.252-5.128,17.191h37.949v-66.764  C415.364,341.25,413.139,334.309,408.932,328.419z"/>
<path d="M356.347,347.055c-0.649,0-1.31-0.06-1.96-0.19c-0.63-0.13-1.26-0.319-1.869-0.569c-0.601-0.25-1.181-0.561-1.721-0.92  c-0.55-0.37-1.06-0.79-1.52-1.25c-1.86-1.86-2.931-4.44-2.931-7.07c0-0.65,0.061-1.31,0.19-1.95c0.13-0.64,0.32-1.27,0.57-1.87  c0.25-0.609,0.56-1.189,0.92-1.729c0.37-0.55,0.79-1.061,1.25-1.521c0.46-0.46,0.97-0.88,1.52-1.239  c0.54-0.36,1.12-0.671,1.721-0.921c0.609-0.25,1.239-0.449,1.869-0.569c1.29-0.26,2.62-0.26,3.91,0  c0.641,0.12,1.271,0.319,1.87,0.569c0.61,0.25,1.19,0.561,1.73,0.921c0.55,0.359,1.059,0.779,1.52,1.239  c0.46,0.46,0.88,0.971,1.24,1.521c0.36,0.54,0.67,1.12,0.92,1.729c0.25,0.601,0.44,1.23,0.57,1.87c0.13,0.641,0.199,1.3,0.199,1.95  c0,2.63-1.069,5.21-2.93,7.07c-0.46,0.46-0.97,0.88-1.52,1.25c-0.54,0.359-1.12,0.67-1.73,0.92c-0.6,0.25-1.23,0.439-1.87,0.569  C357.658,346.995,356.998,347.055,356.347,347.055z"/>
<g>
	<rect x="146.195" y="403.447" style="fill:#F4BA64;" width="141.835" height="58.308"/>
	<circle style="fill:#F4BA64;" cx="79.307" cy="398.057" r="31.408"/>
</g>
<g>
	<path style="fill:#54E3EA;" d="M105.587,415.254c-5.611,8.559-15.282,14.217-26.281,14.217s-20.67-5.658-26.28-14.217H19.73v20.627   c0,0.103,0,0.206,0.002,0.309c0.125,14.201,11.85,25.572,26.051,25.572h100.412v-46.507L105.587,415.254L105.587,415.254z"/>
	<path style="fill:#54E3EA;" d="M377.415,415.254c-5.611,8.559-15.283,14.217-26.281,14.217c-10.998,0-20.67-5.658-26.28-14.217   h-36.827v46.507h101.285c14.202,0,25.925-11.372,26.051-25.572c0.001-0.103,0.001-0.206,0.001-0.309v-20.627L377.415,415.254   L377.415,415.254z"/>
</g>
<path d="M306.48,150.83c-0.65,0-1.31-0.06-1.96-0.189c-0.631-0.13-1.261-0.32-1.87-0.57c-0.601-0.25-1.181-0.56-1.721-0.92  c-0.55-0.36-1.06-0.78-1.52-1.24c-0.47-0.46-0.88-0.98-1.25-1.52c-0.36-0.55-0.67-1.13-0.92-1.73s-0.44-1.23-0.57-1.87  c-0.13-0.64-0.19-1.3-0.19-1.949c0-0.66,0.06-1.311,0.19-1.96c0.13-0.641,0.32-1.271,0.57-1.87c0.25-0.601,0.56-1.181,0.92-1.73  c0.37-0.54,0.78-1.05,1.25-1.52c0.46-0.46,0.97-0.88,1.52-1.24c0.54-0.36,1.12-0.67,1.721-0.92c0.609-0.25,1.239-0.44,1.87-0.57  c1.289-0.26,2.619-0.26,3.909,0c0.641,0.13,1.271,0.32,1.87,0.57c0.61,0.25,1.19,0.56,1.73,0.92c0.55,0.36,1.06,0.78,1.52,1.24  c0.46,0.47,0.88,0.979,1.24,1.52c0.36,0.55,0.67,1.13,0.92,1.73c0.25,0.6,0.441,1.229,0.57,1.87c0.13,0.649,0.2,1.3,0.2,1.96  c0,0.649-0.07,1.31-0.2,1.949c-0.13,0.641-0.32,1.271-0.57,1.87c-0.25,0.601-0.559,1.181-0.92,1.73c-0.36,0.54-0.78,1.06-1.24,1.52  c-0.46,0.46-0.97,0.88-1.52,1.24c-0.54,0.36-1.12,0.67-1.73,0.92c-0.6,0.25-1.229,0.44-1.87,0.57  C307.79,150.771,307.13,150.83,306.48,150.83z"/>
<g>
	<path style="fill:#FF8C5A;" d="M94.229,502h-22.33c-13.255,0-23.999-10.745-23.999-23.999v-16.238h70.329v16.238   C118.228,491.255,107.483,502,94.229,502z"/>
	<path style="fill:#FF8C5A;" d="M350.585,502h-22.33c-13.255,0-23.999-10.745-23.999-23.999v-16.238h70.329v16.238   C374.584,491.255,363.839,502,350.585,502z"/>
</g>
<g>
	<polygon style="fill:#F4BA64;" points="47.979,297.877 48.513,297.129 58.233,279.432 67.66,245.917 9.999,245.917 20.756,297.877     "/>
	<polygon style="fill:#F4BA64;" points="367.436,245.917 376.862,279.431 386.581,297.129 387.115,297.877 414.339,297.877    425.096,245.917  "/>
</g>
<polygon style="fill:#54E3EA;" points="319.584,210.634 115.51,210.634 92.414,292.743 342.68,292.743 "/>
<path d="M505.168,126.462L505.168,126.462l-18.629-22.142l2.059-28.858c1.007-14.126-8.24-26.844-21.986-30.242l-28.087-6.943  l-15.259-24.553c-7.489-12.049-22.458-16.913-35.597-11.563l-26.78,10.901L334.107,2.161c-13.143-5.35-28.11-0.485-35.597,11.563  l-15.259,24.553l-28.087,6.943c-13.749,3.398-22.995,16.117-21.986,30.242l2.059,28.859l-18.628,22.141  c-9.111,10.829-9.111,26.547-0.001,37.373l0.334,0.396H113.903c-18.844,0-35.719,11.939-41.99,29.71  c-0.072,0.205-0.138,0.411-0.197,0.62l-11.632,41.356H9.999c-3.008,0-5.855,1.354-7.755,3.687c-1.898,2.332-2.647,5.395-2.037,8.341  l10.757,51.959c0.961,4.643,5.051,7.973,9.792,7.973h7.792l-10.521,14.73c-5.428,7.597-8.296,16.546-8.296,25.883v66.765v20.627  l0.001,0.398c0.15,16.877,12.21,31.031,28.167,34.603V478c0,18.747,15.251,33.999,33.999,33.999H94.23  c18.747,0,33.999-15.251,33.999-33.999v-6.239h17.966h141.832l0,0h0.001h6.227V478c0,18.747,15.252,33.999,33.999,33.999h22.33  c18.747,0,33.999-15.251,33.999-33.999v-6.239h4.728c19.704,0,35.877-15.917,36.051-35.477l0.001-21.031v-66.765  c0-9.336-2.868-18.285-8.294-25.882c0,0,0,0-0.001,0l-10.523-14.732h7.792c4.741,0,8.831-3.33,9.792-7.973l7.674-37.068l6.72-10.814  l28.087-6.943c13.747-3.399,22.993-16.118,21.986-30.243l-2.058-28.858l18.627-22.142  C514.278,153.009,514.278,137.291,505.168,126.462z M22.281,255.917h32.178l-5.542,19.704l-6.732,12.256H28.897L22.281,255.917z   M108.228,478.001c0,7.72-6.28,14-14,14H71.897c-7.72,0-14-6.28-14-14v-6.239h50.33V478.001z M136.195,451.762h-17.967h-70.33  h-2.116c-8.774,0-15.975-7.025-16.051-15.666l-0.001-10.843h18.351c7.814,8.988,19.126,14.217,31.226,14.217  s23.412-5.229,31.226-14.217h25.662V451.762z M57.898,398.062c0-11.805,9.605-21.408,21.408-21.408s21.408,9.605,21.408,21.408  c0,4.178-1.207,8.227-3.49,11.709c-0.001,0.001-0.001,0.002-0.002,0.003c-3.981,6.072-10.678,9.697-17.916,9.697  c-7.238,0-13.935-3.625-17.914-9.694c-0.001-0.001-0.002-0.003-0.003-0.005C59.105,406.287,57.898,402.239,57.898,398.062z   M278.028,451.762H156.195v-36.509v-1.804h121.833V451.762z M364.585,478.001c0,7.72-6.28,14-14,14h-22.33c-7.72,0-14-6.28-14-14  v-6.239h50.329V478.001z M405.363,436.102c-0.076,8.636-7.277,15.66-16.051,15.66h-14.728h-70.329h-6.227v-26.509h21.881  c7.813,8.988,19.126,14.217,31.226,14.217c12.1,0,23.412-5.229,31.226-14.217h23.004L405.363,436.102z M329.726,398.062  c0-11.805,9.604-21.408,21.408-21.408c11.805,0,21.408,9.605,21.408,21.408c0,4.177-1.207,8.226-3.491,11.71  c-0.001,0.001-0.002,0.003-0.003,0.005c-3.981,6.07-10.677,9.694-17.914,9.694c-7.238,0-13.935-3.625-17.914-9.694  c-0.001-0.001-0.002-0.003-0.002-0.003C330.933,406.287,329.726,402.239,329.726,398.062z M405.364,405.254h-13.448  c0.415-2.36,0.626-4.766,0.626-7.192c0-22.832-18.575-41.408-41.408-41.408c-22.832,0-41.408,18.575-41.408,41.408  c0,2.427,0.211,4.832,0.626,7.192h-12.325v-1.804c0-2.762-1.12-5.262-2.93-7.071c-1.81-1.81-4.31-2.93-7.071-2.93H146.195  c-5.523,0-10,4.478-10,10v0.001v1.804h-16.106c0.415-2.36,0.626-4.766,0.626-7.192c0-22.832-18.575-41.408-41.408-41.408  s-41.409,18.575-41.409,41.408c0,2.427,0.211,4.832,0.626,7.192H29.73v-56.765c0-0.48,0.028-0.957,0.055-1.434h289  c5.522,0,10-4.478,10-10c0-5.523-4.478-10-10-10H39.424L56.65,302.94c0.229-0.32,0.438-0.653,0.627-0.998l9.721-17.696  c0.366-0.667,0.655-1.374,0.862-2.106l9.427-33.515c0.001-0.002,0.001-0.004,0.001-0.004l13.586-48.304  c3.532-9.635,12.75-16.086,23.03-16.086h124.519h34.196h48.573c0.643,0,1.281,0.025,1.914,0.075  c7.598,0.596,14.434,4.705,18.56,10.949c1.031,1.561,1.893,3.255,2.556,5.061l13.589,48.31l2.424,8.616l7.003,24.897  c0.206,0.732,0.495,1.439,0.861,2.105l9.719,17.697c0.19,0.345,0.399,0.679,0.628,0.999l22.352,31.291  c2.989,4.185,4.569,9.114,4.569,14.258L405.364,405.254L405.364,405.254z M360.803,80.655c-17.043,0-33.125,6.608-45.283,18.606  c-3.931,3.879-3.973,10.211-0.093,14.142c3.878,3.93,10.211,3.971,14.142,0.093c8.392-8.281,19.483-12.842,31.234-12.842  c24.535,0,44.496,19.96,44.496,44.496c0,24.337-19.642,44.163-43.907,44.481c-7.313-15.36-22.926-25.398-40.202-25.398h-41.014  c-1.468-6.228-2.209-12.619-2.209-19.082c0-45.721,37.197-82.918,82.918-82.918c45.722,0,82.919,37.197,82.919,82.918  c0,41.769-30.707,76.429-71.233,82.102l-5.051-17.957c32.417-3.371,57.776-30.851,57.776-64.144  C425.298,109.587,396.366,80.655,360.803,80.655z M406.197,287.877h-13.289l-6.73-12.256l-5.543-19.704h32.177L406.197,287.877z   M489.863,150.96l-21.239,25.246c-1.674,1.99-2.508,4.555-2.322,7.148l2.347,32.903c0.313,4.394-2.564,8.35-6.838,9.406  l-32.034,7.919c-1.642,0.406-3.138,1.217-4.361,2.34c-0.107-0.003-0.214-0.005-0.32-0.005h-15.552  c32.427-17.357,54.263-51.534,54.263-90.768c0-56.749-46.169-102.918-102.919-102.918S257.971,88.399,257.971,145.149  c0,6.437,0.611,12.815,1.789,19.082h-16.681l-11.166-13.273c-2.833-3.366-2.833-8.254,0.001-11.622l21.239-25.245  c1.674-1.99,2.508-4.555,2.322-7.148l-2.347-32.905c-0.313-4.393,2.562-8.348,6.838-9.404l32.035-7.92  c2.53-0.626,4.717-2.216,6.093-4.43l17.403-28.006c2.328-3.747,6.982-5.259,11.07-3.597l30.551,12.437  c2.418,0.984,5.123,0.984,7.541,0l30.551-12.437c4.087-1.665,8.741-0.15,11.07,3.597l17.404,28.006  c1.376,2.215,3.563,3.804,6.093,4.43l32.035,7.92c4.275,1.057,7.151,5.012,6.838,9.404l-2.348,32.903  c-0.185,2.595,0.648,5.159,2.322,7.149l21.24,25.246c0,0,0,0.001,0.001,0.001C492.697,142.706,492.697,147.594,489.863,150.96z"/>
<path d="M84.443,298.781c1.89,2.496,4.84,3.962,7.971,3.962H342.68c3.131,0,6.081-1.466,7.971-3.962  c1.891-2.495,2.504-5.732,1.655-8.746l-23.096-82.108c-1.213-4.313-5.146-7.292-9.626-7.292H115.51c-4.48,0-8.413,2.979-9.626,7.292  l-23.096,82.108C81.939,293.049,82.553,296.286,84.443,298.781z M123.085,220.634h188.925l17.47,62.109H105.614L123.085,220.634z"/>
<g>
</g>
<g>
</g>
<g>
</g>
<g>
</g>
<g>
</g>
<g>
</g>
<g>
</g>
<g>
</g>
<g>
</g>
<g>
</g>
<g>
</g>
<g>
</g>
<g>
</g>
<g>
</g>
<g>
</g>
</svg>
