<?xml version="1.0" encoding="iso-8859-1"?>
<!-- Generator: Adobe Illustrator 19.0.0, SVG Export Plug-In . SVG Version: 6.00 Build 0)  -->
<svg xmlns="http://www.w3.org/2000/svg" xmlns:xlink="http://www.w3.org/1999/xlink" version="1.1" id="Capa_1" x="0px" y="0px" viewBox="0 0 512 512" style="enable-background:new 0 0 512 512;" xml:space="preserve">
<g>
	<path style="fill:#007177;" d="M366.378,10c0,0-43.21,33.462-78.19,82.134c50.547,56.483,106.727,138.536,106.727,224.241   c0,3.035-0.073,6.05-0.217,9.049c53.698-12.768,93.635-61.037,93.635-118.642C488.333,104.431,366.378,10,366.378,10z"/>
</g>
<path d="M369.059,75.94c-0.649,0-1.31-0.07-1.95-0.2s-1.27-0.32-1.869-0.57c-0.601-0.25-1.19-0.56-1.73-0.92s-1.06-0.78-1.52-1.24  c-1.86-1.87-2.931-4.44-2.931-7.08c0-0.65,0.07-1.3,0.2-1.95c0.13-0.64,0.32-1.27,0.57-1.87s0.559-1.18,0.92-1.73  c0.359-0.54,0.78-1.05,1.24-1.51c0.46-0.47,0.979-0.88,1.52-1.25c0.54-0.36,1.13-0.67,1.73-0.92s1.229-0.44,1.869-0.57  c1.29-0.26,2.62-0.26,3.91,0c0.641,0.13,1.261,0.32,1.87,0.57c0.601,0.25,1.18,0.56,1.72,0.92c0.551,0.37,1.06,0.78,1.53,1.25  c0.46,0.461,0.87,0.97,1.24,1.51c0.36,0.55,0.67,1.13,0.92,1.73s0.44,1.23,0.57,1.87c0.13,0.65,0.19,1.3,0.19,1.95  c0,2.64-1.06,5.21-2.92,7.08c-0.47,0.46-0.979,0.88-1.53,1.24c-0.54,0.36-1.119,0.67-1.72,0.92c-0.609,0.25-1.229,0.44-1.87,0.57  C370.369,75.87,369.719,75.94,369.059,75.94z"/>
<path style="fill:#54E3EA;" d="M394.915,316.375C394.915,418.893,311.808,502,209.29,502S23.665,418.893,23.665,316.375  c0-155.786,185.625-299.518,185.625-299.518S394.915,160.589,394.915,316.375z"/>
<path d="M435.022,63.589c-30.826-36.805-61.241-60.504-62.521-61.495c-3.604-2.791-8.64-2.792-12.245,0  c-1.687,1.307-39.089,30.492-72.837,74.333c-37.896-40.904-70.388-66.224-72.006-67.476c-3.604-2.791-8.641-2.791-12.244,0  c-1.93,1.494-47.794,37.232-94.356,92.825c-27.458,32.783-49.366,65.642-65.116,97.665c-19.927,40.515-30.03,79.858-30.03,116.936  C13.665,424.243,101.422,512,209.29,512c102.2,0,186.332-78.78,194.894-178.8c25.53-7.647,48.505-23.077,65.276-44.035  c18.619-23.266,28.873-52.524,28.873-82.383C498.333,161.923,477.032,113.746,435.022,63.589z M209.29,492  c-96.84,0-175.625-78.785-175.625-175.625c0-77.353,49.063-152.246,90.223-201.452c35.487-42.426,71.398-73.599,85.404-85.202  c12.203,10.103,41.023,35.053,71.762,69.438c0.143,0.16,0.286,0.322,0.429,0.482c0.807,0.905,1.616,1.818,2.425,2.735  c0.32,0.363,0.64,0.725,0.961,1.091c0.776,0.884,1.553,1.775,2.33,2.67c0.609,0.702,1.22,1.411,1.832,2.121  c0.342,0.398,0.685,0.797,1.028,1.197c6.685,7.811,13.461,16.118,20.159,24.859c33.737,44.089,67.961,102.644,73.818,163.917  c0.004,0.045,0.008,0.089,0.012,0.134c0.106,1.112,0.201,2.226,0.288,3.34c0.019,0.244,0.035,0.489,0.053,0.733  c0.07,0.946,0.135,1.892,0.192,2.839c0.025,0.431,0.045,0.863,0.067,1.295c0.041,0.781,0.083,1.562,0.114,2.344  c0.026,0.667,0.043,1.335,0.063,2.002c0.017,0.567,0.039,1.133,0.05,1.7c0.025,1.252,0.04,2.504,0.04,3.757  c0,1.479-0.02,2.953-0.056,4.423c-0.01,0.399-0.03,0.793-0.043,1.192C381.84,416.241,304.25,492,209.29,492z M404.867,311.961  c-0.007-0.318-0.021-0.635-0.03-0.953c-0.021-0.81-0.045-1.621-0.076-2.433c-0.018-0.479-0.039-0.958-0.061-1.437  c-0.035-0.793-0.075-1.587-0.119-2.382c-0.026-0.472-0.054-0.944-0.083-1.416c-0.052-0.826-0.109-1.654-0.171-2.482  c-0.031-0.425-0.062-0.849-0.096-1.274c-0.076-0.944-0.159-1.889-0.247-2.835c-0.028-0.298-0.053-0.596-0.082-0.894  c-0.159-1.632-0.337-3.268-0.533-4.907c33.08-14.598,54.962-47.757,54.962-84.165c0-45.575-36.323-96.106-57.975-122.171  c-3.527-4.247-9.833-4.832-14.082-1.303c-4.248,3.529-4.832,9.834-1.303,14.082c16.044,19.314,53.359,68.635,53.359,109.392  c0,26.74-15.09,51.241-38.352,63.599c-4.839-23.077-13.223-46.801-25.096-70.942c-15.16-30.823-36.042-62.421-62.07-93.98  c-0.421-0.511-0.841-1.019-1.262-1.526c-0.597-0.719-1.182-1.439-1.784-2.158c-2.918-3.485-5.834-6.891-8.737-10.216  c24.96-33.082,53.163-58.345,65.339-68.626C390.591,43.431,478.33,123.448,478.33,206.782  C478.333,254.475,448.706,296.045,404.867,311.961z"/>
<path style="fill:#D3E567;" d="M218.957,354.325l22.489,22.49l-6.38,3.527c-9.532,5.27-20.332,8.055-31.232,8.055  c-16.844,0-32.601-6.48-44.386-18.265l-0.198-0.2c-9.598-9.691-15.852-22.288-17.832-35.501l-48.374,7.164  c3.497,23.749,14.421,45.621,31.637,62.836c21.188,21.187,49.406,32.855,79.455,32.855h0.316c24.74-0.068,48.24-7.961,67.96-22.823  l3.809-2.871l22.251,22.249l13.822-93.341L218.957,354.325z"/>
<path d="M204.136,447.286c-32.721,0-63.45-12.708-86.527-35.784c-18.703-18.703-30.619-42.373-34.459-68.45  c-0.804-5.461,2.969-10.541,8.429-11.349l48.374-7.164c5.451-0.812,10.537,2.955,11.355,8.41  c1.68,11.209,7.024,21.845,15.048,29.947l0.207,0.21c9.848,9.846,23.1,15.293,37.273,15.293c7.172,0,14.291-1.426,20.893-4.159  l-12.842-12.842c-2.672-2.672-3.609-6.621-2.424-10.209c1.186-3.587,4.292-6.2,8.03-6.754l93.339-13.824  c3.127-0.462,6.297,0.583,8.536,2.821c2.238,2.239,3.284,5.405,2.821,8.536l-13.823,93.341c-0.554,3.738-3.167,6.844-6.755,8.03  c-3.586,1.185-7.536,0.249-10.209-2.424l-16.146-16.147c-20.788,14.676-45.173,22.449-70.775,22.52h-0.345V447.286z M104.87,349.952  c4.443,17.913,13.622,34.149,26.881,47.407c19.299,19.298,45.006,29.926,72.385,29.926h0.316  c22.532-0.063,43.961-7.258,61.941-20.809l3.81-2.871c3.981-3.001,9.563-2.61,13.09,0.914l8.198,8.199l8.939-60.352l-60.351,8.939  l8.438,8.439c2.222,2.221,3.27,5.357,2.831,8.468c-0.439,3.111-2.314,5.835-5.064,7.354l-6.381,3.527  c-11.008,6.086-23.48,9.303-36.069,9.303c-19.515,0-37.789-7.526-51.457-21.193l-0.242-0.244  c-8.622-8.707-14.988-19.567-18.441-31.276L104.87,349.952z"/>
<path style="fill:#59C671;" d="M204.745,257.999c16.844,0,32.599,6.478,44.376,18.253l0.209,0.212  c9.616,9.71,15.873,22.309,17.841,35.5l48.365-7.163c-3.496-23.747-14.421-45.619-31.636-62.836  c-21.189-21.187-49.407-32.855-79.457-32.855h-0.316c-24.738,0.068-48.239,7.96-67.96,22.822l-3.809,2.871l-22.252-22.249  l-13.822,93.341l93.338-13.824l-22.489-22.491l6.38-3.527C183.044,260.784,193.844,257.999,204.745,257.999z"/>
<path d="M267.159,321.965c-4.871,0-9.137-3.563-9.878-8.525c-1.67-11.189-7.017-21.822-15.057-29.939l-0.216-0.218  C232.166,273.442,218.917,268,204.744,268c-7.173,0-14.292,1.426-20.894,4.159l12.842,12.843c2.672,2.672,3.609,6.621,2.424,10.209  c-1.186,3.587-4.292,6.2-8.03,6.754l-93.337,13.822c-3.125,0.463-6.297-0.582-8.536-2.821c-2.238-2.239-3.284-5.405-2.821-8.536  l13.822-93.34c0.554-3.738,3.167-6.844,6.755-8.03c3.586-1.187,7.536-0.249,10.209,2.423l16.146,16.146  c20.789-14.676,45.174-22.449,70.776-22.519h0.343c32.722,0,63.451,12.708,86.528,35.784c18.703,18.704,30.618,42.373,34.459,68.45  c0.804,5.461-2.969,10.54-8.429,11.349l-48.365,7.164C268.141,321.93,267.647,321.965,267.159,321.965z M204.745,247.999  c19.515,0,37.785,7.522,51.446,21.182l0.251,0.253c8.635,8.72,15.006,19.58,18.455,31.276l28.813-4.267  c-4.443-17.913-13.622-34.148-26.881-47.407c-19.299-19.298-45.007-29.926-72.386-29.926h-0.315  c-22.532,0.062-43.961,7.257-61.942,20.809l-3.809,2.871c-3.98,3.001-9.564,2.612-13.091-0.914l-8.198-8.198l-8.938,60.351  l60.35-8.938l-8.439-8.439c-2.222-2.222-3.27-5.358-2.83-8.468c0.438-3.111,2.313-5.835,5.063-7.354l6.381-3.527  C179.683,251.216,192.155,247.999,204.745,247.999z"/>
<g>
</g>
<g>
</g>
<g>
</g>
<g>
</g>
<g>
</g>
<g>
</g>
<g>
</g>
<g>
</g>
<g>
</g>
<g>
</g>
<g>
</g>
<g>
</g>
<g>
</g>
<g>
</g>
<g>
</g>
</svg>
