<?xml version="1.0" encoding="iso-8859-1"?>
<!-- Generator: Adobe Illustrator 19.0.0, SVG Export Plug-In . SVG Version: 6.00 Build 0)  -->
<svg xmlns="http://www.w3.org/2000/svg" xmlns:xlink="http://www.w3.org/1999/xlink" version="1.1" id="Capa_1" x="0px" y="0px" viewBox="0 0 512 512" style="enable-background:new 0 0 512 512;" xml:space="preserve">
<g>
	<rect x="379.49" y="349.94" style="fill:#007177;" width="122.51" height="40.727"/>
	<path style="fill:#007177;" d="M326.422,74.107H217.466c-11.773,0-21.318-9.544-21.318-21.318l0,0   c0-11.773,9.544-21.317,21.318-21.317h108.956c11.773,0,21.317,9.544,21.317,21.317l0,0   C347.74,64.563,338.196,74.107,326.422,74.107z"/>
</g>
<path style="fill:#59C671;" d="M271.819,339.634c-28.183,0-54.716-11.092-74.711-31.233c-19.955-20.102-31.042-46.825-31.219-75.248  v-0.697c0.198-28.1,11.816-54.83,32.719-75.279c20.069-20.169,46.701-31.276,74.997-31.276c28.298,0,54.908,11.086,74.929,31.217  c18.876,18.98,29.772,43.864,30.983,70.516h24.857l-43.619,58.784l-43.619-58.784h25.881c-2.405-36.559-32.468-65.557-69.077-65.557  l-0.338,0.001c-18.33,0.091-36.149,7.471-48.865,20.248l-0.119,0.117c-14.511,13.868-22.454,31.821-22.367,50.551  c0,18.656,7.126,36.247,20.065,49.562c13.064,13.444,30.525,20.849,49.165,20.849l0.342-0.001  c16.718-0.083,33.425-6.426,45.815-17.402l4.612-4.086l26.087,25.162l-5.221,4.79C323.596,329.773,298.276,339.634,271.819,339.634z  "/>
<path style="fill:#54E3EA;" d="M317.137,227.635h25.881c-2.405-36.559-32.468-65.557-69.078-65.557l-0.338,0.001  c-18.33,0.091-36.149,7.471-48.865,20.248l-0.119,0.117c-14.511,13.868-22.454,31.821-22.367,50.551  c0,18.656,7.126,36.247,20.065,49.562c13.064,13.444,30.525,20.849,49.165,20.849l0.342-0.001  c16.718-0.083,33.425-6.426,45.815-17.402l4.612-4.086l9.462,9.126c6.408-6.571,11.745-14.188,15.721-22.581L317.137,227.635z"/>
<g>
	<path style="fill:#F4BA64;" d="M165.89,233.153v-0.697c0.104-14.796,3.378-29.21,9.503-42.529H10v77.326h161.588   C167.915,256.411,165.963,244.929,165.89,233.153z"/>
	<path style="fill:#F4BA64;" d="M430.983,189.927h-60.157c5.121,11.806,8.093,24.539,8.691,37.708h24.857l-29.398,39.619h23.787   c1.06,0,1.919,0.859,1.919,1.919v80.766h77.327v-74.093v-38.892C478.01,210.981,456.955,189.927,430.983,189.927z"/>
</g>
<path style="fill:#54E3EA;" d="M481.98,457.146c0,22.755-18.446,41.201-41.201,41.201c-22.755,0-41.201-18.446-41.201-41.201  c0-34.578,41.201-66.481,41.201-66.481S481.98,422.568,481.98,457.146z"/>
<path d="M42.53,238.77c-0.65,0-1.31-0.069-1.96-0.2c-0.63-0.13-1.26-0.319-1.87-0.569c-0.6-0.25-1.18-0.561-1.72-0.92  c-0.55-0.36-1.06-0.78-1.52-1.24s-0.88-0.97-1.25-1.52c-0.36-0.539-0.67-1.119-0.92-1.73c-0.25-0.6-0.44-1.23-0.57-1.87  s-0.19-1.3-0.19-1.95c0-0.649,0.06-1.309,0.19-1.96c0.13-0.63,0.32-1.26,0.57-1.87c0.25-0.6,0.56-1.18,0.92-1.72  c0.37-0.55,0.78-1.059,1.25-1.52c0.46-0.471,0.97-0.881,1.52-1.25c0.54-0.36,1.12-0.67,1.72-0.92c0.61-0.25,1.24-0.441,1.87-0.57  c1.29-0.26,2.62-0.26,3.91,0c0.64,0.13,1.27,0.32,1.87,0.57c0.61,0.25,1.19,0.559,1.73,0.92c0.55,0.369,1.06,0.779,1.52,1.25  c0.46,0.46,0.88,0.97,1.24,1.52c0.36,0.54,0.67,1.12,0.92,1.72c0.25,0.61,0.44,1.24,0.57,1.87c0.13,0.65,0.2,1.311,0.2,1.96  c0,0.65-0.07,1.311-0.2,1.95c-0.13,0.64-0.32,1.271-0.57,1.87c-0.25,0.61-0.56,1.191-0.92,1.73c-0.36,0.551-0.78,1.061-1.24,1.52  c-0.46,0.46-0.97,0.88-1.52,1.24c-0.54,0.359-1.12,0.67-1.73,0.92c-0.6,0.25-1.23,0.439-1.87,0.569  C43.84,238.7,43.18,238.77,42.53,238.77z"/>
<path d="M439.78,261.149c-0.65,0-1.311-0.069-1.961-0.199c-0.63-0.131-1.26-0.32-1.869-0.57c-0.601-0.25-1.181-0.561-1.721-0.92  c-0.55-0.36-1.06-0.78-1.52-1.24s-0.88-0.979-1.25-1.52c-0.36-0.551-0.67-1.131-0.92-1.73c-0.25-0.6-0.44-1.229-0.57-1.87  c-0.13-0.64-0.189-1.3-0.189-1.95c0-0.659,0.06-1.31,0.189-1.96c0.13-0.64,0.32-1.27,0.57-1.87c0.25-0.6,0.56-1.18,0.92-1.73  c0.37-0.54,0.79-1.05,1.25-1.52c0.46-0.46,0.97-0.869,1.52-1.239c0.54-0.36,1.12-0.67,1.721-0.92c0.609-0.25,1.239-0.441,1.869-0.57  c1.29-0.26,2.62-0.26,3.91,0c0.641,0.13,1.271,0.32,1.87,0.57c0.61,0.25,1.19,0.559,1.73,0.92c0.55,0.37,1.059,0.779,1.52,1.239  c0.46,0.471,0.88,0.98,1.24,1.52c0.36,0.55,0.67,1.13,0.92,1.73c0.25,0.601,0.44,1.23,0.57,1.87c0.13,0.65,0.2,1.301,0.2,1.96  c0,0.65-0.07,1.311-0.2,1.95c-0.13,0.641-0.32,1.271-0.57,1.87c-0.25,0.6-0.56,1.18-0.92,1.73c-0.36,0.54-0.78,1.06-1.24,1.52  s-0.97,0.88-1.52,1.24c-0.54,0.359-1.12,0.67-1.73,0.92c-0.6,0.25-1.23,0.439-1.87,0.57  C441.09,261.08,440.43,261.149,439.78,261.149z"/>
<path style="fill:#54E3EA;" d="M248.543,74.107l0.007,54.781c8.113-1.973,16.503-2.987,25.055-2.987  c7.392,0,14.662,0.755,21.736,2.231l0.005-54.026L248.543,74.107L248.543,74.107z"/>
<path d="M502,339.939h-13.99V236.953c0-31.444-25.582-57.026-57.026-57.026h-53.842c-5.502-10.924-12.721-21.016-21.517-29.86  c-14.212-14.29-31.462-24.41-50.282-29.762l0.003-36.198h21.078c17.268,0,31.317-14.049,31.317-31.317  c0-17.269-14.049-31.317-31.317-31.317h-44.479v-7.82c0-5.522-4.478-10-10-10s-10,4.478-10,10v7.82h-44.478  c-17.268,0-31.317,14.049-31.317,31.317c0,17.269,14.049,31.317,31.317,31.317h21.078l0.005,37.205  c-17.519,5.567-33.587,15.318-46.98,28.762c-9.142,8.952-16.651,19.018-22.386,29.852H10c-5.523,0-10,4.477-10,10v77.326  c0,5.522,4.477,10,10,10h154.65c5.783,14.116,14.331,27.08,25.362,38.192c21.886,22.047,50.939,34.188,81.807,34.188  c28.967,0,56.688-10.795,78.057-30.396l5.221-4.79c2.032-1.864,3.204-4.485,3.238-7.243c0.034-2.758-1.071-5.407-3.057-7.322  l-9.787-9.44c1.002-1.275,1.977-2.569,2.91-3.891l4.324,5.827c1.886,2.542,4.864,4.041,8.03,4.041s6.145-1.499,8.03-4.041  l11.223-15.125h10.674v62.686H379.49c-5.522,0-10,4.477-10,10v40.727c0,5.522,4.478,10,10,10h36.366  c-12.375,13.856-26.279,34.346-26.279,56.482c0,28.232,22.969,51.201,51.201,51.201s51.201-22.969,51.201-51.201  c0-22.135-13.904-42.626-26.279-56.482H502c5.522,0,10-4.478,10-10v-40.727C512,344.416,507.522,339.939,502,339.939z   M440.778,488.348c-17.204,0-31.201-13.997-31.201-31.201c0-21.837,20.667-43.61,31.244-53.323  c12.239,11.227,31.158,32.925,31.158,53.323C471.979,474.351,457.982,488.348,440.778,488.348z M206.149,52.79  c0-6.24,5.077-11.317,11.317-11.317h108.957c6.24,0,11.317,5.077,11.317,11.317s-5.077,11.317-11.317,11.317h-31.077h-46.802  h-31.077C211.226,64.107,206.149,59.03,206.149,52.79z M258.549,116.875l-0.004-32.768h26.8l-0.003,32.382  c-1.101-0.11-2.206-0.205-3.313-0.285c-0.067-0.005-0.134-0.008-0.201-0.012c-0.976-0.068-1.954-0.124-2.934-0.168  c-0.285-0.013-0.57-0.021-0.855-0.031c-0.77-0.029-1.541-0.052-2.314-0.066c-0.338-0.006-0.676-0.009-1.014-0.012  c-0.369-0.003-0.736-0.014-1.105-0.014c-0.372,0-0.743,0.01-1.114,0.014c-0.328,0.003-0.655,0.006-0.982,0.012  c-0.801,0.014-1.601,0.038-2.399,0.069c-0.252,0.01-0.504,0.017-0.756,0.028c-1.048,0.047-2.093,0.105-3.135,0.18l0,0  c-2.201,0.158-4.388,0.379-6.562,0.66C258.62,116.867,258.584,116.87,258.549,116.875z M158.486,257.253H20v-57.326h140.882  c-0.089,0.289-0.165,0.582-0.251,0.872c-0.179,0.601-0.352,1.204-0.521,1.807c-0.273,0.969-0.531,1.942-0.777,2.918  c-0.133,0.525-0.268,1.05-0.393,1.578c-0.16,0.675-0.31,1.353-0.457,2.031c-0.097,0.445-0.19,0.89-0.281,1.336  c-0.186,0.906-0.361,1.813-0.524,2.724c-0.13,0.721-0.258,1.443-0.374,2.167c-0.098,0.616-0.184,1.234-0.272,1.851  c-0.074,0.518-0.146,1.037-0.213,1.556H77.556c-5.523,0-10,4.478-10,10s4.477,10,10,10h78.499c0.007,0.134,0.013,0.269,0.021,0.403  c0.019,0.342,0.046,0.683,0.068,1.024c0.042,0.651,0.083,1.302,0.136,1.951c0.027,0.338,0.062,0.674,0.092,1.012  c0.059,0.656,0.118,1.311,0.187,1.964c0.034,0.315,0.073,0.63,0.109,0.944c0.077,0.679,0.157,1.358,0.246,2.035  c0.037,0.281,0.078,0.561,0.118,0.842c0.099,0.715,0.203,1.43,0.315,2.142c0.037,0.238,0.078,0.475,0.117,0.712  c0.125,0.763,0.256,1.524,0.395,2.283c0.034,0.185,0.07,0.37,0.105,0.555c0.154,0.817,0.317,1.633,0.488,2.445  C158.463,257.138,158.474,257.196,158.486,257.253z M331.016,276.479l-1.824-1.759c-3.101-2.991-7.667-3.591-11.364-1.766  c-0.783,0.386-1.529,0.875-2.212,1.479l-4.61,4.085c-10.6,9.39-24.899,14.815-39.212,14.887l-0.313,0.001  c-15.915,0-30.829-6.328-41.994-17.817c-11.115-11.439-17.237-26.566-17.237-42.641c-0.075-15.956,6.771-31.325,19.276-43.275  c0.024-0.023,0.049-0.047,0.073-0.071l0.119-0.116c0.036-0.034,0.071-0.069,0.105-0.104c10.866-10.919,26.112-17.225,41.807-17.303  l0.309-0.001c27.466,0,50.94,19.301,57.444,45.558h-14.248c-3.778,0-7.234,2.13-8.933,5.505s-1.35,7.42,0.902,10.454l26.562,35.796  C334.256,271.84,332.703,274.206,331.016,276.479z M355.466,262.509c-0.001-0.002-0.002-0.003-0.003-0.005l-18.453-24.869h6.008  c2.767,0,5.408-1.145,7.3-3.165c1.891-2.018,2.86-4.731,2.679-7.491c-2.589-39.376-33.271-70.753-71.372-74.522  c-2.54-0.251-5.113-0.38-7.713-0.38l-0.358,0.001c-20.935,0.104-41.286,8.536-55.849,23.139l-0.034,0.033  c-13.717,13.124-22.248,29.533-24.68,47.02c-0.261,1.875-0.453,3.761-0.572,5.658c-0.105,1.682-0.175,3.37-0.167,5.065  c0,21.262,8.13,41.338,22.893,56.531c14.964,15.399,34.972,23.88,56.366,23.88l0.363-0.001c1.13-0.006,2.26-0.036,3.389-0.092  c1.193-0.058,2.385-0.148,3.574-0.261c15.691-1.491,30.964-7.69,43.079-17.563l2.854,2.753c0.001,0.001,0.003,0.003,0.005,0.004  l8.922,8.607c-17.279,14.718-39.112,22.782-61.876,22.782c-25.499,0-49.511-10.043-67.614-28.278  c-10.6-10.677-18.435-23.418-23.146-37.31v-0.001c-0.416-1.227-0.806-2.46-1.171-3.701c-0.009-0.031-0.018-0.063-0.028-0.094  c-0.731-2.489-1.363-5.005-1.894-7.544c-0.001-0.005-0.002-0.011-0.003-0.016c-0.26-1.248-0.495-2.502-0.707-3.761  c-0.012-0.07-0.023-0.14-0.035-0.21c-0.412-2.484-0.728-4.987-0.949-7.506c-0.009-0.099-0.018-0.197-0.027-0.296  c-0.102-1.206-0.181-2.416-0.239-3.629c-0.008-0.165-0.014-0.331-0.021-0.497c-0.053-1.221-0.088-2.443-0.096-3.669v-0.023  l-0.001-0.572c0.003-0.354,0.015-0.706,0.021-1.059c0.008-0.448,0.013-0.897,0.027-1.344c0.019-0.589,0.049-1.176,0.08-1.763  c0.01-0.205,0.017-0.411,0.029-0.616c0.042-0.715,0.094-1.428,0.152-2.14c0.006-0.07,0.01-0.14,0.015-0.209  c0.592-7.053,1.986-13.979,4.139-20.681c0.01-0.03,0.019-0.059,0.029-0.089c0.224-0.696,0.457-1.389,0.698-2.08  c0.032-0.091,0.064-0.182,0.096-0.272c0.222-0.632,0.451-1.262,0.687-1.89c0.061-0.161,0.124-0.322,0.185-0.483  c0.216-0.565,0.436-1.129,0.662-1.69c0.09-0.224,0.185-0.446,0.277-0.669c0.209-0.505,0.419-1.01,0.637-1.512  c0.116-0.268,0.237-0.535,0.356-0.802c5.025-11.31,12.305-21.787,21.622-30.901c0.032-0.031,0.064-0.064,0.096-0.095  c12.886-12.95,28.758-21.77,46.03-25.812c0.413-0.096,0.827-0.192,1.242-0.283c0.361-0.079,0.723-0.156,1.086-0.231  c0.534-0.11,1.069-0.217,1.606-0.318c0.246-0.047,0.491-0.093,0.737-0.138c0.755-0.136,1.511-0.266,2.27-0.384  c0.037-0.006,0.073-0.012,0.11-0.018c9.635-1.487,19.57-1.512,29.188-0.077c0.285,0.043,0.568,0.092,0.852,0.138  c0.512,0.081,1.025,0.163,1.535,0.253c0.464,0.082,0.926,0.171,1.388,0.259c0.333,0.063,0.666,0.126,0.997,0.193  c18.325,3.713,35.176,12.753,48.705,26.356c15.951,16.039,25.713,36.991,27.775,59.411c0,0.002,0,0.004,0,0.005  c0.137,1.495,0.241,2.996,0.309,4.503c0.242,5.341,4.643,9.546,9.989,9.546h4.984l-17.556,23.659  c-0.002,0.003-0.003,0.006-0.005,0.008l-6.185,8.335L355.466,262.509z M398.764,257.253h-3.914l17.556-23.659  c2.252-3.034,2.601-7.079,0.902-10.454c-1.698-3.375-5.154-5.505-8.933-5.505h-15.686c-0.762-6.009-1.983-11.923-3.656-17.708  h45.951c20.416,0,37.026,16.61,37.026,37.026v102.985h-18.232v-53.764c0-5.522-4.477-10-10-10c-5.522,0-10,4.478-10,10v53.764  h-19.095v-70.766C410.684,262.601,405.336,257.253,398.764,257.253z M492,380.665H389.49v-20.727h11.193h77.326H492V380.665z"/>
<g>
</g>
<g>
</g>
<g>
</g>
<g>
</g>
<g>
</g>
<g>
</g>
<g>
</g>
<g>
</g>
<g>
</g>
<g>
</g>
<g>
</g>
<g>
</g>
<g>
</g>
<g>
</g>
<g>
</g>
</svg>
