<?xml version="1.0" encoding="iso-8859-1"?>
<!-- Generator: Adobe Illustrator 19.0.0, SVG Export Plug-In . SVG Version: 6.00 Build 0)  -->
<svg xmlns="http://www.w3.org/2000/svg" xmlns:xlink="http://www.w3.org/1999/xlink" version="1.1" id="Capa_1" x="0px" y="0px" viewBox="0 0 512 512" style="enable-background:new 0 0 512 512;" xml:space="preserve">
<polygon style="fill:#F9D973;" points="322.875,258.046 267.031,258.046 266.674,124.27 151.143,258.046 216.068,258.049   216.238,389.139 "/>
<path d="M368.43,236.83c-0.649,0-1.31-0.07-1.95-0.2c-0.64-0.13-1.27-0.32-1.87-0.57c-0.609-0.25-1.19-0.56-1.729-0.92  c-0.55-0.36-1.061-0.78-1.521-1.24s-0.88-0.97-1.25-1.52c-0.359-0.54-0.67-1.12-0.909-1.73c-0.25-0.6-0.45-1.23-0.57-1.87  c-0.13-0.64-0.2-1.3-0.2-1.95c0-2.63,1.07-5.21,2.93-7.07c0.46-0.46,0.971-0.88,1.521-1.24c0.54-0.36,1.12-0.67,1.729-0.92  c0.601-0.25,1.23-0.44,1.87-0.57c1.29-0.26,2.61-0.26,3.9,0c0.64,0.13,1.27,0.32,1.87,0.57c0.609,0.25,1.19,0.56,1.729,0.92  c0.551,0.36,1.061,0.78,1.521,1.24c1.859,1.86,2.93,4.44,2.93,7.07c0,0.65-0.07,1.31-0.2,1.95c-0.12,0.64-0.319,1.27-0.569,1.87  c-0.25,0.61-0.561,1.19-0.92,1.73c-0.36,0.55-0.78,1.06-1.24,1.52s-0.97,0.88-1.521,1.24c-0.54,0.36-1.12,0.67-1.729,0.92  c-0.601,0.25-1.23,0.44-1.87,0.57C369.74,236.759,369.079,236.83,368.43,236.83z"/>
<path d="M364.858,185.888c-20.36-36.698-55.335-62.299-95.325-71.197c-0.45-0.135-0.905-0.234-1.362-0.303  c-9.771-2.075-19.831-3.167-30.048-3.167c-79.866,0-144.843,64.976-144.843,144.843c0,34.576,12.382,68.051,34.865,94.26  c22.216,25.898,52.894,43.18,86.39,48.669c0.014,0.002,0.027,0.005,0.041,0.007c0.017,0.003,0.034,0.006,0.052,0.009  c0.147,0.024,0.292,0.036,0.439,0.053c0.118,0.014,0.235,0.033,0.353,0.043c0.278,0.023,0.555,0.035,0.83,0.035  c0.347,0,0.691-0.023,1.031-0.059c0.068-0.007,0.135-0.019,0.203-0.028c0.276-0.034,0.548-0.079,0.818-0.136  c0.085-0.018,0.169-0.038,0.253-0.058c0.26-0.062,0.516-0.135,0.769-0.217c0.076-0.025,0.153-0.047,0.228-0.073  c0.639-0.225,1.251-0.513,1.828-0.859c0.091-0.055,0.179-0.115,0.269-0.173c0.196-0.126,0.388-0.258,0.575-0.398  c0.094-0.07,0.188-0.142,0.279-0.216c0.202-0.163,0.397-0.334,0.586-0.512c0.057-0.054,0.117-0.103,0.173-0.159  c0.248-0.244,0.482-0.502,0.704-0.771c0.009-0.011,0.02-0.021,0.029-0.032l106.637-131.092c2.435-2.994,2.93-7.121,1.272-10.605  c-1.657-3.485-5.172-5.705-9.03-5.705h-45.871l-0.295-110.688c29.613,9.639,55.092,30.173,70.66,58.233  c2.679,4.829,8.765,6.571,13.596,3.893C365.794,196.805,367.537,190.718,364.858,185.888z M301.849,268.046l-75.648,92.997  l-0.134-103.008c-0.007-5.517-4.482-9.987-10-9.987l-43.076-0.001l83.753-96.981l0.285,107.007c0.015,5.512,4.487,9.973,10,9.973  H301.849z M143.574,251.51c-2.557,2.961-3.152,7.141-1.524,10.698c1.628,3.557,5.181,5.838,9.093,5.838l54.938,0.002l0.142,108.758  c-54.508-14.225-92.941-63.25-92.941-120.742c0-68.838,56.004-124.842,124.842-124.842c3.032,0,6.047,0.119,9.042,0.336  L143.574,251.51z"/>
<path style="fill:#59C671;" d="M365.26,259.447l68.37,92.142L502,259.447h-40.88l-0.005-4.082  c-0.082-60.104-23.391-116.595-65.632-159.069c-42.23-42.46-98.35-65.844-158.024-65.844c-59.702,0-115.883,23.437-158.247,66.048  C34.976,139.74,10.397,196.179,10,255.481l0.001,1.291c0.372,60.026,23.781,116.458,65.916,158.903  c42.169,42.478,98.112,65.871,157.523,65.871c55.963,0,109.134-20.75,150.341-58.55l-37.259-35.938  c-30.638,27.14-71.541,42.736-113.046,42.943l-0.797,0.002c-46.047,0-89.171-18.282-121.428-51.478  c-31.861-32.789-49.408-76.104-49.408-121.946c-0.218-46.329,19.308-90.613,54.983-124.704  c31.404-31.551,75.349-49.771,120.598-49.996l0.79-0.002c94.203,0,170.84,77.703,170.84,173.214v4.356H365.26z"/>
<path d="M233.44,491.547c-62.096,0-120.559-24.442-164.619-68.826C24.83,378.408,0.39,319.495,0.001,256.835L0,255.489  c0.414-62.022,26.042-120.976,72.169-166.088c44.23-44.463,102.93-68.948,165.291-68.948c62.356,0,120.993,24.431,165.113,68.792  c42.729,42.963,66.906,99.655,68.462,160.202H502c3.778,0,7.234,2.13,8.933,5.505c1.698,3.375,1.35,7.42-0.902,10.454  l-68.369,92.142c-1.886,2.542-4.864,4.041-8.03,4.041s-6.145-1.499-8.03-4.041l-68.37-92.142c-2.251-3.035-2.6-7.079-0.901-10.454  c1.698-3.375,5.154-5.505,8.933-5.505h33.698c-2.944-87.393-73.921-157.57-160.747-157.57l-0.771,0.001  c-42.587,0.211-83.977,17.36-113.528,47.051c-0.06,0.059-0.119,0.117-0.179,0.175c-33.668,32.174-52.097,73.877-51.892,117.428  c0,43.28,16.542,84.112,46.579,115.024c30.358,31.242,70.935,48.447,114.256,48.447l0.772-0.002  c38.851-0.193,77.655-14.929,106.441-40.428c3.906-3.46,9.817-3.336,13.573,0.288l37.259,35.938  c1.985,1.914,3.092,4.564,3.057,7.323c-0.034,2.758-1.207,5.379-3.239,7.244C347.532,469.819,291.738,491.547,233.44,491.547z   M237.46,40.453c-57.021,0-110.702,22.408-151.156,63.099c-0.034,0.034-0.067,0.067-0.102,0.101  C43.89,145.011,20.378,198.956,20,255.548l0.001,1.216c0.356,57.338,22.733,111.292,63.013,151.865  c40.278,40.573,93.7,62.917,150.426,62.917c49.723,0,97.455-17.298,135.557-48.917l-22.943-22.13  C314.563,425.498,274.07,439.799,233.527,440l-0.822,0.002c-48.797,0-94.468-19.358-128.624-54.509  c-33.685-34.666-52.235-80.448-52.235-128.915c-0.23-49.015,20.361-95.852,57.984-131.849  c33.246-33.351,79.728-52.614,127.546-52.852l0.821-0.001c99.734,0,180.858,82.189,180.858,183.214v4.355c0,5.523-4.478,10-10,10  h-23.92l48.497,65.359l48.497-65.359h-21.006c-5.518,0-9.992-4.468-10-9.986l-0.006-4.081  c-0.078-57.449-22.354-111.441-62.723-152.031C348.055,62.79,294.452,40.453,237.46,40.453z"/>
<g>
</g>
<g>
</g>
<g>
</g>
<g>
</g>
<g>
</g>
<g>
</g>
<g>
</g>
<g>
</g>
<g>
</g>
<g>
</g>
<g>
</g>
<g>
</g>
<g>
</g>
<g>
</g>
<g>
</g>
</svg>
