<?xml version="1.0" encoding="iso-8859-1"?>
<!-- Generator: Adobe Illustrator 19.0.0, SVG Export Plug-In . SVG Version: 6.00 Build 0)  -->
<svg xmlns="http://www.w3.org/2000/svg" xmlns:xlink="http://www.w3.org/1999/xlink" version="1.1" id="Capa_1" x="0px" y="0px" viewBox="0 0 512 512" style="enable-background:new 0 0 512 512;" xml:space="preserve">
<path style="fill:#59C671;" d="M282.139,502c-37.051,0-71.931-14.582-98.217-41.061c-26.234-26.426-40.809-61.558-41.041-98.923  V361.1c0.26-36.941,15.534-72.082,43.014-98.964c26.383-26.514,61.395-41.116,98.593-41.116c37.201,0,72.184,14.575,98.504,41.038  c24.815,24.952,39.139,57.665,40.732,92.703h32.678l-57.343,77.279l-57.343-77.279h34.024  c-3.161-48.062-42.684-86.184-90.811-86.184l-0.445,0.001c-24.098,0.12-47.522,9.822-64.24,26.619l-0.156,0.153  c-19.077,18.231-29.519,41.833-29.404,66.457c0,24.526,9.368,47.651,26.378,65.156c17.175,17.675,40.129,27.409,64.634,27.409  l0.449-0.001c21.979-0.11,43.941-8.448,60.23-22.877l6.063-5.371l34.295,33.079l-6.864,6.297  C350.206,489.037,316.92,502,282.139,502z"/>
<path style="fill:#54E3EA;" d="M341.715,354.762h34.024c-3.161-48.062-42.684-86.184-90.811-86.184l-0.445,0.001  c-24.098,0.12-47.522,9.822-64.24,26.619l-0.156,0.153c-19.077,18.231-29.519,41.833-29.404,66.457  c0,24.526,9.368,47.651,26.378,65.156c17.175,17.675,40.129,27.409,64.634,27.409l0.449-0.001  c21.979-0.11,43.941-8.448,60.23-22.877l6.063-5.371l14.757,14.234c8.337-8.377,15.35-18.071,20.71-28.74L341.715,354.762z"/>
<polygon style="fill:#F9D973;" points="343.75,363.725 304.865,363.725 304.617,270.755 224.171,363.725 269.379,363.726   269.583,454.203 "/>
<path style="fill:#54E3EA;" d="M283.533,221.027l0.009-142.666l0,0H55.599v160.667h160.477  C236.457,227.424,259.512,221.182,283.533,221.027z"/>
<g>
	<path style="fill:#007177;" d="M282.139,502h1.402v-0.016C283.074,501.988,282.607,502,282.139,502z"/>
	<path style="fill:#007177;" d="M142.881,362.016V361.1c0.26-36.942,15.534-72.082,43.014-98.964   c9.118-9.164,19.269-16.903,30.182-23.109H55.599V502h30.43h196.109c-37.051,0-71.931-14.582-98.217-41.06   C157.687,434.513,143.112,399.381,142.881,362.016z"/>
	<rect x="109.04" y="10" style="fill:#007177;" width="121.07" height="68.36"/>
</g>
<path d="M244.33,139.35c-0.66,0-1.31-0.07-1.96-0.2c-0.64-0.13-1.27-0.319-1.87-0.569c-0.6-0.25-1.18-0.561-1.73-0.92  c-0.54-0.36-1.05-0.78-1.52-1.24c-0.46-0.46-0.87-0.97-1.24-1.521c-0.36-0.54-0.67-1.12-0.92-1.72c-0.25-0.61-0.44-1.24-0.57-1.87  c-0.13-0.649-0.19-1.31-0.19-1.96c0-0.649,0.059-1.31,0.19-1.95c0.13-0.64,0.32-1.27,0.57-1.87c0.25-0.609,0.56-1.189,0.92-1.729  c0.36-0.55,0.78-1.06,1.24-1.521c0.46-0.46,0.98-0.88,1.52-1.239c0.55-0.36,1.13-0.67,1.73-0.92c0.6-0.25,1.23-0.44,1.87-0.57  c1.29-0.26,2.62-0.26,3.91,0c0.64,0.13,1.27,0.32,1.87,0.57c0.6,0.25,1.18,0.56,1.73,0.92c0.55,0.359,1.06,0.779,1.52,1.239  c0.46,0.461,0.88,0.971,1.24,1.521c0.36,0.54,0.671,1.12,0.921,1.729c0.25,0.601,0.44,1.231,0.57,1.87  c0.13,0.641,0.2,1.301,0.2,1.95c0,0.65-0.07,1.311-0.2,1.96c-0.13,0.63-0.32,1.26-0.57,1.87c-0.25,0.6-0.56,1.18-0.921,1.72  c-0.37,0.551-0.78,1.061-1.24,1.521c-0.46,0.46-0.98,0.88-1.52,1.24c-0.55,0.359-1.13,0.67-1.73,0.92  c-0.6,0.25-1.23,0.439-1.87,0.569C245.63,139.279,244.98,139.35,244.33,139.35z"/>
<path d="M94.82,192.1c-2.64,0-5.22-1.07-7.07-2.93c-1.87-1.86-2.94-4.44-2.94-7.07s1.07-5.21,2.93-7.08  c2.33-2.319,5.78-3.38,9.03-2.73c0.64,0.13,1.27,0.319,1.87,0.569c0.6,0.25,1.19,0.561,1.73,0.92c0.55,0.37,1.06,0.78,1.52,1.24  c1.86,1.87,2.93,4.45,2.93,7.08s-1.07,5.21-2.93,7.07C100.03,191.029,97.45,192.1,94.82,192.1z"/>
<path d="M465.333,350.267c-1.698-3.375-5.154-5.505-8.933-5.505h-23.425c-3.692-33.872-18.718-65.444-42.895-89.755  c-26.068-26.209-60.069-41.528-96.548-43.707l0.008-132.939c0-2.652-1.053-5.196-2.929-7.072c-1.876-1.875-4.419-2.929-7.071-2.929  h-43.437V10c0-5.523-4.477-10-10-10H109.036c-5.523,0-10,4.477-10,10v58.36H55.599c-5.523,0-10,4.478-10,10v160.667V502  c0,5.522,4.477,10,10,10h226.54c37.291,0,72.978-13.897,100.488-39.132l6.864-6.297c2.033-1.864,3.205-4.486,3.239-7.244  c0.035-2.758-1.071-5.407-3.057-7.322l-12.536-12.091c2.757-3.272,5.327-6.688,7.721-10.227l6.168,8.313  c1.886,2.542,4.865,4.041,8.031,4.041s6.144-1.499,8.031-4.041l57.343-77.279C466.683,357.686,467.032,353.642,465.333,350.267z   M119.036,20h101.068v48.36H119.036V20z M109.036,88.36h121.068h43.437l-0.005,83.736H130.347c-5.523,0-10,4.478-10,10  s4.477,10,10,10h143.188l-0.001,19.321c-21.234,1.541-41.598,7.558-60.015,17.59c-0.013,0.007-0.026,0.013-0.038,0.02H65.599V139.35  h143.194c5.523,0,10-4.478,10-10s-4.477-10-10-10H65.599V88.36H109.036z M207.803,492H65.599V249.027h119.587  c-0.125,0.112-0.246,0.229-0.37,0.341c-0.711,0.642-1.415,1.294-2.116,1.95c-0.306,0.287-0.616,0.569-0.92,0.858  c-0.947,0.902-1.886,1.816-2.813,2.745c-0.038,0.038-0.077,0.074-0.115,0.113c-18.047,17.669-31.159,38.698-38.658,61.488  c-0.509,1.548-1.002,3.1-1.46,4.664c-0.829,2.835-1.561,5.699-2.217,8.582c-0.487,2.142-0.93,4.296-1.32,6.461  c-0.226,1.254-0.435,2.512-0.628,3.774c-0.393,2.565-0.716,5.144-0.972,7.735c-0.311,3.141-0.529,6.299-0.635,9.474  c-0.043,1.293-0.072,2.589-0.081,3.887v0.915v0.063v0.001c0.057,9.156,0.928,18.185,2.56,27.008  c0.292,1.577,0.608,3.146,0.949,4.709c0.188,0.86,0.382,1.718,0.585,2.574c6.076,25.711,18.784,49.406,37.254,68.935  c0.853,0.902,1.719,1.795,2.597,2.68c1.055,1.063,2.127,2.102,3.208,3.129c0.325,0.308,0.653,0.612,0.979,0.917  c0.802,0.749,1.61,1.487,2.425,2.216c0.332,0.297,0.663,0.596,0.998,0.89c1.098,0.965,2.204,1.917,3.325,2.846  c0.017,0.014,0.034,0.029,0.051,0.043c1.136,0.94,2.287,1.857,3.446,2.76c0.347,0.271,0.698,0.537,1.047,0.804  c0.861,0.659,1.728,1.309,2.601,1.948c0.355,0.26,0.709,0.521,1.066,0.778c1.176,0.845,2.359,1.677,3.555,2.484  c0.015,0.01,0.03,0.021,0.045,0.031c1.212,0.818,2.438,1.61,3.671,2.39c0.366,0.232,0.735,0.458,1.103,0.686  c0.916,0.568,1.837,1.126,2.764,1.673C207.342,491.717,207.57,491.864,207.803,492z M362.709,425.996l-7.331-7.07  c-3.757-3.622-9.668-3.748-13.574-0.288l-6.062,5.371c-12.291,10.887-28.218,17.859-44.704,19.795l54.742-66.781l26.302,35.447  C369.326,417.227,366.194,421.746,362.709,425.996z M200.682,361.761c-0.045-9.559,1.718-18.959,5.146-27.875  c4.407-11.464,11.565-22.129,21.167-31.305c0.032-0.03,0.063-0.061,0.095-0.092l0.156-0.153c0.028-0.027,0.056-0.056,0.083-0.083  c0.929-0.934,1.882-1.843,2.857-2.727c14.62-13.257,34.202-20.847,54.318-20.947h0.119l-68.014,78.604  c-2.561,2.959-3.16,7.141-1.533,10.7c1.627,3.56,5.181,5.843,9.094,5.843l35.231,0.002l0.152,67.525  c-13.255-3.808-25.379-11.025-35.322-21.257C209.045,404.366,200.682,383.701,200.682,361.761z M341.715,344.762  c-3.778,0-7.234,2.13-8.933,5.505c-0.554,1.1-0.868,2.273-0.991,3.458h-16.953l-0.185-69.355  c25.11,10.14,44.258,32.705,49.715,60.393h-22.653V344.762z M294.688,297.512l0.177,66.239c0.015,5.513,4.488,9.974,10,9.974h17.757  l-43.103,52.582l-0.141-62.603c-0.013-5.514-4.486-9.978-9.999-9.978l-23.333-0.001L294.688,297.512z M399.058,415.26l-7.121-9.597  c-0.001-0.001-0.002-0.003-0.003-0.004l-30.346-40.897h14.151c2.766,0,5.409-1.145,7.299-3.165c1.891-2.019,2.861-4.732,2.679-7.491  c-0.255-3.883-0.732-7.702-1.403-11.452c-0.081-0.452-0.163-0.904-0.25-1.354c-1.251-6.485-3.108-12.747-5.506-18.725  c-0.517-1.289-1.055-2.568-1.621-3.83c-0.055-0.122-0.114-0.243-0.169-0.365c-12.988-28.618-38.611-50.069-69.336-57.218  c-0.371-0.109-0.746-0.192-1.122-0.257c-5.347-1.179-10.843-1.929-16.451-2.206c-1.642-0.081-3.293-0.123-4.953-0.123l-0.473,0.001  c-0.835,0.004-1.669,0.019-2.502,0.044c-25.823,0.77-50.747,11.43-68.732,29.476l-0.025,0.025l-0.046,0.045  c-5.921,5.665-11.087,11.806-15.453,18.316c-0.115,0.172-0.225,0.346-0.339,0.519c-0.847,1.279-1.668,2.569-2.453,3.875  c-7.125,11.855-11.685,24.798-13.416,38.223c-0.216,1.678-0.388,3.364-0.516,5.056c-0.127,1.692-0.21,3.39-0.247,5.094  c-0.019,0.852-0.026,1.705-0.022,2.559c0,3.976,0.229,7.919,0.669,11.815c0.036,0.317,0.069,0.635,0.107,0.951  c0.384,3.142,0.91,6.251,1.573,9.321c0.024,0.112,0.045,0.226,0.07,0.338c4.085,18.618,13.251,35.769,26.787,49.7  c15.043,15.481,34.086,25.471,54.831,29.004c0.478,0.266,0.981,0.498,1.509,0.686c1.098,0.392,2.232,0.581,3.354,0.581  c0.811,0,1.613-0.108,2.394-0.301c3.216,0.309,6.465,0.469,9.741,0.469l0.478-0.001c23.996-0.119,47.962-9.086,65.949-24.638  l19.99,19.281C344.457,480.295,313.971,492,282.139,492c-34.366,0-66.726-13.533-91.12-38.105c-1.19-1.199-2.346-2.422-3.484-3.659  c-0.319-0.347-0.644-0.689-0.959-1.039c-21.571-23.943-33.487-54.666-33.695-87.217v-0.809c0.098-13.905,2.498-27.544,7.024-40.513  c6.624-18.977,17.8-36.521,32.982-51.373c0.032-0.031,0.064-0.063,0.096-0.095c0.053-0.053,0.108-0.105,0.161-0.158  c0.88-0.881,1.773-1.746,2.676-2.601c0.297-0.281,0.597-0.559,0.896-0.837c0.734-0.683,1.476-1.357,2.224-2.021  c0.263-0.233,0.523-0.47,0.788-0.701c0.987-0.863,1.985-1.712,2.995-2.544c0.195-0.161,0.394-0.316,0.59-0.475  c0.841-0.684,1.69-1.357,2.547-2.019c0.31-0.24,0.621-0.478,0.933-0.715c0.871-0.661,1.75-1.311,2.636-1.949  c0.194-0.14,0.386-0.284,0.581-0.423c1.045-0.744,2.102-1.468,3.168-2.18c0.335-0.224,0.673-0.442,1.01-0.662  c0.78-0.51,1.566-1.012,2.356-1.505c0.371-0.231,0.741-0.464,1.114-0.691c1.061-0.647,2.129-1.282,3.208-1.898  c0.316-0.181,0.637-0.352,0.955-0.53c0.744-0.416,1.49-0.828,2.242-1.229c0.459-0.245,0.92-0.484,1.382-0.722  c0.664-0.343,1.33-0.681,2-1.013c0.423-0.21,0.845-0.42,1.27-0.624c1.006-0.484,2.017-0.959,3.035-1.416  c0.075-0.034,0.148-0.069,0.223-0.103c1.193-0.533,2.395-1.046,3.604-1.542c0.118-0.049,0.237-0.095,0.355-0.143  c1.147-0.467,2.301-0.918,3.462-1.351c0.06-0.022,0.12-0.045,0.18-0.067c11.446-4.25,23.513-6.864,35.788-7.728  c0.009-0.001,0.018-0.001,0.027-0.002c1.245-0.087,2.492-0.152,3.741-0.203c0.255-0.01,0.511-0.019,0.767-0.028  c1.099-0.039,2.199-0.064,3.3-0.074c0.43-0.004,0.86-0.016,1.291-0.016c34.519,0,66.984,13.527,91.414,38.091  c22.92,23.047,36.356,53.627,37.832,86.105c0.243,5.341,4.644,9.546,9.99,9.546h12.806L399.058,415.26z"/>
<g>
</g>
<g>
</g>
<g>
</g>
<g>
</g>
<g>
</g>
<g>
</g>
<g>
</g>
<g>
</g>
<g>
</g>
<g>
</g>
<g>
</g>
<g>
</g>
<g>
</g>
<g>
</g>
<g>
</g>
</svg>
