<?xml version="1.0" encoding="iso-8859-1"?>
<!-- Generator: Adobe Illustrator 19.0.0, SVG Export Plug-In . SVG Version: 6.00 Build 0)  -->
<svg xmlns="http://www.w3.org/2000/svg" xmlns:xlink="http://www.w3.org/1999/xlink" version="1.1" id="Capa_1" x="0px" y="0px" viewBox="0 0 512 512" style="enable-background:new 0 0 512 512;" xml:space="preserve">
<path style="fill:#59C671;" d="M203.045,317.109v30.527H35.21L94.292,449.75c3.611,6.242,10.275,10.084,17.486,10.084h91.268v30.517  l114.637-86.904L203.045,317.109z"/>
<path style="fill:#D3E567;" d="M441.673,402.803l-31.713-55.167H243.578l74.104,55.81l-74.382,56.388h141.039  c16.09,0,30.95-8.607,38.957-22.563l19.431-33.869L441.673,402.803z"/>
<path style="fill:#59C671;" d="M230.093,183.462l-26.469-15.209l51.606-89.779l32.043-55.752V21.65h-110.63  c-11.739,0-22.569,6.317-28.349,16.535l-41.942,74.145L79.892,97.125l18.19,138.918L230.093,183.462z"/>
<path style="fill:#D3E567;" d="M98.082,236.043l-11.827-90.329L15.951,269.598c-7.989,13.897-7.965,30.999,0.062,44.873  l19.197,33.165h65.316l82.702-145.508L98.082,236.043z"/>
<path style="fill:#59C671;" d="M455.295,201.373l26.474-15.218L349.27,133.849L331.565,272.49l26.459-15.203l51.936,90.349  l31.713,55.167l1.052,0.598l54.978-95.847c5.763-10.047,5.757-22.397-0.015-32.438L455.295,201.373z"/>
<path style="fill:#D3E567;" d="M349.27,133.849l87.515,34.547L364.952,44.179c-8.012-13.937-22.861-22.53-38.938-22.53h-38.743  v1.076l-32.043,55.747c0.009,0,63.832,110.464,82.812,143.313L349.27,133.849z"/>
<path d="M240.167,413.814c-0.65,0-1.31-0.07-1.95-0.2s-1.27-0.32-1.87-0.57c-0.61-0.25-1.19-0.56-1.73-0.92  c-0.55-0.36-1.059-0.78-1.52-1.24c-0.46-0.46-0.88-0.98-1.24-1.52c-0.36-0.54-0.67-1.13-0.92-1.73c-0.25-0.6-0.44-1.23-0.57-1.87  c-0.13-0.65-0.2-1.3-0.2-1.95c0-0.66,0.07-1.31,0.2-1.96c0.13-0.64,0.32-1.27,0.57-1.87c0.25-0.6,0.56-1.18,0.92-1.73  c0.36-0.54,0.78-1.05,1.24-1.52c0.461-0.46,0.97-0.87,1.52-1.24c0.54-0.36,1.12-0.67,1.73-0.92c0.6-0.25,1.23-0.44,1.87-0.57  c1.29-0.26,2.62-0.26,3.91,0c0.63,0.13,1.26,0.32,1.87,0.57c0.6,0.25,1.18,0.56,1.72,0.92c0.55,0.37,1.06,0.78,1.52,1.24  c0.46,0.47,0.88,0.98,1.25,1.52c0.36,0.55,0.67,1.13,0.92,1.73c0.25,0.6,0.44,1.23,0.57,1.87c0.13,0.65,0.19,1.3,0.19,1.96  c0,0.65-0.06,1.3-0.19,1.95c-0.13,0.64-0.32,1.27-0.57,1.87c-0.25,0.6-0.56,1.18-0.92,1.73c-0.37,0.539-0.79,1.06-1.25,1.52  c-0.46,0.461-0.97,0.88-1.52,1.24c-0.54,0.36-1.12,0.67-1.72,0.92c-0.61,0.25-1.24,0.44-1.87,0.57  C241.477,413.744,240.817,413.814,240.167,413.814z"/>
<path d="M382.931,202.275c-0.65,0-1.31-0.06-1.95-0.19c-0.64-0.13-1.27-0.32-1.87-0.57c-0.61-0.25-1.19-0.56-1.73-0.92  c-0.55-0.37-1.059-0.79-1.52-1.25c-0.46-0.46-0.88-0.97-1.24-1.52c-0.36-0.54-0.67-1.12-0.92-1.72c-0.25-0.61-0.44-1.24-0.57-1.87  c-0.13-0.65-0.2-1.31-0.2-1.96s0.07-1.31,0.2-1.95c0.13-0.64,0.32-1.27,0.57-1.87c0.25-0.61,0.56-1.19,0.92-1.73  c0.36-0.55,0.78-1.06,1.24-1.52c0.461-0.46,0.97-0.88,1.52-1.24c0.54-0.36,1.12-0.67,1.73-0.92c0.6-0.25,1.23-0.44,1.87-0.57  c3.25-0.66,6.701,0.41,9.021,2.73c0.46,0.46,0.88,0.97,1.25,1.52c0.36,0.54,0.67,1.12,0.92,1.73c0.25,0.6,0.44,1.23,0.57,1.87  c0.13,0.64,0.19,1.3,0.19,1.95s-0.06,1.31-0.19,1.96c-0.13,0.63-0.32,1.26-0.57,1.87c-0.25,0.6-0.56,1.18-0.92,1.72  c-0.37,0.55-0.79,1.06-1.25,1.52C388.141,201.214,385.571,202.275,382.931,202.275z"/>
<path d="M134.937,185.913c-0.65,0-1.31-0.07-1.95-0.2c-0.64-0.12-1.27-0.32-1.88-0.57c-0.6-0.25-1.18-0.55-1.72-0.92  c-0.55-0.36-1.06-0.78-1.52-1.24s-0.88-0.97-1.24-1.52c-0.36-0.54-0.67-1.12-0.92-1.72c-0.25-0.61-0.45-1.24-0.57-1.88  c-0.13-0.64-0.2-1.3-0.2-1.95s0.07-1.31,0.2-1.95c0.12-0.64,0.32-1.27,0.57-1.87c0.25-0.61,0.56-1.19,0.92-1.73  c0.36-0.55,0.78-1.06,1.24-1.52s0.97-0.88,1.52-1.24c0.54-0.36,1.12-0.67,1.72-0.92c0.61-0.25,1.24-0.44,1.88-0.57  c1.28-0.26,2.61-0.26,3.9,0c0.64,0.13,1.27,0.32,1.87,0.57c0.61,0.25,1.19,0.56,1.73,0.92c0.55,0.36,1.06,0.78,1.52,1.24  s0.88,0.97,1.24,1.52c0.36,0.54,0.67,1.12,0.92,1.73c0.25,0.6,0.44,1.23,0.57,1.87s0.2,1.3,0.2,1.95s-0.07,1.31-0.2,1.95  c-0.13,0.64-0.32,1.27-0.57,1.88c-0.25,0.6-0.56,1.18-0.92,1.72c-0.36,0.55-0.78,1.06-1.24,1.52s-0.97,0.88-1.52,1.24  c-0.54,0.37-1.12,0.67-1.73,0.92c-0.6,0.25-1.23,0.45-1.87,0.57C136.247,185.844,135.587,185.913,134.937,185.913z"/>
<path d="M506.358,270.133L468.95,205.06l17.804-10.234c3.33-1.915,5.27-5.568,4.99-9.399c-0.28-3.831-2.729-7.164-6.303-8.574  l-41.743-16.479L373.622,39.195c-9.768-16.992-28.01-27.547-47.608-27.547h-38.743c-0.004,0-0.007,0-0.011,0H176.642  c-15.314,0-29.513,8.281-37.053,21.611l-36.983,65.381L84.875,88.454c-3.296-1.894-7.384-1.754-10.545,0.36  c-3.16,2.115-4.848,5.84-4.354,9.61l5.928,45.266L7.28,264.613c-9.734,16.935-9.706,37.959,0.077,54.868l19.197,33.165  c0,0.001,0.001,0.001,0.001,0.002l59.081,102.111c5.381,9.3,15.397,15.076,26.141,15.076h81.267v20.515  c0,3.797,2.15,7.268,5.552,8.957c1.409,0.7,2.932,1.044,4.448,1.044c2.143,0,4.27-0.688,6.043-2.031l37.575-28.485h137.678  c19.618,0,37.869-10.571,47.63-27.588l19.428-33.865c0.001-0.002,0.003-0.003,0.004-0.005l54.978-95.847  C513.881,299.451,513.874,283.205,506.358,270.133z M356.294,49.185l57.464,99.369l-60.816-24.007  c-2.872-1.135-6.105-0.878-8.762,0.693c-0.332,0.196-0.651,0.41-0.954,0.641c-2.126,1.613-3.534,4.022-3.876,6.701l-7.477,58.541  L266.773,78.458l26.905-46.807h32.336C338.474,31.65,350.072,38.36,356.294,49.185z M209.061,309.122  c-3.028-2.281-7.086-2.653-10.48-0.961c-3.393,1.692-5.538,5.158-5.538,8.95v20.525h-75.33l72.475-127.514l43.605-17.368  c3.564-1.419,6.002-4.752,6.275-8.579c0.273-3.826-1.667-7.472-4.993-9.383l-17.797-10.226l37.974-66.067  c17.413,30.13,56.366,97.549,72.44,125.37l-6.048,47.356c-0.481,3.767,1.212,7.481,4.371,9.588  c3.159,2.106,7.239,2.242,10.531,0.351l17.791-10.222l38.34,66.695H246.923L209.061,309.122z M101.37,121  c2.309,1.327,5.054,1.678,7.624,0.974c2.569-0.704,4.752-2.403,6.064-4.722l41.942-74.145c3.997-7.067,11.524-11.457,19.644-11.457  h25.155l-58.511,107.888c-2.633,4.855-0.832,10.926,4.023,13.559c1.515,0.822,3.148,1.211,4.759,1.211c3.55,0,6.989-1.895,8.8-5.234  l63.605-117.28c0.026-0.048,0.044-0.097,0.069-0.145h46.061l-75.652,131.618c-1.322,2.3-1.676,5.03-0.984,7.592  c0.692,2.561,2.373,4.742,4.672,6.064l8.532,4.902l-27.638,11.008c-0.002,0.001-0.005,0.002-0.007,0.003l-73.199,29.156  l-10.158-77.578c0-0.001-0.001-0.002-0.001-0.004l-3.738-28.547L101.37,121z M24.649,274.533l55.566-97.915l7.951,60.723  c0.401,3.06,2.192,5.765,4.854,7.327c0.363,0.213,0.739,0.397,1.122,0.561c0.125,0.054,0.253,0.094,0.379,0.142  c0.262,0.1,0.525,0.195,0.794,0.272c0.151,0.043,0.304,0.078,0.456,0.114c0.252,0.06,0.504,0.112,0.759,0.152  c0.159,0.025,0.317,0.046,0.477,0.064c0.258,0.028,0.516,0.043,0.775,0.051c0.1,0.003,0.2,0.02,0.3,0.02  c0.07,0,0.14-0.008,0.209-0.01c0.129-0.003,0.258-0.011,0.387-0.018c0.225-0.013,0.449-0.034,0.673-0.063  c0.129-0.016,0.258-0.033,0.386-0.055c0.236-0.04,0.471-0.091,0.704-0.148c0.11-0.027,0.221-0.049,0.33-0.079  c0.34-0.095,0.678-0.204,1.009-0.336l58.666-23.367L94.707,337.635h-53.73l-16.308-28.172  C18.451,298.714,18.432,285.348,24.649,274.533z M203.045,449.834h-91.268c-3.628,0-7.012-1.951-8.829-5.091l-17.897-30.931h119.162  c5.524,0,10.001-4.477,10.001-10.001s-4.477-10.001-10.001-10.001H73.479L52.55,357.638h47.976h102.519  c5.524,0,10.001-4.477,10.001-10.001v-10.474l88.046,66.311l-88.046,66.746v-10.385  C213.046,454.311,208.568,449.834,203.045,449.834z M414.621,432.295c-6.207,10.818-17.81,17.539-30.282,17.539H273.046  l50.677-38.418c2.499-1.894,3.964-4.85,3.959-7.985c-0.005-3.135-1.48-6.087-3.984-7.973l-50.218-37.821h130.693l26.665,46.386  L414.621,432.295z M489.029,302.579l-12.063,21.031l-66.474-106.166c-2.931-4.682-9.104-6.102-13.783-3.169  c-4.681,2.931-6.101,9.103-3.169,13.783l70.803,113.08c0.434,0.693,0.946,1.306,1.507,1.852l-23.486,40.946l-75.667-131.632  c-1.85-3.217-5.216-5.018-8.68-5.018c-1.69,0-3.402,0.429-4.973,1.331l-9.007,5.175l3.925-30.738v-0.001l9.601-75.178  l101.221,39.959l-8.472,4.869c-2.299,1.322-3.979,3.503-4.671,6.065c-0.691,2.56-0.337,5.292,0.985,7.591l42.393,73.744  C493.002,287.032,493.006,295.644,489.029,302.579z"/>
<g>
</g>
<g>
</g>
<g>
</g>
<g>
</g>
<g>
</g>
<g>
</g>
<g>
</g>
<g>
</g>
<g>
</g>
<g>
</g>
<g>
</g>
<g>
</g>
<g>
</g>
<g>
</g>
<g>
</g>
</svg>
