<?xml version="1.0" encoding="iso-8859-1"?>
<!-- Generator: Adobe Illustrator 19.0.0, SVG Export Plug-In . SVG Version: 6.00 Build 0)  -->
<svg xmlns="http://www.w3.org/2000/svg" xmlns:xlink="http://www.w3.org/1999/xlink" version="1.1" id="Capa_1" x="0px" y="0px" viewBox="0 0 512.001 512.001" style="enable-background:new 0 0 512.001 512.001;" xml:space="preserve">
<path style="fill:#54E3EA;" d="M255.501,56.019H138.834c-9.389,0-66.267,52.227-66.267,68.587v51.733  c0,16.36,13.262,29.622,29.622,29.622h189.957c16.36,0,29.622-13.262,29.622-29.622v-51.733  C321.768,108.246,264.89,56.019,255.501,56.019z"/>
<path d="M134.101,159.29c-0.66,0-1.31-0.07-1.96-0.2c-0.64-0.13-1.26-0.32-1.87-0.57c-0.6-0.25-1.18-0.56-1.72-0.92  c-0.55-0.36-1.06-0.78-1.52-1.24c-0.47-0.46-0.88-0.97-1.25-1.52c-0.36-0.54-0.67-1.12-0.92-1.73c-0.25-0.6-0.44-1.23-0.57-1.87  s-0.19-1.3-0.19-1.95s0.06-1.31,0.19-1.96c0.13-0.63,0.32-1.26,0.57-1.87c0.25-0.6,0.56-1.18,0.92-1.72  c0.37-0.55,0.78-1.06,1.25-1.52c0.46-0.46,0.97-0.88,1.52-1.25c0.54-0.36,1.12-0.67,1.72-0.92c0.61-0.25,1.23-0.44,1.87-0.57  c1.29-0.26,2.62-0.26,3.91,0c0.64,0.13,1.27,0.32,1.87,0.57s1.19,0.56,1.73,0.92c0.55,0.37,1.06,0.79,1.52,1.25s0.88,0.97,1.24,1.52  c0.36,0.54,0.67,1.12,0.92,1.72c0.25,0.61,0.44,1.24,0.57,1.87c0.13,0.65,0.2,1.309,0.2,1.96c0,0.65-0.07,1.31-0.2,1.95  c-0.13,0.64-0.32,1.27-0.57,1.87c-0.25,0.61-0.56,1.19-0.92,1.73c-0.36,0.55-0.78,1.06-1.24,1.52s-0.97,0.88-1.52,1.24  c-0.54,0.36-1.13,0.67-1.73,0.92s-1.23,0.44-1.87,0.57S134.751,159.29,134.101,159.29z"/>
<path d="M252.861,104.65c-0.65,0-1.31-0.07-1.95-0.2s-1.27-0.32-1.87-0.57c-0.61-0.25-1.19-0.56-1.73-0.92  c-0.55-0.36-1.06-0.78-1.52-1.24s-0.88-0.97-1.24-1.52c-0.36-0.54-0.67-1.12-0.92-1.73c-0.25-0.6-0.44-1.23-0.57-1.87  s-0.2-1.3-0.2-1.95c0-0.65,0.07-1.31,0.2-1.96c0.13-0.63,0.32-1.26,0.57-1.87c0.25-0.6,0.56-1.18,0.92-1.72  c0.36-0.55,0.78-1.06,1.24-1.52c0.46-0.461,0.97-0.88,1.52-1.25c0.539-0.36,1.12-0.67,1.73-0.92c0.6-0.24,1.23-0.44,1.87-0.57  c1.29-0.26,2.62-0.26,3.9,0c0.64,0.13,1.269,0.33,1.88,0.57c0.6,0.25,1.18,0.56,1.72,0.92c0.55,0.37,1.06,0.789,1.52,1.25  c0.46,0.46,0.88,0.97,1.25,1.52c0.36,0.54,0.66,1.12,0.91,1.72c0.25,0.61,0.45,1.24,0.57,1.87c0.13,0.65,0.2,1.31,0.2,1.96  s-0.07,1.31-0.2,1.95c-0.12,0.64-0.32,1.27-0.57,1.87c-0.25,0.61-0.55,1.19-0.91,1.73c-0.37,0.55-0.79,1.06-1.25,1.52  s-0.97,0.88-1.52,1.24c-0.54,0.36-1.12,0.67-1.72,0.92c-0.61,0.25-1.24,0.44-1.88,0.57S253.511,104.65,252.861,104.65z"/>
<g>
	<rect x="150.171" y="10" style="fill:#F9D973;" width="94" height="46.02"/>
	<rect x="204.101" y="266.35" style="fill:#F9D973;" width="235.33" height="235.65"/>
</g>
<path style="fill:#54E3EA;" d="M102.189,390.709c-16.36,0-29.622,13.262-29.622,29.622v51.733c0,16.36,13.262,29.622,29.622,29.936  h101.912V390.709H102.189z"/>
<path style="fill:#007177;" d="M204.101,266.352h117.636c0.014-0.398,0.03-0.795,0.03-1.196v-26.018  c0-18.324-14.855-33.178-33.178-33.178H105.746c-18.324,0-33.178,14.854-33.178,33.178v26.018c0,18.324,14.854,33.178,33.178,33.178  c-18.324,0-33.178,14.854-33.178,33.178v26.018c0,18.324,14.854,33.178,33.178,33.178h98.355V266.352z"/>
<path style="fill:#59C671;" d="M301.404,407.519v11.739h-64.542l22.72,39.269c1.389,2.4,3.951,3.878,6.724,3.878h35.098v11.735  l44.084-33.42L301.404,407.519z"/>
<path style="fill:#D3E567;" d="M393.17,440.473l-12.195-21.215h-63.984l28.497,21.462l-28.604,21.684h54.238  c6.187,0,11.902-3.31,14.981-8.677l7.472-13.025L393.17,440.473z"/>
<path style="fill:#59C671;" d="M311.806,356.124l-10.179-5.849l19.845-34.526l12.323-21.44v-0.412h-42.544  c-4.514,0-8.679,2.429-10.902,6.358l-16.129,28.513l-10.175-5.846l6.995,53.422L311.806,356.124z"/>
<path style="fill:#D3E567;" d="M261.04,376.344l-4.548-34.737l-27.036,47.641c-3.072,5.344-3.063,11.921,0.024,17.257l7.378,12.754  h25.122l31.804-55.956L261.04,376.344z"/>
<path style="fill:#59C671;" d="M398.409,363.012l10.181-5.852l-50.954-20.115l-6.809,53.315l10.175-5.846l19.972,34.744  l12.195,21.215l0.405,0.23l21.142-36.859c2.216-3.864,2.214-8.613-0.006-12.474L398.409,363.012z"/>
<path style="fill:#D3E567;" d="M357.636,337.045l33.655,13.286l-27.625-47.769c-3.081-5.36-8.791-8.664-14.974-8.664h-14.899v0.414  L321.47,315.75c0.003,0,24.547,42.48,31.846,55.112L357.636,337.045z"/>
<path d="M439.435,256.352H331.768v-17.213c0-12.793-5.598-24.298-14.466-32.212c8.828-7.273,14.466-18.284,14.466-30.589v-51.733  c0-10.335-10.971-26.338-32.609-47.567c-7.891-7.742-16.138-15.026-23.219-20.51c-11.263-8.723-16.316-10.51-20.438-10.51h-1.334V10  c0-5.523-4.477-10-10-10h-94c-5.523,0-10,4.477-10,10v36.019h-1.333c-4.122,0-9.175,1.787-20.438,10.51  c-7.082,5.484-15.328,12.769-23.22,20.511c-21.638,21.229-32.609,37.232-32.609,47.566v51.733c0,12.304,5.638,23.316,14.466,30.589  c-8.868,7.913-14.466,19.419-14.466,32.212v26.018c0,13.321,6.063,25.251,15.575,33.178c-9.512,7.927-15.575,19.857-15.575,33.178  v26.018c0,12.793,5.597,24.298,14.466,32.212c-8.828,7.273-14.466,18.284-14.466,30.588v51.733c0,21.602,17.688,39.517,39.43,39.934  c0.064,0.002,0.128,0.002,0.192,0.002h101.911h235.333c5.523,0,10-4.477,10-10V266.352  C449.435,260.829,444.957,256.352,439.435,256.352z M204.101,256.352c-5.523,0-10,4.477-10,10v114.357h-88.355  c-12.781,0-23.179-10.397-23.179-23.178v-26.018c0-12.78,10.398-23.178,23.179-23.178c5.523,0,10-4.477,10-10s-4.477-10-10-10  c-12.781,0-23.179-10.398-23.179-23.178v-26.018c0-12.78,10.398-23.178,23.179-23.178h182.843c12.781,0,23.179,10.398,23.179,23.178  v17.213L204.101,256.352L204.101,256.352z M160.168,20h74v26.019h-74V20z M102.19,195.96c-10.82,0-19.622-8.802-19.622-19.622  V124.76c0.408-2.454,4.578-9.491,13.923-20.112h117.137c5.523,0,10-4.477,10-10s-4.477-10-10-10h-97.424  c11.164-10.259,20.363-17.078,23.753-18.629h10.211h94h10.211c4.185,1.915,17.219,11.853,31.876,26.384  c17.613,17.463,24.964,29.056,25.513,32.357v14.528H173.332c-5.523,0-10,4.477-10,10s4.477,10,10,10h138.435v17.05  c0,10.82-8.802,19.622-19.622,19.622h-3.557H105.746H102.19z M82.567,472.064v-51.733c0-10.819,8.802-19.622,19.622-19.622h3.557  h88.355V492h-91.807C91.409,491.744,82.567,482.818,82.567,472.064z M429.435,492H214.101V390.709V276.352h107.637h107.697V492z"/>
<path d="M271.645,295.332l-11.172,19.75l-1.446-0.83c-3.296-1.895-7.382-1.755-10.544,0.359c-3.16,2.115-4.848,5.839-4.354,9.609  l2.012,15.364l-25.355,44.679c-4.835,8.41-4.82,18.851,0.038,27.249l7.378,12.753c0.009,0.015,0.02,0.028,0.028,0.042l22.696,39.227  c3.165,5.471,9.059,8.87,15.379,8.87h25.098v1.735c0,3.797,2.15,7.267,5.551,8.956c1.409,0.7,2.932,1.044,4.448,1.044  c2.143,0,4.271-0.688,6.042-2.031l12.801-9.704h50.876c9.742,0,18.806-5.25,23.655-13.701l7.471-13.023  c0-0.001,0.001-0.001,0.001-0.002l21.142-36.858c3.97-6.921,3.966-15.517-0.011-22.434l-11.318-19.688l1.511-0.869  c3.33-1.914,5.269-5.566,4.99-9.397c-0.28-3.831-2.729-7.163-6.302-8.573l-14.058-5.549l-25.868-44.732  c-4.851-8.438-13.91-13.68-23.643-13.68h-14.899h-42.541C283.147,283.898,275.635,288.279,271.645,295.332z M315.506,365.414  c3.564-1.419,6.001-4.752,6.274-8.578c0.273-3.826-1.667-7.471-4.992-9.382l-1.508-0.866l6.215-10.813  c6.683,11.565,15.719,27.205,21.475,37.168l-2.063,16.152c-0.481,3.766,1.212,7.48,4.371,9.586s7.239,2.242,10.53,0.351l1.506-0.865  l6.376,11.092h-43.356l-12.915-9.727c-3.029-2.282-7.086-2.653-10.479-0.961c-3.393,1.692-5.537,5.157-5.537,8.949v1.739h-12.239  l21.578-37.964L315.506,365.414z M238.153,394.183l12.299-21.673l0.672,5.133c0.401,3.06,2.192,5.764,4.854,7.326  c0.363,0.213,0.739,0.397,1.121,0.561c0.125,0.054,0.254,0.094,0.38,0.143c0.262,0.1,0.525,0.194,0.793,0.272  c0.151,0.044,0.304,0.078,0.457,0.115c0.251,0.06,0.503,0.112,0.757,0.152c0.16,0.025,0.319,0.047,0.48,0.064  c0.256,0.028,0.512,0.043,0.77,0.051c0.102,0.003,0.202,0.02,0.304,0.02c0.071,0,0.142-0.008,0.212-0.01  c0.126-0.003,0.252-0.01,0.378-0.018c0.229-0.014,0.457-0.035,0.685-0.064c0.126-0.016,0.251-0.033,0.376-0.053  c0.24-0.04,0.479-0.092,0.717-0.151c0.107-0.026,0.214-0.047,0.32-0.077c0.336-0.094,0.669-0.202,0.997-0.332  c0.005-0.002,0.01-0.003,0.015-0.005l5.26-2.095l1.006-0.401l-14.846,26.12h-13.535l-4.49-7.761  C236.84,399.258,236.836,396.474,238.153,394.183z M267.593,452.405l-13.392-23.147h7.779h39.425c3.04,0,5.764-1.356,7.598-3.498  l19.899,14.987l-19.936,15.113c-1.833-2.117-4.541-3.455-7.561-3.455L267.593,452.405L267.593,452.405z M371.122,452.405h-24.494  l4.901-3.716c2.499-1.894,3.964-4.85,3.959-7.984c-0.005-3.135-1.48-6.086-3.984-7.972l-4.613-3.475h28.297l6.719,11.688  l-4.478,7.806C376.136,451.005,373.72,452.405,371.122,452.405z M406.043,398.869l-12.613,21.989l-3.785-6.584  c-0.001-0.002-0.002-0.003-0.003-0.005l-19.97-34.74c-1.505-2.618-4.015-4.298-6.763-4.833l0.328-2.565c0-0.001,0-0.002,0-0.003  l2.689-21.06l21.693,8.563c0.001,0.001,0.002,0.001,0.003,0.001l1.215,0.48c-0.029,0.097-0.057,0.195-0.083,0.292  c-0.691,2.561-0.337,5.291,0.985,7.59l16.303,28.358C406.488,397.129,406.488,398.093,406.043,398.869z M355.01,307.567  l13.256,22.923l-6.958-2.747c-0.718-0.283-1.458-0.48-2.206-0.591c-1.871-0.277-3.791-0.019-5.533,0.757  c-0.348,0.155-0.69,0.331-1.022,0.527c-2.657,1.571-4.439,4.28-4.831,7.341l-0.565,4.424l-14.138-24.467l6.804-11.837h8.875  C351.288,303.898,353.704,305.295,355.01,307.567z M292.957,345.291c-1.322,2.3-1.676,5.03-0.984,7.591  c0.031,0.114,0.064,0.227,0.098,0.338l-1.981,0.789c-0.002,0.001-0.004,0.001-0.006,0.002l-20.797,8.284l-2.879-21.987l0,0  l-0.227-1.734c0.228-0.045,0.456-0.099,0.681-0.161c2.569-0.704,4.752-2.403,6.063-4.722l16.129-28.512  c0.447-0.791,1.29-1.282,2.198-1.282h25.498L292.957,345.291z"/>
<g>
</g>
<g>
</g>
<g>
</g>
<g>
</g>
<g>
</g>
<g>
</g>
<g>
</g>
<g>
</g>
<g>
</g>
<g>
</g>
<g>
</g>
<g>
</g>
<g>
</g>
<g>
</g>
<g>
</g>
</svg>
