<?xml version="1.0" encoding="iso-8859-1"?>
<!-- Generator: Adobe Illustrator 19.0.0, SVG Export Plug-In . SVG Version: 6.00 Build 0)  -->
<svg xmlns="http://www.w3.org/2000/svg" xmlns:xlink="http://www.w3.org/1999/xlink" version="1.1" id="Capa_1" x="0px" y="0px" viewBox="0 0 512 512" style="enable-background:new 0 0 512 512;" xml:space="preserve">
<rect x="71.87" y="134.01" style="fill:#FF8C5A;" width="368.26" height="68.28"/>
<g>
	<polygon style="fill:#F4BA64;" points="95.283,202.281 116.707,502 395.293,502 416.717,202.281  "/>
	<polygon style="fill:#F4BA64;" points="409.744,134.006 382.482,10 129.518,10 102.256,134.006  "/>
</g>
<polygon style="fill:#FF8C5A;" points="358.231,134.006 341.981,58.239 170.019,58.239 153.769,134.006 "/>
<path style="fill:#59C671;" d="M231.729,379.398v13.992h-76.926l27.08,46.803c1.655,2.861,4.71,4.622,8.014,4.622h41.832v13.987  l52.543-39.832L231.729,379.398z"/>
<path style="fill:#D3E567;" d="M341.103,418.675l-14.536-25.286h-76.261l33.965,25.58l-34.093,25.845h64.645  c7.375,0,14.186-3.945,17.855-10.342l8.906-15.524L341.103,418.675z"/>
<path style="fill:#59C671;" d="M244.126,318.141l-12.132-6.971l23.653-41.15l14.687-25.554v-0.491h-50.706  c-5.38,0-10.344,2.895-12.994,7.578l-19.224,33.984l-12.128-6.968l8.337,63.672L244.126,318.141z"/>
<path style="fill:#D3E567;" d="M183.619,342.241l-5.421-41.402l-32.223,56.782c-3.661,6.37-3.651,14.208,0.028,20.568l8.794,15.201  h29.942l37.906-66.693L183.619,342.241z"/>
<path style="fill:#59C671;" d="M347.347,326.35l12.135-6.975l-60.731-23.974l-8.115,63.545l12.128-6.968l23.805,41.411  l14.536,25.286l0.482,0.274l25.199-43.931c2.641-4.605,2.639-10.266-0.007-14.868L347.347,326.35z"/>
<path style="fill:#D3E567;" d="M298.751,295.401l40.112,15.835l-32.925-56.935c-3.672-6.388-10.479-10.326-17.847-10.326h-17.757  v0.493l-14.687,25.551c0.004,0,29.257,50.631,37.956,65.687L298.751,295.401z"/>
<path d="M393.26,178.14c-0.65,0-1.31-0.06-1.95-0.19s-1.27-0.32-1.87-0.57c-0.609-0.25-1.19-0.56-1.73-0.92  c-0.55-0.37-1.061-0.79-1.52-1.25c-0.46-0.46-0.88-0.97-1.25-1.52c-0.359-0.54-0.67-1.12-0.92-1.72  c-0.25-0.61-0.439-1.23-0.569-1.87c-0.131-0.65-0.19-1.3-0.19-1.96c0-0.65,0.06-1.31,0.19-1.95s0.319-1.27,0.569-1.87  c0.25-0.6,0.561-1.18,0.92-1.73c0.37-0.54,0.79-1.06,1.25-1.52s0.971-0.88,1.52-1.24c0.54-0.36,1.12-0.67,1.73-0.92  c0.6-0.25,1.23-0.44,1.87-0.57c1.29-0.26,2.61-0.26,3.9,0c0.64,0.13,1.27,0.32,1.87,0.57c0.609,0.25,1.189,0.56,1.729,0.92  c0.55,0.36,1.06,0.78,1.521,1.24c0.46,0.46,0.88,0.98,1.239,1.52c0.36,0.55,0.671,1.13,0.921,1.73c0.25,0.6,0.449,1.23,0.569,1.87  c0.13,0.64,0.2,1.3,0.2,1.95c0,0.66-0.07,1.31-0.2,1.96c-0.12,0.64-0.319,1.26-0.569,1.87c-0.25,0.6-0.561,1.18-0.921,1.72  c-0.359,0.55-0.779,1.06-1.239,1.52c-0.46,0.46-0.971,0.88-1.521,1.25c-0.54,0.36-1.12,0.67-1.729,0.92  c-0.601,0.25-1.23,0.44-1.87,0.57C394.569,178.08,393.91,178.14,393.26,178.14z"/>
<path d="M440.13,124.006h-22.346L392.248,7.853C391.24,3.267,387.177,0,382.481,0H129.519c-4.695,0-8.759,3.267-9.767,7.853  L94.216,124.006H71.87c-5.522,0-10,4.477-10,10v68.275c0,5.523,4.478,10,10,10h14.102l20.76,290.432  c0.374,5.233,4.729,9.287,9.975,9.287h278.586c5.246,0,9.601-4.054,9.975-9.287l20.76-290.432h14.102c5.522,0,10-4.477,10-10  v-68.275C450.13,128.483,445.652,124.006,440.13,124.006z M137.559,20h236.883l22.865,104.006h-30.994l-14.554-67.864  c-0.988-4.61-5.063-7.903-9.777-7.903H170.019c-4.715,0-8.789,3.293-9.777,7.903l-14.554,67.864h-30.994L137.559,20z   M345.858,124.006H166.142l11.96-55.767h155.797L345.858,124.006z M385.982,492H126.018l-19.994-279.719h299.953L385.982,492z   M430.13,192.281h-13.413H95.283H81.87v-14.138h276.36c5.522,0,10-4.477,10-10s-4.478-10-10-10H81.87v-14.138h20.386h51.514h204.46  h51.514h20.386V192.281z"/>
<path d="M146.143,398.397c0.011,0.018,0.025,0.035,0.036,0.053l27.048,46.751c3.432,5.93,9.819,9.613,16.67,9.613h31.832v3.987  c0,3.797,2.15,7.267,5.551,8.956c1.409,0.7,2.933,1.044,4.448,1.044c2.142,0,4.271-0.688,6.042-2.031l15.771-11.956h61.283  c10.927,0,21.092-5.888,26.529-15.366l8.898-15.509c0.003-0.005,0.007-0.01,0.01-0.015l25.197-43.931  c4.394-7.659,4.39-17.172-0.011-24.828L361,330.036l3.465-1.991c3.33-1.914,5.27-5.567,4.99-9.398  c-0.279-3.831-2.729-7.163-6.302-8.573l-17.377-6.86l-31.169-53.897c-5.44-9.463-15.602-15.342-26.517-15.342h-17.757h-50.706  c-8.968,0-17.282,4.849-21.698,12.655l-14.267,25.221l-3.398-1.953c-3.297-1.895-7.383-1.754-10.544,0.359  c-3.16,2.115-4.848,5.839-4.354,9.609l2.481,18.949l-30.544,53.822c-5.421,9.432-5.405,21.142,0.043,30.559L146.143,398.397z   M231.729,434.815h-41.405l-18.182-31.426h12.598h46.989c3.686,0,6.907-1.995,8.642-4.965l27.314,20.572l-27.346,20.73  C238.598,436.786,235.394,434.815,231.729,434.815z M247.826,327.431c3.563-1.419,6.001-4.752,6.274-8.578s-1.666-7.471-4.992-9.382  l-3.46-1.988l10.022-17.438c7.174,12.415,17.745,30.711,27.585,47.743l-2.54,19.892c-0.48,3.766,1.213,7.48,4.372,9.586  s7.237,2.243,10.53,0.351l3.458-1.987l10.209,17.759H253.65l-15.906-11.979c-3.029-2.282-7.088-2.653-10.479-0.961  c-3.393,1.692-5.537,5.157-5.537,8.949v3.992h-19.803l27.68-48.701L247.826,327.431z M314.824,434.815h-34.9l10.39-7.876  c2.498-1.894,3.964-4.85,3.959-7.984c-0.005-3.135-1.479-6.086-3.984-7.972l-10.081-7.593h40.574l6.522,11.346l2.588,4.502  l-5.886,10.26C322.124,432.777,318.605,434.815,314.824,434.815z M358.109,370.043l-16.695,29.108l-6.177-10.745l0,0l-23.805-41.411  c-1.826-3.177-5.132-4.973-8.549-5.017l0.637-4.989c0.001-0.005,0.002-0.01,0.002-0.015l3.518-27.548l28.15,11.112h0.001  l3.241,1.279c-0.311,0.61-0.56,1.255-0.741,1.927c-0.691,2.56-0.337,5.291,0.984,7.59l19.431,33.8  C358.978,366.647,358.978,368.528,358.109,370.043z M297.282,259.307l18.556,32.089l-13.415-5.296  c-0.359-0.142-0.724-0.262-1.092-0.36c-2.58-0.69-5.345-0.322-7.669,1.053c-2.657,1.571-4.439,4.28-4.831,7.342l-1.394,10.913  l-20.247-35.042l9.214-16.03h11.686C291.869,253.975,295.386,256.009,297.282,259.307z M190.051,295.182  c2.569-0.704,4.752-2.403,6.064-4.722l19.224-33.984c0.873-1.543,2.517-2.502,4.29-2.502h33.707l-30.011,52.211  c-1.321,2.3-1.676,5.03-0.984,7.591c0.186,0.688,0.443,1.349,0.765,1.973l-5.991,2.386l-25.248,10.056l-3.098-23.66l-1.178-8.997  C188.414,295.521,189.241,295.404,190.051,295.182z M154.672,362.556l17.487-30.815l1.545,11.798c0.1,0.765,0.287,1.508,0.553,2.216  c0.797,2.125,2.304,3.938,4.299,5.11c0.013,0.008,0.027,0.012,0.04,0.02c0.351,0.204,0.713,0.382,1.081,0.54  c0.126,0.054,0.254,0.095,0.382,0.143c0.262,0.1,0.524,0.194,0.792,0.271c0.152,0.044,0.305,0.078,0.458,0.115  c0.251,0.059,0.502,0.111,0.756,0.151c0.16,0.025,0.32,0.047,0.482,0.064c0.256,0.028,0.511,0.043,0.768,0.051  c0.102,0.003,0.203,0.02,0.304,0.02c0.071,0,0.142-0.009,0.213-0.01c0.126-0.003,0.253-0.01,0.379-0.018  c0.228-0.013,0.455-0.035,0.682-0.064c0.127-0.016,0.253-0.033,0.38-0.054c0.238-0.04,0.475-0.092,0.711-0.149  c0.108-0.026,0.217-0.048,0.325-0.078c0.34-0.095,0.678-0.204,1.01-0.337l12.549-4.998l-20.947,36.856h-18.355l-5.906-10.208  C152.773,369.922,152.768,365.869,154.672,362.556z"/>
<g>
</g>
<g>
</g>
<g>
</g>
<g>
</g>
<g>
</g>
<g>
</g>
<g>
</g>
<g>
</g>
<g>
</g>
<g>
</g>
<g>
</g>
<g>
</g>
<g>
</g>
<g>
</g>
<g>
</g>
</svg>
