<?xml version="1.0" encoding="iso-8859-1"?>
<!-- Generator: Adobe Illustrator 19.0.0, SVG Export Plug-In . SVG Version: 6.00 Build 0)  -->
<svg xmlns="http://www.w3.org/2000/svg" xmlns:xlink="http://www.w3.org/1999/xlink" version="1.1" id="Capa_1" x="0px" y="0px" viewBox="0 0 512 512" style="enable-background:new 0 0 512 512;" xml:space="preserve">
<path style="fill:#007177;" d="M221.76,463.494c0,14.625-11.856,26.481-26.481,26.481s-26.481-11.856-26.481-26.481  c0-22.224,26.481-42.728,26.481-42.728S221.76,441.27,221.76,463.494z"/>
<path d="M195.279,499.975c-20.116,0-36.481-16.365-36.481-36.48c0-26.368,27.252-48.229,30.359-50.636  c3.604-2.789,8.641-2.791,12.244,0c3.107,2.406,30.358,24.269,30.358,50.636C231.76,483.61,215.395,499.975,195.279,499.975z   M195.278,434.14c-7.248,7.173-16.48,18.75-16.48,29.354c0,9.087,7.393,16.48,16.481,16.48c9.087,0,16.48-7.393,16.48-16.48  C211.76,452.892,202.532,441.318,195.278,434.14z"/>
<path style="fill:#007177;" d="M315.753,443.494c0,14.625-11.856,26.481-26.481,26.481s-26.481-11.856-26.481-26.481  c0-22.224,26.481-42.728,26.481-42.728S315.753,421.27,315.753,443.494z"/>
<path d="M289.272,479.975c-20.115,0-36.48-16.365-36.48-36.48c0-26.367,27.251-48.229,30.358-50.636  c3.603-2.789,8.641-2.791,12.244,0c3.107,2.406,30.359,24.268,30.359,50.636C325.753,463.61,309.388,479.975,289.272,479.975z   M289.271,414.14c-7.248,7.173-16.479,18.75-16.479,29.354c0,9.087,7.394,16.48,16.48,16.48c9.088,0,16.481-7.393,16.481-16.48  C305.753,432.892,296.525,421.318,289.271,414.14z"/>
<path style="fill:#007177;" d="M127.767,443.494c0,14.625-11.856,26.481-26.481,26.481s-26.481-11.856-26.481-26.481  c0-22.224,26.481-42.728,26.481-42.728S127.767,421.27,127.767,443.494z"/>
<path d="M101.286,479.975c-20.116,0-36.481-16.365-36.481-36.48c0-26.368,27.252-48.229,30.359-50.636  c3.604-2.789,8.641-2.791,12.244,0c3.107,2.406,30.358,24.269,30.358,50.636C137.767,463.61,121.401,479.975,101.286,479.975z   M101.285,414.14c-7.248,7.173-16.48,18.75-16.48,29.354c0,9.087,7.394,16.48,16.481,16.48s16.48-7.393,16.48-16.48  C117.767,432.892,108.539,421.318,101.285,414.14z"/>
<polygon style="fill:#F9D973;" points="131.021,113.232 91.667,113.232 91.416,22.026 10,113.232 55.754,113.234 55.96,201.738 "/>
<path d="M55.958,211.738c-1.149,0-2.31-0.198-3.432-0.608c-3.936-1.438-6.557-5.179-6.566-9.368l-0.183-78.527L10,123.232  c-3.942,0-7.516-2.315-9.127-5.913c-1.61-3.598-0.958-7.806,1.667-10.746l81.416-91.206c2.759-3.092,7.139-4.161,11.011-2.689  c3.873,1.472,6.438,5.178,6.449,9.321l0.224,81.233h29.382c3.895,0,7.436,2.263,9.074,5.798c1.637,3.535,1.072,7.699-1.447,10.67  l-75.061,88.506C61.649,210.491,58.84,211.738,55.958,211.738z M32.33,103.233l23.424,0.001c5.514,0,9.987,4.463,10,9.977  l0.143,61.35l43.532-51.329H91.667c-5.512,0-9.984-4.46-10-9.973l-0.179-65.095L32.33,103.233z"/>
<path style="fill:#54E3EA;" d="M315.488,226.896c-8.859,0-17.309,1.736-25.05,4.859c0.024-0.871,0.066-1.737,0.066-2.613  c0-52.057-42.201-94.258-94.258-94.258s-94.258,42.201-94.258,94.258c0,0.876,0.042,1.742,0.066,2.613  c-7.741-3.124-16.191-4.859-25.05-4.859C39.998,226.896,10,256.894,10,293.899s29.998,67.003,67.003,67.003h238.485  c37.005,0,67.003-29.998,67.003-67.003S352.493,226.896,315.488,226.896z"/>
<path style="fill:#007177;" d="M434.997,163.982c-8.859,0-17.309,1.736-25.05,4.859c0.024-0.871,0.066-1.737,0.066-2.613  c0-52.057-42.201-94.258-94.258-94.258c-42.762,0-78.865,28.471-90.397,67.494c37.81,12.266,65.146,47.781,65.146,89.678  c0,0.876-0.042,1.742-0.066,2.613c7.741-3.124,16.191-4.859,25.05-4.859c37.005,0,67.003,29.998,67.003,67.003  c0,1.374-0.041,2.735-0.123,4.089h52.629c37.005,0,67.003-29.998,67.003-67.003S472.002,163.982,434.997,163.982z"/>
<path d="M334.54,304.001c-0.65,0-1.31-0.07-1.95-0.2c-0.64-0.12-1.271-0.32-1.87-0.57c-0.6-0.25-1.18-0.56-1.73-0.92  c-0.54-0.359-1.051-0.779-1.52-1.24c-0.46-0.46-0.88-0.97-1.24-1.52c-0.359-0.54-0.67-1.12-0.92-1.73  c-0.25-0.6-0.439-1.23-0.569-1.869c-0.131-0.641-0.2-1.301-0.2-1.95c0-0.65,0.069-1.311,0.2-1.95c0.13-0.64,0.319-1.27,0.569-1.87  c0.25-0.61,0.561-1.189,0.92-1.729c0.36-0.551,0.78-1.061,1.24-1.521c0.47-0.46,0.98-0.88,1.52-1.24c0.55-0.359,1.13-0.67,1.73-0.92  s1.23-0.45,1.87-0.58c1.29-0.25,2.62-0.25,3.91,0c0.64,0.13,1.27,0.33,1.87,0.58s1.18,0.561,1.729,0.92  c0.54,0.36,1.061,0.78,1.521,1.24s0.88,0.97,1.239,1.521c0.36,0.54,0.671,1.119,0.921,1.729c0.25,0.601,0.439,1.23,0.569,1.87  c0.13,0.64,0.2,1.3,0.2,1.95c0,2.63-1.07,5.21-2.93,7.069c-0.46,0.461-0.98,0.881-1.521,1.24c-0.55,0.36-1.13,0.67-1.729,0.92  c-0.601,0.25-1.23,0.45-1.87,0.57C335.85,303.93,335.2,304.001,334.54,304.001z"/>
<path d="M434.997,153.982c-5.254,0-10.443,0.527-15.526,1.574c-5.363-52.492-49.831-93.586-103.716-93.586  c-22.949,0-44.718,7.313-62.954,21.146c-15.023,11.396-26.774,26.882-33.791,44.277c-7.33-1.639-14.947-2.51-22.765-2.51  c-53.885,0-98.353,41.094-103.716,93.587c-5.083-1.047-10.272-1.574-15.526-1.574C34.543,216.896,0,251.439,0,293.899  s34.543,77.003,77.003,77.003h238.485c37.647,0,69.048-27.162,75.688-62.914h43.821c42.46,0,77.003-34.543,77.003-77.003  S477.457,153.982,434.997,153.982z M315.488,350.902H77.003c-27.983,0-51.304-20.274-56.088-46.901h278.601c5.522,0,10-4.478,10-10  c0-5.523-4.478-10-10-10H20.878c4.701-26.727,28.07-47.105,56.125-47.105c7.344,0,14.513,1.391,21.307,4.133  c3.128,1.262,6.679,0.861,9.447-1.059c2.77-1.924,4.383-5.112,4.292-8.482l-0.026-0.866c-0.017-0.492-0.035-0.983-0.035-1.479  c0-46.461,37.798-84.259,84.258-84.259c42.066,0,77.028,30.986,83.266,71.333c0.023,0.15,0.041,0.301,0.063,0.451  c0.166,1.114,0.307,2.236,0.429,3.364c0.039,0.366,0.075,0.733,0.11,1.1c0.091,0.967,0.164,1.939,0.222,2.914  c0.022,0.378,0.05,0.754,0.068,1.133c0.061,1.314,0.101,2.635,0.101,3.964c0,0.503-0.018,1.003-0.036,1.502l-0.026,0.831  c-0.095,3.372,1.518,6.564,4.287,8.49c2.77,1.925,6.322,2.327,9.451,1.063c6.795-2.742,13.965-4.133,21.309-4.133  c31.432,0,57.003,25.571,57.003,57.003c0,1.067-0.037,2.155-0.098,3.236C370.71,327.066,345.834,350.902,315.488,350.902z   M434.997,287.988h-42.73c-0.026-0.344-0.072-0.683-0.103-1.026c-0.053-0.588-0.111-1.174-0.177-1.758  c-0.077-0.679-0.164-1.355-0.259-2.028c-0.081-0.576-0.164-1.15-0.257-1.721c-0.11-0.675-0.233-1.345-0.361-2.013  c-0.107-0.561-0.215-1.121-0.334-1.677c-0.143-0.67-0.301-1.334-0.462-1.997c-0.132-0.545-0.262-1.09-0.406-1.63  c-0.178-0.667-0.371-1.328-0.566-1.988c-0.155-0.524-0.305-1.049-0.471-1.568c-0.213-0.669-0.444-1.329-0.675-1.99  c-0.174-0.499-0.343-1.001-0.527-1.496c-0.251-0.673-0.521-1.336-0.79-1.999c-0.19-0.47-0.373-0.944-0.573-1.41  c-0.294-0.686-0.609-1.361-0.922-2.037c-0.199-0.43-0.388-0.865-0.595-1.29c-0.353-0.726-0.729-1.439-1.104-2.152  c-0.19-0.362-0.369-0.73-0.565-1.088c-0.466-0.854-0.957-1.692-1.454-2.526c-0.123-0.207-0.237-0.42-0.362-0.625  c-0.636-1.044-1.294-2.071-1.977-3.081c-0.058-0.086-0.122-0.168-0.18-0.254c-0.622-0.913-1.26-1.814-1.92-2.698  c-0.221-0.296-0.456-0.58-0.681-0.873c-0.51-0.663-1.021-1.327-1.551-1.973c-0.286-0.348-0.585-0.683-0.877-1.025  c-0.49-0.575-0.977-1.152-1.484-1.713c-0.325-0.361-0.664-0.708-0.996-1.063c-0.492-0.525-0.983-1.051-1.49-1.562  c-0.356-0.36-0.724-0.708-1.088-1.06c-0.501-0.486-1.001-0.973-1.515-1.445c-0.384-0.353-0.778-0.694-1.168-1.039  c-0.513-0.452-1.026-0.904-1.55-1.343c-0.408-0.341-0.824-0.672-1.239-1.005c-0.526-0.422-1.053-0.842-1.59-1.25  c-0.429-0.326-0.864-0.643-1.3-0.96c-0.541-0.394-1.084-0.784-1.635-1.163c-0.449-0.309-0.902-0.61-1.357-0.909  c-0.556-0.366-1.115-0.726-1.68-1.078c-0.466-0.29-0.935-0.573-1.407-0.852c-0.571-0.338-1.146-0.67-1.727-0.994  c-0.482-0.269-0.966-0.533-1.454-0.792c-0.586-0.311-1.177-0.613-1.772-0.909c-0.497-0.247-0.995-0.491-1.498-0.728  c-0.601-0.283-1.208-0.555-1.818-0.823c-0.509-0.224-1.019-0.446-1.535-0.659c-0.619-0.256-1.243-0.499-1.87-0.739  c-0.519-0.199-1.038-0.398-1.563-0.586c-0.636-0.228-1.278-0.44-1.922-0.652c-0.528-0.173-1.055-0.349-1.588-0.512  c-0.654-0.199-1.315-0.38-1.975-0.562c-0.534-0.147-1.066-0.299-1.605-0.434c-0.676-0.17-1.358-0.32-2.041-0.472  c-0.535-0.119-1.067-0.246-1.606-0.354c-0.704-0.141-1.415-0.259-2.126-0.381c-0.527-0.09-1.051-0.19-1.582-0.27  c-0.75-0.112-1.508-0.198-2.265-0.289c-0.5-0.06-0.996-0.132-1.499-0.182c-0.845-0.084-1.697-0.138-2.55-0.195  c-0.424-0.028-0.843-0.071-1.269-0.092c-1.281-0.064-2.57-0.098-3.867-0.098c-2.41,0-4.804,0.125-7.183,0.346  c-0.214,0.02-0.43,0.027-0.643,0.049c-0.393,0.04-0.781,0.103-1.172,0.149c-2.191,0.256-4.369,0.586-6.525,1.03  c-0.024-0.239-0.059-0.476-0.085-0.715c-0.077-0.705-0.159-1.408-0.25-2.109c-0.069-0.535-0.144-1.069-0.221-1.602  c-0.055-0.378-0.113-0.754-0.173-1.131c-5.465-35.073-28.398-65.025-61.18-79.317c12.988-30.805,43.727-51.626,77.698-51.626  c46.46,0,84.258,37.798,84.258,84.258c0,0.496-0.019,0.986-0.035,1.479l-0.026,0.866c-0.091,3.37,1.522,6.559,4.292,8.482  c2.767,1.923,6.319,2.322,9.447,1.06c6.794-2.742,13.962-4.133,21.307-4.133c31.432,0,57.003,25.571,57.003,57.003  C492,262.417,466.429,287.988,434.997,287.988z"/>
<g>
</g>
<g>
</g>
<g>
</g>
<g>
</g>
<g>
</g>
<g>
</g>
<g>
</g>
<g>
</g>
<g>
</g>
<g>
</g>
<g>
</g>
<g>
</g>
<g>
</g>
<g>
</g>
<g>
</g>
</svg>
