<?xml version="1.0" encoding="iso-8859-1"?>
<!-- Generator: Adobe Illustrator 19.0.0, SVG Export Plug-In . SVG Version: 6.00 Build 0)  -->
<svg xmlns="http://www.w3.org/2000/svg" xmlns:xlink="http://www.w3.org/1999/xlink" version="1.1" id="Capa_1" x="0px" y="0px" viewBox="0 0 512 512" style="enable-background:new 0 0 512 512;" xml:space="preserve">
<path style="fill:#F9D973;" d="M469.329,354.092h-11.395c13.086,0,23.694-10.609,23.694-23.695v-1.914  c0-13.086-10.609-23.695-23.694-23.695h-91.52c6.17-4.059,10.251-11.035,10.251-18.974c0-12.422-9.977-22.498-22.353-22.688v-0.018  h-0.353h-93.572h-47.634c-16.922,0-33.075,7.069-44.555,19.501l-14.879,16.112h-39.675v166.325h39.675l22.26,18.022  C190.565,495.201,209.261,502,228.542,502h203.012c13.614,0,24.652-11.036,24.652-24.652c0-13.615-11.036-24.651-24.652-24.651  h25.423c13.615,0,24.651-11.037,24.651-24.652c0-13.615-11.036-24.651-24.651-24.651h12.352c13.086,0,23.694-10.609,23.694-23.695  v-1.914C493.024,364.7,482.415,354.092,469.329,354.092z"/>
<polygon style="fill:#FF8C5A;" points="18.976,288.722 18.976,380.366 18.976,475.047 113.643,475.047 113.643,288.722 "/>
<path d="M303.8,364.07c-0.65,0-1.31-0.07-1.95-0.2s-1.27-0.32-1.87-0.57c-0.61-0.25-1.19-0.56-1.73-0.92  c-0.55-0.36-1.06-0.78-1.52-1.24c-0.46-0.47-0.88-0.98-1.24-1.52c-0.36-0.55-0.67-1.13-0.92-1.73s-0.44-1.23-0.57-1.87  c-0.13-0.65-0.2-1.3-0.2-1.95c0-0.66,0.07-1.31,0.2-1.96c0.13-0.64,0.32-1.27,0.57-1.87s0.56-1.18,0.92-1.72  c0.36-0.55,0.78-1.06,1.24-1.52c0.46-0.47,0.97-0.88,1.52-1.25c0.54-0.36,1.12-0.67,1.73-0.92c0.6-0.25,1.23-0.44,1.87-0.57  c1.29-0.26,2.62-0.26,3.91,0c0.63,0.13,1.26,0.32,1.87,0.57c0.6,0.25,1.18,0.56,1.72,0.92c0.55,0.37,1.06,0.78,1.52,1.25  c0.46,0.46,0.88,0.97,1.25,1.52c0.36,0.54,0.66,1.12,0.91,1.72s0.45,1.23,0.57,1.87c0.13,0.65,0.2,1.3,0.2,1.96  c0,0.65-0.07,1.3-0.2,1.95c-0.12,0.64-0.32,1.27-0.57,1.87s-0.55,1.18-0.91,1.73c-0.37,0.54-0.79,1.05-1.25,1.52  c-0.46,0.46-0.97,0.88-1.52,1.24c-0.54,0.36-1.12,0.67-1.72,0.92c-0.61,0.25-1.24,0.44-1.87,0.57  C305.11,364,304.45,364.07,303.8,364.07z"/>
<path d="M325.09,462.7c-0.65,0-1.31-0.07-1.95-0.2s-1.27-0.32-1.87-0.57s-1.19-0.56-1.73-0.92c-0.54-0.36-1.06-0.78-1.52-1.24  c-1.86-1.86-2.93-4.44-2.93-7.07c0-2.64,1.07-5.21,2.93-7.07c0.46-0.46,0.98-0.88,1.52-1.25c0.54-0.36,1.13-0.67,1.73-0.92  s1.23-0.44,1.87-0.57c1.29-0.26,2.62-0.26,3.91,0c0.64,0.13,1.26,0.32,1.87,0.57c0.6,0.25,1.18,0.56,1.72,0.92  c0.55,0.37,1.06,0.79,1.53,1.25c1.86,1.86,2.92,4.43,2.92,7.07c0,2.63-1.06,5.21-2.92,7.07c-0.47,0.46-0.98,0.88-1.53,1.24  c-0.54,0.36-1.12,0.67-1.72,0.92c-0.61,0.25-1.23,0.44-1.87,0.57C326.4,462.63,325.75,462.7,325.09,462.7z"/>
<path style="fill:#007177;" d="M405.214,160.125c0,32.111-26.032,58.143-58.143,58.143s-58.143-26.031-58.143-58.143  c0-48.797,58.143-93.817,58.143-93.817S405.214,111.329,405.214,160.125z"/>
<path style="fill:#54E3EA;" d="M288.928,160.125c0-37.115,33.632-72.039,49.737-86.637C315.343,36.499,281.128,10,281.128,10  s-78.74,60.969-78.74,127.051c0,43.486,35.253,78.74,78.74,78.74c11.959,0,23.288-2.679,33.44-7.45  C299.099,197.893,288.928,180.197,288.928,160.125z"/>
<path d="M486.243,348.652c3.406-5.263,5.385-11.533,5.385-18.256v-1.914c0-18.58-15.115-33.695-33.694-33.695h-72.519  c0.819-2.879,1.249-5.895,1.249-8.973c0-17.506-14.05-32.009-31.467-32.668c-0.292-0.025-0.587-0.039-0.885-0.039h-141.56  c-19.651,0-38.569,8.28-51.902,22.717l-11.909,12.896h-25.298c0-5.523-4.477-10-10-10H18.977c-5.523,0-10,4.477-10,10v186.325  c0,5.523,4.477,10,10,10h94.666c5.523,0,10-4.477,10-10h26.135l19.509,15.794C186.14,504.486,207.184,512,228.542,512h203.012  c19.107,0,34.651-15.544,34.651-34.651c0-5.42-1.251-10.555-3.48-15.128c16.381-2.747,28.903-17.026,28.903-34.175  c0-7.023-2.099-13.564-5.704-19.028c10.202-5.798,17.099-16.768,17.099-29.318v-1.914  C503.023,365.368,496.27,354.497,486.243,348.652z M28.977,465.047V298.721h74.666v166.325L28.977,465.047L28.977,465.047z   M483.023,379.7c0,7.551-6.143,13.695-13.694,13.695h-12.352H303.801c-5.523,0-10,4.477-10,10s4.477,10,10,10h153.176  c8.079,0,14.651,6.573,14.651,14.651c0,8.079-6.573,14.651-14.651,14.651h-25.364h-0.059h-69.177c-5.523,0-10,4.477-10,10  s4.477,10,10,10h69.177c8.079,0,14.651,6.573,14.651,14.651S439.633,492,431.554,492H228.542c-16.792,0-33.366-5.932-46.67-16.704  l-22.261-18.021c-1.781-1.441-4.002-2.228-6.292-2.228h-29.675V308.721h29.675c2.79,0,5.454-1.166,7.347-3.216l14.878-16.111  c9.559-10.35,23.121-16.286,37.209-16.286h140.956c0.149,0.009,0.299,0.015,0.45,0.017c6.896,0.106,12.506,5.798,12.506,12.689  c0,3.412-1.381,6.611-3.756,8.973h-92.253c-5.523,0-10,4.477-10,10c0,33.853-27.541,61.395-61.394,61.395c-5.523,0-10,4.477-10,10  s4.477,10,10,10c41.493,0,75.81-31.217,80.758-71.395h86.395h6.729h84.79c7.551,0,13.694,6.143,13.694,13.695v1.914  c0,7.549-6.138,13.69-13.685,13.695h-116.86c-5.523,0-10,4.477-10,10s4.477,10,10,10h116.84c0.003,0,0.006,0,0.01,0h11.395  c7.551,0,13.694,6.143,13.694,13.694v1.915H483.023z"/>
<path d="M281.127,225.791c11.314,0,22.278-2.097,32.673-6.23c9.848,5.534,21.193,8.707,33.271,8.707  c37.574,0,68.143-30.569,68.143-68.143c0-53.09-59.488-99.763-62.02-101.724c-3.604-2.791-8.641-2.791-12.245,0  c-0.052,0.04-0.136,0.106-0.234,0.183c-23.27-32.911-52.135-55.461-53.464-56.49c-3.604-2.792-8.641-2.792-12.246,0  c-3.373,2.612-82.617,64.778-82.617,134.958C192.388,185.983,232.196,225.791,281.127,225.791z M395.214,160.125  c0,26.546-21.597,48.143-48.143,48.143c-15.745,0-29.749-7.598-38.538-19.321c-0.02-0.027-0.04-0.054-0.06-0.081  c-1.685-2.257-3.167-4.671-4.441-7.208c-0.167-0.333-0.336-0.665-0.495-1.002c-0.19-0.402-0.372-0.81-0.552-1.218  c-0.196-0.447-0.385-0.896-0.567-1.348c-0.139-0.344-0.278-0.689-0.41-1.037c-0.235-0.625-0.454-1.256-0.663-1.891  c-0.065-0.197-0.137-0.39-0.199-0.588c-0.273-0.867-0.522-1.744-0.746-2.628c-0.037-0.147-0.067-0.298-0.103-0.446  c-0.179-0.735-0.342-1.475-0.486-2.22c-0.05-0.258-0.094-0.519-0.139-0.779c-0.114-0.647-0.215-1.298-0.303-1.952  c-0.039-0.288-0.077-0.575-0.11-0.864c-0.076-0.659-0.135-1.322-0.185-1.986c-0.02-0.266-0.046-0.531-0.061-0.798  c-0.053-0.921-0.086-1.846-0.086-2.776c0-1.057,0.034-2.114,0.096-3.17c0.037-0.614,0.104-1.227,0.161-1.84  c0.04-0.434,0.066-0.868,0.116-1.301c0.1-0.863,0.231-1.724,0.369-2.584c0.028-0.176,0.047-0.352,0.077-0.528  c3.167-18.607,15.006-36.485,26.579-50.14c0.146-0.172,0.292-0.342,0.437-0.513c0.448-0.524,0.894-1.042,1.34-1.553  c0.329-0.377,0.658-0.75,0.987-1.12c0.258-0.292,0.517-0.583,0.774-0.871c0.573-0.639,1.145-1.271,1.713-1.888  c0.01-0.011,0.021-0.023,0.031-0.034c5.919-6.429,11.471-11.642,15.462-15.186C361.273,92.009,395.214,125.747,395.214,160.125z   M281.136,23.011c9.635,8.34,28.836,26.255,44.528,48.943c-2.825,2.755-5.884,5.881-9.04,9.329  C301,98.28,284.233,121.829,279.971,147.769c-0.014,0.086-0.026,0.173-0.04,0.259c-0.181,1.124-0.337,2.252-0.47,3.384  c-0.06,0.509-0.122,1.019-0.172,1.53c-0.04,0.417-0.073,0.835-0.107,1.253c-0.052,0.64-0.096,1.28-0.132,1.922  c-0.019,0.341-0.039,0.681-0.053,1.023c-0.041,0.993-0.069,1.988-0.069,2.986c0,1.101,0.031,2.197,0.083,3.289  c0.019,0.399,0.054,0.794,0.08,1.192c0.045,0.684,0.091,1.368,0.156,2.048c0.046,0.482,0.105,0.96,0.161,1.439  c0.069,0.588,0.14,1.176,0.224,1.76c0.073,0.509,0.155,1.015,0.24,1.52c0.092,0.553,0.19,1.105,0.296,1.655  c0.098,0.507,0.199,1.013,0.308,1.516c0.12,0.556,0.25,1.109,0.384,1.661c0.116,0.476,0.23,0.951,0.356,1.423  c0.163,0.616,0.342,1.227,0.523,1.837c0.116,0.392,0.226,0.786,0.349,1.174c0.267,0.846,0.554,1.684,0.853,2.517  c0.051,0.141,0.096,0.285,0.147,0.426c2.775,7.571,6.874,14.606,12.13,20.765c-4.597,0.96-9.305,1.443-14.093,1.443  c-37.903,0-68.739-30.836-68.739-68.74C212.388,87.06,263.263,38.519,281.136,23.011z"/>
<g>
</g>
<g>
</g>
<g>
</g>
<g>
</g>
<g>
</g>
<g>
</g>
<g>
</g>
<g>
</g>
<g>
</g>
<g>
</g>
<g>
</g>
<g>
</g>
<g>
</g>
<g>
</g>
<g>
</g>
</svg>
