<?xml version="1.0" encoding="iso-8859-1"?>
<!-- Generator: Adobe Illustrator 19.0.0, SVG Export Plug-In . SVG Version: 6.00 Build 0)  -->
<svg xmlns="http://www.w3.org/2000/svg" xmlns:xlink="http://www.w3.org/1999/xlink" version="1.1" id="Capa_1" x="0px" y="0px" viewBox="0 0 512.001 512.001" style="enable-background:new 0 0 512.001 512.001;" xml:space="preserve">
<path style="fill:#F4BA64;" d="M460.275,313.524h-11.393c13.084,0,23.69-10.607,23.69-23.691v-1.914  c0-13.084-10.607-23.69-23.69-23.69h-91.504c0.278-0.183,0.546-0.378,0.815-0.572c-42.066-0.087-77.701-10.278-77.701-10.278  s-0.011-0.076-0.027-0.185c-29.284,0.443-72.443-3.172-104.018-24.141c-6.416,3.234-12.274,7.612-17.252,13.002l-14.876,16.109  h-39.668v166.297h39.668l22.256,18.019c14.983,12.131,33.676,19.33,52.954,19.33h202.978c13.612,0,24.648-11.435,24.648-25.049  c0-13.613-11.034-24.647-24.648-24.647h25.419c13.613,0,24.647-11.036,24.647-24.648c0-13.613-11.034-24.648-24.647-24.648h12.35  c13.083,0,23.69-10.607,23.69-23.69v-1.914C483.965,324.132,473.358,313.524,460.275,313.524z"/>
<path style="fill:#D3E567;" d="M457.271,233.437c-60.415,53.244-176.78,19.943-176.78,19.943s-18.412-119.628,42.003-172.872  c60.416-53.244,176.78-19.943,176.78-19.943S517.686,180.193,457.271,233.437z"/>
<path style="fill:#59C671;" d="M303.257,103.365c-2.424-3.785-5.128-7.41-8.145-10.833C247.424,38.42,140.279,54.911,140.279,54.911  s-29.827,104.223,17.862,158.334c30.92,35.084,86.824,40.486,122.324,39.948C279.825,248.867,267.329,160.492,303.257,103.365z"/>
<rect x="9.998" y="248.167" style="fill:#FF8C5A;" width="94.654" height="186.288"/>
<path d="M294.769,323.493c-0.649,0-1.31-0.06-1.949-0.19c-0.641-0.13-1.27-0.32-1.87-0.57c-0.601-0.25-1.19-0.56-1.73-0.92  c-0.54-0.37-1.06-0.78-1.52-1.24c-0.46-0.47-0.88-0.98-1.24-1.53c-0.36-0.54-0.67-1.12-0.92-1.72c-0.25-0.6-0.44-1.23-0.57-1.87  c-0.13-0.65-0.2-1.3-0.2-1.95c0-0.66,0.07-1.31,0.2-1.96c0.13-0.64,0.32-1.27,0.57-1.87c0.25-0.6,0.56-1.18,0.92-1.73  c0.36-0.54,0.78-1.06,1.24-1.52c0.46-0.46,0.979-0.88,1.52-1.24c0.54-0.36,1.13-0.67,1.73-0.92c0.6-0.25,1.229-0.44,1.87-0.57  c1.29-0.26,2.62-0.26,3.909,0c0.64,0.13,1.27,0.32,1.869,0.57c0.601,0.25,1.181,0.56,1.721,0.92c0.55,0.36,1.06,0.78,1.52,1.24  c0.47,0.46,0.88,0.97,1.25,1.52c0.36,0.55,0.67,1.13,0.92,1.73c0.25,0.6,0.44,1.23,0.57,1.87c0.13,0.65,0.189,1.3,0.189,1.96  c0,0.65-0.06,1.3-0.189,1.95c-0.13,0.64-0.32,1.27-0.57,1.87c-0.25,0.6-0.56,1.18-0.92,1.72c-0.37,0.55-0.78,1.06-1.25,1.53  c-0.46,0.46-0.97,0.87-1.52,1.24c-0.54,0.36-1.12,0.67-1.721,0.92c-0.6,0.25-1.23,0.44-1.869,0.57  C296.08,323.433,295.429,323.493,294.769,323.493z"/>
<path d="M316.066,422.116c-2.641,0-5.209-1.07-7.069-2.93c-0.46-0.46-0.88-0.97-1.25-1.52c-0.36-0.54-0.67-1.13-0.92-1.73  c-0.25-0.6-0.44-1.23-0.57-1.87c-0.13-0.65-0.19-1.3-0.19-1.95c0-0.66,0.06-1.31,0.19-1.96c0.13-0.64,0.32-1.27,0.57-1.87  c0.25-0.6,0.56-1.18,0.92-1.72c0.37-0.55,0.79-1.06,1.25-1.52c0.46-0.47,0.97-0.88,1.52-1.25c0.54-0.36,1.12-0.67,1.721-0.92  c0.609-0.25,1.229-0.44,1.87-0.57c1.29-0.26,2.62-0.26,3.908,0c0.641,0.13,1.271,0.32,1.87,0.57c0.6,0.25,1.181,0.56,1.73,0.92  c0.54,0.37,1.06,0.78,1.52,1.25c0.46,0.46,0.88,0.97,1.24,1.52c0.36,0.54,0.67,1.12,0.92,1.72s0.44,1.23,0.57,1.87  c0.13,0.65,0.2,1.3,0.2,1.96c0,0.65-0.07,1.3-0.2,1.95c-0.13,0.64-0.32,1.27-0.57,1.87c-0.25,0.6-0.56,1.19-0.92,1.73  c-0.36,0.55-0.78,1.06-1.24,1.52c-0.46,0.461-0.98,0.88-1.52,1.24c-0.55,0.36-1.13,0.67-1.73,0.92c-0.6,0.25-1.23,0.44-1.87,0.57  C317.376,422.046,316.716,422.116,316.066,422.116z"/>
<path d="M477.187,308.086c3.404-5.263,5.384-11.532,5.384-18.253v-1.914c0-18.576-15.112-33.688-33.688-33.688h-3.764  c6.618-3.749,12.919-8.143,18.764-13.294c63.786-56.214,46.061-176.788,45.275-181.893c-0.594-3.858-3.378-7.018-7.132-8.092  c-4.965-1.421-122.357-34.158-186.14,22.054c-4.71,4.151-8.964,8.661-12.826,13.441c-0.15-0.173-0.295-0.355-0.446-0.526  c-50.72-57.555-159.26-41.6-163.857-40.893c-3.857,0.594-7.018,3.378-8.092,7.131c-1.279,4.47-30.749,110.143,19.974,167.697  c2.691,3.052,5.551,5.886,8.541,8.543c-2.594,2.109-5.045,4.397-7.331,6.873l-11.908,12.895h-25.295  c0-5.522-4.477-9.998-9.998-9.998H9.998c-5.522,0-9.998,4.476-9.998,9.998V434.46c0,5.522,4.476,9.998,9.998,9.998h94.65  c5.521,0,9.998-4.476,9.998-9.998h26.132l19.506,15.791c17.171,13.902,38.212,21.557,59.245,21.557h202.978  c19.105,0,34.646-15.722,34.646-35.047c0-5.419-1.251-10.552-3.478-15.125c16.377-2.746,28.897-17.022,28.897-34.168  c0-7.022-2.1-13.561-5.703-19.026c10.2-5.797,17.096-16.764,17.096-29.311v-1.914C493.963,324.798,487.211,313.929,477.187,308.086z   M94.65,424.46H19.997V258.164H94.65V424.46z M306.048,118.817c0.139-0.278,0.283-0.554,0.424-0.831  c0.291-0.574,0.582-1.148,0.882-1.717c0.283-0.535,0.574-1.066,0.864-1.597c0.173-0.317,0.343-0.636,0.519-0.951  c0.378-0.677,0.767-1.348,1.159-2.016c0.104-0.177,0.204-0.357,0.309-0.533c0.428-0.722,0.867-1.437,1.311-2.149  c4.856-7.784,10.658-14.906,17.592-21.017C376.963,45.831,465.772,62.85,490.18,68.58c2.618,24.947,8.335,115.182-39.517,157.354  c-24.544,21.63-59.848,27.69-91.724,27.689c-22.393-0.001-43.085-2.992-57.157-5.68l72.665-64.039l61.731,3.473  c0.191,0.011,0.381,0.016,0.57,0.016c5.265,0,9.674-4.115,9.974-9.437c0.311-5.513-3.907-10.233-9.421-10.544l-41.492-2.335  l26.401-23.267c4.143-3.651,4.542-9.969,0.891-14.112c-3.651-4.142-9.969-4.541-14.111-0.891l-67.303,59.314l1.784-37.279  c0.265-5.516-3.993-10.201-9.509-10.465c-5.489-0.269-10.2,3.993-10.464,9.509l-2.711,56.653l-32.226,28.4  C286.889,206.378,287.055,157.007,306.048,118.817z M148.304,64.019c23.189-2.36,102.26-6.915,139.307,35.123  c1.298,1.473,2.555,3.018,3.76,4.623c-27.2,48.415-24.636,113.046-22.149,139.378c-31.368-0.777-77.85-7.313-103.581-36.509  C128.591,164.595,143.051,86.717,148.304,64.019z M473.966,339.129c0,7.55-6.143,13.692-13.692,13.692h-12.35  c-0.003,0-0.006,0-0.01,0H294.774c-5.521,0-9.998,4.476-9.998,9.998s4.477,9.998,9.998,9.998h153.151c0.002,0,0.003,0,0.005,0  c8.076,0.003,14.644,6.573,14.644,14.65c0,8.078-6.571,14.648-14.649,14.648h-25.36h-0.06H353.34c-5.521,0-9.998,4.476-9.998,9.998  c0,5.522,4.477,9.998,9.998,9.998h69.165c8.078,0,14.65,6.571,14.65,14.648c0,8.159-6.709,15.05-14.65,15.05H219.528  c-16.469,0-33.04-6.074-46.663-17.102l-22.257-18.019c-1.78-1.441-4-2.228-6.291-2.228h-29.671v-146.3h29.671  c2.79,0,5.452-1.165,7.346-3.214l14.877-16.11c2.872-3.109,6.095-5.824,9.625-8.113c22.86,13.529,50.238,19.463,75.665,21.55  c-0.001,0.006-0.001,0.012-0.003,0.018c-0.061,0.31-0.11,0.625-0.141,0.945c-0.033,0.326-0.05,0.657-0.05,0.992  c0,33.846-27.536,61.384-61.385,61.384c-5.522,0-9.998,4.476-9.998,9.998c0,5.522,4.476,9.998,9.998,9.998  c41.486,0,75.798-31.212,80.744-71.382h86.379h6.728h84.777c7.55,0,13.692,6.142,13.692,13.692v1.914  c0,7.547-6.137,13.687-13.683,13.692h-116.84c-5.521,0-9.998,4.476-9.998,9.998c0,5.522,4.477,9.998,9.998,9.998H448.87  c0.003,0,0.007,0,0.01,0h11.393c7.55,0,13.692,6.142,13.692,13.692v1.916H473.966z"/>
<g>
</g>
<g>
</g>
<g>
</g>
<g>
</g>
<g>
</g>
<g>
</g>
<g>
</g>
<g>
</g>
<g>
</g>
<g>
</g>
<g>
</g>
<g>
</g>
<g>
</g>
<g>
</g>
<g>
</g>
</svg>
