<?xml version="1.0" encoding="iso-8859-1"?>
<!-- Generator: Adobe Illustrator 19.0.0, SVG Export Plug-In . SVG Version: 6.00 Build 0)  -->
<svg xmlns="http://www.w3.org/2000/svg" xmlns:xlink="http://www.w3.org/1999/xlink" version="1.1" id="Capa_1" x="0px" y="0px" viewBox="0 0 512 512" style="enable-background:new 0 0 512 512;" xml:space="preserve">
<g>
	<path style="fill:#54E3EA;" d="M228.43,335.679l65.308-75.653V55.076c0-24.792-20.284-45.076-45.076-45.076l0,0   c-24.792,0-45.076,20.284-45.076,45.076v280.603H228.43z"/>
	<path style="fill:#54E3EA;" d="M203.585,335.679V55.076c0-24.792-20.284-45.076-45.076-45.076l0,0   c-24.792,0-45.076,20.284-45.076,45.076v280.603H203.585z"/>
</g>
<path style="fill:#F4BA64;" d="M113.155,416.615v28.254c0,10.53,8.536,19.066,19.066,19.066h142.727  c10.53,0,19.066-8.536,19.066-19.066v-28.254H113.155z"/>
<path style="fill:#007177;" d="M154.702,463.935v22.006c0,8.869,7.19,16.059,16.059,16.059h65.648  c8.869,0,16.059-7.19,16.059-16.059v-22.006H154.702z"/>
<path d="M158.51,154.18c-0.65,0-1.31-0.07-1.96-0.2c-0.63-0.13-1.26-0.319-1.87-0.569c-0.6-0.25-1.18-0.561-1.72-0.92  c-0.55-0.37-1.06-0.78-1.52-1.25c-1.86-1.851-2.93-4.431-2.93-7.061c0-0.66,0.06-1.31,0.19-1.96c0.13-0.64,0.32-1.27,0.57-1.87  c0.25-0.6,0.56-1.18,0.92-1.729c0.37-0.54,0.79-1.061,1.25-1.521c0.46-0.46,0.97-0.87,1.52-1.24c0.54-0.359,1.12-0.67,1.72-0.92  c0.61-0.25,1.24-0.439,1.87-0.569c1.29-0.261,2.62-0.261,3.91,0c0.64,0.13,1.27,0.319,1.87,0.569c0.61,0.25,1.19,0.561,1.73,0.92  c0.55,0.37,1.059,0.78,1.52,1.24c0.46,0.46,0.88,0.98,1.24,1.521c0.36,0.55,0.67,1.13,0.92,1.729c0.25,0.601,0.44,1.23,0.57,1.87  c0.13,0.65,0.2,1.3,0.2,1.96c0,2.63-1.07,5.21-2.93,7.061c-0.46,0.47-0.97,0.88-1.52,1.25c-0.54,0.359-1.12,0.67-1.73,0.92  c-0.6,0.25-1.23,0.439-1.87,0.569C159.82,154.109,159.16,154.18,158.51,154.18z"/>
<path d="M248.66,154.18c-0.65,0-1.31-0.07-1.95-0.2c-0.64-0.13-1.27-0.319-1.87-0.569c-0.61-0.25-1.19-0.561-1.73-0.92  c-0.55-0.37-1.06-0.78-1.52-1.25c-0.46-0.461-0.88-0.971-1.24-1.511c-0.36-0.54-0.67-1.13-0.92-1.73  c-0.25-0.601-0.44-1.23-0.57-1.87c-0.13-0.65-0.2-1.3-0.2-1.95c0-0.66,0.07-1.31,0.2-1.96c0.13-0.64,0.32-1.27,0.57-1.87  c0.25-0.6,0.56-1.18,0.92-1.729c0.36-0.54,0.78-1.061,1.24-1.521c0.46-0.46,0.97-0.87,1.52-1.24c0.54-0.359,1.12-0.67,1.73-0.92  c0.6-0.25,1.23-0.439,1.87-0.569c1.29-0.261,2.61-0.261,3.9,0c0.64,0.13,1.27,0.319,1.88,0.569c0.6,0.25,1.18,0.561,1.72,0.92  c0.55,0.37,1.06,0.78,1.52,1.24c0.46,0.46,0.88,0.98,1.25,1.521c0.36,0.55,0.67,1.13,0.92,1.729c0.25,0.601,0.44,1.23,0.57,1.87  c0.13,0.65,0.19,1.3,0.19,1.96c0,2.63-1.07,5.2-2.93,7.061c-0.46,0.47-0.97,0.88-1.52,1.25c-0.54,0.359-1.12,0.67-1.72,0.92  c-0.61,0.25-1.24,0.439-1.88,0.569C249.97,154.109,249.31,154.18,248.66,154.18z"/>
<polygon style="fill:#F9D973;" points="424.269,335.761 360.586,335.761 360.179,183.059 228.43,335.679 302.469,335.681   302.802,483.941 "/>
<path style="fill:#007177;" d="M302.47,335.681c-0.02,0-1.579,0.002-2.39,0l-58.488-0.002H107.133  c-10.716,0-19.403,8.687-19.403,19.402v42.131c0,10.716,8.687,19.402,19.403,19.402h192.904c0.889,0,1.757-0.08,2.614-0.196  L302.47,335.681z"/>
<path d="M433.308,331.482c-1.654-3.494-5.173-5.722-9.039-5.722h-53.71l-0.38-142.729c-0.011-4.174-2.613-7.901-6.526-9.351  c-3.915-1.45-8.316-0.316-11.043,2.843l-48.872,56.614V55.076C303.737,24.707,279.03,0,248.661,0  c-18.622,0-35.103,9.299-45.076,23.487C193.612,9.299,177.131,0,158.509,0c-30.369,0-55.076,24.707-55.076,55.076v270.845  c-14.471,1.826-25.702,14.202-25.702,29.16v42.131c0,14.863,11.088,27.177,25.425,29.126v18.53  c0,16.027,13.039,29.066,29.066,29.066h12.48v12.006c0,14.369,11.69,26.06,26.059,26.06h65.648c14.369,0,26.06-11.69,26.06-26.06  v-12.006h12.48c6.711,0,12.892-2.292,17.818-6.126l0.036,16.156c0.009,4.221,2.668,7.981,6.645,9.397  c1.098,0.392,2.231,0.581,3.354,0.581c2.939,0,5.799-1.299,7.736-3.661L432.005,342.1  C434.454,339.11,434.962,334.977,433.308,331.482z M248.661,20c19.341,0,35.076,15.735,35.076,35.076v201.229l-25.076,29.049  v-106.15c0-5.523-4.477-10-10-10s-10,4.477-10,10v129.319l-14.809,17.156l-10.267,0.001V55.076C213.585,35.735,229.32,20,248.661,20  z M123.433,55.076c0-19.341,15.735-35.076,35.076-35.076s35.076,15.735,35.076,35.076V325.68h-25.076V179.204  c0-5.523-4.477-10-10-10s-10,4.477-10,10V325.68h-25.076V55.076z M97.73,397.212v-42.131c0-5.184,4.218-9.401,9.403-9.401  l185.358,0.002l0,0l0.137,60.933H113.155h-6.022C101.949,406.614,97.73,402.397,97.73,397.212z M242.468,485.94  c0,3.341-2.718,6.06-6.06,6.06H170.76c-3.341,0-6.059-2.719-6.059-6.06v-12.006h77.767V485.94z M284.014,444.868  c0,4.999-4.067,9.066-9.066,9.066h-22.48h-97.767h-22.48c-4.999,0-9.066-4.067-9.066-9.066v-18.254h160.859V444.868z   M312.74,456.045l-0.121-53.856l-0.149-66.53c-0.001-0.372-0.026-0.738-0.066-1.099c-0.558-4.996-4.792-8.879-9.934-8.879  l-52.198-0.002l99.978-115.816l0.335,125.924c0.015,5.513,4.487,9.974,10,9.974h42.556L312.74,456.045z"/>
<g>
</g>
<g>
</g>
<g>
</g>
<g>
</g>
<g>
</g>
<g>
</g>
<g>
</g>
<g>
</g>
<g>
</g>
<g>
</g>
<g>
</g>
<g>
</g>
<g>
</g>
<g>
</g>
<g>
</g>
</svg>
