<?xml version="1.0" encoding="iso-8859-1"?>
<!-- Generator: Adobe Illustrator 19.0.0, SVG Export Plug-In . SVG Version: 6.00 Build 0)  -->
<svg xmlns="http://www.w3.org/2000/svg" xmlns:xlink="http://www.w3.org/1999/xlink" version="1.1" id="Capa_1" x="0px" y="0px" viewBox="0 0 512.001 512.001" style="enable-background:new 0 0 512.001 512.001;" xml:space="preserve">
<path style="fill:#54E3EA;" d="M431.541,185.54C431.541,88.592,352.95,10,256.001,10S80.461,88.592,80.461,185.54  c0,75.513,47.683,139.884,114.581,164.659v41.881h121.92V350.2C383.858,325.425,431.541,261.053,431.541,185.54z"/>
<rect x="212.283" y="458.874" style="fill:#007177;" width="87.441" height="43.13"/>
<path d="M175.83,300.313c-2.08,0-4.177-0.646-5.972-1.985c-12.303-9.18-23.054-20.265-31.955-32.949  c-17.039-24.283-26.045-52.867-26.045-82.661c0-79.48,64.663-144.143,144.143-144.143c79.48,0,144.142,64.663,144.142,144.143  c0,5.522-4.477,10-10,10c-5.523,0-10-4.478-10-10c0-68.453-55.689-124.143-124.142-124.143s-124.143,55.69-124.143,124.143  c0,25.661,7.752,50.271,22.417,71.173c7.678,10.943,16.945,20.5,27.542,28.407c4.426,3.302,5.338,9.567,2.035,13.994  C181.89,298.924,178.879,300.313,175.83,300.313z"/>
<path d="M206.591,317.47c-0.65,0-1.31-0.07-1.96-0.2c-0.63-0.13-1.26-0.319-1.87-0.569c-0.6-0.25-1.18-0.561-1.72-0.92  c-0.55-0.37-1.06-0.79-1.52-1.25c-0.46-0.461-0.88-0.971-1.25-1.52c-0.36-0.54-0.67-1.12-0.92-1.72c-0.25-0.61-0.44-1.24-0.57-1.87  c-0.13-0.65-0.19-1.311-0.19-1.96c0-0.65,0.06-1.311,0.19-1.95c0.13-0.64,0.32-1.27,0.57-1.87c0.25-0.609,0.56-1.189,0.92-1.729  c0.37-0.551,0.79-1.061,1.25-1.521c0.46-0.46,0.97-0.88,1.52-1.24c0.54-0.359,1.12-0.67,1.72-0.92c0.61-0.25,1.24-0.44,1.87-0.569  c1.29-0.261,2.62-0.261,3.91,0c0.64,0.13,1.27,0.319,1.87,0.569c0.61,0.25,1.19,0.56,1.73,0.92c0.55,0.36,1.06,0.78,1.52,1.24  c0.46,0.46,0.88,0.97,1.24,1.521c0.36,0.54,0.67,1.12,0.92,1.729c0.25,0.601,0.44,1.23,0.57,1.87c0.13,0.64,0.2,1.3,0.2,1.95  c0,0.649-0.07,1.309-0.2,1.96c-0.13,0.63-0.32,1.26-0.57,1.87c-0.25,0.6-0.56,1.18-0.92,1.72c-0.36,0.55-0.78,1.059-1.24,1.52  c-0.46,0.46-0.97,0.88-1.52,1.25c-0.54,0.359-1.12,0.67-1.73,0.92c-0.6,0.25-1.23,0.439-1.87,0.569  C207.901,317.4,207.241,317.47,206.591,317.47z"/>
<rect x="195.043" y="392.083" style="fill:#007177;" width="121.921" height="66.791"/>
<path style="fill:#D3E567;" d="M268.497,211.535l17.253,17.254l-4.895,2.706c-7.313,4.043-15.598,6.179-23.96,6.179  c-12.922,0-25.011-4.971-34.052-14.012l-0.152-0.154c-7.363-7.435-12.161-17.099-13.68-27.236l-37.111,5.496  c2.682,18.219,11.063,34.999,24.271,48.206c16.255,16.254,37.903,25.205,60.956,25.205h0.243  c18.98-0.052,37.009-6.107,52.138-17.509l2.922-2.203l17.071,17.069l10.604-71.61L268.497,211.535z"/>
<path d="M256.001,0C153.693,0,70.46,83.233,70.46,185.54c0,38.653,11.772,75.702,34.045,107.138  c20.416,28.817,48.158,50.952,80.537,64.343v35.061v66.791c0,5.522,4.477,10,10,10h7.24v33.128c0,5.522,4.477,10,10,10h87.439  c5.523,0,10-4.478,10-10v-33.128h7.24c5.523,0,10-4.478,10-10v-66.791v-35.061c32.378-13.39,60.119-35.524,80.537-64.343  c22.272-31.435,34.044-68.484,34.044-107.138C441.542,83.233,358.309,0,256.001,0z M292.821,221.718l-3.202-3.202l38.618-5.72  l-5.719,38.62l-3.019-3.019c-3.524-3.524-9.107-3.914-13.091-0.914l-2.921,2.202c-13.39,10.091-29.347,15.449-46.119,15.495h-0.243  c-20.383,0-39.52-7.911-53.886-22.276c-9.253-9.252-15.836-20.452-19.348-32.802l17.567-2.602  c2.866,8.61,7.717,16.573,14.137,23.058l0.175,0.176c10.925,10.924,25.529,16.94,41.123,16.94c10.052,0,20.01-2.568,28.798-7.427  l4.895-2.706c2.749-1.521,4.625-4.244,5.064-7.355C296.09,227.076,295.042,223.94,292.821,221.718z M306.96,402.081v46.79h-7.24  h-87.439h-7.24v-46.79H306.96z M289.72,492h-67.439v-23.128h67.439V492z M313.487,340.822c-3.923,1.453-6.527,5.194-6.527,9.378  v31.881h-40.959v-97.312c16.315-1.467,31.802-6.965,45.412-16.173l11.015,11.014c2.672,2.671,6.621,3.608,10.209,2.424  c3.587-1.186,6.201-4.293,6.754-8.03l10.604-71.609c0.464-3.132-0.582-6.298-2.821-8.536c-2.238-2.238-5.401-3.29-8.536-2.82  l-71.607,10.604c-3.737,0.554-6.844,3.167-8.03,6.755c-1.186,3.587-0.248,7.537,2.424,10.209l7.265,7.265  c-3.806,1.189-7.79,1.803-11.796,1.803c-10.252,0-19.834-3.936-26.958-11.061l-0.141-0.141c-5.81-5.867-9.68-13.567-10.896-21.683  c-0.818-5.455-5.894-9.225-11.355-8.409l-37.111,5.497c-5.46,0.809-9.232,5.888-8.428,11.349  c3.02,20.505,12.388,39.115,27.094,53.82c15.501,15.5,35.395,25.044,56.902,27.497v97.537h-40.96v-31.881  c0-4.184-2.604-7.925-6.527-9.378c-64.631-23.936-108.054-86.339-108.054-155.281C90.46,94.262,164.721,20,256.001,20  s165.541,74.262,165.541,165.54C421.542,254.483,378.118,316.887,313.487,340.822z"/>
<path style="fill:#59C671;" d="M255.107,137.636c12.922,0,25.009,4.97,34.044,14.003l0.16,0.162  c7.377,7.449,12.177,17.115,13.688,27.234l37.104-5.496c-2.682-18.218-11.063-34.998-24.271-48.206  c-16.256-16.254-37.904-25.205-60.957-25.205h-0.243c-18.979,0.052-37.007,6.106-52.137,17.509l-2.922,2.203l-17.07-17.068  l-10.604,71.61l71.608-10.605l-17.253-17.254l4.895-2.706C238.459,139.772,246.744,137.636,255.107,137.636z"/>
<path d="M302.987,189.037c-4.871,0-9.138-3.564-9.878-8.524c-1.208-8.098-5.08-15.795-10.902-21.675l-0.158-0.159  c-7.11-7.109-16.689-11.043-26.941-11.043c-4.006,0-7.99,0.614-11.796,1.803l7.265,7.267c2.672,2.672,3.609,6.621,2.423,10.209  c-1.186,3.587-4.292,6.2-8.03,6.754l-71.607,10.604c-3.132,0.463-6.298-0.583-8.536-2.821c-2.238-2.238-3.285-5.404-2.821-8.536  l10.604-71.609c0.553-3.737,3.166-6.844,6.754-8.03c3.589-1.187,7.537-0.247,10.209,2.424l11.015,11.014  c15.983-10.813,34.554-16.531,54.018-16.584h0.27c25.725,0,49.884,9.991,68.029,28.134c14.706,14.707,24.075,33.317,27.093,53.821  c0.804,5.46-2.969,10.539-8.429,11.349l-37.104,5.495C303.968,189.002,303.474,189.037,302.987,189.037z M255.107,127.636  c15.594,0,30.196,6.014,41.115,16.933l0.192,0.194c6.422,6.484,11.273,14.444,14.137,23.046l17.559-2.601  c-3.512-12.349-10.095-23.549-19.348-32.802c-14.366-14.365-33.503-22.276-53.886-22.276h-0.243  c-16.772,0.046-32.729,5.403-46.119,15.494l-2.921,2.202c-3.982,3.001-9.565,2.611-13.091-0.914l-3.019-3.019l-5.719,38.62  l38.619-5.72l-3.203-3.203c-2.221-2.221-3.27-5.357-2.831-8.468c0.439-3.111,2.314-5.834,5.064-7.354l4.895-2.706  C235.099,130.204,245.057,127.636,255.107,127.636z"/>
<g>
</g>
<g>
</g>
<g>
</g>
<g>
</g>
<g>
</g>
<g>
</g>
<g>
</g>
<g>
</g>
<g>
</g>
<g>
</g>
<g>
</g>
<g>
</g>
<g>
</g>
<g>
</g>
<g>
</g>
</svg>
