<?xml version="1.0" encoding="iso-8859-1"?>
<!-- Generator: Adobe Illustrator 19.0.0, SVG Export Plug-In . SVG Version: 6.00 Build 0)  -->
<svg xmlns="http://www.w3.org/2000/svg" xmlns:xlink="http://www.w3.org/1999/xlink" version="1.1" id="Capa_1" x="0px" y="0px" viewBox="0 0 512 512" style="enable-background:new 0 0 512 512;" xml:space="preserve">
<path d="M493.93,203.261c-0.649,0-1.31-0.06-1.96-0.19c-0.63-0.13-1.26-0.319-1.87-0.569c-0.6-0.25-1.18-0.561-1.72-0.92  c-0.55-0.37-1.061-0.79-1.521-1.25c-1.859-1.86-2.93-4.44-2.93-7.07c0-0.65,0.061-1.31,0.19-1.95c0.13-0.64,0.319-1.27,0.569-1.87  c0.25-0.609,0.56-1.189,0.92-1.729c0.37-0.55,0.79-1.061,1.25-1.521c0.46-0.46,0.971-0.88,1.521-1.239  c0.54-0.36,1.12-0.67,1.72-0.92c0.61-0.25,1.24-0.441,1.87-0.57c1.3-0.26,2.62-0.26,3.91,0c0.64,0.13,1.27,0.32,1.87,0.57  c0.609,0.25,1.19,0.559,1.729,0.92c0.551,0.359,1.061,0.779,1.521,1.239c0.46,0.46,0.88,0.971,1.24,1.521  c0.359,0.54,0.67,1.12,0.92,1.729c0.25,0.6,0.439,1.23,0.569,1.87c0.13,0.641,0.2,1.3,0.2,1.95s-0.07,1.31-0.2,1.96  c-0.13,0.63-0.319,1.26-0.569,1.87c-0.25,0.6-0.561,1.18-0.92,1.72c-0.36,0.55-0.78,1.061-1.24,1.52  c-0.46,0.46-0.97,0.88-1.521,1.25c-0.54,0.359-1.12,0.67-1.729,0.92c-0.601,0.25-1.23,0.439-1.87,0.569  C495.24,203.201,494.58,203.261,493.93,203.261z"/>
<path style="fill:#54E3EA;" d="M406.572,381.606c-10.156-19.513-23.993-36.806-40.593-50.953  c-12.292-10.478-26.11-19.229-41.063-25.887c-30.883,8.213-65.693,0.587-65.693,0.587s-1.309-5.98-2.258-15.174  c-0.322-0.002-0.642-0.012-0.965-0.012s-0.643,0.013-0.966,0.015c-0.95,9.192-2.258,15.172-2.258,15.172s-34.768,7.617-65.636-0.572  c-36.084,16.043-65.541,44.295-83.1,79.524c-7.916,15.874-13.421,33.168-16.024,51.4c23.854,22.318,52.157,39.932,83.426,51.379  c20.728,7.585,42.758,12.461,65.663,14.199c6.23,0.47,12.535,0.715,18.894,0.715c32.005,0,62.58-6.113,90.616-17.23  c28.879-11.447,55.059-28.197,77.366-49.064C421.23,416.438,415.224,398.217,406.572,381.606z"/>
<path style="fill:#59C671;" d="M156.761,288.342c31.211,31.212,96.016,17.011,96.016,17.011s14.201-64.805-17.011-96.017  c-31.211-31.212-96.015-17.011-96.015-17.011S125.55,257.131,156.761,288.342z"/>
<path style="fill:#D3E567;" d="M319.378,134.4c-0.133,49.978-63.579,90.523-63.378,90.671c0.185-0.14-63.251-40.691-63.378-90.671  C192.495,84.324,256,43.729,256,43.729S319.511,84.324,319.378,134.4z"/>
<path d="M256,100.351c-0.65,0-1.311-0.06-1.95-0.189c-0.64-0.13-1.27-0.32-1.88-0.57c-0.601-0.25-1.18-0.56-1.72-0.92  c-0.551-0.37-1.061-0.78-1.52-1.25c-0.46-0.46-0.88-0.97-1.24-1.521c-0.37-0.54-0.67-1.119-0.92-1.72  c-0.25-0.61-0.45-1.24-0.58-1.87c-0.13-0.65-0.19-1.31-0.19-1.96c0-2.63,1.069-5.21,2.93-7.069c0.46-0.461,0.97-0.881,1.52-1.24  c0.54-0.36,1.119-0.67,1.72-0.92c0.61-0.25,1.24-0.44,1.88-0.57c1.28-0.26,2.61-0.26,3.9,0c0.64,0.13,1.27,0.32,1.869,0.57  c0.61,0.25,1.19,0.56,1.73,0.92c0.55,0.359,1.06,0.779,1.52,1.24c1.861,1.859,2.931,4.439,2.931,7.069c0,0.65-0.07,1.311-0.2,1.96  c-0.13,0.63-0.32,1.26-0.57,1.87c-0.25,0.601-0.56,1.18-0.92,1.72c-0.359,0.551-0.779,1.061-1.24,1.521  c-0.46,0.47-0.97,0.88-1.52,1.25c-0.54,0.36-1.12,0.67-1.73,0.92c-0.6,0.25-1.229,0.44-1.869,0.57  C257.31,100.291,256.649,100.351,256,100.351z"/>
<path style="fill:#007177;" d="M423.983,435.705c-22.307,20.868-48.487,37.617-77.366,49.064l-0.971-19.043  c-0.992-2.977-3.115-5.43-5.932-6.839l-12.727-6.369c-31.183-2.411-26.511-60.597-19.363-87.897  c2.038-7.809,10.711-11.799,17.987-8.3l47.687,22.948c1.621,0,27.62,7.212,33.275,2.336  C415.224,398.217,421.23,416.438,423.983,435.705z"/>
<path style="fill:#59C671;" d="M355.239,288.342c-31.211,31.212-96.016,17.011-96.016,17.011s-14.201-64.805,17.011-96.017  c31.211-31.212,96.015-17.011,96.015-17.011S386.45,257.131,355.239,288.342z"/>
<path d="M259.224,315.353c-2.56,0-5.118-0.977-7.071-2.929c-3.905-3.905-3.905-10.237,0-14.143l50.284-50.285  c3.906-3.904,10.236-3.904,14.143,0c3.905,3.905,3.905,10.237,0,14.143l-50.284,50.285  C264.342,314.376,261.783,315.353,259.224,315.353z"/>
<path style="fill:#007177;" d="M212.26,429.774c-19.224,0-25.305-15.864-32.282-17.934c-5.217-1.547-9.42-5.398-11.436-10.434  c-0.875-2.176-1.28-4.406-1.28-6.593c0-7.788,5.185-15.032,13.229-17.208c6.305-1.696,12.877-2.603,17.293-0.939l6.123,2.304  c1.216,0.469,2.507,0.725,3.819,0.725c2.368,0,4.598-0.8,6.39-2.166c1.792-1.366,3.147-3.307,3.766-5.601l10.498-38.481  c0.672-2.464,2.262-4.587,4.438-5.91l8.204-5.014c2.977-1.824,4.801-5.068,4.801-8.556v-2.038c0-1.547-0.363-3.083-1.056-4.47  l-0.341-0.682c-12.168,1.724-35.68,3.733-57.285-1.998c-36.084,16.043-65.541,44.295-83.1,79.524l2.88,0.725  c10.434,2.614,19.864,8.257,27.087,16.237c3.798,4.171,6.881,8.887,9.196,13.954c2.304,5.068,3.841,10.498,4.502,16.088  l2.368,19.769c0,0,5.345,13.634,11.895,16.899c1.195,0.598,2.23,1.419,3.094,2.4c0.854,0.981,1.515,2.145,1.931,3.403l4.449,13.304  c20.728,7.585,42.758,12.461,65.663,14.199c7.233-19.875,13.773-37.841,13.773-37.841c3.232-8.876,3.681-18.83-0.128-27.471  C246.132,425.475,212.26,429.774,212.26,429.774z"/>
<path d="M511.145,234.921c-0.447-5.503-5.257-9.595-10.778-9.155c-5.504,0.448-9.604,5.273-9.155,10.778  c0.523,6.434,0.789,12.979,0.789,19.452c0,58.935-22.363,116.022-61.894,159.304c-3.388-13.249-8.292-26.077-14.665-38.314  c-0.002-0.004-0.004-0.007-0.006-0.01c-10.75-20.651-25.208-38.797-42.969-53.933c-7.491-6.385-15.488-12.107-23.887-17.165  c4.939-2.857,9.573-6.307,13.73-10.465c34.68-34.681,20.334-102.364,19.707-105.229c-0.836-3.813-3.815-6.792-7.628-7.628  c-1.846-0.403-30.612-6.501-60.116-1.507c8.846-13.879,15.059-29.653,15.104-46.623c0.146-54.938-65.21-97.346-67.992-99.124  c-3.283-2.1-7.488-2.1-10.771,0c-2.782,1.778-68.133,44.185-67.992,99.123c0.043,16.98,6.237,32.748,15.065,46.617  c-29.491-4.983-58.232,1.111-60.077,1.514c-3.813,0.836-6.792,3.814-7.628,7.628c-0.627,2.864-14.973,70.548,19.707,105.229  c4.163,4.163,8.802,7.616,13.746,10.474c-29.188,17.58-53.039,43.248-68.344,73.955v0.001c0,0,0,0.001-0.001,0.001l0,0  c-5.662,11.354-10.07,23.221-13.194,35.448C42.364,372.007,20,314.923,20,255.996C20,125.869,125.869,20.003,256,20.003  c87.663,0,167.631,48.166,208.697,125.702c0.675,1.272,1.337,2.552,1.99,3.842c1.592,3.143,3.141,6.381,4.603,9.627  c2.27,5.034,8.191,7.275,13.226,5.008c5.035-2.27,7.277-8.191,5.009-13.227c-1.587-3.52-3.268-7.034-4.994-10.443  c-0.708-1.397-1.428-2.788-2.159-4.169C437.829,52.245,351.089,0.003,256,0.003c-68.38,0-132.667,26.627-181.019,74.977  S0,187.616,0,255.996c0,36.07,7.356,70.948,21.864,103.666c14.01,31.594,33.965,59.632,59.311,83.336  c0.004,0.003,0.007,0.007,0.01,0.01c17.764,16.619,37.486,30.433,58.87,41.294c9.029,4.586,18.348,8.657,27.951,12.172  c4.115,1.506,8.267,2.904,12.452,4.194c18.133,5.59,36.878,9.143,55.891,10.586c0.004,0,0.008,0,0.011,0  c6.539,0.493,13.146,0.743,19.639,0.743c32.565,0,64.292-6.034,94.301-17.933c1.862-0.738,3.713-1.497,5.554-2.277  c0.8-0.339,1.589-0.697,2.385-1.043c1.035-0.451,2.074-0.893,3.102-1.357c0.895-0.404,1.779-0.828,2.669-1.242  c0.918-0.427,1.841-0.845,2.754-1.283c0.893-0.429,1.775-0.877,2.662-1.316c0.897-0.444,1.8-0.877,2.692-1.331  c0.919-0.468,1.827-0.956,2.74-1.435c0.847-0.444,1.701-0.879,2.543-1.333c0.922-0.497,1.833-1.014,2.748-1.522  c0.823-0.456,1.651-0.903,2.468-1.368c0.9-0.512,1.788-1.045,2.681-1.568c0.821-0.481,1.647-0.952,2.463-1.442  c0.883-0.531,1.755-1.082,2.632-1.623c0.813-0.502,1.632-0.996,2.44-1.507c0.87-0.551,1.728-1.122,2.592-1.684  c0.802-0.522,1.609-1.034,2.406-1.565c0.868-0.579,1.724-1.177,2.585-1.767c0.779-0.533,1.563-1.057,2.336-1.6  c0.861-0.603,1.709-1.226,2.562-1.841c0.761-0.548,1.528-1.087,2.284-1.644c0.859-0.633,1.706-1.285,2.558-1.929  c0.737-0.558,1.48-1.107,2.212-1.673c0.851-0.658,1.689-1.335,2.532-2.005c0.72-0.571,1.445-1.134,2.159-1.713  c0.855-0.694,1.697-1.406,2.543-2.111c0.688-0.573,1.383-1.138,2.066-1.719c0.861-0.732,1.708-1.483,2.561-2.228  c0.656-0.573,1.319-1.138,1.97-1.719c0.865-0.771,1.717-1.561,2.573-2.345c0.587-0.537,1.181-1.064,1.764-1.608  c0.099-0.084,0.194-0.171,0.289-0.26c25.351-23.705,45.309-51.748,59.318-83.348C504.646,326.946,512,292.068,512,255.996  C512,248.983,511.712,241.893,511.145,234.921z M374.531,389.712c10.991,2.423,19.772,3.871,26.585,3.527  c0.435,0.944,0.864,1.89,1.28,2.841c0.21,0.481,0.43,0.957,0.635,1.44c0.738,1.734,1.447,3.478,2.121,5.233  c0.097,0.251,0.183,0.506,0.278,0.758c0.568,1.503,1.116,3.013,1.638,4.531c0.203,0.591,0.393,1.187,0.589,1.78  c0.396,1.197,0.782,2.397,1.149,3.603c0.202,0.664,0.397,1.331,0.59,1.998c0.338,1.167,0.662,2.337,0.973,3.512  c0.176,0.664,0.353,1.328,0.52,1.994c0.315,1.256,0.609,2.519,0.894,3.783c0.129,0.573,0.267,1.145,0.39,1.72  c0.392,1.835,0.758,3.676,1.085,5.527c-0.039,0.035-0.076,0.071-0.115,0.105c-0.059,0.053-0.12,0.104-0.179,0.157  c-0.312,0.279-0.63,0.55-0.944,0.827c-0.891,0.787-1.785,1.571-2.686,2.344c-0.323,0.277-0.648,0.55-0.973,0.824  c-0.276,0.234-0.555,0.464-0.832,0.697c-0.716,0.601-1.433,1.202-2.155,1.794c-0.297,0.243-0.594,0.486-0.891,0.728  c-0.424,0.344-0.852,0.683-1.278,1.023c-0.753,0.602-1.505,1.204-2.264,1.797c-0.093,0.073-0.186,0.147-0.279,0.219  c-0.589,0.458-1.183,0.908-1.776,1.36c-0.806,0.615-1.612,1.23-2.425,1.834c-0.64,0.476-1.286,0.944-1.931,1.413  c-0.799,0.581-1.599,1.16-2.404,1.731c-0.664,0.471-1.333,0.934-2.002,1.397c-0.79,0.547-1.581,1.091-2.377,1.628  c-0.019,0.012-0.037,0.025-0.056,0.037c-0.673,0.454-1.348,0.902-2.026,1.348c-0.803,0.529-1.608,1.054-2.417,1.573  c-0.696,0.447-1.395,0.89-2.096,1.329c-0.812,0.509-1.627,1.012-2.445,1.51c-0.707,0.431-1.416,0.861-2.128,1.284  c-0.824,0.49-1.652,0.974-2.482,1.454c-0.715,0.414-1.43,0.827-2.149,1.233c-0.842,0.475-1.689,0.942-2.537,1.407  c-0.716,0.393-1.432,0.787-2.153,1.172c-0.866,0.463-1.737,0.915-2.61,1.368c-0.671,0.348-1.341,0.699-2.016,1.041  c-0.14,0.071-0.281,0.14-0.421,0.211c-0.799,0.403-1.603,0.797-2.407,1.191c-0.53,0.259-1.058,0.521-1.59,0.777  c-0.314,0.151-0.629,0.302-0.944,0.451c-0.466,0.221-0.935,0.435-1.402,0.653l-0.237-4.659c-0.046-0.903-0.215-1.796-0.5-2.653  c-1.844-5.531-5.731-10.014-10.943-12.619l-12.728-6.369c-1.157-0.579-2.415-0.928-3.705-1.028  c-3.725-0.287-6.419-1.865-8.734-5.116c-9.089-12.765-7.972-46.418-1.723-70.285c0.275-1.054,0.986-1.578,1.535-1.832  c0.267-0.123,0.691-0.27,1.209-0.27c0.371,0,0.789,0.075,1.23,0.287l47.688,22.948c1.02,0.491,2.114,0.805,3.235,0.929  C372.662,389.3,373.688,389.526,374.531,389.712z M363.602,200.972c2.401,16.231,6.178,58.688-15.434,80.299  c-6.755,6.754-15.545,11.029-24.935,13.641c-0.298,0.051-0.594,0.113-0.888,0.191c-15.411,4.1-32.184,3.863-44.233,2.806  c-0.002,0-0.005,0-0.008-0.001c-0.493-0.043-0.978-0.088-1.455-0.134c-0.087-0.009-0.172-0.017-0.258-0.026  c-0.661-0.064-1.303-0.131-1.93-0.199c-0.348-0.038-0.695-0.076-1.032-0.115c-0.203-0.023-0.405-0.047-0.604-0.07  c-1.837-0.218-3.505-0.443-4.956-0.658c-0.805-5.444-1.762-13.846-1.866-23.415c0.007-0.999,0.006-2.009-0.005-3.03v-0.037  c0.164-18.376,3.709-40.221,17.306-53.817c0.612-0.612,1.245-1.197,1.889-1.768c0.094-0.085,0.188-0.168,0.282-0.254  C307.65,195.039,347.91,198.65,363.602,200.972z M159.258,405.124c3.123,7.799,9.472,13.674,17.455,16.175  c0.75,0.529,2.291,2.076,3.438,3.227c5.68,5.703,15.188,15.247,32.108,15.247c0.417,0,0.839-0.027,1.253-0.079  c11.395-1.431,24.746-0.858,28.434,1.146c2.177,5.592,2.02,12.362-0.464,19.183l-11.135,30.594c-0.066-0.007-0.131-0.013-0.196-0.02  c-1.908-0.208-3.813-0.444-5.714-0.698c-0.406-0.054-0.812-0.11-1.218-0.166c-1.906-0.265-3.809-0.547-5.706-0.858  c-0.192-0.032-0.384-0.067-0.576-0.099c-1.783-0.297-3.561-0.617-5.335-0.955c-0.353-0.067-0.707-0.132-1.06-0.201  c-1.857-0.362-3.709-0.748-5.557-1.155c-0.381-0.084-0.761-0.171-1.141-0.257c-1.821-0.411-3.637-0.837-5.447-1.291  c-0.097-0.024-0.195-0.047-0.293-0.071c-1.869-0.471-3.731-0.973-5.588-1.49c-0.401-0.112-0.803-0.223-1.203-0.337  c-1.82-0.517-3.634-1.053-5.44-1.614c-0.298-0.093-0.595-0.19-0.893-0.284c-1.676-0.528-3.346-1.074-5.01-1.64  c-0.197-0.067-0.394-0.132-0.591-0.199l-2.889-8.639c-0.837-2.533-2.143-4.83-3.921-6.874c-1.746-1.983-3.808-3.577-6.054-4.696  c-1.597-1.003-4.687-5.933-6.674-10.542l-2.204-18.396c-0.777-6.576-2.571-12.986-5.336-19.067  c-2.774-6.076-6.441-11.639-10.879-16.511c-6.366-7.035-14.123-12.512-22.775-16.138c0.077-0.13,0.155-0.261,0.232-0.391  c0.894-1.494,1.81-2.973,2.751-4.435c0.141-0.219,0.285-0.436,0.427-0.654c0.985-1.513,1.988-3.012,3.022-4.488  c0.05-0.071,0.101-0.141,0.151-0.212c1.036-1.475,2.099-2.93,3.183-4.367c0.103-0.136,0.203-0.274,0.306-0.41  c1.071-1.411,2.169-2.8,3.286-4.173c0.176-0.217,0.352-0.435,0.529-0.651c1.101-1.34,2.223-2.662,3.367-3.965  c0.187-0.213,0.376-0.425,0.564-0.638c1.168-1.317,2.354-2.618,3.564-3.896c0.134-0.141,0.27-0.279,0.404-0.42  c1.268-1.329,2.553-2.64,3.866-3.924c0.011-0.011,0.022-0.023,0.034-0.034c1.307-1.279,2.641-2.529,3.991-3.763  c0.169-0.154,0.336-0.31,0.505-0.464c1.294-1.172,2.609-2.32,3.941-3.45c0.223-0.189,0.445-0.377,0.669-0.565  c1.33-1.116,2.677-2.211,4.043-3.283c0.206-0.162,0.415-0.321,0.622-0.482c1.414-1.099,2.843-2.18,4.295-3.231  c0.093-0.068,0.188-0.133,0.281-0.2c1.454-1.049,2.927-2.073,4.417-3.074c0.123-0.083,0.245-0.168,0.368-0.25  c1.476-0.986,2.973-1.942,4.483-2.879c0.24-0.149,0.48-0.3,0.721-0.448c1.473-0.903,2.962-1.782,4.466-2.638  c0.266-0.152,0.534-0.302,0.801-0.452c1.522-0.855,3.057-1.688,4.608-2.494c0.211-0.109,0.424-0.215,0.635-0.324  c1.635-0.839,3.282-1.658,4.949-2.442c0.929,0.212,1.859,0.411,2.79,0.599c0.466,0.094,0.933,0.179,1.399,0.268  c0.455,0.086,0.91,0.175,1.365,0.256c0.579,0.103,1.158,0.197,1.737,0.292c0.328,0.053,0.657,0.109,0.985,0.159  c0.661,0.103,1.32,0.198,1.979,0.289c0.225,0.031,0.45,0.063,0.674,0.093c0.746,0.1,1.49,0.193,2.233,0.28  c0.085,0.01,0.169,0.02,0.253,0.03c0.101,0.012,0.202,0.023,0.303,0.034c0.652,0.074,1.303,0.145,1.952,0.209  c0.262,0.026,0.523,0.049,0.785,0.074c0.623,0.058,1.244,0.116,1.863,0.165c0.752,0.061,1.501,0.116,2.247,0.166  c0.239,0.016,0.476,0.029,0.714,0.043c0.722,0.044,1.441,0.084,2.156,0.118c0.143,0.007,0.285,0.013,0.427,0.02  c2.541,0.114,5.038,0.169,7.464,0.169c3.207,0,6.294-0.09,9.222-0.24l-1.056,0.645c-4.381,2.663-7.539,6.862-8.892,11.823  l-10.506,38.512c-0.01,0.036-0.04,0.148-0.171,0.248c-0.072,0.055-0.188,0.12-0.329,0.12c-0.008,0-0.081-0.002-0.298-0.085  l-6.12-2.304c-5.896-2.219-13.555-2.012-23.43,0.645c-12.139,3.284-20.617,14.329-20.617,26.861  C157.262,398.357,157.935,401.83,159.258,405.124z M141.179,462.246c-0.931-0.519-1.86-1.04-2.783-1.572  c-0.739-0.425-1.474-0.857-2.208-1.291c-0.914-0.54-1.826-1.084-2.733-1.636c-0.73-0.445-1.458-0.894-2.183-1.347  c-0.9-0.562-1.797-1.129-2.689-1.703c-0.718-0.462-1.435-0.928-2.149-1.397c-0.89-0.587-1.775-1.181-2.658-1.779  c-0.703-0.477-1.404-0.955-2.102-1.44c-0.882-0.613-1.759-1.235-2.633-1.86c-0.686-0.491-1.372-0.981-2.053-1.479  c-0.877-0.641-1.747-1.293-2.615-1.947c-0.665-0.501-1.332-1-1.993-1.509c-0.875-0.674-1.742-1.36-2.609-2.047  c-0.642-0.509-1.287-1.014-1.924-1.53c-0.882-0.714-1.754-1.441-2.627-2.169c-0.608-0.507-1.221-1.008-1.825-1.522  c-0.903-0.768-1.795-1.552-2.688-2.334c-0.563-0.493-1.13-0.978-1.689-1.477c-0.093-0.083-0.183-0.169-0.276-0.252  c2.167-12.284,5.788-24.22,10.76-35.647c6.53,2.479,12.373,6.455,17.113,11.693c3.059,3.36,5.581,7.189,7.487,11.362  c1.902,4.185,3.139,8.6,3.676,13.138l2.368,19.769c0.101,0.843,0.309,1.67,0.618,2.46c0.738,1.881,2.42,5.825,4.929,9.965  c-0.762-0.403-1.527-0.804-2.285-1.215C142.662,463.073,141.921,462.659,141.179,462.246z M256.009,55.917  c14.548,10.628,53.465,42.438,53.369,78.457c-0.076,28.696-25.106,55.019-43.378,70.418v-77.506c0-5.522-4.478-10-10-10  c-5.523,0-10,4.478-10,10v77.531c-18.284-15.385-43.305-41.684-43.378-70.443C202.53,98.461,241.477,66.564,256.009,55.917z   M148.408,200.903c19.451-2.977,57.236-4.341,77.867,13.289c0.508,0.463,1.016,0.921,1.521,1.373  c0.299,0.281,0.607,0.552,0.898,0.842c13.535,13.535,17.112,35.244,17.306,53.566v0.287c-0.011,1.03-0.012,2.048-0.005,3.055  c-0.042,3.772-0.215,7.355-0.461,10.652l-35.971-35.972c-3.905-3.902-10.235-3.904-14.143,0c-3.905,3.905-3.905,10.237,0,14.143  l35.971,35.972c-3.355,0.25-7.004,0.426-10.848,0.463c-0.268,0.002-0.534,0.005-0.803,0.006c-0.079,0-0.158,0-0.237,0.001  c-0.11,0-0.221-0.001-0.331-0.001c-0.393,0-0.787-0.001-1.184-0.004c-0.128-0.001-0.256-0.002-0.384-0.004  c-0.465-0.005-0.932-0.012-1.401-0.022c-0.149-0.003-0.298-0.006-0.447-0.01c-0.451-0.011-0.904-0.023-1.359-0.038  c-0.171-0.006-0.343-0.012-0.515-0.018c-0.439-0.016-0.88-0.034-1.322-0.054c-0.189-0.009-0.378-0.018-0.567-0.028  c-0.427-0.021-0.855-0.044-1.284-0.07c-0.211-0.013-0.422-0.026-0.634-0.04c-0.411-0.026-0.824-0.054-1.237-0.085  c-0.231-0.017-0.462-0.036-0.693-0.054c-0.397-0.032-0.795-0.064-1.193-0.1c-0.25-0.022-0.5-0.047-0.751-0.071  c-0.383-0.036-0.766-0.073-1.15-0.113c-0.268-0.028-0.537-0.059-0.806-0.089c-0.367-0.041-0.734-0.082-1.101-0.126  c-0.289-0.035-0.578-0.074-0.868-0.111c-0.351-0.045-0.701-0.09-1.052-0.139c-0.307-0.043-0.615-0.089-0.923-0.135  c-0.332-0.049-0.665-0.097-0.997-0.149c-0.337-0.053-0.674-0.111-1.011-0.167c-0.303-0.051-0.607-0.1-0.91-0.153  c-0.37-0.065-0.74-0.136-1.11-0.206c-0.271-0.051-0.543-0.1-0.814-0.153c-0.403-0.079-0.806-0.165-1.208-0.25  c-0.239-0.05-0.478-0.097-0.717-0.149c-0.478-0.104-0.955-0.216-1.431-0.328c-0.161-0.038-0.322-0.073-0.483-0.111  c-0.641-0.154-1.28-0.316-1.917-0.485c-0.294-0.078-0.591-0.14-0.889-0.191c-9.408-2.611-18.218-6.887-24.984-13.654  C142.188,259.627,146.009,217.074,148.408,200.903z M251.147,491.946l9.128-25.081c4.382-12.033,4.249-24.437-0.371-34.92  c-5.44-12.364-23.827-12.847-29.868-13.006c-8.242-0.214-15.955,0.56-18.313,0.828c-8.268-0.186-12.707-4.643-17.402-9.355  c-3.3-3.313-6.713-6.739-11.502-8.16c-2.283-0.677-4.104-2.34-4.998-4.573c-0.371-0.923-0.559-1.887-0.559-2.865  c0-3.519,2.401-6.625,5.827-7.552c8.336-2.242,11.058-1.279,11.172-1.236l6.044,2.274c2.4,0.927,4.897,1.397,7.422,1.397  c4.464,0,8.885-1.496,12.45-4.212c3.577-2.726,6.191-6.615,7.352-10.923l10.504-38.491l7.967-4.868v1.641c0,5.522,4.477,10,10,10  c5.522,0,10-4.478,10-10v-16.173c6.44,0.926,15.834,1.917,26.542,1.917c1.581,0,3.193-0.024,4.826-0.071  c0.048-0.001,0.097-0.003,0.145-0.005c0.776-0.023,1.557-0.052,2.343-0.086c0.262-0.011,0.524-0.023,0.788-0.036  c0.563-0.028,1.128-0.059,1.695-0.093c0.367-0.022,0.732-0.042,1.101-0.066c0.29-0.019,0.582-0.043,0.873-0.064  c1.17-0.085,2.347-0.184,3.53-0.298c0.085-0.008,0.169-0.016,0.254-0.024c0.741-0.073,1.483-0.153,2.228-0.238  c0.007-0.001,0.014-0.002,0.021-0.003c4.497-0.515,9.055-1.253,13.581-2.292c12.812,6.033,24.763,13.744,35.566,22.953  c11.668,9.943,21.725,21.349,30.039,34.029c-2.874-0.482-6.376-1.159-10.695-2.112c-1.019-0.226-1.814-0.4-2.475-0.535  l-46.418-22.337c-6.178-2.973-13.291-3.024-19.514-0.144c-6.207,2.874-10.758,8.317-12.48,14.923  c-5.313,20.289-11.15,64.57,4.781,86.943c5.314,7.464,12.672,12.007,21.376,13.227l11.135,5.572  c0.196,0.099,0.371,0.229,0.518,0.385l0.498,9.773c-25.67,9.291-52.631,14.01-80.258,14.01  C254.389,491.999,252.77,491.979,251.147,491.946z"/>
<g>
</g>
<g>
</g>
<g>
</g>
<g>
</g>
<g>
</g>
<g>
</g>
<g>
</g>
<g>
</g>
<g>
</g>
<g>
</g>
<g>
</g>
<g>
</g>
<g>
</g>
<g>
</g>
<g>
</g>
</svg>
