<?xml version="1.0" encoding="iso-8859-1"?>
<!-- Generator: Adobe Illustrator 19.0.0, SVG Export Plug-In . SVG Version: 6.00 Build 0)  -->
<svg xmlns="http://www.w3.org/2000/svg" xmlns:xlink="http://www.w3.org/1999/xlink" version="1.1" id="Capa_1" x="0px" y="0px" viewBox="0 0 512.001 512.001" style="enable-background:new 0 0 512.001 512.001;" xml:space="preserve">
<path style="fill:#D3E567;" d="M357.294,166.873c0,80.032-101.293,144.911-101.293,144.911s-101.292-64.879-101.292-144.911  S256.001,21.962,256.001,21.962S357.294,86.841,357.294,166.873z"/>
<path style="fill:#59C671;" d="M469.594,402.768c-49.883,49.883-153.455,27.186-153.455,27.186S293.444,326.383,343.325,276.5  c49.883-49.883,153.455-27.186,153.455-27.186S519.477,352.887,469.594,402.768z"/>
<path style="fill:#54E3EA;" d="M367.814,378.28L367.814,378.28c-14.261-14.261-14.261-37.383,0-51.644l22.673-22.673l51.644,51.644  l-22.673,22.673C405.197,392.541,382.075,392.541,367.814,378.28z"/>
<path style="fill:#59C671;" d="M42.41,402.768c49.883,49.883,153.455,27.186,153.455,27.186S218.56,326.383,168.678,276.5  c-49.883-49.883-153.455-27.186-153.455-27.186S-7.473,352.887,42.41,402.768z"/>
<path style="fill:#54E3EA;" d="M144.189,378.28L144.189,378.28c14.261-14.261,14.261-37.383,0-51.644l-22.672-22.672l-51.644,51.644  l22.673,22.673C106.805,392.541,129.928,392.541,144.189,378.28z"/>
<path d="M256.001,98.475c-0.65,0-1.31-0.07-1.949-0.2c-0.64-0.12-1.27-0.319-1.879-0.569c-0.6-0.25-1.18-0.551-1.72-0.92  c-0.55-0.36-1.06-0.78-1.52-1.24c-0.46-0.46-0.88-0.97-1.24-1.521c-0.36-0.54-0.67-1.12-0.92-1.729  c-0.25-0.601-0.45-1.23-0.57-1.869c-0.13-0.64-0.2-1.3-0.2-1.949c0-0.649,0.07-1.31,0.2-1.949c0.12-0.64,0.32-1.27,0.57-1.869  c0.25-0.609,0.56-1.19,0.92-1.729c0.36-0.55,0.78-1.061,1.24-1.521c0.46-0.46,0.97-0.88,1.52-1.239c0.54-0.36,1.12-0.67,1.72-0.92  c0.61-0.25,1.24-0.45,1.879-0.57c1.29-0.26,2.609-0.26,3.909,0c0.63,0.12,1.26,0.32,1.869,0.57c0.6,0.25,1.18,0.56,1.72,0.92  c0.55,0.359,1.06,0.779,1.52,1.239c0.46,0.46,0.88,0.971,1.24,1.521c0.37,0.54,0.67,1.12,0.92,1.729  c0.25,0.601,0.45,1.23,0.57,1.869c0.13,0.641,0.2,1.301,0.2,1.949c0,0.65-0.07,1.311-0.2,1.949c-0.12,0.64-0.32,1.27-0.57,1.869  c-0.25,0.609-0.55,1.189-0.92,1.729c-0.36,0.551-0.78,1.061-1.24,1.521c-0.46,0.46-0.97,0.88-1.52,1.24  c-0.54,0.369-1.12,0.67-1.73,0.92c-0.6,0.25-1.23,0.449-1.869,0.569C257.311,98.405,256.651,98.475,256.001,98.475z"/>
<path d="M506.545,247.174c-0.835-3.812-3.813-6.79-7.625-7.626c-4.448-0.974-109.525-23.256-162.664,29.883  c-46.931,46.931-35.036,134.358-30.944,157.212l-39.314,39.313V317.113c20.606-14.256,101.292-74.9,101.292-150.239  c0-84.529-101.574-150.56-105.898-153.33c-3.286-2.105-7.498-2.105-10.784,0c-4.324,2.769-105.898,68.801-105.898,153.33  c0,75.34,80.687,135.982,101.292,150.239v148.845l-39.314-39.313c4.092-22.855,15.986-110.282-30.944-157.212  c-53.139-53.138-158.217-30.855-162.664-29.883c-3.813,0.836-6.79,3.813-7.625,7.626C4.481,251.622-17.8,356.7,35.339,409.839h0.001  c28.571,28.57,72.153,35.338,107.039,35.338c22.41,0,41.227-2.793,50.174-4.394l56.326,56.325c1.951,1.951,4.511,2.928,7.069,2.928  c0.009,0,0.019-0.001,0.028-0.001s0.018,0.001,0.026,0.001c0.009,0,0.018-0.001,0.026-0.001c0.009,0,0.018,0.001,0.028,0.001  c2.558,0,5.118-0.977,7.069-2.928l56.326-56.325c8.944,1.601,27.76,4.394,50.174,4.394c34.884,0,78.472-6.77,107.039-35.338h0.001  C529.802,356.699,507.52,251.621,506.545,247.174z M164.706,166.873c0-63.335,70.956-118.328,91.301-132.791  c20.364,14.449,91.289,69.342,91.289,132.791c0,55.258-54.011,104.165-81.298,125.345v-38.453l44.742-44.742  c3.904-3.904,3.904-10.234,0-14.139c-3.904-3.903-10.234-3.903-14.139,0l-30.603,30.603v-37.75l44.742-44.742  c3.904-3.904,3.904-10.234,0-14.139c-3.904-3.903-10.234-3.903-14.139,0l-30.603,30.603v-35.963c0-5.52-4.476-9.997-9.997-9.997  c-5.521,0-9.997,4.477-9.997,9.997v35.963l-30.603-30.603c-3.904-3.903-10.234-3.903-14.139,0c-3.904,3.904-3.904,10.234,0,14.139  l44.742,44.742v37.751l-30.603-30.603c-3.904-3.903-10.234-3.903-14.139,0c-3.904,3.904-3.904,10.234,0,14.139l44.742,44.742v38.474  C218.716,271.094,164.706,222.243,164.706,166.873z M49.478,395.7L49.478,395.7c-38.595-38.596-29.412-115.156-25.67-137.8  c22.655-3.743,99.207-12.923,137.799,25.67c33.204,33.204,31.046,94.505,27.412,125.403l-31.459-31.459  c4.76-7.413,7.322-16.035,7.322-25.056c0-12.425-4.839-24.105-13.624-32.891l-15.887-15.886c2.093-3.799,1.537-8.668-1.685-11.889  c-3.904-3.903-10.234-3.903-14.138,0l-4.979,4.979l-17.504-17.505c-3.904-3.902-10.234-3.903-14.138,0  c-3.904,3.904-3.905,10.234-0.001,14.139l17.504,17.505l-23.615,23.615l-17.505-17.505c-3.905-3.902-10.234-3.903-14.138,0  c-3.904,3.904-3.905,10.234,0,14.139l17.505,17.506l-4.979,4.979c-3.904,3.904-3.904,10.234,0,14.139  c1.951,1.951,4.511,2.928,7.069,2.928c1.663,0,3.323-0.42,4.82-1.245l15.885,15.885c8.786,8.786,20.467,13.624,32.891,13.624  c9.02,0,17.642-2.562,25.055-7.321l31.476,31.476C144.024,426.788,82.759,428.981,49.478,395.7z M102.764,336.855l18.753-18.753  l15.604,15.603c5.01,5.01,7.768,11.669,7.768,18.753s-2.758,13.743-7.768,18.753h-0.001c-5.009,5.01-11.669,7.769-18.753,7.769  s-13.744-2.759-18.753-7.769l-15.603-15.603L102.764,336.855z M462.525,395.7c-33.205,33.205-94.505,31.045-125.403,27.411  l31.459-31.459c7.413,4.76,16.035,7.321,25.055,7.321c12.424,0,24.105-4.839,32.891-13.624l15.886-15.885  c1.497,0.825,3.156,1.245,4.82,1.245c2.558,0,5.118-0.977,7.069-2.928c3.904-3.904,3.905-10.234,0-14.139l-4.979-4.979  l17.505-17.506c3.904-3.904,3.904-10.234,0-14.139c-3.904-3.903-10.234-3.903-14.138,0l-17.505,17.505l-23.615-23.615l17.504-17.505  c3.904-3.904,3.904-10.234,0-14.139c-3.904-3.903-10.234-3.903-14.138,0l-17.504,17.505l-4.979-4.979  c-3.904-3.902-10.234-3.903-14.138,0c-3.221,3.221-3.778,8.09-1.685,11.889l-15.886,15.886  c-8.786,8.786-13.624,20.466-13.624,32.891c0,9.02,2.562,17.643,7.322,25.056l-31.459,31.459  c-3.634-30.901-5.791-92.201,27.412-125.403c38.596-38.595,115.156-29.411,137.799-25.67  C491.938,280.554,501.117,357.107,462.525,395.7z M390.486,318.102l18.753,18.753l18.753,18.753l-15.604,15.603  c-5.009,5.01-11.669,7.769-18.753,7.769s-13.744-2.759-18.753-7.769h-0.001c-5.01-5.01-7.768-11.669-7.768-18.753  s2.758-13.743,7.768-18.753L390.486,318.102z"/>
<g>
</g>
<g>
</g>
<g>
</g>
<g>
</g>
<g>
</g>
<g>
</g>
<g>
</g>
<g>
</g>
<g>
</g>
<g>
</g>
<g>
</g>
<g>
</g>
<g>
</g>
<g>
</g>
<g>
</g>
</svg>
