<?xml version="1.0" encoding="iso-8859-1"?>
<!-- Generator: Adobe Illustrator 19.0.0, SVG Export Plug-In . SVG Version: 6.00 Build 0)  -->
<svg xmlns="http://www.w3.org/2000/svg" xmlns:xlink="http://www.w3.org/1999/xlink" version="1.1" id="Capa_1" x="0px" y="0px" viewBox="0 0 512 512" style="enable-background:new 0 0 512 512;" xml:space="preserve">
<path style="fill:#007177;" d="M136.852,311.96h-5.32c-18.349,0-33.224-14.875-33.224-33.224v-10.663h71.768v10.663  C170.076,297.085,155.201,311.96,136.852,311.96z"/>
<path style="fill:#54E3EA;" d="M194.049,268.073H74.335c-22.603,0-40.926-18.323-40.926-40.926V122.545h201.566v104.602  C234.975,249.75,216.652,268.073,194.049,268.073z"/>
<rect x="10" y="72.78" style="fill:#007177;" width="248.38" height="49.764"/>
<path d="M199.26,184.2c-0.65,0-1.31-0.07-1.95-0.2c-0.64-0.13-1.27-0.32-1.88-0.57c-0.6-0.25-1.18-0.56-1.72-0.92  c-0.55-0.36-1.06-0.78-1.52-1.24s-0.88-0.97-1.24-1.52c-0.36-0.54-0.67-1.12-0.92-1.73c-0.25-0.6-0.45-1.23-0.57-1.87  c-0.13-0.64-0.2-1.3-0.2-1.949c0-0.65,0.07-1.311,0.2-1.96c0.12-0.631,0.32-1.261,0.57-1.87c0.25-0.601,0.56-1.181,0.92-1.721  c0.36-0.55,0.78-1.06,1.24-1.52c1.86-1.86,4.44-2.93,7.07-2.93s5.21,1.069,7.07,2.93c0.46,0.46,0.88,0.97,1.24,1.52  c0.36,0.54,0.67,1.12,0.92,1.721c0.25,0.609,0.45,1.239,0.57,1.87c0.13,0.649,0.2,1.31,0.2,1.96c0,0.649-0.07,1.31-0.2,1.949  c-0.12,0.641-0.32,1.271-0.57,1.87c-0.25,0.61-0.56,1.191-0.92,1.73c-0.36,0.55-0.78,1.06-1.24,1.52s-0.97,0.88-1.52,1.24  c-0.54,0.36-1.12,0.67-1.73,0.92c-0.6,0.25-1.23,0.44-1.87,0.57S199.91,184.2,199.26,184.2z"/>
<path style="fill:#59C671;" d="M353.1,395.49c0-58.824,74.45-106.51,74.45-106.51S502,336.667,502,395.491  C502,454.314,427.55,502,427.55,502S353.1,454.314,353.1,395.49z"/>
<path d="M290.63,324.479c-0.65,0-1.311-0.069-1.95-0.199c-0.64-0.12-1.27-0.32-1.87-0.57c-0.609-0.25-1.189-0.561-1.729-0.92  c-0.55-0.36-1.061-0.78-1.521-1.24s-0.88-0.97-1.24-1.52c-0.359-0.54-0.67-1.12-0.92-1.721c-0.25-0.609-0.439-1.24-0.569-1.88  s-0.2-1.3-0.2-1.95c0-0.649,0.07-1.31,0.2-1.949c0.13-0.641,0.319-1.271,0.569-1.881c0.25-0.6,0.561-1.18,0.92-1.72  c0.36-0.55,0.78-1.06,1.24-1.52s0.971-0.88,1.521-1.24c0.54-0.36,1.12-0.67,1.729-0.92c0.601-0.25,1.23-0.45,1.87-0.57  c3.25-0.66,6.7,0.41,9.021,2.73c0.46,0.46,0.88,0.97,1.25,1.52c0.359,0.54,0.67,1.12,0.92,1.72c0.25,0.61,0.44,1.24,0.569,1.881  c0.13,0.64,0.19,1.3,0.19,1.949c0,0.65-0.061,1.311-0.19,1.95c-0.13,0.64-0.319,1.271-0.569,1.88c-0.25,0.601-0.56,1.181-0.92,1.721  c-0.37,0.55-0.79,1.06-1.25,1.52s-0.971,0.88-1.521,1.24c-0.54,0.359-1.12,0.67-1.72,0.92c-0.61,0.25-1.24,0.45-1.87,0.57  C291.939,324.41,291.28,324.479,290.63,324.479z"/>
<path d="M437.55,283.684v-52.226c0-43.262-35.196-78.458-78.459-78.458c-43.262,0-78.458,35.196-78.458,78.458v42.209  c0,5.523,4.478,10,10,10c5.523,0,10-4.477,10-10v-42.209c0-32.233,26.225-58.458,58.459-58.458  c32.233,0,58.458,26.225,58.458,58.458v52.226c-17.029,11.982-74.45,56.49-74.45,111.806c0,63.563,75.828,112.863,79.057,114.931  c1.643,1.053,3.518,1.579,5.393,1.579s3.75-0.526,5.394-1.579C436.171,508.353,512,459.054,512,395.49  C512,340.174,454.579,295.666,437.55,283.684z M427.55,489.826c-16.396-11.891-64.45-50.491-64.45-94.336  c0-36.818,33.882-69.933,54.45-86.643v64.07l-30.94,31.364c-3.879,3.932-3.835,10.263,0.097,14.142  c1.948,1.922,4.485,2.881,7.022,2.881c2.581,0,5.162-0.994,7.119-2.978l16.702-16.93v19.132c0,5.522,4.478,10,10,10s10-4.478,10-10  v-35.8v-22.853l20.044,20.044c1.953,1.952,4.512,2.929,7.071,2.929c2.56,0,5.118-0.977,7.071-2.929  c3.905-3.905,3.905-10.237,0-14.143L437.55,333.59v-24.742C458.12,325.559,492,358.674,492,395.49  C492,439.339,443.939,477.94,427.55,489.826z"/>
<path d="M290.633,346.137c-5.522,0-10,4.478-10,10v49.804c0,37.617-30.604,68.221-68.22,68.221  c-37.617,0-68.221-30.604-68.221-68.221v-84.616c20.348-3.497,35.884-21.256,35.884-42.588v-0.663h13.973  c28.081,0,50.926-22.846,50.926-50.927v-94.602h13.409c5.522,0,10-4.478,10-10V72.781c0-5.523-4.478-10-10-10h-37.938V10  c0-5.523-4.477-10-10-10s-10,4.477-10,10v52.781H67.938V10c0-5.523-4.477-10-10-10s-10,4.477-10,10v52.781H10  c-5.523,0-10,4.477-10,10v49.764c0,5.522,4.477,10,10,10h13.409v94.602c0,28.081,22.845,50.927,50.926,50.927h13.973v0.663  c0,21.331,15.536,39.09,35.884,42.587v84.617c0,48.646,39.576,88.221,88.221,88.221s88.22-39.575,88.22-88.221v-49.804  C300.633,350.614,296.155,346.137,290.633,346.137z M20,82.781h228.384v29.764h-13.409H33.409H20V82.781z M43.409,227.146v-42.947  h120.822c5.523,0,10-4.478,10-10s-4.477-10-10-10H43.409v-31.654h181.566v94.602c0,17.053-13.874,30.927-30.926,30.927h-23.973  H98.308H74.335C57.283,258.073,43.409,244.199,43.409,227.146z M108.308,278.736v-0.663h51.768v0.663  c0,12.806-10.418,23.224-23.224,23.224h-5.32C118.726,301.96,108.308,291.542,108.308,278.736z"/>
<g>
</g>
<g>
</g>
<g>
</g>
<g>
</g>
<g>
</g>
<g>
</g>
<g>
</g>
<g>
</g>
<g>
</g>
<g>
</g>
<g>
</g>
<g>
</g>
<g>
</g>
<g>
</g>
<g>
</g>
</svg>
