<?xml version="1.0" encoding="iso-8859-1"?>
<!-- Generator: Adobe Illustrator 19.0.0, SVG Export Plug-In . SVG Version: 6.00 Build 0)  -->
<svg xmlns="http://www.w3.org/2000/svg" xmlns:xlink="http://www.w3.org/1999/xlink" version="1.1" id="Capa_1" x="0px" y="0px" viewBox="0 0 512 512" style="enable-background:new 0 0 512 512;" xml:space="preserve">
<path style="fill:#D3E567;" d="M296.19,10h-80.38c-11.093,0-21.46,5.514-27.661,14.712L97.648,158.954  c-4.833,7.169-7.415,15.618-7.415,24.264v297.617c0,11.689,9.476,21.165,21.165,21.165H400.6c11.689,0,21.165-9.476,21.165-21.165  V183.217c0-8.646-2.582-17.095-7.415-24.263L323.851,24.712C317.65,15.514,307.283,10,296.19,10z M256,143.4  c-25.138,0-45.517-20.379-45.517-45.517c0-25.139,20.379-45.517,45.517-45.517s45.517,20.379,45.517,45.517S281.138,143.4,256,143.4  z"/>
<path d="M371.49,184.87c-0.65,0-1.31-0.07-1.95-0.2c-0.64-0.13-1.27-0.32-1.87-0.57c-0.61-0.25-1.19-0.56-1.73-0.92  c-0.55-0.36-1.06-0.78-1.52-1.24s-0.88-0.979-1.25-1.52c-0.36-0.55-0.67-1.13-0.92-1.73c-0.24-0.6-0.44-1.229-0.56-1.87  c-0.13-0.649-0.2-1.3-0.2-1.949c0-0.66,0.07-1.311,0.2-1.96c0.12-0.641,0.32-1.271,0.56-1.87c0.25-0.6,0.56-1.181,0.92-1.73  c0.37-0.54,0.79-1.06,1.25-1.52s0.97-0.88,1.52-1.24c0.54-0.36,1.12-0.67,1.72-0.92c0.61-0.25,1.24-0.44,1.87-0.57  c3.25-0.649,6.71,0.41,9.03,2.73c0.46,0.46,0.88,0.98,1.24,1.52c0.36,0.55,0.67,1.13,0.92,1.73c0.25,0.6,0.44,1.23,0.57,1.87  c0.13,0.649,0.2,1.3,0.2,1.96c0,0.649-0.07,1.3-0.2,1.949c-0.13,0.641-0.32,1.27-0.57,1.87c-0.25,0.6-0.56,1.181-0.92,1.73  c-0.36,0.54-0.78,1.06-1.24,1.52C376.7,183.8,374.12,184.87,371.49,184.87z"/>
<path d="M422.643,153.364l-90.5-134.243C324.07,7.148,310.629,0,296.19,0h-80.379c-14.44,0-27.88,7.148-35.953,19.122  L89.357,153.364c-5.969,8.854-9.123,19.177-9.123,29.854v297.616c0,17.185,13.981,31.166,31.165,31.166h289.202  c17.184,0,31.165-13.981,31.165-31.166V183.218C431.767,172.541,428.612,162.218,422.643,153.364z M411.767,480.834  c0,6.157-5.009,11.166-11.165,11.166H111.399c-6.157,0-11.165-5.009-11.165-11.166V184.866h236.168c5.523,0,10-4.477,10-10  c0-5.522-4.477-10-10-10H105.74c0.07-0.106,0.129-0.217,0.2-0.322l90.5-134.241C200.79,23.852,208.031,20,215.811,20h80.379  c7.779,0,15.02,3.852,19.37,10.302l90.5,134.242c3.733,5.538,5.707,11.995,5.707,18.674V480.834z"/>
<path d="M256,42.365c-30.612,0-55.517,24.905-55.517,55.518S225.388,153.4,256,153.4s55.518-24.904,55.518-55.517  S286.612,42.365,256,42.365z M256,133.399c-19.584,0-35.517-15.933-35.517-35.517S236.416,62.365,256,62.365  c19.585,0,35.518,15.934,35.518,35.518S275.585,133.399,256,133.399z"/>
<path style="fill:#54E3EA;" d="M270.692,366.989l22.526,22.527l-6.391,3.533c-9.548,5.279-20.365,8.068-31.283,8.068  c-16.872,0-32.655-6.49-44.46-18.295l-0.199-0.201c-9.614-9.708-15.878-22.325-17.862-35.56l-48.454,7.176  c3.502,23.788,14.445,45.696,31.689,62.94c21.223,21.222,49.487,32.909,79.587,32.909h0.317c24.781-0.068,48.32-7.974,68.073-22.861  l3.815-2.876l22.288,22.286l13.845-93.495L270.692,366.989z"/>
<path d="M255.845,460.088c-32.77,0-63.546-12.727-86.658-35.838c-18.732-18.732-30.666-42.439-34.512-68.555  c-0.804-5.461,2.969-10.541,8.429-11.349l48.454-7.177c5.459-0.807,10.537,2.954,11.354,8.41  c1.684,11.231,7.038,21.888,15.078,30.005l0.19,0.192c9.883,9.883,23.162,15.34,37.363,15.34c7.194,0,14.336-1.433,20.958-4.176  l-12.88-12.881c-2.672-2.672-3.609-6.622-2.424-10.209c1.186-3.588,4.292-6.201,8.03-6.754l93.492-13.849  c3.132-0.465,6.298,0.583,8.536,2.821c2.239,2.238,3.285,5.404,2.821,8.536l-13.845,93.495c-0.554,3.737-3.167,6.845-6.754,8.03  c-3.588,1.185-7.538,0.247-10.209-2.424l-16.184-16.183c-20.823,14.704-45.249,22.492-70.895,22.563h-0.344V460.088z   M156.395,362.596c4.45,17.952,13.647,34.226,26.935,47.512c19.334,19.333,45.087,29.98,72.516,29.98h0.317  c22.573-0.063,44.04-7.271,62.054-20.848l3.816-2.876c3.981-2.998,9.565-2.609,13.089,0.915l8.236,8.235l8.96-60.507l-60.504,8.962  l8.475,8.476c2.221,2.222,3.27,5.358,2.831,8.469c-0.439,3.11-2.314,5.834-5.063,7.354l-6.391,3.533  c-11.024,6.094-23.515,9.315-36.122,9.315c-19.543,0-37.844-7.537-51.531-21.224l-0.225-0.227  c-8.652-8.736-15.032-19.619-18.489-31.352L156.395,362.596z"/>
<path style="fill:#007177;" d="M256.456,270.504c16.872,0,32.653,6.489,44.449,18.284l0.21,0.212  c9.632,9.726,15.899,22.346,17.871,35.558l48.445-7.175c-3.502-23.787-14.444-45.695-31.689-62.94  c-21.224-21.222-49.489-32.909-79.588-32.909h-0.317c-24.779,0.068-48.318,7.973-68.073,22.86l-3.815,2.876l-22.288-22.286  l-13.845,93.495l93.493-13.846l-22.526-22.528l6.391-3.533C234.719,273.294,245.537,270.504,256.456,270.504z"/>
<path d="M318.974,334.56c-4.871,0-9.138-3.564-9.878-8.524c-1.673-11.212-7.031-21.865-15.086-29.998l-0.208-0.211  c-9.869-9.868-23.144-15.321-37.345-15.321c-7.195,0-14.337,1.433-20.958,4.176l12.88,12.881c2.672,2.672,3.609,6.622,2.423,10.209  c-1.186,3.588-4.292,6.201-8.03,6.755l-93.492,13.847c-3.13,0.462-6.298-0.583-8.536-2.821c-2.239-2.238-3.285-5.404-2.821-8.536  l13.845-93.495c0.553-3.737,3.167-6.844,6.754-8.03c3.588-1.186,7.538-0.247,10.209,2.424l16.184,16.183  c20.823-14.704,45.248-22.49,70.895-22.562h0.344c32.77,0,63.545,12.728,86.659,35.838c18.732,18.733,30.666,42.439,34.511,68.554  c0.804,5.461-2.968,10.54-8.428,11.349l-48.445,7.176C319.955,334.524,319.461,334.56,318.974,334.56z M256.456,260.505  c19.543,0,37.84,7.533,51.52,21.212l0.243,0.245c8.658,8.741,15.04,19.624,18.495,31.343l28.892-4.279  c-4.45-17.95-13.647-34.224-26.934-47.511c-19.335-19.333-45.089-29.98-72.517-29.98h-0.317  c-22.574,0.063-44.042,7.271-62.055,20.847l-3.815,2.875c-3.981,3.002-9.564,2.612-13.09-0.914l-8.236-8.235l-8.96,60.507  l60.504-8.961l-8.475-8.476c-2.221-2.222-3.27-5.358-2.831-8.469c0.439-3.11,2.314-5.834,5.064-7.355l6.391-3.533  C231.357,263.727,243.848,260.505,256.456,260.505z"/>
<g>
</g>
<g>
</g>
<g>
</g>
<g>
</g>
<g>
</g>
<g>
</g>
<g>
</g>
<g>
</g>
<g>
</g>
<g>
</g>
<g>
</g>
<g>
</g>
<g>
</g>
<g>
</g>
<g>
</g>
</svg>
