<?xml version="1.0" encoding="iso-8859-1"?>
<!-- Generator: Adobe Illustrator 19.0.0, SVG Export Plug-In . SVG Version: 6.00 Build 0)  -->
<svg xmlns="http://www.w3.org/2000/svg" xmlns:xlink="http://www.w3.org/1999/xlink" version="1.1" id="Capa_1" x="0px" y="0px" viewBox="0 0 511.999 511.999" style="enable-background:new 0 0 511.999 511.999;" xml:space="preserve">
<g>
	<path style="fill:#59C671;" d="M308.13,94.987c-26.73,26.73-82.229,14.568-82.229,14.568s-12.162-55.5,14.568-82.229   c26.73-26.73,82.229-14.568,82.229-14.568S334.86,68.258,308.13,94.987z"/>
	<path style="fill:#59C671;" d="M452.986,211.081c-35.26,35.26-108.472,19.217-108.472,19.217s-16.043-73.211,19.217-108.472   s108.472-19.217,108.472-19.217S488.246,175.82,452.986,211.081z"/>
</g>
<polygon style="fill:#FF8C5A;" points="178.756,286.331 145.649,85.369 79.437,85.369 46.33,286.331 "/>
<rect x="31.069" y="286.331" style="fill:#F4BA64;" width="449.853" height="215.671"/>
<polygon style="fill:#FF8C5A;" points="302.74,286.331 283.306,155.841 217.093,155.841 197.659,286.331 "/>
<rect x="347.191" y="377.402" style="fill:#007177;" width="76.869" height="73.53"/>
<path d="M424.065,460.929h-76.869c-5.522,0-10-4.478-10-10v-73.527c0-5.522,4.478-10,10-10h76.869c5.522,0,10,4.478,10,10v73.527  C434.065,456.451,429.588,460.929,424.065,460.929z M357.195,440.929h56.869v-53.527h-56.869V440.929z"/>
<rect x="217.56" y="377.402" style="fill:#007177;" width="76.869" height="73.53"/>
<path d="M294.434,460.929h-76.869c-5.522,0-10-4.478-10-10v-73.527c0-5.522,4.478-10,10-10h76.869c5.522,0,10,4.478,10,10v73.527  C304.434,456.451,299.957,460.929,294.434,460.929z M227.565,440.929h56.869v-53.527h-56.869L227.565,440.929L227.565,440.929z"/>
<rect x="87.94" y="377.402" style="fill:#007177;" width="76.869" height="73.53"/>
<path d="M164.803,460.929H87.934c-5.522,0-10-4.478-10-10v-73.527c0-5.522,4.478-10,10-10h76.869c5.522,0,10,4.478,10,10v73.527  C174.803,456.451,170.326,460.929,164.803,460.929z M97.934,440.929h56.869v-53.527H97.934V440.929z"/>
<path d="M437.201,342.338c-2.641,0-5.21-1.06-7.07-2.92c-0.46-0.47-0.88-0.98-1.25-1.52c-0.36-0.55-0.66-1.13-0.91-1.73  c-0.25-0.61-0.45-1.23-0.57-1.87c-0.13-0.65-0.199-1.31-0.199-1.96s0.069-1.31,0.199-1.95c0.12-0.64,0.311-1.27,0.561-1.87  c0.25-0.609,0.56-1.189,0.92-1.729c0.37-0.55,0.79-1.061,1.25-1.521c1.86-1.859,4.43-2.93,7.07-2.93c2.63,0,5.21,1.07,7.069,2.93  c0.46,0.46,0.88,0.971,1.24,1.521c0.36,0.54,0.67,1.13,0.92,1.729c0.25,0.601,0.44,1.23,0.57,1.87c0.13,0.641,0.2,1.3,0.2,1.95  c0,0.65-0.07,1.31-0.2,1.96c-0.13,0.64-0.32,1.26-0.57,1.87c-0.25,0.6-0.56,1.18-0.92,1.73c-0.36,0.54-0.78,1.051-1.24,1.52  C442.411,341.279,439.831,342.338,437.201,342.338z"/>
<path d="M218.755,126.702c2.559,0,5.118-0.977,7.071-2.929l3.443-3.443c5.488,0.872,14.554,1.983,25.113,1.983  c19.637,0,44.414-3.85,60.819-20.254c30.25-30.251,17.809-88.958,17.265-91.442c-0.836-3.813-3.815-6.792-7.628-7.628  c-2.483-0.544-61.191-12.984-91.442,17.265c-25.228,25.228-20.765,70.238-18.271,85.934l-3.443,3.443  c-3.905,3.905-3.905,10.237,0,14.143C213.636,125.725,216.195,126.702,218.755,126.702z M247.541,34.397  c17.644-17.643,52.214-14.98,66.55-12.958c2.506,17.361,3.326,50.12-13.031,66.477c-13.503,13.504-36.915,15.11-53.59,14.214  l45.279-45.279c3.905-3.905,3.905-10.237,0-14.143c-3.906-3.904-10.236-3.904-14.142,0l-45.316,45.316  C232.432,70.329,234.658,47.279,247.541,34.397z"/>
<path d="M333.712,226.957l-5.696,5.696c-3.905,3.905-3.905,10.237,0,14.143c1.953,1.952,4.512,2.929,7.071,2.929  c2.559,0,5.118-0.977,7.071-2.929l5.695-5.695c6.88,1.162,19.498,2.864,34.352,2.864c25.256,0,56.964-4.927,77.85-25.813  c38.683-38.684,22.616-114.476,21.914-117.684c-0.836-3.813-3.814-6.792-7.628-7.628c-3.208-0.702-78.999-16.77-117.684,21.914  C323.49,147.926,330.576,208.377,333.712,226.957z M370.802,128.897c25.263-25.264,75.025-20.375,92.782-17.657  c2.742,17.751,7.668,67.432-17.67,92.769c-20.636,20.636-57.608,21.154-80.139,19.17l35.681-35.681l36.722-0.25  c5.523-0.038,9.969-4.545,9.932-10.068c-0.038-5.5-4.507-9.932-9.999-9.932c-0.022,0-0.046,0-0.069,0l-16.447,0.112l8.842-8.843  c3.905-3.905,3.905-10.237,0-14.143c-3.906-3.904-10.236-3.904-14.143,0l-32.558,32.558v-20.353c0-5.522-4.478-10-10-10  s-10,4.478-10,10v40.353l-12.103,12.103C349.649,186.501,350.17,149.53,370.802,128.897z"/>
<path d="M480.925,276.331H311.36l-18.163-121.963c-0.73-4.9-4.937-8.527-9.891-8.527h-66.213c-4.954,0-9.161,3.627-9.891,8.527  l-18.163,121.963h-1.795L155.516,83.745c-0.796-4.831-4.972-8.375-9.867-8.375H79.437c-4.896,0-9.071,3.544-9.867,8.375  L37.842,276.331h-6.768c-5.522,0-10,4.478-10,10v215.668c0,5.522,4.478,10,10,10h449.851c5.522,0,10-4.478,10-10V286.331  C490.925,280.809,486.447,276.331,480.925,276.331z M225.715,165.841h48.971l16.455,110.49h-81.881L225.715,165.841z M87.925,95.37  h49.237l29.811,180.962H58.113L87.925,95.37z M470.925,491.999H41.074V342.342h361.096c5.522,0,10-4.478,10-10  c0-5.523-4.478-10-10-10H41.074v-26.011h5.256h132.426h18.903H302.74h168.185L470.925,491.999L470.925,491.999z"/>
<g>
</g>
<g>
</g>
<g>
</g>
<g>
</g>
<g>
</g>
<g>
</g>
<g>
</g>
<g>
</g>
<g>
</g>
<g>
</g>
<g>
</g>
<g>
</g>
<g>
</g>
<g>
</g>
<g>
</g>
</svg>
