<?xml version="1.0" encoding="iso-8859-1"?>
<!-- Generator: Adobe Illustrator 19.0.0, SVG Export Plug-In . SVG Version: 6.00 Build 0)  -->
<svg xmlns="http://www.w3.org/2000/svg" xmlns:xlink="http://www.w3.org/1999/xlink" version="1.1" id="Capa_1" x="0px" y="0px" viewBox="0 0 511.997 511.997" style="enable-background:new 0 0 511.997 511.997;" xml:space="preserve">
<path style="fill:#007177;" d="M258.717,312.451h-5.437c-18.349,0-33.224-14.875-33.224-33.224v-10.734h71.885v10.734  C291.941,297.577,277.066,312.451,258.717,312.451z"/>
<path style="fill:#54E3EA;" d="M316.019,268.493H195.978c-22.603,0-40.926-18.323-40.926-40.926V122.728h201.894v104.839  C356.945,250.17,338.622,268.493,316.019,268.493z"/>
<rect x="131.599" y="72.884" style="fill:#007177;" width="248.79" height="49.845"/>
<path d="M321.168,184.469c-0.65,0-1.31-0.07-1.95-0.2c-0.64-0.13-1.27-0.32-1.87-0.57s-1.19-0.56-1.73-0.92  c-0.55-0.36-1.06-0.78-1.52-1.24s-0.88-0.97-1.24-1.52c-0.36-0.54-0.67-1.12-0.92-1.73c-0.25-0.6-0.44-1.23-0.57-1.87  s-0.2-1.3-0.2-1.95c0-0.66,0.07-1.31,0.2-1.96c0.13-0.64,0.32-1.26,0.57-1.87c0.25-0.6,0.56-1.18,0.92-1.72  c0.36-0.55,0.78-1.06,1.24-1.52c0.461-0.46,0.97-0.88,1.52-1.25c0.54-0.36,1.13-0.67,1.73-0.92s1.23-0.44,1.87-0.57  c1.29-0.26,2.62-0.26,3.91,0c0.64,0.13,1.27,0.32,1.87,0.57s1.18,0.56,1.73,0.92c0.54,0.37,1.05,0.79,1.52,1.25  c0.46,0.46,0.87,0.97,1.24,1.52c0.36,0.54,0.67,1.12,0.92,1.72c0.25,0.61,0.44,1.23,0.57,1.87c0.13,0.65,0.19,1.3,0.19,1.96  c0,0.65-0.06,1.31-0.19,1.95s-0.32,1.27-0.57,1.87c-0.25,0.61-0.56,1.19-0.92,1.73c-0.37,0.55-0.78,1.06-1.24,1.52  c-0.47,0.46-0.98,0.88-1.52,1.24c-0.55,0.36-1.13,0.67-1.73,0.92s-1.23,0.44-1.87,0.57  C322.478,184.399,321.829,184.469,321.168,184.469z"/>
<path style="fill:#59C671;" d="M388.467,460.626c-41.662,41.662-128.166,22.706-128.166,22.706  c-0.006-0.033-18.961-86.534,22.706-128.166c41.68-41.644,128.166-22.706,128.166-22.706S430.13,418.964,388.467,460.626z"/>
<path style="fill:#D3E567;" d="M123.53,460.626c41.662,41.662,128.166,22.706,128.166,22.706s18.956-86.504-22.706-128.166  S100.824,332.46,100.824,332.46S81.867,418.964,123.53,460.626z"/>
<path d="M420.942,330.319c-0.836-3.814-3.815-6.793-7.629-7.628c-3.749-0.82-92.344-19.59-137.373,25.401  c-3.744,3.741-7.035,7.794-9.941,12.074v-38.341c20.377-3.473,35.942-21.247,35.942-42.598v-0.734h14.079  c28.081,0,50.926-22.845,50.926-50.926v-94.839h13.447c5.523,0,10-4.477,10-10V72.884c0-5.523-4.477-10-10-10h-38.016V10  c0-5.523-4.477-10-10-10s-10,4.477-10,10v52.884H189.621V10c0-5.523-4.477-10-10-10s-10,4.477-10,10v52.884h-38.016  c-5.523,0-10,4.477-10,10v49.844c0,5.523,4.477,10,10,10h13.447v94.839c0,28.081,22.845,50.926,50.926,50.926h14.079v0.734  c0,21.351,15.566,39.125,35.942,42.598v38.326c-2.906-4.269-6.197-8.316-9.938-12.057c-45.014-45.012-133.628-26.226-137.378-25.403  c-3.813,0.835-6.792,3.814-7.628,7.627c-0.822,3.75-19.609,92.366,25.403,137.378c24.254,24.254,61.158,29.983,90.632,29.983  c16.45,0,30.582-1.786,38.908-3.134v7.452c0,5.523,4.477,10,10,10s10-4.477,10-10v-7.452c8.325,1.348,22.455,3.134,38.908,3.134  c29.473,0,66.381-5.732,90.632-29.983C440.551,422.685,421.764,334.07,420.942,330.319z M141.604,82.884h228.788v29.844h-13.447  H155.052h-13.447L141.604,82.884L141.604,82.884z M165.052,227.567v-43.1h121.035c5.523,0,10-4.477,10-10s-4.477-10-10-10H165.052  v-31.739h181.894v94.839c0,17.053-13.873,30.926-30.926,30.926h-24.079h-71.885h-24.079  C178.925,258.493,165.052,244.62,165.052,227.567z M230.056,279.228v-0.734h51.885v0.734c0,12.806-10.418,23.224-23.224,23.224  h-5.438C240.474,302.451,230.056,292.033,230.056,279.228z M130.601,453.555c-31.073-31.072-24.356-92.492-21.168-112.497  c20.003-3.211,81.335-9.971,112.486,21.179c26.231,26.231,25.532,74.088,22.759,100.4l-62.235-57.618  c-4.052-3.753-10.379-3.509-14.131,0.544s-3.508,10.38,0.544,14.132l61.276,56.731C203.667,479.143,156.613,479.568,130.601,453.555  z M381.396,453.555c-26.092,26.093-73.579,25.538-99.977,22.802l45.406-45.406l44.134-0.301c5.522-0.038,9.969-4.545,9.931-10.068  c-0.037-5.5-4.507-9.932-9.998-9.932c-0.023,0-0.047,0-0.07,0l-23.859,0.163l13.578-13.578c3.905-3.905,3.905-10.237,0-14.142  s-10.237-3.905-14.143,0l-41.569,41.569V396.23c0-5.523-4.477-10-10-10s-10,4.477-10,10v48.432l-17.535,17.535  c-2.718-26.432-3.249-73.948,22.782-99.957c31.082-31.055,92.475-24.357,112.49-21.171  C405.756,361.096,412.46,422.492,381.396,453.555z"/>
<g>
</g>
<g>
</g>
<g>
</g>
<g>
</g>
<g>
</g>
<g>
</g>
<g>
</g>
<g>
</g>
<g>
</g>
<g>
</g>
<g>
</g>
<g>
</g>
<g>
</g>
<g>
</g>
<g>
</g>
</svg>
