<?xml version="1.0" encoding="iso-8859-1"?>
<!-- Generator: Adobe Illustrator 19.0.0, SVG Export Plug-In . SVG Version: 6.00 Build 0)  -->
<svg xmlns="http://www.w3.org/2000/svg" xmlns:xlink="http://www.w3.org/1999/xlink" version="1.1" id="Capa_1" x="0px" y="0px" viewBox="0 0 512.004 512.004" style="enable-background:new 0 0 512.004 512.004;" xml:space="preserve">
<path d="M383.111,264.523c-0.649,0-1.3-0.06-1.949-0.19c-0.641-0.13-1.271-0.32-1.87-0.57c-0.6-0.25-1.181-0.56-1.73-0.92  c-0.54-0.37-1.05-0.78-1.51-1.25c-0.47-0.46-0.89-0.97-1.25-1.52c-0.36-0.54-0.67-1.12-0.92-1.72s-0.44-1.23-0.57-1.87  c-0.13-0.65-0.2-1.3-0.2-1.96c0-0.65,0.07-1.31,0.2-1.95s0.32-1.27,0.57-1.87s0.56-1.19,0.92-1.73c0.36-0.54,0.78-1.06,1.25-1.52  c0.46-0.46,0.97-0.88,1.51-1.24c0.55-0.36,1.13-0.67,1.73-0.92s1.23-0.44,1.87-0.57c3.25-0.66,6.699,0.41,9.029,2.73  c0.46,0.46,0.87,0.98,1.24,1.52c0.36,0.55,0.67,1.13,0.92,1.73s0.44,1.23,0.57,1.87s0.2,1.3,0.2,1.95c0,0.66-0.07,1.31-0.2,1.96  c-0.13,0.64-0.32,1.27-0.57,1.87s-0.56,1.18-0.92,1.72c-0.37,0.55-0.78,1.06-1.24,1.52  C388.321,263.463,385.752,264.523,383.111,264.523z"/>
<path style="fill:#D3E567;" d="M340.538,282.954c0,66.793-84.536,120.939-84.536,120.939s-84.536-54.146-84.536-120.939  s84.536-120.939,84.536-120.939S340.538,216.161,340.538,282.954z"/>
<path style="fill:#007177;" d="M463.086,201.406l-13.342-4.765c-3.582-11.705-8.21-22.95-13.75-33.647  c-0.344-0.664-0.678-1.333-1.03-1.992l23.763-50.169l0,0l0.391-0.825l-57.909-56.693l-0.036-0.036h-0.001l0,0l-50.169,23.763  c-0.941-0.5-1.892-0.983-2.842-1.468c-8.111-4.152-16.536-7.772-25.234-10.817c-2.501-0.876-5.019-1.716-7.564-2.495l-1.411-3.95  L296.7,10.003h-81.396l0,0h-0.001l-12.687,35.523l-5.977,16.734c-2.131,0.652-4.241,1.351-6.341,2.071  c-8.594,2.946-16.932,6.443-24.961,10.469c-0.025,0.012-0.05,0.024-0.075,0.036c-0.019,0.01-0.037,0.02-0.056,0.029  c-1.411,0.709-2.814,1.433-4.206,2.174l-50.168-23.762l0,0l-0.826-0.391l-56.717,57.933l-0.013,0.013l0,0l0,0l23.763,50.169  c-1.658,3.117-3.228,6.286-4.725,9.496c-3.249,6.964-6.121,14.138-8.573,21.506c-0.512,1.538-1.006,3.084-1.481,4.638l-2.248,0.803  l-50.01,17.86V296.7l0,0l0,0l35.285,12.603l16.973,6.062c0.72,2.353,1.496,4.682,2.299,6.998c0.787,2.272,1.601,4.531,2.466,6.765  c0.583,1.504,1.183,2.999,1.8,4.485c2.469,5.945,5.213,11.747,8.215,17.391l-23.763,50.168l0,0l0,0l34.584,34.584l22.971,22.971  l14.531-6.883c0.003-0.001,0.005-0.002,0.008-0.003l35.63-16.877c4.836,2.573,9.795,4.943,14.854,7.125  c6.749,2.912,13.68,5.48,20.786,7.654l3.294,9.222l15.37,43.036h0.001h81.396h0.001l13.485-37.76l5.178-14.497  c4.568-1.398,9.065-2.956,13.489-4.663c7.615-2.937,15.01-6.319,22.15-10.117l50.169,23.763l0,0l0,0l10.971-10.971l46.585-46.584  l-6.884-14.534c-0.001-0.002-0.001-0.003-0.002-0.005l-16.877-35.63c2.252-4.233,4.358-8.555,6.312-12.96  c0.651-1.468,1.285-2.945,1.903-4.432c2.469-5.945,4.663-12.033,6.565-18.248l12.711-4.54l39.546-14.124l0,0v-81.396l0,0  L463.086,201.406z M378.849,367.591c-1.786,1.965-3.618,3.887-5.495,5.764c-2.815,2.816-5.732,5.53-8.743,8.139  c-29.108,25.214-67.077,40.47-108.609,40.47c-31.507,0-60.964-8.78-86.057-24.027c-2.281-1.386-4.526-2.826-6.734-4.317  c-1.569-1.06-3.112-2.156-4.642-3.267c-1.232-0.895-2.45-1.806-3.656-2.733c-1.306-1.005-2.599-2.025-3.874-3.067  c-0.359-0.294-0.718-0.588-1.074-0.884c-5.97-4.965-11.591-10.335-16.811-16.078c-0.893-0.982-1.774-1.976-2.643-2.979  c-25.214-29.108-40.47-67.077-40.47-108.609c0-34.372,10.449-66.303,28.343-92.79c1.06-1.569,2.156-3.112,3.267-4.642  c0.895-1.232,1.806-2.45,2.733-3.656c1.005-1.306,2.025-2.599,3.067-3.874c0.294-0.359,0.587-0.718,0.884-1.074  c2.417-2.906,4.926-5.733,7.532-8.467c0.916-0.961,1.843-1.911,2.782-2.849c3.937-3.937,8.075-7.671,12.39-11.198  c1.275-1.042,2.568-2.062,3.874-3.067c1.206-0.927,2.424-1.839,3.656-2.733c1.53-1.112,3.073-2.207,4.642-3.267  c26.488-17.895,58.419-28.344,92.79-28.344c49.964,0,94.768,22.082,125.193,57.016c1.14,1.309,2.258,2.638,3.357,3.982  c1.042,1.275,2.062,2.568,3.067,3.874c0.927,1.206,1.839,2.424,2.733,3.656c1.112,1.53,2.207,3.073,3.267,4.642  c1.491,2.207,2.931,4.452,4.317,6.734c15.246,25.093,24.027,54.549,24.027,86.057C421.963,298.967,405.636,338.119,378.849,367.591z  "/>
<path d="M505.364,205.886l-47.601-17c-3.185-9.562-7.091-18.971-11.651-28.062l22.044-46.539c1.825-3.854,1.005-8.441-2.042-11.424  l-57.966-56.748c-2.992-2.914-7.48-3.661-11.257-1.873l-45.712,21.651c-8.068-4.047-16.454-7.601-24.948-10.575  c-1.071-0.375-2.107-0.73-3.11-1.066L306.117,6.64c-1.421-3.98-5.191-6.637-9.417-6.637l-81.396,0.001  c-4.227,0-7.996,2.657-9.417,6.637l-17.006,47.612c-0.586,0.197-1.192,0.402-1.826,0.62c-8.978,3.078-17.788,6.773-26.175,10.977  l-0.072,0.035L114.289,43.85c-3.855-1.827-8.445-1.008-11.429,2.041l-56.656,57.871c-2.988,2.989-3.775,7.533-1.966,11.352  l21.647,45.701c-0.891,1.779-1.771,3.603-2.635,5.455c-3.438,7.371-6.467,14.966-8.999,22.577c-0.005,0.013-0.01,0.027-0.014,0.04  l-47.6,16.999C2.658,207.307,0,211.077,0,215.303V296.7c0,4.226,2.656,7.996,6.637,9.418l47.615,17.005  c0.271,0.809,0.557,1.646,0.857,2.513c0.925,2.668,1.772,4.993,2.59,7.101c0.611,1.58,1.242,3.15,1.891,4.711  c1.925,4.635,4.034,9.241,6.294,13.748l-21.645,45.696c-1.81,3.819-1.023,8.364,1.966,11.352l57.556,57.555  c2.987,2.988,7.53,3.775,11.353,1.966l14.437-6.839c0.034-0.016,0.067-0.031,0.101-0.047l31.162-14.76  c3.597,1.799,7.307,3.524,11.08,5.152c5.597,2.415,11.293,4.59,16.993,6.491l17.001,47.603c1.421,3.98,5.19,6.637,9.417,6.637  h81.396c4.227,0,7.996-2.657,9.417-6.637l17.001-47.601c3.124-1.04,6.249-2.163,9.334-3.353c6.353-2.451,12.639-5.232,18.742-8.291  l45.697,21.645c3.819,1.809,8.363,1.021,11.352-1.966l57.556-57.555c2.988-2.989,3.775-7.533,1.966-11.353l-6.855-14.473  c-0.011-0.022-0.021-0.043-0.031-0.065l-14.758-31.158c1.506-3.003,2.944-6.047,4.297-9.096c0.684-1.541,1.349-3.091,1.997-4.652  c1.949-4.694,3.742-9.496,5.351-14.329l47.6-17.001c3.98-1.421,6.637-5.191,6.637-9.417v-81.396  C512.001,211.078,509.343,207.308,505.364,205.886z M492.001,289.653l-45.62,16.293c-2.976,1.063-5.274,3.47-6.199,6.491  c-1.788,5.844-3.888,11.678-6.238,17.339c-0.586,1.412-1.188,2.817-1.808,4.212c-1.843,4.154-3.861,8.298-6.001,12.319  c-1.484,2.791-1.561,6.12-0.208,8.977l16.842,35.558c0.013,0.026,0.024,0.052,0.037,0.078l3.867,8.164l-47.589,47.589  l-43.801-20.747c-2.857-1.353-6.186-1.275-8.977,0.209c-6.787,3.61-13.87,6.846-21.052,9.615c-4.235,1.633-8.548,3.124-12.817,4.431  c-3.022,0.925-5.429,3.224-6.492,6.2l-16.292,45.62H222.35l-16.292-45.621c-1.063-2.976-3.47-5.275-6.492-6.2  c-6.601-2.02-13.246-4.467-19.75-7.273c-4.876-2.104-9.627-4.382-14.119-6.772c-2.791-1.484-6.12-1.563-8.976-0.209l-35.53,16.829  c-0.036,0.017-0.073,0.034-0.109,0.051l-8.161,3.866l-47.59-47.589l20.747-43.8c1.354-2.857,1.276-6.186-0.209-8.978  c-2.853-5.361-5.479-10.922-7.808-16.529c-0.586-1.412-1.156-2.832-1.712-4.266c-0.73-1.886-1.497-3.987-2.342-6.425  c-0.859-2.48-1.574-4.656-2.186-6.651c-0.925-3.021-3.223-5.427-6.198-6.489l-45.621-16.292v-67.302l45.619-16.292  c2.977-1.063,5.275-3.47,6.2-6.492c0.452-1.477,0.921-2.946,1.407-4.406c2.291-6.883,5.032-13.759,8.149-20.438  c1.464-3.14,2.975-6.176,4.49-9.025c1.485-2.791,1.563-6.12,0.209-8.977l-20.78-43.871l46.87-47.874l44.554,21.103  c2.858,1.354,6.189,1.276,8.978-0.21c1.322-0.704,2.653-1.391,3.98-2.057c0.02-0.01,0.041-0.021,0.064-0.032  c0.028-0.014,0.056-0.028,0.077-0.038c7.602-3.812,15.583-7.159,23.721-9.949c2.316-0.794,4.231-1.42,6.025-1.968  c3.021-0.925,5.429-3.223,6.491-6.199l16.295-45.623h67.302l16.292,45.62c1.063,2.976,3.47,5.274,6.491,6.199  c2.22,0.68,4.571,1.455,7.188,2.371c8.18,2.863,16.248,6.322,23.984,10.282l0.418,0.213c0.764,0.39,1.526,0.779,2.282,1.181  c2.792,1.484,6.118,1.56,8.975,0.208l43.872-20.78l47.875,46.87l-21.104,44.553c-1.354,2.859-1.276,6.191,0.212,8.984  c0.202,0.38,0.398,0.763,0.595,1.146l0.381,0.741c5.326,10.286,9.723,21.044,13.067,31.976c0.925,3.021,3.224,5.428,6.199,6.491  l13.342,4.765L492,222.35L492.001,289.653L492.001,289.653z"/>
<path d="M401.907,157.616c-1.01-1.495-2.11-3.059-3.463-4.922c-0.938-1.292-1.913-2.597-2.9-3.88c-1.147-1.49-2.21-2.833-3.25-4.104  c-1.205-1.474-2.402-2.894-3.558-4.22c-33.459-38.416-81.838-60.449-132.734-60.449c-35.26,0-69.282,10.394-98.388,30.057  c-1.501,1.014-3.064,2.114-4.924,3.464c-1.305,0.948-2.595,1.913-3.877,2.898c-1.472,1.133-2.814,2.195-4.104,3.25  c-4.585,3.748-9.003,7.741-13.132,11.87c-0.994,0.994-1.976,2-2.947,3.019c-2.715,2.847-5.4,5.866-7.979,8.967  c-0.316,0.379-0.629,0.761-0.942,1.145c-1.04,1.271-2.102,2.614-3.255,4.11c-0.981,1.278-1.948,2.569-2.896,3.874  c-1.353,1.863-2.453,3.428-3.461,4.92c-19.664,29.105-30.058,63.128-30.058,98.389c0,42.314,15.239,83.211,42.911,115.157  c0.921,1.063,1.855,2.115,2.802,3.157c5.492,6.043,11.487,11.777,17.828,17.05l1.13,0.93c1.3,1.062,2.642,2.124,4.106,3.25  c1.277,0.982,2.567,1.947,3.875,2.897c1.856,1.348,3.42,2.449,4.92,3.462c2.331,1.575,4.733,3.114,7.14,4.577  c27.434,16.67,58.988,25.481,91.249,25.481c42.314,0,83.212-15.24,115.157-42.912c3.173-2.749,6.29-5.651,9.268-8.626  c1.978-1.979,3.938-4.034,5.822-6.108h0.001c29.479-32.434,45.713-74.452,45.713-118.314c0-32.262-8.81-63.816-25.48-91.249  C405.028,162.359,403.488,159.957,401.907,157.616z M181.465,282.954c0-51.135,56.581-95.878,74.536-108.786  c17.962,12.914,74.536,57.654,74.536,108.786c0,43.694-41.31,82.718-64.536,101.204v-76.127l35.522-36.009  c3.879-3.932,3.835-10.263-0.097-14.142c-3.932-3.878-10.262-3.836-14.142,0.096l-21.282,21.576v-25.026c0-5.523-4.478-10-10-10  s-10,4.477-10,10v69.869l-25.072-25.072c-3.906-3.905-10.236-3.905-14.143,0c-3.905,3.905-3.905,10.237,0,14.142l39.215,39.214  v31.503C222.776,365.733,181.465,326.756,181.465,282.954z M371.45,360.864c-1.674,1.841-3.412,3.665-5.165,5.418  c-2.641,2.639-5.406,5.214-8.222,7.652c-25.785,22.336-58.154,35.527-92.061,37.703v-2.434  c18.427-12.87,84.536-63.426,84.536-126.249c0-71.441-85.503-127.028-89.143-129.36c-3.287-2.105-7.5-2.105-10.787,0  c-3.64,2.332-89.143,57.918-89.143,129.36c0,24.259,9.863,46.685,23.027,65.824c-28.081-21.687-45.615-55.613-45.615-92.775  c0-64.582,52.542-117.123,117.124-117.123c51.315,0,97.45,34.288,112.193,83.381c1.588,5.29,7.163,8.289,12.453,6.702  c5.29-1.588,8.29-7.164,6.701-12.454c-8.302-27.648-25.625-52.504-48.777-69.991c-23.94-18.081-52.492-27.639-82.57-27.639  c-75.61,0-137.124,61.513-137.124,137.124c0,61.826,41.434,116.041,100.912,132.281c10.97,9.88,20.712,17.078,26.212,20.92v2.432  c-25.086-1.602-49.401-9.203-70.863-22.244c-2.134-1.296-4.263-2.661-6.329-4.058c-1.309-0.884-2.695-1.86-4.361-3.07  c-1.158-0.842-2.306-1.699-3.438-2.57c-1.306-1.004-2.498-1.948-3.637-2.878l-1.015-0.835c-5.618-4.672-10.936-9.758-15.804-15.114  c-0.84-0.924-1.669-1.858-2.486-2.802c-24.522-28.31-38.028-64.557-38.028-102.062c0-31.256,9.208-61.406,26.632-87.195  c0.878-1.301,1.853-2.687,3.07-4.362c0.842-1.159,1.699-2.304,2.566-3.433c1.026-1.333,1.969-2.525,2.882-3.642  c0.275-0.337,0.551-0.672,0.834-1.013c2.296-2.761,4.678-5.439,7.079-7.958c0.861-0.903,1.733-1.797,2.615-2.679  c3.658-3.658,7.577-7.2,11.646-10.525c1.136-0.929,2.329-1.872,3.642-2.883c1.135-0.872,2.282-1.73,3.438-2.57  c1.669-1.212,3.056-2.188,4.364-3.072c25.787-17.421,55.939-26.63,87.192-26.63c45.111,0,87.993,19.531,117.654,53.586  c1.02,1.171,2.082,2.431,3.155,3.743c0.914,1.118,1.856,2.31,2.881,3.641c0.872,1.133,1.728,2.277,2.568,3.435  c1.217,1.675,2.192,3.061,3.072,4.364c1.403,2.078,2.768,4.207,4.058,6.329c14.767,24.303,22.572,52.266,22.572,80.864  C411.962,294.88,397.575,332.121,371.45,360.864z"/>
<g>
</g>
<g>
</g>
<g>
</g>
<g>
</g>
<g>
</g>
<g>
</g>
<g>
</g>
<g>
</g>
<g>
</g>
<g>
</g>
<g>
</g>
<g>
</g>
<g>
</g>
<g>
</g>
<g>
</g>
</svg>
