<?xml version="1.0" encoding="iso-8859-1"?>
<!-- Generator: Adobe Illustrator 19.0.0, SVG Export Plug-In . SVG Version: 6.00 Build 0)  -->
<svg xmlns="http://www.w3.org/2000/svg" xmlns:xlink="http://www.w3.org/1999/xlink" version="1.1" id="Capa_1" x="0px" y="0px" viewBox="0 0 511.999 511.999" style="enable-background:new 0 0 511.999 511.999;" xml:space="preserve">
<g>
	<circle style="fill:#54E3EA;" cx="255.998" cy="255.999" r="130.25"/>
</g>
<path d="M348.998,265.999c-0.65,0-1.31-0.07-1.95-0.2c-0.64-0.12-1.27-0.32-1.87-0.57c-0.61-0.25-1.19-0.56-1.73-0.92  c-0.55-0.359-1.06-0.779-1.52-1.24c-0.46-0.46-0.88-0.97-1.24-1.52c-0.36-0.54-0.67-1.12-0.92-1.73c-0.25-0.6-0.45-1.229-0.57-1.869  c-0.13-0.641-0.2-1.301-0.2-1.95c0-0.65,0.07-1.311,0.2-1.95c0.12-0.64,0.32-1.27,0.57-1.87c0.25-0.61,0.56-1.189,0.92-1.73  c0.36-0.551,0.78-1.061,1.24-1.52c0.46-0.46,0.97-0.88,1.52-1.24c0.54-0.37,1.12-0.67,1.73-0.92c0.6-0.25,1.23-0.45,1.87-0.58  c1.29-0.25,2.62-0.25,3.9,0c0.64,0.13,1.27,0.33,1.88,0.58c0.6,0.25,1.18,0.55,1.72,0.92c0.55,0.36,1.06,0.78,1.52,1.24  s0.88,0.97,1.24,1.52c0.36,0.54,0.67,1.119,0.92,1.73c0.25,0.601,0.45,1.23,0.57,1.87c0.13,0.64,0.2,1.3,0.2,1.95  c0,0.649-0.07,1.31-0.2,1.95c-0.12,0.64-0.32,1.27-0.57,1.869c-0.25,0.61-0.56,1.19-0.92,1.73c-0.36,0.55-0.78,1.06-1.24,1.52  c-0.46,0.461-0.97,0.881-1.52,1.24c-0.54,0.36-1.12,0.67-1.72,0.92c-0.61,0.25-1.24,0.45-1.88,0.57  C350.308,265.929,349.648,265.999,348.998,265.999z"/>
<path style="fill:#54E3EA;" d="M255.998,348.999c-51.28,0-93-41.72-93-93s41.72-93,93-93c36.58,0,68.295,21.229,83.472,52.013  c0.675,1.369,1.317,2.757,1.926,4.162"/>
<g>
	<path style="fill:#59C671;" d="M215.543,67.874c0,31.964,40.455,57.875,40.455,57.875s40.455-25.911,40.455-57.875   S255.998,9.999,255.998,9.999S215.543,35.911,215.543,67.874z"/>
	<path style="fill:#59C671;" d="M296.453,444.124c0-31.964-40.455-57.875-40.455-57.875s-40.455,25.911-40.455,57.875   s40.455,57.875,40.455,57.875S296.453,476.087,296.453,444.124z"/>
	<path style="fill:#59C671;" d="M444.123,215.544c-31.964,0-57.875,40.455-57.875,40.455s25.911,40.455,57.875,40.455   s57.875-40.455,57.875-40.455S476.086,215.544,444.123,215.544z"/>
	<path style="fill:#59C671;" d="M67.873,296.454c31.963,0,57.875-40.455,57.875-40.455s-25.912-40.455-57.875-40.455   S9.998,255.999,9.998,255.999S35.91,296.454,67.873,296.454z"/>
</g>
<g>
	<path style="fill:#D3E567;" d="M360.417,94.369c-22.602,22.602-12.318,69.53-12.318,69.53s46.928,10.284,69.53-12.318   s12.318-69.53,12.318-69.53S383.018,71.767,360.417,94.369z"/>
	<path style="fill:#D3E567;" d="M151.579,417.629c22.602-22.602,12.318-69.53,12.318-69.53s-46.928-10.283-69.53,12.318   c-22.602,22.602-12.318,69.53-12.318,69.53S128.978,440.231,151.579,417.629z"/>
	<path style="fill:#D3E567;" d="M417.628,360.418c-22.602-22.602-69.53-12.318-69.53-12.318s-10.284,46.928,12.318,69.529   c22.602,22.602,69.529,12.318,69.529,12.318S440.23,383.019,417.628,360.418z"/>
	<path style="fill:#D3E567;" d="M94.368,151.58c22.602,22.602,69.53,12.318,69.53,12.318s10.284-46.928-12.318-69.53   S82.05,82.05,82.05,82.05S71.766,128.979,94.368,151.58z"/>
</g>
<path style="fill:#007177;" d="M256.513,330.839h-1.03c-22.603,0-40.926-18.323-40.926-40.926v-36.901h82.882v36.901  C297.439,312.515,279.116,330.839,256.513,330.839z"/>
<path d="M510.419,250.605c-1.179-1.84-29.288-45.061-66.296-45.061c-20.442,0-38.166,13.186-50.138,25.303  c-3.637-20.004-11.536-38.537-22.711-54.634c0.282,0.002,0.564,0.004,0.848,0.004c16.918,0,38.34-3.328,52.578-17.566  c26.168-26.169,15.482-76.606,15.015-78.741c-0.835-3.813-3.814-6.792-7.627-7.628c-2.134-0.467-52.572-11.153-78.741,15.016l0,0  c-14.477,14.478-17.673,36.381-17.561,53.426c-16.097-11.175-34.63-19.074-54.634-22.711c12.116-11.973,25.302-29.696,25.302-50.138  c0-37.009-43.221-65.117-45.061-66.296c-3.287-2.105-7.5-2.105-10.787,0c-1.84,1.179-45.061,29.287-45.061,66.296  c0,20.442,13.186,38.166,25.302,50.138c-20.004,3.637-38.537,11.536-54.634,22.711c0.112-17.045-3.083-38.948-17.561-53.426  c-26.169-26.17-76.607-15.483-78.741-15.016c-3.813,0.836-6.792,3.814-7.627,7.628c-0.468,2.135-11.154,52.572,15.015,78.741  c14.239,14.239,35.659,17.566,52.578,17.566c0.285,0,0.566-0.003,0.848-0.004c-11.175,16.097-19.074,34.631-22.711,54.634  c-11.973-12.116-29.696-25.303-50.138-25.303c-37.008,0-65.117,43.222-66.296,45.061c-2.105,3.287-2.105,7.5,0,10.787  c1.179,1.84,29.288,45.061,66.296,45.061c20.442,0,38.165-13.186,50.138-25.303c3.637,20.004,11.536,38.537,22.711,54.634  c-17.045-0.112-38.948,3.083-53.426,17.561c-26.168,26.169-15.482,76.606-15.015,78.741c0.835,3.813,3.814,6.792,7.627,7.628  c0.973,0.213,11.987,2.55,26.164,2.55c16.917,0,38.339-3.328,52.577-17.565c14.478-14.478,17.674-36.381,17.562-53.426  c16.097,11.175,34.63,19.074,54.634,22.711c-12.116,11.973-25.302,29.696-25.302,50.138c0,37.009,43.221,65.117,45.061,66.296  c1.641,1.055,3.516,1.581,5.391,1.581c1.875,0,3.75-0.526,5.394-1.579c1.84-1.179,45.061-29.287,45.061-66.296  c0-20.442-13.186-38.166-25.302-50.138c20.004-3.637,38.537-11.536,54.634-22.711c-0.112,17.045,3.083,38.948,17.561,53.426  c14.239,14.239,35.659,17.565,52.577,17.565c14.174,0,25.191-2.337,26.164-2.55c3.813-0.836,6.792-3.814,7.627-7.628  c0.468-2.135,11.153-52.572-15.015-78.741c-14.478-14.478-36.381-17.673-53.426-17.561c11.176-16.097,19.074-34.63,22.711-54.634  c11.973,12.116,29.696,25.303,50.138,25.303c37.008,0,65.117-43.222,66.296-45.061C512.524,258.105,512.524,253.893,510.419,250.605  z M367.487,101.44c13.007-13.007,39.161-12.656,53.81-10.723c1.961,14.63,2.328,40.724-10.74,53.791  c-9.657,9.658-26.562,11.949-40.624,11.698l29.919-29.919c3.905-3.905,3.905-10.237,0-14.143c-3.905-3.904-10.237-3.904-14.143,0  l-29.954,29.954C355.487,128.052,357.776,111.151,367.487,101.44z M225.543,67.874c0-18.394,18.741-36.642,30.468-45.631  c11.731,8.958,30.441,27.149,30.441,45.631c0,13.658-10.333,27.232-20.455,36.998V62.56c0-5.522-4.477-10-10-10  c-5.523,0-10,4.478-10,10v42.362C235.876,95.178,225.543,81.608,225.543,67.874z M101.439,144.509  C88.433,131.503,88.781,105.348,90.717,90.7c14.629-1.962,40.723-2.327,53.791,10.74c9.658,9.657,11.949,26.562,11.698,40.624  l-29.919-29.919c-3.905-3.904-10.237-3.904-14.143,0c-3.905,3.905-3.905,10.237,0,14.143l29.955,29.955  C128.052,156.511,111.15,154.22,101.439,144.509z M67.873,286.454c-18.385,0-36.627-18.727-45.62-30.454  c8.999-11.735,27.237-30.456,45.62-30.456c13.657,0,27.232,10.333,36.998,20.455H62.559c-5.523,0-10,4.477-10,10  c0,5.522,4.477,10,10,10h42.312C95.102,276.123,81.529,286.454,67.873,286.454z M144.508,410.558L144.508,410.558  c-13.006,13.007-39.162,12.655-53.81,10.723c-1.961-14.63-2.328-40.724,10.74-53.791c9.657-9.659,26.563-11.951,40.626-11.699  l-29.92,29.92c-3.905,3.905-3.905,10.237,0,14.143c1.953,1.952,4.512,2.929,7.071,2.929s5.119-0.977,7.071-2.929l29.919-29.919  C156.457,383.999,154.165,400.902,144.508,410.558z M286.453,444.124c0,18.394-18.741,36.642-30.468,45.631  c-11.731-8.958-30.441-27.149-30.441-45.631c0-13.658,10.333-27.232,20.455-36.998v42.313c0,5.522,4.477,10,10,10  c5.523,0,10-4.478,10-10v-42.362C276.12,416.82,286.453,430.39,286.453,444.124z M224.557,289.912v-26.9h62.883v26.9  c0,17.053-13.873,30.927-30.926,30.927h-1.03C238.43,320.839,224.557,306.965,224.557,289.912z M410.557,367.489  c13.006,13.006,12.658,39.161,10.722,53.809c-14.63,1.964-40.723,2.328-53.791-10.74c-9.658-9.657-11.949-26.562-11.698-40.624  l29.919,29.919c1.953,1.952,4.512,2.929,7.071,2.929c2.559,0,5.119-0.977,7.071-2.929c3.905-3.905,3.905-10.237,0-14.143  l-29.953-29.954C383.945,355.488,400.846,357.779,410.557,367.489z M265.998,375.83v-35.891  c23.562-4.458,41.441-25.188,41.441-50.027V262.84c4.657-0.853,8.189-4.925,8.189-9.828c0-5.522-4.477-10-10-10h-8.189h-1.146  v-29.438c0-5.522-4.477-10-10-10s-10,4.478-10,10v29.438h-40.591v-29.438c0-5.522-4.477-10-10-10s-10,4.478-10,10v29.438h-1.146  h-8.189c-5.523,0-10,4.478-10,10c0,4.903,3.532,8.975,8.189,9.828v27.072c0,20.285,11.924,37.833,29.129,46.016  c-34.96-9.773-60.687-41.893-60.687-79.929c0-45.767,37.233-83,83-83c31.833,0,60.381,17.793,74.502,46.434  c0.601,1.219,1.179,2.469,1.718,3.714c2.195,5.069,8.083,7.399,13.15,5.204c5.068-2.194,7.398-8.082,5.204-13.149  c-0.669-1.547-1.387-3.098-2.133-4.611c-8.383-17.002-21.286-31.375-37.314-41.567c-16.486-10.484-35.549-16.025-55.127-16.025  c-56.794,0-103,46.206-103,103c0,53.42,40.881,97.468,93,102.513v17.318c-61.645-5.1-110.25-56.893-110.25-119.831  c0-66.306,53.944-120.25,120.25-120.25s120.25,53.944,120.25,120.25C376.248,318.937,327.643,370.73,265.998,375.83z   M444.123,286.454c-13.657,0-27.232-10.333-36.999-20.455h42.313c5.523,0,10-4.478,10-10c0-5.523-4.477-10-10-10h-42.311  c9.768-10.124,23.341-20.455,36.997-20.455c18.385,0,36.627,18.727,45.62,30.454C480.744,267.733,462.506,286.454,444.123,286.454z"/>
<g>
</g>
<g>
</g>
<g>
</g>
<g>
</g>
<g>
</g>
<g>
</g>
<g>
</g>
<g>
</g>
<g>
</g>
<g>
</g>
<g>
</g>
<g>
</g>
<g>
</g>
<g>
</g>
<g>
</g>
</svg>
