<?xml version="1.0" encoding="iso-8859-1"?>
<!-- Generator: Adobe Illustrator 19.0.0, SVG Export Plug-In . SVG Version: 6.00 Build 0)  -->
<svg xmlns="http://www.w3.org/2000/svg" xmlns:xlink="http://www.w3.org/1999/xlink" version="1.1" id="Capa_1" x="0px" y="0px" viewBox="0 0 512 512" style="enable-background:new 0 0 512 512;" xml:space="preserve">
<path d="M368.428,236.829c-0.65,0-1.31-0.07-1.95-0.2c-0.64-0.12-1.27-0.32-1.87-0.57c-0.61-0.25-1.19-0.56-1.73-0.921  c-0.55-0.36-1.06-0.78-1.52-1.24c-1.86-1.86-2.93-4.44-2.93-7.07c0-0.65,0.07-1.31,0.2-1.95c0.12-0.64,0.32-1.27,0.57-1.87  c0.25-0.61,0.56-1.19,0.92-1.73c0.36-0.55,0.78-1.06,1.24-1.52s0.97-0.88,1.52-1.24c0.54-0.36,1.12-0.67,1.73-0.92  c0.6-0.25,1.23-0.44,1.87-0.57c1.29-0.26,2.62-0.26,3.9,0c0.64,0.13,1.27,0.32,1.88,0.57c0.6,0.25,1.18,0.56,1.72,0.92  c0.55,0.36,1.06,0.78,1.52,1.24s0.88,0.97,1.25,1.52c0.36,0.54,0.66,1.12,0.91,1.73c0.25,0.6,0.45,1.23,0.58,1.87  c0.13,0.64,0.19,1.3,0.19,1.95c0,2.63-1.07,5.21-2.93,7.07c-0.46,0.46-0.97,0.88-1.52,1.24c-0.54,0.36-1.12,0.671-1.72,0.921  c-0.61,0.25-1.24,0.45-1.88,0.57C369.738,236.759,369.079,236.829,368.428,236.829z"/>
<path style="fill:#59C671;" d="M365.261,259.447l68.37,92.141L502,259.447h-40.879l-0.005-4.082  c-0.082-60.104-23.391-116.595-65.632-159.069c-42.229-42.46-98.349-65.844-158.024-65.844c-59.702,0-115.883,23.437-158.247,66.048  C34.975,139.74,10.397,196.18,10,255.481l0.001,1.291c0.372,60.026,23.781,116.458,65.916,158.903  c42.168,42.477,98.111,65.872,157.523,65.872c55.963,0,109.134-20.75,150.34-58.551l-37.258-35.937  c-30.637,27.14-71.541,42.736-113.046,42.942l-0.797,0.002c-46.047,0-89.171-18.282-121.427-51.478  C79.39,345.736,61.844,302.42,61.844,256.579c-0.217-46.328,19.308-90.612,54.983-124.704c31.403-31.55,75.349-49.77,120.597-49.995  l0.79-0.002c94.202,0,170.84,77.704,170.84,173.214v4.356L365.261,259.447L365.261,259.447z"/>
<path d="M233.44,491.547c-62.097,0-120.559-24.442-164.62-68.826C24.83,378.408,0.39,319.494,0.001,256.834L0,255.489  c0.415-62.023,26.043-120.977,72.17-166.088c44.229-44.462,102.928-68.949,165.29-68.949c62.355,0,120.994,24.431,165.114,68.792  c42.727,42.962,66.907,99.656,68.462,160.202h30.964c3.778,0,7.234,2.13,8.933,5.505c1.699,3.375,1.35,7.42-0.902,10.454  l-68.37,92.142c-1.886,2.542-4.865,4.041-8.031,4.041c-3.166,0-6.145-1.499-8.031-4.041l-68.37-92.142  c-2.251-3.035-2.601-7.079-0.902-10.454c1.698-3.375,5.154-5.505,8.933-5.505h33.699c-2.942-87.393-73.92-157.569-160.746-157.569  l-0.771,0.001c-42.586,0.212-83.978,17.36-113.529,47.05c-0.059,0.059-0.118,0.117-0.179,0.175  c-33.666,32.173-52.096,73.877-51.892,117.428c0,43.279,16.542,84.112,46.579,115.023c30.357,31.241,70.934,48.446,114.255,48.446  l0.778-0.001c38.844-0.194,77.65-14.929,106.434-40.428c3.906-3.46,9.817-3.335,13.573,0.288l37.258,35.937  c1.985,1.915,3.091,4.565,3.057,7.323s-1.207,5.379-3.239,7.244C347.53,469.818,291.738,491.547,233.44,491.547z M237.459,40.453  c-57.021,0-110.702,22.409-151.154,63.099c-0.034,0.034-0.068,0.067-0.102,0.101C43.89,145.01,20.378,198.955,20,255.548  l0.001,1.216c0.355,57.338,22.734,111.291,63.013,151.865c40.277,40.572,93.7,62.916,150.426,62.916  c49.721,0,97.454-17.298,135.556-48.916l-22.944-22.13c-31.491,24.998-71.984,39.3-112.526,39.502l-0.828,0.001  c-48.79,0-94.462-19.358-128.618-54.51c-33.685-34.665-52.236-80.448-52.236-128.914c-0.23-49.015,20.362-95.853,57.985-131.849  c33.245-33.351,79.728-52.614,127.546-52.852l0.821-0.001c99.734,0,180.859,82.189,180.859,183.214v4.355c0,5.523-4.477,10-10,10  h-23.921l48.497,65.36l48.497-65.36h-21.007c-5.518,0-9.993-4.469-10-9.987l-0.005-4.082  c-0.079-57.447-22.353-111.439-62.723-152.029C348.054,62.789,294.452,40.453,237.459,40.453z"/>
<path style="fill:#D3E567;" d="M329.012,279.884c0,70.076-88.692,126.884-88.692,126.884s-88.692-56.808-88.692-126.884  c0-70.076,88.692-126.884,88.692-126.884S329.012,209.808,329.012,279.884z"/>
<path d="M364.857,185.889c-25.552-46.055-74.115-74.667-126.734-74.667c-79.866,0-144.841,64.976-144.841,144.842  c0,34.536,12.547,68.046,35.331,94.357c21.819,25.197,51.571,42.24,84.039,48.214c7.398,6.09,13.662,10.656,17.669,13.448v16.732  c0,5.523,4.477,10,10,10c5.523,0,10-4.477,10-10v-16.732c18.978-13.219,88.692-66.273,88.692-132.199  c0-74.688-89.489-132.864-93.298-135.304c-3.287-2.105-7.5-2.105-10.787,0c-3.81,2.44-93.298,60.617-93.298,135.304  c0,32.826,17.287,62.461,36.988,85.578c-39.062-21.623-65.336-63.341-65.336-109.396c0-68.838,56.004-124.842,124.841-124.842  c45.356,0,87.217,24.665,109.246,64.37c2.679,4.829,8.765,6.573,13.596,3.893C365.794,196.805,367.537,190.718,364.857,185.889z   M240.326,165.14c18.58,13.287,78.686,60.473,78.686,114.742c0,46.545-44.421,88.015-68.692,107.197v-81.11l37.408-37.899  c3.879-3.931,3.838-10.262-0.092-14.142c-3.931-3.88-10.262-3.838-14.142,0.092l-23.173,23.478v-27.44c0-5.523-4.477-10-10-10  c-5.523,0-10,4.477-10,10v74.491l-27.143-27.143c-3.905-3.905-10.237-3.905-14.143,0c-3.905,3.905-3.905,10.237,0,14.143  l41.286,41.286v34.27c-24.271-19.147-68.692-60.566-68.692-107.221C161.629,225.727,221.762,178.445,240.326,165.14z"/>
<g>
</g>
<g>
</g>
<g>
</g>
<g>
</g>
<g>
</g>
<g>
</g>
<g>
</g>
<g>
</g>
<g>
</g>
<g>
</g>
<g>
</g>
<g>
</g>
<g>
</g>
<g>
</g>
<g>
</g>
</svg>
