<?xml version="1.0" encoding="iso-8859-1"?>
<!-- Generator: Adobe Illustrator 19.0.0, SVG Export Plug-In . SVG Version: 6.00 Build 0)  -->
<svg xmlns="http://www.w3.org/2000/svg" xmlns:xlink="http://www.w3.org/1999/xlink" version="1.1" id="Capa_1" x="0px" y="0px" viewBox="0 0 512 512" style="enable-background:new 0 0 512 512;" xml:space="preserve">
<rect x="161.32" y="10" style="fill:#007177;" width="189.36" height="68.11"/>
<polygon style="fill:#54E3EA;" points="403.36,239.126 403.36,78.112 403.36,78.111 108.64,78.111 108.64,239.126 "/>
<polygon style="fill:#007177;" points="108.64,239.126 108.64,501 108.64,502 403.36,502 403.36,239.126 "/>
<path style="fill:#59C671;" d="M334.372,355.111c0,61.923-78.372,112.121-78.372,112.121s-78.372-50.198-78.372-112.121  c0-61.922,78.372-115.985,78.372-115.985S334.372,293.188,334.372,355.111z"/>
<path d="M364.7,141c-0.65,0-1.311-0.07-1.96-0.2c-0.631-0.12-1.261-0.32-1.87-0.57c-0.601-0.25-1.181-0.56-1.721-0.92  c-0.55-0.36-1.06-0.78-1.52-1.24s-0.88-0.97-1.25-1.52c-0.36-0.54-0.67-1.12-0.92-1.73c-0.25-0.6-0.44-1.23-0.57-1.87  s-0.189-1.3-0.189-1.95s0.06-1.31,0.189-1.95c0.13-0.64,0.32-1.27,0.57-1.87c0.25-0.61,0.56-1.19,0.92-1.73  c0.37-0.55,0.79-1.06,1.25-1.52s0.97-0.88,1.52-1.24c0.54-0.36,1.12-0.67,1.721-0.92c0.609-0.25,1.239-0.44,1.87-0.57  c1.29-0.26,2.619-0.26,3.909,0c0.641,0.13,1.27,0.32,1.87,0.57c0.61,0.25,1.19,0.56,1.73,0.92c0.55,0.36,1.06,0.78,1.52,1.24  s0.88,0.97,1.24,1.52c0.36,0.54,0.67,1.12,0.92,1.73c0.25,0.6,0.44,1.23,0.57,1.87s0.2,1.3,0.2,1.95s-0.07,1.31-0.2,1.95  s-0.32,1.27-0.57,1.87c-0.25,0.61-0.56,1.19-0.92,1.73c-0.36,0.55-0.78,1.06-1.24,1.52s-0.97,0.88-1.52,1.24  c-0.54,0.36-1.12,0.67-1.73,0.92c-0.6,0.25-1.229,0.45-1.87,0.57C366.01,140.93,365.349,141,364.7,141z"/>
<path d="M147.3,193c-0.65,0-1.31-0.07-1.95-0.2c-0.64-0.12-1.27-0.32-1.87-0.57c-0.61-0.25-1.19-0.56-1.73-0.92  c-0.55-0.36-1.06-0.78-1.52-1.24c-0.46-0.46-0.88-0.97-1.24-1.52c-0.36-0.54-0.67-1.12-0.92-1.73c-0.25-0.6-0.44-1.23-0.57-1.87  s-0.2-1.3-0.2-1.95s0.07-1.31,0.2-1.95c0.13-0.64,0.32-1.27,0.57-1.87c0.25-0.61,0.56-1.19,0.92-1.73c0.36-0.55,0.78-1.06,1.24-1.52  c0.46-0.46,0.97-0.88,1.52-1.24c0.54-0.36,1.12-0.67,1.73-0.92c0.6-0.25,1.23-0.44,1.87-0.57c1.29-0.26,2.62-0.26,3.91,0  c0.63,0.13,1.26,0.32,1.87,0.57c0.6,0.25,1.18,0.56,1.72,0.92c0.55,0.36,1.06,0.78,1.52,1.24c0.46,0.46,0.88,0.97,1.25,1.52  c0.36,0.54,0.67,1.12,0.92,1.73c0.25,0.6,0.44,1.23,0.57,1.87s0.19,1.3,0.19,1.95s-0.06,1.31-0.19,1.95s-0.32,1.27-0.57,1.87  c-0.25,0.61-0.56,1.19-0.92,1.73c-0.37,0.55-0.79,1.06-1.25,1.52c-0.46,0.46-0.97,0.88-1.52,1.24c-0.539,0.36-1.12,0.67-1.72,0.92  c-0.61,0.25-1.24,0.45-1.87,0.57C148.61,192.93,147.949,193,147.3,193z"/>
<path d="M413.359,78.111c0-5.523-4.478-10-10-10h-42.681V10c0-5.523-4.478-10-10-10H161.322c-5.523,0-10,4.477-10,10v58.111H108.64  c-5.523,0-10,4.477-10,10v161.014V502c0,5.523,4.477,10,10,10h294.72c5.522,0,10-4.477,10-10V239.126L413.359,78.111z M171.322,20  h169.357v48.111H171.322V20z M393.36,88.112V173H182.331c-5.523,0-10,4.477-10,10s4.477,10,10,10H393.36v36.126H256.003  c-0.002,0-0.004,0-0.007,0H118.64V141h211.029c5.522,0,10-4.477,10-10s-4.478-10-10-10H118.64V88.111L393.36,88.112z M266,378.658  l32.722-33.17c3.879-3.932,3.835-10.263-0.097-14.142c-3.932-3.878-10.263-3.836-14.142,0.096L266,350.179v-21.424  c0-5.523-4.478-10-10-10c-5.523,0-10,4.477-10,10v63.015l-21.999-21.999c-3.905-3.906-10.237-3.905-14.142-0.001  c-3.905,3.905-3.906,10.237-0.001,14.142L246,420.055v27.393c-21.623-17.383-58.372-52.749-58.372-92.338  c0-46.632,51.046-90.113,68.378-103.53c17.345,13.399,68.366,56.793,68.366,103.53c0,39.484-36.749,74.894-58.372,92.31L266,378.658  L266,378.658z M118.64,249.126h109.023c-24.512,21.998-60.035,61.542-60.035,105.985c0,58.226,60.782,105.083,78.372,117.423V492  H118.64V249.126z M393.36,492H266v-19.466c17.59-12.34,78.372-59.198,78.372-117.423c0-44.444-35.522-83.988-60.035-105.985H393.36  V492z"/>
<g>
</g>
<g>
</g>
<g>
</g>
<g>
</g>
<g>
</g>
<g>
</g>
<g>
</g>
<g>
</g>
<g>
</g>
<g>
</g>
<g>
</g>
<g>
</g>
<g>
</g>
<g>
</g>
<g>
</g>
</svg>
