<?xml version="1.0" encoding="iso-8859-1"?>
<!-- Generator: Adobe Illustrator 19.0.0, SVG Export Plug-In . SVG Version: 6.00 Build 0)  -->
<svg xmlns="http://www.w3.org/2000/svg" xmlns:xlink="http://www.w3.org/1999/xlink" version="1.1" id="Capa_1" x="0px" y="0px" viewBox="0 0 512 512" style="enable-background:new 0 0 512 512;" xml:space="preserve">
<rect x="66.11" y="10" style="fill:#F4BA64;" width="292.04" height="443"/>
<rect x="39.12" y="453" style="fill:#FF8C5A;" width="346" height="49"/>
<g>
	<rect x="110.12" y="57.38" style="fill:#54E3EA;" width="204" height="150.86"/>
	<rect x="110.12" y="240.03" style="fill:#54E3EA;" width="204" height="42.965"/>
</g>
<path d="M314.125,292.995h-204c-5.522,0-10-4.477-10-10v-42.966c0-5.522,4.478-10,10-10h204c5.522,0,10,4.478,10,10v42.966  C324.125,288.518,319.647,292.995,314.125,292.995z M120.125,272.995h184v-22.966h-184V272.995z"/>
<g>
	<polygon style="fill:#FF8C5A;" points="442.625,185 390.125,185 390.125,102 442.625,132  "/>
	<rect x="358.14" y="321.5" style="fill:#FF8C5A;" width="52.48" height="71.5"/>
</g>
<path style="fill:#D3E567;" d="M263.613,179.066c-36.548,36.548-112.433,19.919-112.433,19.919S134.552,123.1,171.1,86.552  s112.433-19.919,112.433-19.919S300.161,142.518,263.613,179.066z"/>
<path d="M314.125,47.378h-204c-5.522,0-10,4.478-10,10V208.24c0,5.522,4.478,10,10,10h204c5.522,0,10-4.478,10-10V57.378  C324.125,51.855,319.647,47.378,314.125,47.378z M172.41,191.899l37.654-37.654l38.195-0.247c5.522-0.036,9.971-4.542,9.936-10.064  c-0.036-5.501-4.506-9.936-9.999-9.936c-0.021,0-0.044,0-0.065,0l-17.935,0.116l9.789-9.789c3.905-3.905,3.905-10.237,0-14.143  c-3.906-3.904-10.236-3.904-14.143,0l-26.906,26.906c-0.098,0.095-0.195,0.19-0.289,0.289l-7.176,7.175v-21.978  c0-5.523-4.477-10-10-10c-5.522,0-10,4.477-10,10v41.978l-13.202,13.202c-2.14-23.342-1.824-62.405,19.903-84.132  c26.424-26.422,78.507-21.183,96.736-18.366c2.818,18.241,8.056,70.317-18.365,96.737  C234.814,193.724,195.748,194.039,172.41,191.899z M120.125,67.378h59.833c-5.734,3.299-11.113,7.287-15.93,12.104  c-36.158,36.16-25.99,103.774-23.192,118.759h-20.711L120.125,67.378L120.125,67.378z M304.125,198.24h-49.364  c5.732-3.299,11.108-7.287,15.923-12.103c36.159-36.16,25.99-103.777,23.192-118.76h10.249L304.125,198.24L304.125,198.24z"/>
<path d="M304.87,337.89c-0.65,0-1.31-0.059-1.95-0.189c-0.64-0.131-1.27-0.32-1.88-0.57c-0.6-0.25-1.181-0.561-1.721-0.92  c-0.55-0.37-1.06-0.79-1.52-1.25c-1.86-1.86-2.93-4.44-2.93-7.07c0-0.649,0.069-1.309,0.199-1.95c0.12-0.64,0.32-1.27,0.57-1.87  c0.25-0.609,0.55-1.189,0.92-1.729c0.36-0.55,0.78-1.061,1.24-1.521s0.97-0.88,1.52-1.239c0.54-0.36,1.12-0.67,1.721-0.92  c0.609-0.25,1.24-0.44,1.88-0.57c3.25-0.66,6.7,0.41,9.02,2.729c0.46,0.46,0.88,0.971,1.24,1.521c0.36,0.54,0.67,1.12,0.92,1.729  c0.25,0.601,0.44,1.23,0.57,1.87c0.13,0.641,0.2,1.301,0.2,1.95c0,2.63-1.07,5.21-2.931,7.07  C310.08,336.819,307.5,337.89,304.87,337.89z"/>
<path d="M452.625,175.112V132c0-3.589-1.923-6.902-5.039-8.683l-47.461-27.121v-42.53c0-5.522-4.478-10-10-10h-21.98V10  c0-5.523-4.478-10-10-10H66.105c-5.522,0-10,4.477-10,10v433h-16.98c-5.522,0-10,4.478-10,10v49c0,5.522,4.478,10,10,10h346  c5.522,0,10-4.478,10-10v-49c0-5.522-4.478-10-10-10h-16.98v-40h42.48c5.522,0,10-4.478,10-10v-14.068h29.409  c18.108,0,32.841-14.732,32.841-32.841v-138.25C482.875,190.605,469.526,176.438,452.625,175.112z M432.625,137.804V175h-2.5h-30  v-38.667v-17.102L432.625,137.804z M375.125,492h-326v-29h16.98h292.039h16.98v29H375.125z M76.105,443V337.892h194.599  c5.522,0,10-4.478,10-10s-4.478-10-10-10H76.105V20h272.039v301.5V393v50H76.105z M400.625,383h-32.48v-51.5h32.48V383z   M462.875,346.091c0,7.08-5.761,12.841-12.841,12.841h-29.409V321.5c0-5.522-4.478-10-10-10h-42.48V63.667h11.98V102v34.333V185  c0,5.523,4.478,10,10,10h40h12.5h7.409c7.08,0,12.841,5.761,12.841,12.841V346.091z"/>
<g>
</g>
<g>
</g>
<g>
</g>
<g>
</g>
<g>
</g>
<g>
</g>
<g>
</g>
<g>
</g>
<g>
</g>
<g>
</g>
<g>
</g>
<g>
</g>
<g>
</g>
<g>
</g>
<g>
</g>
</svg>
