<?xml version="1.0" encoding="iso-8859-1"?>
<!-- Generator: Adobe Illustrator 19.0.0, SVG Export Plug-In . SVG Version: 6.00 Build 0)  -->
<svg xmlns="http://www.w3.org/2000/svg" xmlns:xlink="http://www.w3.org/1999/xlink" version="1.1" id="Capa_1" x="0px" y="0px" viewBox="0 0 512 512" style="enable-background:new 0 0 512 512;" xml:space="preserve">
<path style="fill:#54E3EA;" d="M376.172,81.728c-4.102,0-8.014,0.803-11.598,2.25c0.011-0.403,0.031-0.804,0.031-1.21  c0-24.102-19.538-43.64-43.64-43.64s-43.64,19.538-43.64,43.64c0,0.406,0.02,0.807,0.031,1.21c-3.584-1.446-7.496-2.25-11.598-2.25  c-17.132,0-31.021,13.889-31.021,31.021s13.889,31.021,31.021,31.021h110.414c17.132,0,31.021-13.889,31.021-31.021  C407.193,95.616,393.305,81.728,376.172,81.728z"/>
<path style="fill:#007177;" d="M431.503,52.6c-4.102,0-8.014,0.803-11.598,2.25c0.011-0.403,0.03-0.804,0.03-1.21  c0-24.101-19.538-43.64-43.639-43.64c-19.8,0-36.507,13.181-41.845,31.25c17.501,5.682,30.154,22.122,30.154,41.517  c0,0.406-0.02,0.807-0.03,1.21c3.584-1.446,7.496-2.25,11.598-2.25c17.132,0,31.021,13.889,31.021,31.021  c0,0.636-0.015,1.267-0.052,1.893h24.362c17.132,0,31.021-13.889,31.021-31.021C462.524,66.488,448.635,52.6,431.503,52.6z"/>
<path d="M431.502,42.6c-0.9,0-1.798,0.029-2.69,0.087C423.74,18.346,402.12,0,376.296,0c-20.409,0-38.977,11.818-47.95,29.639  c-2.414-0.333-4.877-0.511-7.381-0.511c-25.824,0-47.444,18.346-52.516,42.687c-0.893-0.058-1.79-0.087-2.69-0.087  c-22.619,0-41.021,18.402-41.021,41.021s18.402,41.021,41.021,41.021h110.413c18.484,0,34.147-12.291,39.257-29.128h16.073  c22.619,0,41.021-18.401,41.021-41.021S454.121,42.6,431.502,42.6z M376.172,133.77H265.759c-11.591,0-21.021-9.43-21.021-21.021  s9.431-21.021,21.021-21.021c2.708,0,5.351,0.513,7.855,1.523c3.131,1.265,6.686,0.862,9.456-1.066  c2.77-1.929,4.38-5.124,4.282-8.497l-0.014-0.402c-0.006-0.172-0.014-0.344-0.014-0.518c0-18.549,15.091-33.64,33.64-33.64  c3.858,0,7.563,0.661,11.017,1.862c0.394,0.137,0.783,0.282,1.169,0.432c0.665,0.259,1.321,0.538,1.965,0.838  c0.168,0.078,0.338,0.153,0.505,0.233c7.67,3.728,13.714,10.288,16.778,18.31c0.088,0.233,0.178,0.466,0.261,0.702  c0.137,0.384,0.27,0.769,0.393,1.159c0.187,0.599,0.362,1.202,0.517,1.813c0.068,0.266,0.125,0.535,0.186,0.804  c0.126,0.558,0.241,1.12,0.34,1.687c0.033,0.187,0.071,0.372,0.1,0.561c0.116,0.746,0.204,1.499,0.271,2.258  c0.017,0.189,0.03,0.379,0.043,0.569c0.056,0.798,0.096,1.601,0.096,2.411c0,0.159-0.008,0.317-0.013,0.476l-0.005,0.169  l-0.009,0.275c0,0,0,0.008,0,0.011v0.012c-0.003,0.119,0.012,0.236,0.013,0.355c0.003,0.299,0.003,0.597,0.032,0.892  c0.013,0.135,0.045,0.265,0.064,0.399c0.039,0.276,0.072,0.553,0.133,0.823c0.037,0.163,0.095,0.319,0.139,0.48  c0.065,0.235,0.123,0.472,0.205,0.701c0.063,0.175,0.147,0.34,0.219,0.511c0.087,0.206,0.164,0.416,0.265,0.615  c0.087,0.172,0.195,0.334,0.292,0.501c0.108,0.187,0.207,0.379,0.327,0.558c0.104,0.156,0.228,0.298,0.341,0.448  c0.134,0.178,0.259,0.362,0.406,0.531c0.107,0.124,0.231,0.233,0.344,0.351c0.173,0.181,0.339,0.367,0.526,0.535  c0.088,0.079,0.189,0.146,0.28,0.222c0.227,0.19,0.451,0.382,0.696,0.552c0.003,0.002,0.006,0.003,0.009,0.005  c0.001,0,0.001,0.001,0.002,0.001c0.091,0.063,0.19,0.111,0.282,0.171c0.258,0.167,0.516,0.335,0.786,0.476  c0.186,0.097,0.382,0.171,0.573,0.256c0.186,0.083,0.368,0.178,0.558,0.249c0.193,0.072,0.392,0.12,0.588,0.18  c0.197,0.06,0.391,0.132,0.59,0.18c0.113,0.027,0.228,0.037,0.341,0.06c1.892,0.384,3.882,0.233,5.727-0.512  c2.505-1.011,5.148-1.523,7.855-1.523c11.591,0,21.021,9.43,21.022,21.021v0.002C397.193,124.34,387.762,133.77,376.172,133.77z   M431.502,104.642h-15.113c-0.005-0.026-0.012-0.051-0.017-0.077c-0.036-0.179-0.081-0.355-0.12-0.533  c-0.098-0.449-0.198-0.897-0.31-1.341c-0.059-0.234-0.126-0.466-0.189-0.698c-0.104-0.384-0.211-0.767-0.326-1.147  c-0.075-0.246-0.155-0.491-0.234-0.736c-0.117-0.362-0.239-0.722-0.366-1.079c-0.087-0.246-0.177-0.491-0.269-0.734  c-0.134-0.354-0.273-0.705-0.417-1.055c-0.097-0.236-0.193-0.473-0.294-0.707c-0.156-0.362-0.321-0.72-0.488-1.077  c-0.099-0.211-0.194-0.424-0.296-0.634c-0.201-0.413-0.413-0.819-0.627-1.223c-0.078-0.148-0.152-0.299-0.232-0.445  c-0.298-0.546-0.608-1.084-0.929-1.614c-0.081-0.133-0.167-0.261-0.249-0.393c-0.247-0.397-0.497-0.792-0.758-1.181  c-0.128-0.19-0.261-0.376-0.392-0.564c-0.224-0.323-0.45-0.645-0.684-0.962c-0.149-0.201-0.302-0.399-0.454-0.598  c-0.228-0.297-0.458-0.591-0.693-0.882c-0.161-0.199-0.324-0.395-0.488-0.59c-0.24-0.285-0.484-0.566-0.731-0.844  c-0.167-0.188-0.335-0.376-0.505-0.561c-0.262-0.284-0.529-0.561-0.798-0.837c-0.164-0.169-0.327-0.339-0.494-0.505  c-0.311-0.308-0.63-0.608-0.95-0.906c-0.133-0.124-0.263-0.252-0.398-0.374c-0.458-0.415-0.924-0.82-1.401-1.214  c-0.094-0.078-0.193-0.151-0.287-0.228c-0.386-0.314-0.776-0.623-1.174-0.923c-0.177-0.133-0.359-0.261-0.538-0.392  c-0.323-0.236-0.648-0.47-0.979-0.697c-0.203-0.139-0.41-0.274-0.616-0.41c-0.316-0.208-0.633-0.413-0.955-0.613  c-0.217-0.135-0.436-0.267-0.656-0.397c-0.321-0.191-0.646-0.377-0.973-0.56c-0.222-0.124-0.444-0.248-0.669-0.368  c-0.341-0.182-0.686-0.357-1.033-0.53c-0.215-0.107-0.429-0.216-0.646-0.32c-0.388-0.185-0.782-0.36-1.177-0.533  c-0.181-0.079-0.359-0.163-0.542-0.24c-0.578-0.243-1.163-0.476-1.754-0.693c-0.072-0.026-0.145-0.049-0.217-0.074  c-0.522-0.189-1.048-0.368-1.58-0.536c-0.207-0.065-0.417-0.122-0.625-0.185c-0.402-0.12-0.804-0.237-1.211-0.345  c-0.241-0.064-0.484-0.121-0.727-0.181c-0.381-0.093-0.763-0.183-1.148-0.266c-0.255-0.055-0.512-0.106-0.769-0.156  c-0.381-0.074-0.764-0.142-1.148-0.206c-0.259-0.043-0.518-0.085-0.779-0.122c-0.396-0.057-0.795-0.106-1.195-0.152  c-0.25-0.029-0.499-0.06-0.75-0.084c-0.439-0.042-0.882-0.073-1.325-0.101c-0.215-0.014-0.428-0.033-0.644-0.043  c-0.659-0.032-1.322-0.051-1.989-0.051c-0.898,0-1.793,0.03-2.683,0.087c-0.152-0.733-0.331-1.458-0.512-2.181  c-0.008-0.03-0.014-0.06-0.021-0.09c-0.178-0.704-0.376-1.399-0.581-2.092c-0.018-0.061-0.035-0.123-0.054-0.184  c-3.935-13.113-12.754-24.283-24.754-31.108C353.578,26.349,364.444,20,376.296,20c18.549,0,33.64,15.091,33.64,33.64  c0,0.168-0.008,0.334-0.013,0.5l-0.014,0.443c-0.09,3.37,1.524,6.559,4.293,8.48c2.77,1.924,6.321,2.321,9.446,1.06  c2.504-1.011,5.146-1.523,7.854-1.523c11.591,0,21.021,9.431,21.021,21.021S443.093,104.642,431.502,104.642z"/>
<path style="fill:#F4BA64;" d="M365.172,239.807H102.164c2.257,24.517,4.119,55.376,4.119,90.5  c0,78.886-37.369,143.446-56.806,171.694H418.05c-19.438-28.248-56.807-92.808-56.807-171.694  C361.243,294.342,363.001,263.811,365.172,239.807z"/>
<path style="fill:#FF8C5A;" d="M365.172,239.807c0,0,0,0.006-0.001,0.008c3.506-38.778,8.092-68.513,8.092-68.513H94.264h-0.001  c0.003,0.016,4.422,30.73,7.901,68.505H365.172z"/>
<path style="fill:#59C671;" d="M284.373,433.705c-37.553,37.554-115.526,20.467-115.526,20.467s-17.086-77.973,20.467-115.526  c37.553-37.554,115.526-20.467,115.526-20.467S321.927,396.152,284.373,433.705z"/>
<path d="M334.15,215.56c-0.649,0-1.31-0.069-1.96-0.2c-0.64-0.13-1.27-0.319-1.87-0.569s-1.18-0.56-1.729-0.92  c-0.54-0.36-1.06-0.78-1.521-1.24c-0.46-0.46-0.88-0.97-1.239-1.52c-0.36-0.54-0.67-1.119-0.92-1.73  c-0.25-0.601-0.44-1.23-0.57-1.87s-0.19-1.3-0.19-1.95c0-0.649,0.061-1.31,0.19-1.96c0.13-0.63,0.32-1.26,0.57-1.87  c0.25-0.6,0.56-1.18,0.92-1.72c0.359-0.55,0.779-1.06,1.239-1.52c0.461-0.461,0.98-0.881,1.521-1.24c0.55-0.37,1.13-0.67,1.729-0.92  c0.61-0.25,1.23-0.45,1.87-0.58c1.29-0.26,2.62-0.26,3.91,0c0.641,0.13,1.271,0.33,1.87,0.58c0.6,0.25,1.18,0.55,1.73,0.92  c0.54,0.359,1.06,0.779,1.52,1.24c0.46,0.46,0.88,0.97,1.24,1.52c0.359,0.54,0.67,1.12,0.92,1.72c0.25,0.61,0.439,1.24,0.57,1.87  c0.13,0.65,0.199,1.311,0.199,1.96c0,0.65-0.069,1.311-0.199,1.95c-0.131,0.64-0.32,1.27-0.57,1.87  c-0.25,0.61-0.561,1.189-0.92,1.73c-0.36,0.551-0.78,1.061-1.24,1.52c-0.46,0.46-0.98,0.88-1.52,1.24  c-0.54,0.359-1.131,0.67-1.73,0.92c-0.6,0.25-1.23,0.44-1.87,0.569C335.46,215.49,334.8,215.56,334.15,215.56z"/>
<path d="M138.86,282.33c-0.649,0-1.31-0.061-1.96-0.191c-0.63-0.13-1.26-0.32-1.869-0.57c-0.601-0.25-1.181-0.56-1.721-0.92  c-0.55-0.37-1.06-0.779-1.529-1.25c-0.461-0.46-0.87-0.97-1.24-1.52c-0.36-0.54-0.67-1.12-0.92-1.72  c-0.25-0.601-0.44-1.23-0.57-1.87c-0.13-0.65-0.19-1.3-0.19-1.96c0-0.65,0.061-1.311,0.19-1.95c0.13-0.64,0.32-1.271,0.57-1.87  s0.56-1.18,0.92-1.73c0.37-0.539,0.779-1.06,1.24-1.52c0.47-0.46,0.979-0.88,1.529-1.24c0.54-0.359,1.12-0.67,1.721-0.92  c0.609-0.25,1.239-0.439,1.869-0.57c1.29-0.26,2.62-0.26,3.91,0c0.641,0.131,1.27,0.32,1.87,0.57c0.601,0.25,1.19,0.561,1.73,0.92  c0.55,0.36,1.059,0.78,1.52,1.24c0.46,0.46,0.88,0.98,1.24,1.52c0.36,0.551,0.67,1.131,0.92,1.73s0.441,1.23,0.57,1.87  c0.13,0.64,0.189,1.3,0.189,1.95c0,0.66-0.06,1.309-0.189,1.96c-0.13,0.64-0.32,1.27-0.57,1.87s-0.559,1.18-0.92,1.72  c-0.36,0.55-0.78,1.06-1.24,1.52c-0.46,0.471-0.97,0.88-1.52,1.25c-0.54,0.36-1.13,0.67-1.73,0.92c-0.6,0.25-1.23,0.44-1.87,0.57  C140.17,282.27,139.51,282.33,138.86,282.33z"/>
<path d="M426.288,496.331c-20.558-29.875-55.045-91.172-55.045-166.024c0-30.927,1.309-61.072,3.888-89.6v-0.001  c0.002-0.02,0.004-0.041,0.006-0.061c3.435-37.949,7.964-67.524,8.009-67.819c0.445-2.884-0.393-5.818-2.292-8.033  c-1.9-2.216-4.673-3.49-7.591-3.49H94.264c-2.956,0-5.761,1.308-7.661,3.572c-1.835,2.188-2.645,5.051-2.235,7.866  c0.044,0.3,4.383,30.449,7.839,67.983c2.705,29.376,4.077,59.516,4.077,89.583c0,74.853-34.487,136.149-55.045,166.024  c-2.106,3.061-2.342,7.035-0.613,10.322c1.729,3.288,5.138,5.347,8.852,5.347H418.05c3.714,0,7.123-2.059,8.852-5.347  C428.63,503.366,428.394,499.392,426.288,496.331z M361.736,181.302c-1.46,10.716-3.665,28.073-5.667,48.505H111.256  c-0.486-4.928-0.982-9.694-1.475-14.248h189.337c5.522,0,10-4.477,10-10c0-5.522-4.478-10-10-10H107.492  c-0.664-5.505-1.275-10.329-1.786-14.257H361.736z M67.875,492c21.473-35.137,48.408-92.929,48.408-161.693  c0-26.964-1.082-53.992-3.219-80.5h241.228c-0.324,4.143-0.614,8.326-0.886,12.526h-179.52c-5.522,0-10,4.477-10,10  c0,5.522,4.478,10,10,10h178.425c-0.704,15.711-1.068,31.734-1.068,47.974c0,68.765,26.935,126.557,48.408,161.693H67.875z"/>
<path d="M306.981,308.411c-3.4-0.744-83.786-17.787-124.738,23.164c-35.319,35.319-27.5,99.966-24.203,119.263l-6.303,6.302  c-3.905,3.905-3.905,10.237,0,14.143c1.953,1.952,4.512,2.929,7.071,2.929s5.118-0.977,7.071-2.929l6.303-6.303  c7.226,1.234,20.804,3.103,36.831,3.103c26.768,0,60.339-5.214,82.432-27.307c40.951-40.95,23.909-121.335,23.164-124.737  C313.773,312.226,310.794,309.247,306.981,308.411z M277.302,426.634c-22.584,22.584-63.29,22.735-87.249,20.475l39.168-39.168  l39.377-0.268c5.523-0.038,9.969-4.545,9.932-10.068c-0.038-5.499-4.507-9.932-9.999-9.932c-0.022,0-0.046,0-0.069,0l-19.102,0.13  l10.539-10.539c3.905-3.905,3.905-10.237,0-14.143c-3.906-3.904-10.236-3.904-14.142,0l-35.786,35.786V375.66  c0-5.522-4.477-10-10-10c-5.522,0-10,4.478-10,10v43.247l-14.059,14.059c-2.26-23.962-2.108-64.667,20.474-87.249  c27.338-27.338,81.257-21.807,99.845-18.916C299.145,345.383,304.716,399.221,277.302,426.634z"/>
<g>
</g>
<g>
</g>
<g>
</g>
<g>
</g>
<g>
</g>
<g>
</g>
<g>
</g>
<g>
</g>
<g>
</g>
<g>
</g>
<g>
</g>
<g>
</g>
<g>
</g>
<g>
</g>
<g>
</g>
</svg>
