<?xml version="1.0" encoding="iso-8859-1"?>
<!-- Generator: Adobe Illustrator 19.0.0, SVG Export Plug-In . SVG Version: 6.00 Build 0)  -->
<svg xmlns="http://www.w3.org/2000/svg" xmlns:xlink="http://www.w3.org/1999/xlink" version="1.1" id="Capa_1" x="0px" y="0px" viewBox="0 0 512 512" style="enable-background:new 0 0 512 512;" xml:space="preserve">
<path style="fill:#54E3EA;" d="M289.104,59.3v1.03c0,22.603-18.323,40.926-40.926,40.926h-36.901V18.374h36.901  C270.781,18.374,289.104,36.697,289.104,59.3z"/>
<g>
	<path style="fill:#FF8C5A;" d="M117.804,502H88.525c-13.255,0-24-10.745-24-24v-20.4h77.279V478   C141.804,491.255,131.059,502,117.804,502z"/>
	<path style="fill:#FF8C5A;" d="M399.495,502h-29.279c-13.255,0-24-10.745-24-24v-20.4h77.279V478   C423.495,491.255,412.75,502,399.495,502z"/>
</g>
<g>
	<polygon style="fill:#F4BA64;" points="64.613,281.914 65.2,281.092 75.88,261.647 86.239,224.82 22.88,224.82 34.7,281.914  "/>
	<polygon style="fill:#F4BA64;" points="415.64,224.82 425.998,261.646 436.678,281.092 437.265,281.914 467.179,281.914    475.69,240.802 478.998,224.82  "/>
	<circle style="fill:#F4BA64;" cx="99.041" cy="387.61" r="34.512"/>
</g>
<path style="fill:#007177;" d="M461.238,315.476l-24.56-34.384l-10.68-19.446l-25.394-90.283  c-5.344-15.14-19.722-25.313-35.779-25.313H137.053c-16.057,0-30.435,10.173-35.779,25.314L75.88,261.647L65.2,281.092  l-24.559,34.382c-4.597,6.435-7.068,14.146-7.068,22.055v68.967h36.586c-3.558-5.428-5.634-11.915-5.634-18.891  c0-19.061,15.452-34.512,34.512-34.512s34.512,15.452,34.512,34.512c0,6.975-2.076,13.463-5.634,18.891h44.62v-12.971h155.85v12.971  h40.466c-3.558-5.428-5.634-11.915-5.634-18.891c0-19.061,15.452-34.512,34.512-34.512s34.512,15.452,34.512,34.512  c0,6.975-2.076,13.463-5.634,18.891h41.699v-68.967C468.305,329.574,465.861,321.947,461.238,315.476z"/>
<circle style="fill:#F4BA64;" cx="397.731" cy="387.61" r="34.512"/>
<path d="M403.451,334.97c-0.65,0-1.301-0.07-1.95-0.2c-0.641-0.13-1.271-0.32-1.87-0.57c-0.6-0.25-1.19-0.56-1.73-0.92  c-0.55-0.36-1.06-0.78-1.52-1.24s-0.88-0.98-1.24-1.52c-0.359-0.55-0.67-1.13-0.92-1.73s-0.439-1.23-0.57-1.87  c-0.13-0.65-0.199-1.3-0.199-1.95c0-0.66,0.069-1.31,0.199-1.96c0.131-0.64,0.32-1.27,0.57-1.87s0.561-1.18,0.92-1.73  c0.36-0.54,0.78-1.06,1.24-1.52s0.97-0.87,1.52-1.24c0.54-0.36,1.131-0.67,1.73-0.92c0.6-0.25,1.229-0.44,1.87-0.57  c1.29-0.26,2.62-0.26,3.91,0c0.64,0.13,1.27,0.32,1.87,0.57s1.18,0.56,1.729,0.92c0.54,0.37,1.05,0.78,1.51,1.24  c0.471,0.46,0.88,0.98,1.25,1.52c0.36,0.55,0.67,1.13,0.92,1.73s0.44,1.23,0.57,1.87c0.13,0.65,0.19,1.3,0.19,1.96  c0,0.65-0.061,1.3-0.19,1.95c-0.13,0.64-0.32,1.27-0.57,1.87s-0.56,1.18-0.92,1.73c-0.37,0.54-0.779,1.06-1.25,1.52  c-0.46,0.46-0.97,0.88-1.51,1.24c-0.55,0.36-1.13,0.67-1.729,0.92c-0.601,0.25-1.23,0.44-1.87,0.57  C404.761,334.9,404.101,334.97,403.451,334.97z"/>
<rect x="172.531" y="393.53" style="fill:#F4BA64;" width="155.85" height="64.08"/>
<g>
	<path style="fill:#54E3EA;" d="M127.915,406.496c-6.165,9.405-16.793,15.621-28.878,15.621s-22.713-6.216-28.878-15.621H33.573   v22.666c0,0.113,0.001,0.226,0.002,0.339C33.713,445.105,46.596,457.6,62.2,457.6h110.335v-51.104L127.915,406.496L127.915,406.496   z"/>
	<path style="fill:#54E3EA;" d="M426.606,406.496c-6.165,9.405-16.793,15.621-28.878,15.621s-22.713-6.216-28.878-15.621h-40.466   V457.6h111.294c15.604,0,28.487-12.495,28.625-28.099c0.001-0.113,0.002-0.226,0.002-0.339v-22.666L426.606,406.496   L426.606,406.496z"/>
</g>
<path d="M456.696,291.914h10.482c4.741,0,8.831-3.33,9.792-7.973l7.919-38.254c9.182-11.296,14.232-25.446,14.232-40.052  c0-33.064-25.392-60.311-57.698-63.266v-29.022c0-35.032-28.5-63.532-63.532-63.532h-79.687  c-4.458-23.562-25.187-41.441-50.026-41.441h-27.045C220.355,3.626,216.245,0,211.277,0c-5.523,0-10,4.477-10,10v8.374v1.146  h-29.438c-5.523,0-10,4.477-10,10s4.477,10,10,10h29.438v40.59h-29.438c-5.523,0-10,4.477-10,10s4.477,10,10,10h29.438v1.146v8.188  c0,5.523,4.477,10,10,10c4.903,0,8.975-3.532,9.828-8.188h27.073c24.839,0,45.568-17.879,50.026-41.441h79.687  c24.004,0,43.532,19.528,43.532,43.532v38.757c0,5.523,4.478,10,10,10h4.167c24.003,0,43.531,19.528,43.531,43.532  c0,3.108-0.34,6.185-0.987,9.185h-54.92l-12.985-46.164c-0.06-0.209-0.125-0.416-0.197-0.62  c-6.751-19.132-24.919-31.986-45.208-31.986H137.053c-20.289,0-38.457,12.855-45.209,31.986c-0.072,0.205-0.138,0.412-0.196,0.621  L78.663,214.82H22.88c-3.008,0-5.855,1.354-7.755,3.686c-1.899,2.333-2.647,5.396-2.038,8.341l11.819,57.094  c0.961,4.643,5.051,7.973,9.792,7.973h10.483l-12.677,17.748c-5.843,8.179-8.931,17.816-8.931,27.867v68.967v22.666l0.002,0.428  c0.162,18.353,13.468,33.708,30.95,37.243V478c0,18.748,15.252,34,34,34h29.28c18.748,0,34-15.252,34-34v-10.4h20.73h155.85h7.831  V478c0,18.748,15.252,34,34,34h29.279c18.748,0,34-15.252,34-34v-10.4h6.184c21.112,0,38.44-17.051,38.625-38.014l0.002-23.09  v-68.967c0-10.053-3.088-19.688-8.931-27.866L456.696,291.914z M279.104,60.33c0,17.053-13.873,30.926-30.926,30.926h-26.901V28.374  h26.901c17.053,0,30.926,13.873,30.926,30.926V60.33z M428.841,234.82h37.875l-7.679,37.094h-15.991l-7.731-14.078L428.841,234.82z   M110.806,174.409c4.014-10.994,14.523-18.359,26.247-18.359h227.772c11.725,0,22.233,7.365,26.247,18.358l25.3,89.945  c0.205,0.733,0.494,1.439,0.86,2.106l10.68,19.446c0.144,0.262,0.311,0.511,0.478,0.76c0.053,0.078,0.095,0.162,0.15,0.239  l24.56,34.384c0.001,0.001,0.001,0.001,0.001,0.001c3.405,4.766,5.205,10.381,5.205,16.24v58.967h-16.958  c0.592-2.908,0.893-5.883,0.893-8.891c0-24.544-19.968-44.512-44.512-44.512s-44.513,19.968-44.513,44.512  c0,3.007,0.302,5.984,0.893,8.891h-15.724v-2.971c0-5.523-4.478-10-10-10h-155.85c-5.523,0-10,4.477-10,10v2.971h-19.878  c0.591-2.907,0.893-5.884,0.893-8.891c0-24.544-19.968-44.512-44.512-44.512s-44.512,19.968-44.512,44.512  c0,3.007,0.301,5.984,0.893,8.891H43.573v-58.967c0-0.861,0.051-1.715,0.128-2.564h326.173c5.522,0,10-4.477,10-10s-4.478-10-10-10  H53.293l19.455-27.237c0,0,0.001-0.002,0.002-0.002l0.587-0.822c0.229-0.32,0.438-0.653,0.628-0.998l10.68-19.445  c0.366-0.667,0.655-1.373,0.861-2.106L110.806,174.409z M377.214,401.014c-2.615-3.99-3.998-8.626-3.998-13.409  c0-13.516,10.996-24.512,24.513-24.512c13.516,0,24.512,10.996,24.512,24.512c0,4.78-1.381,9.415-3.994,13.405  c-0.001,0.001-0.002,0.003-0.003,0.004c-4.558,6.953-12.227,11.104-20.515,11.104C389.441,412.117,381.772,407.966,377.214,401.014z   M78.524,401.016c-0.001-0.001-0.001-0.002-0.001-0.002c-2.616-3.99-3.998-8.626-3.998-13.409c0-13.516,10.996-24.512,24.512-24.512  s24.512,10.996,24.512,24.512c0,4.781-1.382,9.417-3.996,13.407c-0.001,0.001-0.001,0.001-0.002,0.002  c-4.558,6.953-12.227,11.104-20.515,11.104C90.75,412.117,83.081,407.967,78.524,401.016z M35.162,234.82h37.875l-6.474,23.017  l-5.275,9.605l-2.457,4.473h-15.99L35.162,234.82z M43.574,429.415l-0.001-12.919h21.606c8.408,9.869,20.701,15.621,33.858,15.621  c13.158,0,25.45-5.751,33.858-15.621h29.64V447.6h-20.73h-77.28H62.2C52.018,447.6,43.662,439.441,43.574,429.415z M131.804,478  c0,7.72-6.28,14-14,14h-29.28c-7.72,0-14-6.28-14-14v-10.4h57.28V478z M182.535,406.496v-2.971h135.85v2.971V447.6h-135.85V406.496z   M413.495,478c0,7.72-6.28,14-14,14h-29.279c-7.72,0-14-6.28-14-14v-10.4h57.279V478z M458.306,429.162l-0.002,0.251  c-0.088,10.028-8.443,18.187-18.625,18.187h-16.184h-77.279h-7.831v-31.104h25.485c8.408,9.87,20.701,15.621,33.858,15.621  s25.45-5.751,33.858-15.621h26.719L458.306,429.162L458.306,429.162z"/>
<polygon style="fill:#54E3EA;" points="363.06,186.05 138.818,186.05 113.439,276.273 388.439,276.273 "/>
<path d="M388.439,286.273h-275c-3.131,0-6.081-1.466-7.971-3.962c-1.89-2.495-2.503-5.732-1.655-8.746l25.378-90.224  c1.213-4.313,5.146-7.292,9.627-7.292h224.243c4.48,0,8.413,2.98,9.626,7.292l25.378,90.223c0.848,3.014,0.235,6.25-1.655,8.746  C394.52,284.807,391.57,286.273,388.439,286.273z M126.64,266.273h248.598l-19.752-70.223H146.393L126.64,266.273z"/>
<g>
</g>
<g>
</g>
<g>
</g>
<g>
</g>
<g>
</g>
<g>
</g>
<g>
</g>
<g>
</g>
<g>
</g>
<g>
</g>
<g>
</g>
<g>
</g>
<g>
</g>
<g>
</g>
<g>
</g>
</svg>
