<?xml version="1.0" encoding="iso-8859-1"?>
<!-- Generator: Adobe Illustrator 19.0.0, SVG Export Plug-In . SVG Version: 6.00 Build 0)  -->
<svg xmlns="http://www.w3.org/2000/svg" xmlns:xlink="http://www.w3.org/1999/xlink" version="1.1" id="Capa_1" x="0px" y="0px" viewBox="0 0 511.999 511.999" style="enable-background:new 0 0 511.999 511.999;" xml:space="preserve">
<path style="fill:#D3E567;" d="M446.087,344.834c0,69.736-88.262,126.269-88.262,126.269s-88.262-56.532-88.262-126.269  s88.262-126.269,88.262-126.269S446.087,275.098,446.087,344.834z"/>
<path style="fill:#007177;" d="M282.338,392.077H180.492v66.79h121.919v-37.297C294.944,412.612,287.945,402.699,282.338,392.077z"/>
<path style="fill:#54E3EA;" d="M282.338,392.077c-7.703-14.594-12.775-30.538-12.775-47.243c0-69.736,88.262-126.269,88.262-126.269  s22.299,14.286,44.481,37.35c9.441-21.545,14.684-45.348,14.684-70.376c0-96.947-78.591-175.538-175.538-175.538  S65.913,88.592,65.913,185.539c0,75.512,47.684,139.883,114.579,164.657v41.881L282.338,392.077L282.338,392.077z"/>
<rect x="197.728" y="458.866" style="fill:#007177;" width="87.439" height="43.13"/>
<path d="M161.281,300.31c-2.08,0-4.177-0.646-5.972-1.985c-12.302-9.177-23.053-20.263-31.955-32.948  c-17.039-24.285-26.045-52.868-26.045-82.66c0-79.479,64.661-144.141,144.142-144.141c79.479,0,144.142,64.661,144.142,144.141  c0,5.523-4.478,10-10,10c-5.522,0-10-4.477-10-10c0-68.451-55.689-124.141-124.142-124.141s-124.142,55.688-124.142,124.141  c0,25.661,7.752,50.272,22.417,71.172c7.679,10.943,16.946,20.5,27.542,28.406c4.427,3.302,5.338,9.568,2.036,13.995  C167.341,298.921,164.33,300.31,161.281,300.31z"/>
<path d="M192.041,317.457c-2.64,0-5.21-1.06-7.07-2.92c-0.46-0.47-0.88-0.98-1.25-1.53c-0.36-0.54-0.67-1.12-0.92-1.72  s-0.44-1.23-0.57-1.87c-0.13-0.65-0.19-1.3-0.19-1.96c0-0.65,0.06-1.3,0.19-1.95c0.13-0.64,0.32-1.27,0.57-1.87s0.56-1.18,0.92-1.73  c0.37-0.54,0.79-1.06,1.25-1.52c1.86-1.86,4.43-2.93,7.07-2.93c2.63,0,5.21,1.07,7.07,2.93c0.46,0.461,0.88,0.98,1.24,1.52  c0.36,0.55,0.67,1.13,0.92,1.73s0.44,1.23,0.57,1.87c0.13,0.65,0.2,1.3,0.2,1.95c0,0.66-0.07,1.31-0.2,1.96  c-0.13,0.64-0.32,1.27-0.57,1.87s-0.56,1.18-0.92,1.72c-0.36,0.55-0.78,1.06-1.24,1.53  C197.251,316.397,194.671,317.457,192.041,317.457z"/>
<path d="M456.087,344.834c0-35.558-20.374-67.349-42.049-91.116c8.588-21.69,12.951-44.59,12.951-68.179  C426.989,83.232,343.758,0,241.451,0S55.912,83.232,55.912,185.538c0,38.653,11.772,75.7,34.044,107.136  c20.417,28.818,48.158,50.953,80.535,64.342v35.061v66.79c0,5.523,4.477,10,10,10h7.24v33.128c0,5.523,4.477,10,10,10h87.438  c5.522,0,10-4.477,10-10v-33.128h7.24c5.522,0,10-4.477,10-10V447.09c14.779,14.371,28.675,24.642,35.585,29.446l-0.001,25.464  c0,5.522,4.477,10,10,10s10-4.477,10-9.999l0.001-25.701C387.159,462.919,456.087,410.243,456.087,344.834z M75.912,185.538  C75.912,94.26,150.173,20,241.451,20S406.99,94.26,406.99,185.538c0,18.064-2.856,35.67-8.502,52.522  c-17.577-16.307-32.893-26.384-35.106-27.812c-0.073-0.047-0.132-0.085-0.162-0.104c-2.465-1.58-5.452-1.975-8.178-1.185  c-0.454,0.132-0.901,0.296-1.338,0.493c-0.436,0.198-0.862,0.428-1.273,0.691c-3.792,2.429-92.868,60.338-92.868,134.69  c0,1.013,0.023,2.03,0.057,3.047c0.009,0.288,0.02,0.575,0.032,0.862c0.037,0.871,0.084,1.743,0.145,2.616  c0.023,0.339,0.052,0.677,0.079,1.015c0.057,0.707,0.121,1.415,0.195,2.124c0.05,0.484,0.104,0.968,0.16,1.451  c0.05,0.425,0.106,0.851,0.162,1.276c0.159,1.216,0.339,2.428,0.543,3.634c0.009,0.051,0.016,0.101,0.025,0.151  c0.13,0.767,0.272,1.532,0.419,2.294c0.002,0.01,0.004,0.019,0.006,0.029c1.245,6.417,3.085,12.676,5.407,18.745h-15.341V260.254  c0-0.063-0.008-0.125-0.01-0.188l41.407-41.406c3.905-3.905,3.905-10.237,0-14.143c-3.904-3.904-10.234-3.904-14.143,0  l-37.255,37.255l-37.254-37.255c-3.905-3.905-10.237-3.905-14.143,0c-3.905,3.905-3.905,10.237,0,14.143l41.406,41.406  c-0.001,0.063-0.009,0.124-0.009,0.188v121.823h-40.96v-31.881c0-4.184-2.604-7.925-6.527-9.377  C119.335,316.883,75.912,254.481,75.912,185.538z M285.171,448.868h-87.438h-7.24v-46.791h85.919  c4.758,8.223,10.223,15.97,16,23.151v23.64H285.171z M275.171,491.995h-67.438v-23.128h67.438V491.995z M367.995,451.276  l0.002-80.615l37.042-37.55c3.879-3.932,3.835-10.263-0.097-14.142c-3.931-3.878-10.262-3.836-14.142,0.096l-22.803,23.116  l0.002-27.184c0-5.522-4.477-10-10-10c-5.522,0-10,4.477-10,10l-0.002,74.341l-27.102-27.102c-3.906-3.905-10.236-3.905-14.143,0  c-3.905,3.905-3.905,10.237,0,14.143l41.244,41.243l-0.001,33.923c-11.64-9.192-27.971-23.562-41.762-41.178  c-0.379-0.486-0.76-0.971-1.131-1.457c-0.299-0.391-0.598-0.783-0.894-1.176c-0.729-0.969-1.448-1.939-2.146-2.908  c-0.05-0.069-0.099-0.139-0.149-0.208c-4.133-5.758-7.725-11.514-10.73-17.206c-0.001-0.001-0.001-0.002-0.001-0.002  c-7.221-13.681-11.108-27.113-11.572-39.97c0-0.014-0.002-0.028-0.002-0.042c-0.03-0.857-0.046-1.712-0.046-2.564  c0-6.73,0.934-13.354,2.604-19.819c11.693-45.253,59.475-82.703,75.664-94.308c0.071,0.05,0.147,0.106,0.219,0.157  c0.313,0.224,0.641,0.461,0.977,0.704c0.186,0.135,0.372,0.27,0.566,0.411c0.377,0.275,0.768,0.562,1.169,0.858  c0.236,0.175,0.481,0.356,0.726,0.538c0.248,0.184,0.503,0.375,0.759,0.567c0.427,0.32,0.865,0.65,1.314,0.991  c0.232,0.176,0.466,0.354,0.704,0.535c0.323,0.247,0.648,0.496,0.981,0.752c0.223,0.172,0.454,0.352,0.682,0.528  c0.543,0.421,1.096,0.853,1.663,1.299c0.211,0.166,0.426,0.337,0.64,0.506c0.587,0.465,1.185,0.943,1.794,1.433  c0.245,0.197,0.491,0.395,0.739,0.597c0.376,0.305,0.754,0.612,1.137,0.926c0.496,0.406,0.998,0.821,1.506,1.243  c0.358,0.297,0.721,0.602,1.084,0.906c0.364,0.306,0.732,0.616,1.101,0.93c0.454,0.385,0.911,0.775,1.372,1.17  c0.462,0.397,0.927,0.799,1.396,1.207c0.285,0.248,0.571,0.496,0.858,0.748c0.674,0.592,1.354,1.193,2.039,1.806  c0.194,0.174,0.389,0.35,0.584,0.525c4.3,3.871,8.788,8.153,13.259,12.801c0.033,0.034,0.071,0.062,0.105,0.096  c20.595,21.394,40.884,50.447,40.884,81.891C436.087,390.976,392.196,432.107,367.995,451.276z"/>
<g>
</g>
<g>
</g>
<g>
</g>
<g>
</g>
<g>
</g>
<g>
</g>
<g>
</g>
<g>
</g>
<g>
</g>
<g>
</g>
<g>
</g>
<g>
</g>
<g>
</g>
<g>
</g>
<g>
</g>
</svg>
