<?xml version="1.0" encoding="iso-8859-1"?>
<!-- Generator: Adobe Illustrator 19.0.0, SVG Export Plug-In . SVG Version: 6.00 Build 0)  -->
<svg xmlns="http://www.w3.org/2000/svg" xmlns:xlink="http://www.w3.org/1999/xlink" version="1.1" id="Capa_1" x="0px" y="0px" viewBox="0 0 512 512" style="enable-background:new 0 0 512 512;" xml:space="preserve">
<path style="fill:#54E3EA;" d="M383.527,137.527C383.527,67.096,326.431,10,256,10S128.473,67.096,128.473,137.527  c0,54.859,34.641,101.623,83.24,119.622v25.669h88.573v-25.669C348.886,239.15,383.527,192.385,383.527,137.527z"/>
<rect x="211.71" y="282.82" style="fill:#007177;" width="88.57" height="39.681"/>
<path d="M191.418,207.807c-2.652,0-5.299-1.048-7.266-3.127c-3.334-3.523-6.444-7.334-9.247-11.327  c-11.702-16.678-17.888-36.308-17.888-56.766c0-54.579,44.403-98.981,98.982-98.981c54.578,0,98.981,44.403,98.981,98.981  c0,5.523-4.477,10-10,10c-5.522,0-10-4.477-10-10c0-43.55-35.431-78.981-78.981-78.981s-78.982,35.431-78.982,78.981  c0,16.326,4.931,31.983,14.259,45.278c2.245,3.199,4.735,6.251,7.402,9.069c3.796,4.011,3.621,10.341-0.391,14.137  C196.356,206.9,193.884,207.807,191.418,207.807z"/>
<path d="M223.22,229.34c-0.65,0-1.31-0.07-1.95-0.2c-0.64-0.13-1.27-0.32-1.87-0.57c-0.61-0.25-1.19-0.56-1.73-0.92  c-0.55-0.36-1.06-0.78-1.52-1.24s-0.88-0.98-1.24-1.52c-0.36-0.55-0.67-1.13-0.92-1.73c-0.25-0.6-0.44-1.23-0.57-1.87  s-0.2-1.3-0.2-1.95s0.07-1.31,0.2-1.96c0.13-0.64,0.32-1.26,0.57-1.87c0.25-0.6,0.56-1.18,0.92-1.72c0.36-0.55,0.78-1.06,1.24-1.53  c0.46-0.46,0.97-0.87,1.52-1.24c0.54-0.36,1.12-0.67,1.73-0.92c0.6-0.25,1.23-0.44,1.87-0.57c1.29-0.26,2.62-0.26,3.91,0  c0.63,0.13,1.26,0.32,1.87,0.57c0.6,0.25,1.18,0.56,1.72,0.92c0.55,0.37,1.06,0.78,1.52,1.24c0.46,0.47,0.88,0.98,1.25,1.53  c0.36,0.54,0.67,1.12,0.92,1.72c0.25,0.61,0.44,1.23,0.57,1.87c0.13,0.65,0.19,1.31,0.19,1.96s-0.06,1.31-0.19,1.95  s-0.32,1.27-0.57,1.87c-0.25,0.6-0.56,1.18-0.92,1.73c-0.37,0.54-0.79,1.06-1.25,1.52s-0.97,0.88-1.52,1.24  c-0.54,0.36-1.12,0.67-1.72,0.92c-0.61,0.25-1.24,0.44-1.87,0.57C224.53,229.27,223.88,229.34,223.22,229.34z"/>
<path style="fill:#59C671;" d="M388.254,460.695c-41.595,41.595-127.958,22.669-127.958,22.669s-18.925-86.363,22.669-127.958  c41.595-41.594,127.958-22.669,127.958-22.669S429.848,419.1,388.254,460.695z"/>
<path style="fill:#D3E567;" d="M123.746,460.695c41.595,41.595,127.958,22.669,127.958,22.669s18.925-86.363-22.669-127.958  c-41.595-41.594-127.958-22.669-127.958-22.669S82.152,419.1,123.746,460.695z"/>
<path d="M420.691,330.596c-0.836-3.813-3.814-6.792-7.628-7.627c-2.957-0.647-58.763-12.476-104.239,4.716  c0.921-1.513,1.462-3.284,1.462-5.186v-39.681V263.92c23.276-9.988,43.228-26.122,58.005-46.979  c16.509-23.302,25.235-50.763,25.235-79.414C393.526,61.694,331.832,0,256,0c-75.833,0-137.527,61.694-137.527,137.527  c0,28.651,8.727,56.112,25.236,79.414c14.777,20.857,34.728,36.99,58.005,46.979v18.898v39.681c0,1.901,0.54,3.672,1.461,5.186  c-45.476-17.192-101.282-5.364-104.239-4.716c-3.813,0.835-6.792,3.814-7.627,7.627c-0.821,3.745-19.579,92.224,25.366,137.169  v0.001c24.218,24.217,61.067,29.939,90.497,29.939c16.412,0,30.513-1.78,38.828-3.126V502c0,5.523,4.477,10,10,10  c5.522,0,10-4.477,10-10v-7.421c8.314,1.346,22.413,3.126,38.828,3.126c29.428,0,66.282-5.725,90.497-29.939  C440.271,422.82,421.512,334.341,420.691,330.596z M221.714,292.818H246v19.681h-24.286V292.818z M266,292.818h24.286v19.681H266  V292.818z M297.925,332.499c-8.003,4.097-15.482,9.286-22.032,15.836c-3.722,3.722-6.999,7.748-9.894,11.995v-27.831H297.925z   M138.473,137.527C138.473,72.722,191.195,20,256,20s117.526,52.722,117.526,117.527c0,48.947-30.829,93.25-76.713,110.245  c-3.924,1.453-6.527,5.194-6.527,9.377v15.669H266v-79.659l29.339-29.338c3.905-3.905,3.905-10.237,0-14.142s-10.235-3.905-14.143,0  L256,174.874l-25.196-25.196c-3.905-3.905-10.237-3.905-14.143,0c-3.905,3.905-3.905,10.237,0,14.143L246,193.159v79.659h-24.286  v-15.669c0-4.183-2.604-7.925-6.527-9.377C169.302,230.777,138.473,186.474,138.473,137.527z M246,332.499v27.831  c-2.895-4.247-6.172-8.273-9.894-11.995c-6.551-6.55-14.03-11.739-22.032-15.836H246z M130.817,453.624  c-31.01-31.011-24.314-92.305-21.131-112.288c19.982-3.207,81.189-9.946,112.277,21.142c18.817,18.817,23.749,48.785,24.008,73.908  c-0.017,1.556-0.018,3.093-0.004,4.608c-0.094,8.046-0.63,15.462-1.284,21.676l-62.109-57.503  c-4.052-3.753-10.379-3.509-14.131,0.544c-3.752,4.052-3.508,10.379,0.544,14.131l61.127,56.593  C203.662,479.121,156.697,479.503,130.817,453.624z M381.183,453.624c-26.033,26.034-73.407,25.491-99.767,22.764l45.303-45.303  l44.057-0.3c5.522-0.038,9.969-4.545,9.932-10.068c-0.038-5.499-4.507-9.932-9.999-9.932c-0.022,0-0.046,0-0.069,0l-23.782,0.162  l13.528-13.528c3.905-3.905,3.905-10.237,0-14.142c-3.906-3.905-10.236-3.905-14.143,0l-41.474,41.474v-28.347  c0-5.523-4.478-10-10-10s-10,4.477-10,10v48.347l-17.516,17.516c-0.601-5.746-1.098-12.489-1.236-19.798  c0.039-2.488,0.04-5.036-0.007-7.634c0.437-24.774,5.553-53.883,24.027-72.357c31.01-31.01,92.305-24.314,112.288-21.131  C405.531,361.324,412.272,422.534,381.183,453.624z"/>
<g>
</g>
<g>
</g>
<g>
</g>
<g>
</g>
<g>
</g>
<g>
</g>
<g>
</g>
<g>
</g>
<g>
</g>
<g>
</g>
<g>
</g>
<g>
</g>
<g>
</g>
<g>
</g>
<g>
</g>
</svg>
