<?xml version="1.0" encoding="iso-8859-1"?>
<!-- Generator: Adobe Illustrator 19.0.0, SVG Export Plug-In . SVG Version: 6.00 Build 0)  -->
<svg xmlns="http://www.w3.org/2000/svg" xmlns:xlink="http://www.w3.org/1999/xlink" version="1.1" id="Capa_1" x="0px" y="0px" viewBox="0 0 512 512" style="enable-background:new 0 0 512 512;" xml:space="preserve">
<path style="fill:#54E3EA;" d="M474.27,142.54c-14.72-28.28-34.78-53.34-58.84-73.85c-19.91-16.97-42.57-30.83-67.2-40.8  C319.75,16.35,288.62,10,256,10c-9.47,0-18.81,0.59-28,1.64C143.55,21.2,72.06,73.54,35.72,146.46C19.29,179.44,10,216.65,10,256  c0,135.84,110.17,246,246,246c91.81,0,171.88-50.36,214.13-124.91c20.25-35.75,31.87-77.07,31.87-121.1  C502,215.08,491.96,176.48,474.27,142.54z"/>
<path style="fill:#59C671;" d="M502,255.995c0,44.024-11.617,85.348-31.87,121.093c-33.955-5.837-71.573-14.778-80.546-41.685  l-3.633-70.921c-1.439-4.315-4.523-7.875-8.6-9.914l-18.452-9.231c-45.194-3.497-38.43-87.836-28.074-127.405  c2.963-11.321,15.539-17.104,26.084-12.031l69.123,33.256c2.349,0,40.03,10.453,48.237,3.385  C491.956,176.484,502,215.075,502,255.995z"/>
<path d="M403.12,412.3c-2.63,0-5.21-1.07-7.07-2.93c-0.46-0.46-0.88-0.971-1.24-1.52c-0.359-0.54-0.67-1.12-0.92-1.73  c-0.25-0.601-0.439-1.23-0.57-1.87c-0.13-0.641-0.199-1.3-0.199-1.95s0.069-1.31,0.199-1.96c0.131-0.63,0.32-1.26,0.57-1.87  c0.25-0.6,0.561-1.18,0.92-1.72c0.36-0.55,0.78-1.06,1.24-1.521c1.86-1.859,4.44-2.93,7.07-2.93c2.64,0,5.21,1.07,7.069,2.93  c0.46,0.46,0.88,0.971,1.25,1.521c0.36,0.54,0.67,1.12,0.92,1.72c0.25,0.61,0.44,1.24,0.57,1.87c0.13,0.65,0.19,1.31,0.19,1.96  s-0.06,1.31-0.19,1.95s-0.32,1.27-0.57,1.87c-0.25,0.609-0.56,1.19-0.92,1.73c-0.37,0.55-0.79,1.061-1.25,1.52  C408.33,411.229,405.75,412.3,403.12,412.3z"/>
<polygon style="fill:#F9D973;" points="367.037,258.564 294.822,258.564 294.362,85.406 144.963,258.564 228.921,258.567   229.299,426.594 "/>
<path style="fill:#59C671;" d="M228.921,258.567l-83.958-0.003l40.338-46.753c-22.225-3.542-30.326-22.722-39.506-25.444  c-7.555-2.235-13.65-7.814-16.579-15.12c-1.262-3.146-1.852-6.385-1.852-9.552c0-11.291,7.513-21.795,19.176-24.941  c9.149-2.473,18.67-3.788,25.065-1.366l8.879,3.343c1.769,0.683,3.643,1.045,5.537,1.045c3.436,0,6.665-1.159,9.262-3.136  c2.597-1.987,4.564-4.791,5.464-8.114l15.213-55.791c0.973-3.57,3.281-6.644,6.437-8.569l11.891-7.265  c4.315-2.639,6.954-7.337,6.954-12.398v-2.95c0-2.256-0.528-4.471-1.531-6.489L228,11.64  C143.553,21.202,72.058,73.543,35.723,146.462l4.171,1.045c15.13,3.788,28.801,11.974,39.274,23.533  c5.495,6.054,9.966,12.884,13.319,20.232c3.353,7.348,5.568,15.213,6.541,23.327l3.425,28.656c0,0,7.741,19.756,17.241,24.496  c1.728,0.869,3.239,2.049,4.481,3.477c1.242,1.428,2.194,3.105,2.805,4.926l32.775,98.087c3.394,10.152,12.843,17.034,23.544,17.138  h0.269c10.556,0,19.994-6.592,23.616-16.517c5.547-15.198,14.023-38.475,21.863-60.018L228.921,258.567z"/>
<path d="M512,255.993c0-0.001,0-0.002,0-0.003c0-41.017-9.98-81.846-28.862-118.072c-15.307-29.405-35.904-55.257-61.221-76.838  c-20.978-17.881-44.508-32.166-69.932-42.459C321.49,6.266,289.196,0,256,0c-9.434,0-19.236,0.573-29.125,1.703  c-42.668,4.83-83.764,20.54-118.843,45.432c-34.397,24.406-62.497,57.21-81.264,94.866C9.007,177.657,0,216.012,0,256  c0,68.368,26.633,132.652,74.993,181.011C123.352,485.368,187.635,512,256,512c46.118,0,91.337-12.417,130.769-35.908  c38.271-22.8,70.104-55.329,92.063-94.073c1.922-3.392,3.759-6.828,5.519-10.3C502.468,335.993,512,296.231,512,255.995  C512,255.994,512,255.993,512,255.993z M491.896,262.815c-0.005,0.172-0.007,0.344-0.013,0.515c-0.067,2.162-0.17,4.32-0.297,6.477  c-0.016,0.279-0.03,0.558-0.047,0.836c-0.13,2.086-0.292,4.169-0.477,6.249c-0.031,0.342-0.06,0.685-0.092,1.027  c-0.19,2.038-0.409,4.072-0.652,6.102c-0.045,0.375-0.09,0.75-0.137,1.124c-0.251,2.013-0.527,4.021-0.829,6.026  c-0.057,0.378-0.116,0.756-0.175,1.134c-0.313,2.006-0.648,4.009-1.012,6.005c-0.066,0.36-0.135,0.719-0.202,1.079  c-0.378,2.02-0.777,4.035-1.208,6.043c-0.066,0.31-0.137,0.619-0.205,0.928c-0.45,2.061-0.922,4.117-1.427,6.164  c-0.053,0.214-0.11,0.427-0.163,0.641c-0.505,2.022-1.035,4.038-1.593,6.045c-0.049,0.176-0.094,0.353-0.143,0.528  c-0.574,2.048-1.182,4.085-1.811,6.116c-0.089,0.288-0.175,0.578-0.265,0.866c-0.615,1.958-1.26,3.908-1.925,5.849  c-0.12,0.351-0.238,0.703-0.36,1.054c-0.662,1.902-1.352,3.795-2.062,5.68c-0.142,0.375-0.282,0.751-0.426,1.126  c-0.717,1.871-1.458,3.734-2.222,5.587c-0.153,0.37-0.306,0.74-0.461,1.109c-0.779,1.863-1.582,3.717-2.409,5.559  c-0.151,0.336-0.304,0.67-0.456,1.006c-0.854,1.878-1.729,3.746-2.633,5.601c-0.132,0.27-0.267,0.539-0.399,0.809  c-0.943,1.918-1.909,3.826-2.905,5.719c-0.028,0.053-0.057,0.106-0.085,0.159c-30.363-5.63-58.076-13.897-65.308-32.562  l-3.557-69.45c-0.047-0.902-0.215-1.794-0.5-2.65c-2.293-6.878-7.128-12.452-13.612-15.695l-18.452-9.231  c-1.156-0.578-2.414-0.927-3.703-1.027c-6.757-0.523-11.832-3.475-15.975-9.291c-15.554-21.843-11.233-74.908-3.197-105.611  c0.891-3.4,3.326-4.974,4.699-5.608c1.383-0.639,4.18-1.482,7.375,0.058l69.123,33.256c1.07,0.515,2.221,0.833,3.398,0.944  c0.643,0.118,2.255,0.474,3.691,0.79c17.093,3.769,30.63,5.919,40.326,4.74c0.49,1.03,0.966,2.066,1.441,3.103  c0.384,0.838,0.78,1.671,1.153,2.514c0.58,1.307,1.133,2.627,1.689,3.945c0.33,0.781,0.674,1.556,0.995,2.34  c0.839,2.05,1.649,4.113,2.43,6.186c0.353,0.936,0.678,1.883,1.019,2.824c0.43,1.188,0.868,2.372,1.278,3.566  c0.36,1.046,0.695,2.101,1.04,3.153c0.362,1.101,0.73,2.201,1.075,3.307c0.337,1.08,0.652,2.167,0.974,3.251  c0.323,1.091,0.65,2.18,0.958,3.276c0.307,1.094,0.596,2.193,0.888,3.291c0.291,1.098,0.583,2.195,0.858,3.297  c0.275,1.099,0.535,2.202,0.794,3.304c0.261,1.113,0.519,2.226,0.764,3.342c0.241,1.098,0.472,2.197,0.697,3.299  c0.232,1.133,0.457,2.267,0.672,3.404c0.207,1.09,0.407,2.181,0.598,3.274c0.203,1.16,0.395,2.322,0.581,3.485  c0.172,1.075,0.341,2.151,0.498,3.229c0.174,1.195,0.333,2.393,0.489,3.591c0.137,1.051,0.275,2.101,0.398,3.154  c0.145,1.243,0.271,2.489,0.396,3.735c0.102,1.013,0.21,2.026,0.298,3.041c0.115,1.319,0.207,2.64,0.3,3.96  c0.067,0.945,0.143,1.889,0.199,2.835c0.087,1.484,0.144,2.97,0.203,4.456c0.031,0.786,0.076,1.572,0.099,2.359  c0.066,2.254,0.102,4.509,0.102,6.765c0,0.021,0.001,0.043,0.001,0.064c0,0.002,0,0.005,0,0.007  C492,258.274,491.962,260.546,491.896,262.815z M238.921,258.545c-0.013-5.514-4.485-9.977-10-9.977l-62.123-0.003l117.635-136.343  l0.39,146.368c0.015,5.513,4.487,9.974,10,9.974h51.087L239.236,398.697l-0.189-83.868c0-0.002,0-0.005,0-0.007L238.921,258.545z   M50.348,140.219c0.031-0.055,0.063-0.11,0.094-0.165c3.308-5.867,6.844-11.558,10.593-17.067c0.078-0.115,0.156-0.231,0.235-0.346  c1.187-1.738,2.397-3.455,3.626-5.156c0.124-0.171,0.247-0.343,0.371-0.514c1.215-1.671,2.45-3.324,3.705-4.959  c0.135-0.175,0.27-0.35,0.405-0.525c1.267-1.642,2.553-3.266,3.861-4.87c0.109-0.134,0.219-0.266,0.328-0.399  c1.349-1.649,2.717-3.28,4.107-4.888c0.032-0.037,0.064-0.073,0.096-0.109c2.857-3.299,5.8-6.511,8.824-9.635  c0.101-0.104,0.201-0.21,0.302-0.314c1.434-1.476,2.888-2.929,4.357-4.365c0.164-0.16,0.328-0.322,0.492-0.482  c1.444-1.402,2.906-2.784,4.384-4.147c0.188-0.173,0.376-0.346,0.564-0.519c1.482-1.358,2.979-2.697,4.493-4.015  c0.173-0.15,0.347-0.299,0.52-0.449c1.551-1.342,3.117-2.666,4.701-3.965c0.103-0.085,0.208-0.168,0.311-0.252  c3.306-2.702,6.684-5.313,10.13-7.829c0.112-0.082,0.223-0.165,0.335-0.247c1.646-1.198,3.311-2.37,4.987-3.525  c0.201-0.139,0.402-0.279,0.604-0.417c1.637-1.119,3.289-2.216,4.953-3.293c0.237-0.154,0.475-0.307,0.713-0.46  c1.66-1.066,3.333-2.111,5.02-3.135c0.232-0.141,0.465-0.28,0.697-0.42c1.715-1.033,3.442-2.046,5.184-3.035  c0.177-0.1,0.355-0.199,0.533-0.298c1.814-1.023,3.64-2.027,5.482-3.003c0.038-0.02,0.077-0.04,0.116-0.06  c1.862-0.985,3.739-1.942,5.628-2.877c0.115-0.057,0.229-0.116,0.345-0.173c1.826-0.9,3.667-1.771,5.517-2.624  c0.232-0.107,0.463-0.215,0.695-0.321c1.794-0.819,3.6-1.614,5.416-2.388c0.286-0.122,0.571-0.244,0.857-0.365  c1.801-0.759,3.612-1.497,5.434-2.212c0.291-0.114,0.582-0.226,0.873-0.339c1.841-0.714,3.692-1.409,5.554-2.078  c0.248-0.089,0.497-0.175,0.746-0.264c1.923-0.684,3.855-1.347,5.8-1.982c0.132-0.043,0.265-0.083,0.397-0.126  c1.976-0.641,3.962-1.257,5.959-1.847c0.097-0.028,0.194-0.059,0.291-0.088c1.98-0.582,3.973-1.133,5.973-1.664  c0.248-0.066,0.495-0.134,0.743-0.199c1.925-0.504,3.86-0.981,5.802-1.438c0.319-0.075,0.637-0.151,0.956-0.224  c1.915-0.442,3.839-0.859,5.77-1.254c0.335-0.068,0.67-0.136,1.005-0.203c1.943-0.389,3.892-0.755,5.85-1.096  c0.301-0.052,0.603-0.102,0.904-0.153c2.011-0.342,4.028-0.663,6.054-0.954c0.062-0.009,0.124-0.017,0.186-0.026l8.527,17.056  c0.322,0.647,0.485,1.332,0.485,2.036v2.949c0,1.566-0.832,3.048-2.168,3.865l-11.882,7.26c-5.364,3.27-9.228,8.412-10.88,14.477  l-15.217,55.806c-0.38,1.4-1.236,2.288-1.868,2.771c-0.941,0.718-2.852,1.602-5.22,0.69l-8.862-3.336  c-7.644-2.896-17.856-2.548-31.21,1.063c-15.646,4.22-26.572,18.446-26.572,34.596c0,4.556,0.864,9.021,2.569,13.273  c4.098,10.221,12.489,17.87,22.945,20.962c1.213,0.492,4.187,3.479,6.358,5.659c4.48,4.5,10.454,10.498,18.827,14.892l-30.672,35.55  c-2.555,2.961-3.149,7.14-1.521,10.696c0.407,0.889,0.934,1.698,1.557,2.412c1.869,2.141,4.601,3.424,7.533,3.424l73.982,0.004  l0.1,44.527c-7.668,21.065-15.849,43.535-21.253,58.34c-2.172,5.949-7.888,9.946-14.223,9.946h-0.173  c-6.427-0.062-12.115-4.205-14.156-10.308l-32.778-98.1c-1.036-3.086-2.63-5.88-4.741-8.308c-2.113-2.431-4.648-4.397-7.561-5.862  c-3.366-1.68-8.813-10.608-11.935-18.067l-3.268-27.327c-1.093-9.119-3.573-17.963-7.371-26.288  c-3.814-8.356-8.865-16.027-15.007-22.795C76.626,153.34,64.221,145.108,50.348,140.219z M344.478,37.159  c23.434,9.486,45.123,22.655,64.464,39.142c19.727,16.817,36.333,36.452,49.525,58.488c-5.37-0.509-13.387-1.774-25.376-4.417  c-1.807-0.398-3.076-0.679-4.057-0.868l-67.79-32.614c-7.739-3.724-16.647-3.792-24.441-0.188  c-7.779,3.597-13.484,10.412-15.652,18.696c-7.513,28.705-15.875,91.202,6.254,122.276c3.158,4.435,6.866,8.078,11.034,10.89  h-33.643L304.361,85.38c-0.011-4.174-2.613-7.902-6.527-9.352c-3.916-1.45-8.317-0.314-11.044,2.846L181.719,200.655  c-7.812-2.652-13.138-7.983-18.31-13.177c-4.591-4.61-8.927-8.965-14.777-10.699c-4.633-1.371-8.327-4.743-10.135-9.252  c-0.752-1.875-1.133-3.837-1.133-5.831c0-7.129,4.844-13.415,11.785-15.287c12.623-3.414,17.669-2.14,18.933-1.661l8.803,3.313  c2.949,1.139,6.023,1.716,9.137,1.716c5.49,0,10.93-1.839,15.339-5.193c4.391-3.358,7.601-8.132,9.035-13.425l15.214-55.793  c0.3-1.101,1.026-2.07,2.003-2.665l11.895-7.268c7.239-4.428,11.736-12.447,11.736-20.929v-2.949c0-3.768-0.892-7.552-2.587-10.961  l-5.116-10.233C247.754,20.128,251.919,20,256,20C286.609,20,316.377,25.772,344.478,37.159z M256,492  C125.869,492,20,386.131,20,256c0-34.137,7.132-66.974,21.183-97.74c7.714,2.394,14.894,6.087,21.263,10.94  c-12.873,28.169-19.661,59.036-19.661,89.737c0,118.307,96.25,214.557,214.557,214.557c42.384,0,83.402-12.396,118.621-35.847  c4.598-3.061,5.843-9.269,2.781-13.865c-3.06-4.598-9.271-5.843-13.865-2.781c-31.925,21.257-69.11,32.493-107.537,32.493  c-107.279,0-194.557-87.277-194.557-194.557c0-25.175,5.047-50.48,14.649-73.999c2.277,3.305,4.276,6.806,5.955,10.486  c2.94,6.444,4.861,13.297,5.708,20.361l3.426,28.657c0.102,0.843,0.309,1.67,0.619,2.461c1.526,3.897,9.769,23.65,22.06,29.782  c0.55,0.276,1.03,0.649,1.427,1.104c0.375,0.432,0.677,0.967,0.867,1.534l32.774,98.089c4.745,14.191,17.98,23.822,33.028,23.968  h0.27c14.703,0,27.969-9.278,33.01-23.089c0.805-2.206,1.678-4.599,2.596-7.116l0.125,55.441c0.01,4.221,2.668,7.981,6.645,9.397  c1.099,0.392,2.231,0.581,3.354,0.581c2.939,0,5.799-1.299,7.735-3.661l137.738-168.03c0.003-0.003,0.004-0.007,0.007-0.01  c0.508,0.516,0.94,1.104,1.271,1.756l3.548,69.265c0.047,0.902,0.215,1.795,0.501,2.651c9.068,27.192,39.692,38.668,73.978,45.692  C410.731,451.054,336.09,492,256,492z"/>
<g>
</g>
<g>
</g>
<g>
</g>
<g>
</g>
<g>
</g>
<g>
</g>
<g>
</g>
<g>
</g>
<g>
</g>
<g>
</g>
<g>
</g>
<g>
</g>
<g>
</g>
<g>
</g>
<g>
</g>
</svg>
