<?xml version="1.0" encoding="iso-8859-1"?>
<!-- Generator: Adobe Illustrator 19.0.0, SVG Export Plug-In . SVG Version: 6.00 Build 0)  -->
<svg xmlns="http://www.w3.org/2000/svg" xmlns:xlink="http://www.w3.org/1999/xlink" version="1.1" id="Capa_1" x="0px" y="0px" viewBox="0 0 511.999 511.999" style="enable-background:new 0 0 511.999 511.999;" xml:space="preserve">
<g>
	<rect x="150.439" y="53.45" style="fill:#007177;" width="80.81" height="42.607"/>
	<rect x="121.149" y="10" style="fill:#007177;" width="139.4" height="43.45"/>
</g>
<path d="M434.398,251.59c-0.659,0-1.31-0.061-1.96-0.19c-0.64-0.13-1.27-0.319-1.87-0.569s-1.18-0.561-1.729-0.92  c-0.54-0.37-1.06-0.79-1.521-1.25c-0.46-0.46-0.869-0.971-1.239-1.521c-0.36-0.54-0.67-1.12-0.92-1.729  c-0.25-0.601-0.441-1.23-0.57-1.87c-0.13-0.641-0.19-1.3-0.19-1.95s0.061-1.311,0.19-1.95c0.13-0.64,0.32-1.27,0.57-1.87  c0.25-0.609,0.559-1.189,0.92-1.73c0.37-0.55,0.779-1.06,1.239-1.52c0.461-0.46,0.98-0.88,1.521-1.24  c0.55-0.359,1.13-0.67,1.729-0.92c0.601-0.25,1.23-0.449,1.87-0.569c1.29-0.261,2.62-0.261,3.91,0  c0.641,0.12,1.271,0.319,1.87,0.569c0.6,0.25,1.18,0.561,1.72,0.92c0.551,0.36,1.06,0.78,1.521,1.24c0.47,0.46,0.88,0.971,1.25,1.52  c0.359,0.54,0.67,1.12,0.92,1.73c0.25,0.601,0.439,1.23,0.57,1.87c0.13,0.64,0.189,1.3,0.189,1.95s-0.06,1.31-0.189,1.95  c-0.131,0.64-0.32,1.27-0.57,1.87c-0.25,0.609-0.561,1.189-0.92,1.729c-0.37,0.55-0.78,1.061-1.25,1.521  c-0.46,0.46-0.97,0.88-1.521,1.25c-0.54,0.359-1.12,0.67-1.72,0.92s-1.229,0.439-1.87,0.569  C435.699,251.529,435.049,251.59,434.398,251.59z"/>
<path style="fill:#F4BA64;" d="M265.228,96.058H105.885c-15.619,0-28.281,12.662-28.281,28.281v337.996  c0,21.906,17.759,39.665,39.665,39.665h277.46c21.906,0,39.665-17.759,39.665-39.665v-169.04L265.228,96.058z"/>
<path style="fill:#D3E567;" d="M320.791,286.3c-0.117,53.002-67.42,96.008-67.245,96.201c0.061-0.24-67.202-43.238-67.244-96.201  c-0.043-53.13,67.244-96.201,67.244-96.201S320.909,233.17,320.791,286.3z"/>
<g>
	<path style="fill:#59C671;" d="M358.839,449.63c-33.115,33.115-101.873,18.048-101.873,18.048s-15.067-68.757,18.048-101.873   c33.115-33.115,101.872-18.048,101.872-18.048S391.955,416.515,358.839,449.63z"/>
	<path style="fill:#59C671;" d="M148.254,449.63c33.115,33.115,101.873,18.048,101.873,18.048s15.067-68.757-18.048-101.873   c-33.115-33.115-101.872-18.048-101.872-18.048S115.139,416.515,148.254,449.63z"/>
</g>
<path d="M253.549,249.569c-0.65,0-1.31-0.069-1.96-0.199c-0.63-0.13-1.26-0.32-1.87-0.57c-0.6-0.25-1.18-0.56-1.72-0.92  c-0.55-0.36-1.06-0.78-1.52-1.24s-0.88-0.97-1.25-1.52c-0.36-0.54-0.67-1.12-0.92-1.73c-0.25-0.6-0.441-1.229-0.57-1.87  c-0.13-0.64-0.19-1.3-0.19-1.95c0-0.649,0.06-1.31,0.19-1.96c0.13-0.63,0.32-1.26,0.57-1.869c0.25-0.601,0.559-1.181,0.92-1.721  c0.37-0.55,0.79-1.059,1.25-1.52c0.46-0.46,0.97-0.88,1.52-1.25c0.54-0.351,1.12-0.66,1.72-0.91c0.61-0.25,1.24-0.45,1.87-0.57  c1.29-0.26,2.62-0.26,3.91,0c0.64,0.12,1.27,0.32,1.87,0.57c0.609,0.25,1.189,0.56,1.729,0.91c0.55,0.37,1.061,0.79,1.521,1.25  s0.88,0.97,1.239,1.52c0.36,0.54,0.671,1.12,0.921,1.721c0.25,0.609,0.439,1.239,0.569,1.869c0.13,0.65,0.2,1.311,0.2,1.96  c0,0.65-0.07,1.311-0.2,1.95c-0.13,0.641-0.319,1.27-0.569,1.87c-0.25,0.61-0.561,1.19-0.921,1.73  c-0.359,0.55-0.779,1.06-1.239,1.52c-0.46,0.46-0.971,0.88-1.521,1.24c-0.54,0.36-1.12,0.67-1.729,0.92  c-0.6,0.25-1.23,0.44-1.87,0.57C254.859,249.5,254.199,249.569,253.549,249.569z"/>
<path d="M434.395,210.327c5.522,0,10-4.478,10-10V158.19c0-39.774-32.358-72.133-72.133-72.133H265.227h-23.971V63.45h19.291  c5.522,0,10-4.478,10-10V10c0-5.523-4.478-10-10-10H121.15c-5.523,0-10,4.477-10,10v43.45c0,5.522,4.477,10,10,10h19.291v22.607  h-34.556c-21.108,0-38.281,17.173-38.281,38.281v337.996c0,27.386,22.28,49.665,49.665,49.665h277.46  c27.386,0,49.665-22.279,49.665-49.665v-169.04c0-2.388-0.854-4.697-2.409-6.51L286.978,106.058h85.283  c28.746,0,52.133,23.387,52.133,52.133v42.137C424.395,205.85,428.872,210.327,434.395,210.327z M131.15,20h119.396v23.45h-19.291  H150.44h-19.291V20H131.15z M160.441,63.45h60.815v22.607h-60.815V63.45z M138.846,356.385c16.274-2.476,59.162-6.555,83.266,13.855  c0.72,0.657,1.437,1.305,2.151,1.94c0.246,0.235,0.503,0.456,0.745,0.697c14.543,14.543,18.349,37.855,18.535,57.459  c-0.013,1.166-0.014,2.318-0.005,3.455c-0.051,4.489-0.278,8.729-0.59,12.566l-39.101-39.102c-3.905-3.903-10.237-3.903-14.142,0  c-3.905,3.905-3.905,10.237-0.001,14.143l39.127,39.127c-21.125,1.742-54.613,0.926-73.505-17.965h0.001  C131.996,419.23,136.294,373.335,138.846,356.385z M351.769,442.56c-18.824,18.824-52.332,19.661-73.48,17.94l39.103-39.103  c3.905-3.905,3.905-10.237,0-14.143c-3.906-3.904-10.236-3.904-14.143,0l-39.127,39.127c-0.28-3.396-0.491-7.112-0.574-11.035  v-0.665c0.02-1.525,0.02-3.079,0-4.656v-1.69c0.417-19.149,4.445-41.365,18.539-55.459c23.33-23.331,69.229-19.031,86.175-16.48  C370.837,373.344,375.171,419.156,351.769,442.56z M263.547,362.286v-83.534c0-5.523-4.478-10-10-10c-5.523,0-10,4.477-10,10v83.576  c-19.571-16.269-47.22-44.788-47.245-76.036c-0.031-38.676,42.049-72.907,57.247-84.006c15.215,11.1,57.328,45.326,57.242,83.991  C310.722,317.447,283.087,345.996,263.547,362.286z M424.395,296.996v165.339c0,16.357-13.308,29.665-29.665,29.665H263.547v-13.017  c6.824,1.008,17.063,2.134,28.794,2.134c23.844,0,53.812-4.656,73.57-24.414c36.561-36.563,21.408-108.059,20.745-111.085  c-0.836-3.813-3.814-6.792-7.628-7.628c-1.98-0.433-33.274-7.069-64.916-1.365c9.735-14.923,16.638-31.961,16.678-50.302  c0.129-57.954-68.918-102.77-71.857-104.648c-3.287-2.102-7.494-2.101-10.778,0.003c-2.936,1.879-71.9,46.69-71.853,104.631  c0.015,18.358,6.886,35.391,16.597,50.303c-31.614-5.679-62.855,0.945-64.834,1.379c-3.813,0.836-6.792,3.814-7.627,7.628  c-0.663,3.025-15.818,74.522,20.745,111.085l0,0c19.761,19.761,49.725,24.414,73.57,24.414c11.729,0,21.969-1.126,28.794-2.134V492  H117.268c-16.357,0-29.665-13.308-29.665-29.665V124.339c0-10.08,8.201-18.281,18.281-18.281h44.556h72.453h8.363h29.374  L424.395,296.996z"/>
<g>
</g>
<g>
</g>
<g>
</g>
<g>
</g>
<g>
</g>
<g>
</g>
<g>
</g>
<g>
</g>
<g>
</g>
<g>
</g>
<g>
</g>
<g>
</g>
<g>
</g>
<g>
</g>
<g>
</g>
</svg>
