<?xml version="1.0" encoding="iso-8859-1"?>
<!-- Generator: Adobe Illustrator 19.0.0, SVG Export Plug-In . SVG Version: 6.00 Build 0)  -->
<svg xmlns="http://www.w3.org/2000/svg" xmlns:xlink="http://www.w3.org/1999/xlink" version="1.1" id="Capa_1" x="0px" y="0px" viewBox="0 0 512.001 512.001" style="enable-background:new 0 0 512.001 512.001;" xml:space="preserve">
<rect x="431.428" y="181.466" style="fill:#007177;" width="70.592" height="149.069"/>
<polygon style="fill:#54E3EA;" points="273.342,383.112 431.428,383.112 431.428,383.112 431.428,128.888 273.342,128.888 "/>
<path d="M381.256,354.508c-0.649,0-1.307-0.07-1.946-0.2c-0.639-0.13-1.267-0.319-1.866-0.569c-0.609-0.25-1.188-0.559-1.727-0.918  c-0.549-0.359-1.058-0.779-1.517-1.238c-0.459-0.459-0.878-0.968-1.238-1.517c-0.359-0.539-0.669-1.118-0.918-1.727  c-0.25-0.599-0.449-1.228-0.569-1.866c-0.13-0.639-0.2-1.297-0.2-1.946c0-0.649,0.07-1.307,0.2-1.956  c0.12-0.629,0.319-1.258,0.569-1.866c0.25-0.599,0.559-1.178,0.918-1.717c0.359-0.549,0.778-1.058,1.238-1.517  c0.459-0.459,0.968-0.878,1.517-1.248c0.539-0.359,1.118-0.669,1.727-0.918c0.599-0.25,1.228-0.439,1.866-0.569  c3.244-0.649,6.687,0.42,9.002,2.735c1.856,1.856,2.924,4.421,2.924,7.056c0,0.649-0.07,1.307-0.2,1.946  c-0.12,0.639-0.319,1.268-0.569,1.866c-0.25,0.609-0.559,1.188-0.918,1.727c-0.359,0.549-0.778,1.058-1.238,1.517  C386.456,353.44,383.881,354.508,381.256,354.508z"/>
<path d="M329.357,177.453c-0.649,0-1.307-0.06-1.946-0.19c-0.639-0.13-1.268-0.319-1.866-0.569c-0.609-0.25-1.188-0.559-1.727-0.918  c-0.549-0.369-1.058-0.788-1.517-1.248c-0.459-0.459-0.878-0.968-1.238-1.517c-0.359-0.538-0.669-1.118-0.918-1.717  c-0.25-0.609-0.449-1.238-0.569-1.866c-0.13-0.649-0.2-1.307-0.2-1.956s0.07-1.307,0.2-1.946c0.12-0.639,0.319-1.268,0.569-1.866  c0.25-0.609,0.559-1.188,0.918-1.727c0.359-0.549,0.778-1.058,1.238-1.517s0.968-0.878,1.517-1.238  c0.539-0.359,1.118-0.669,1.727-0.918c0.599-0.25,1.228-0.439,1.866-0.569c1.288-0.259,2.605-0.259,3.892,0  c0.639,0.13,1.268,0.319,1.866,0.569c0.609,0.25,1.188,0.559,1.727,0.918c0.549,0.359,1.058,0.778,1.517,1.238  c1.856,1.856,2.924,4.431,2.924,7.056c0,0.649-0.07,1.307-0.2,1.956c-0.12,0.629-0.319,1.258-0.569,1.866  c-0.25,0.599-0.559,1.178-0.918,1.717c-0.359,0.549-0.779,1.058-1.238,1.517c-0.459,0.459-0.968,0.878-1.517,1.248  c-0.539,0.359-1.118,0.669-1.727,0.918c-0.599,0.25-1.228,0.439-1.866,0.569C330.665,177.394,330.006,177.453,329.357,177.453z"/>
<polygon style="fill:#F9D973;" points="271.051,258.934 188.4,258.934 187.873,60.75 10.979,258.934 112.973,258.938   113.406,451.251 "/>
<g>
	<polygon style="fill:#007177;" points="127.054,128.888 9.981,128.888 10.979,158.83 10.979,258.934  "/>
	<polygon style="fill:#007177;" points="188.053,128.888 188.4,258.934 271.051,258.934 169.26,383.112 273.342,383.112    273.342,128.888  "/>
	<polygon style="fill:#007177;" points="113.252,383.112 112.973,258.938 10.979,258.934 10.979,383.112  "/>
</g>
<path d="M502.02,171.487h-60.612v-42.599c0-5.512-4.468-9.981-9.98-9.981H273.342h-75.334l-0.155-58.184  c-0.011-4.136-2.571-7.836-6.436-9.304c-3.865-1.469-8.236-0.401-10.99,2.684l-57.842,64.804H9.981  c-2.705,0-5.294,1.098-7.174,3.042c-1.88,1.944-2.891,4.568-2.802,7.271l0.993,29.776v99.938v124.177c0,5.512,4.468,9.98,9.981,9.98  h92.315l0.131,58.18c0.009,4.213,2.663,7.966,6.632,9.38c1.096,0.391,2.227,0.58,3.347,0.58c2.933,0,5.788-1.295,7.721-3.654  l52.86-64.485h99.357h158.086c5.512,0,9.98-4.468,9.98-9.98v-42.599h60.612c5.512,0,9.981-4.468,9.981-9.98V181.468  C512.001,175.955,507.532,171.487,502.02,171.487z M198.061,138.869h65.299v110.085h-65.007L198.061,138.869z M104.768,138.869  l-80.836,90.566l-2.972,3.329V158.83c0-0.111-0.002-0.222-0.005-0.332L20.3,138.869L104.768,138.869L104.768,138.869z   M20.96,373.131V268.916l82.056,0.003l0.235,104.213H20.96V373.131z M123.233,383.09L123.233,383.09l-0.279-124.173  c-0.012-5.503-4.477-9.959-9.981-9.959l-79.709-0.003l9.259-10.373l91.976-103.047c0.001-0.001,0.001-0.002,0.002-0.003  l43.459-48.69l0.458,172.119c0.001,0.344,0.019,0.684,0.054,1.018c0.523,5.022,4.769,8.936,9.927,8.936h61.566L123.324,423.408  L123.233,383.09z M261.71,286.073l1.651-2.013v89.072h-73.014L261.71,286.073z M421.447,373.131h-82.11V202.436  c0-5.512-4.468-9.981-9.981-9.981c-5.512,0-9.98,4.468-9.98,9.981v170.696h-36.056V138.869h87.954v170.696  c0,5.512,4.468,9.98,9.98,9.98s9.98-4.468,9.98-9.98V138.869h30.211v42.599v149.065V373.131z M492.04,320.552h-50.631V191.448  h50.631V320.552z"/>
<g>
</g>
<g>
</g>
<g>
</g>
<g>
</g>
<g>
</g>
<g>
</g>
<g>
</g>
<g>
</g>
<g>
</g>
<g>
</g>
<g>
</g>
<g>
</g>
<g>
</g>
<g>
</g>
<g>
</g>
</svg>
